G04 #@! TF.GenerationSoftware,KiCad,Pcbnew,(5.0.2)-1*
G04 #@! TF.CreationDate,2019-04-13T17:16:35-07:00*
G04 #@! TF.ProjectId,Celestine,43656c65-7374-4696-9e65-2e6b69636164,rev?*
G04 #@! TF.SameCoordinates,Original*
G04 #@! TF.FileFunction,Profile,NP*
%FSLAX46Y46*%
G04 Gerber Fmt 4.6, Leading zero omitted, Abs format (unit mm)*
G04 Created by KiCad (PCBNEW (5.0.2)-1) date 4/13/2019 5:16:35 PM*
%MOMM*%
%LPD*%
G01*
G04 APERTURE LIST*
%ADD10C,0.150000*%
G04 APERTURE END LIST*
D10*
X315912500Y-396875D02*
G75*
G02X315118750Y396875I0J793750D01*
G01*
X314325000Y1190625D02*
G75*
G02X315118750Y396875I0J-793750D01*
G01*
X305196875Y396875D02*
G75*
G02X304403125Y-396875I-793750J0D01*
G01*
X305196875Y396875D02*
G75*
G02X305990625Y1190625I793750J0D01*
G01*
X304403125Y-396875D02*
X26590625Y-396875D01*
X365521875Y-396875D02*
X315912500Y-396875D01*
X367903125Y-113109375D02*
X367903125Y-2778125D01*
X26590625Y-115490625D02*
X365521875Y-115490625D01*
X24209375Y-2778125D02*
X24209375Y-113109375D01*
X24209375Y-2778125D02*
G75*
G02X26590625Y-396875I2381250J0D01*
G01*
X26590625Y-115490625D02*
G75*
G02X24209375Y-113109375I0J2381250D01*
G01*
X367903125Y-113109375D02*
G75*
G02X365521875Y-115490625I-2381250J0D01*
G01*
X365521875Y-396875D02*
G75*
G02X367903125Y-2778125I0J-2381250D01*
G01*
X305990625Y1190625D02*
X314325000Y1190625D01*
X51593750Y-42068750D02*
X278606250Y-42068750D01*
X278606250Y-40481250D02*
X51593750Y-40481250D01*
X278606250Y-40481250D02*
G75*
G02X278606250Y-42068750I0J-793750D01*
G01*
X51593750Y-42068750D02*
G75*
G02X51593750Y-40481250I0J793750D01*
G01*
X56356250Y-80168750D02*
X264318750Y-80168750D01*
X264318750Y-78581250D02*
X56356250Y-78581250D01*
X264318750Y-78581250D02*
G75*
G02X264318750Y-80168750I0J-793750D01*
G01*
X56356250Y-80168750D02*
G75*
G02X56356250Y-78581250I0J793750D01*
G01*
M02*
