G04 #@! TF.GenerationSoftware,KiCad,Pcbnew,(5.0.2)-1*
G04 #@! TF.CreationDate,2019-04-13T17:16:35-07:00*
G04 #@! TF.ProjectId,Celestine,43656c65-7374-4696-9e65-2e6b69636164,rev?*
G04 #@! TF.SameCoordinates,Original*
G04 #@! TF.FileFunction,Soldermask,Top*
G04 #@! TF.FilePolarity,Negative*
%FSLAX46Y46*%
G04 Gerber Fmt 4.6, Leading zero omitted, Abs format (unit mm)*
G04 Created by KiCad (PCBNEW (5.0.2)-1) date 4/13/2019 5:16:35 PM*
%MOMM*%
%LPD*%
G01*
G04 APERTURE LIST*
%ADD10C,0.200000*%
%ADD11C,0.010000*%
%ADD12C,0.100000*%
G04 APERTURE END LIST*
D10*
X332562500Y-74497321D02*
X332562500Y-72997321D01*
X332562500Y-73711607D02*
X333419642Y-73711607D01*
X333419642Y-74497321D02*
X333419642Y-72997321D01*
X334133928Y-74497321D02*
X334133928Y-73497321D01*
X334133928Y-72997321D02*
X334062500Y-73068750D01*
X334133928Y-73140178D01*
X334205357Y-73068750D01*
X334133928Y-72997321D01*
X334133928Y-73140178D01*
X334848214Y-73925892D02*
X335991071Y-73925892D01*
X336491071Y-72997321D02*
X337348214Y-72997321D01*
X336919642Y-74497321D02*
X336919642Y-72997321D01*
X338419642Y-74425892D02*
X338276785Y-74497321D01*
X337991071Y-74497321D01*
X337848214Y-74425892D01*
X337776785Y-74283035D01*
X337776785Y-73711607D01*
X337848214Y-73568750D01*
X337991071Y-73497321D01*
X338276785Y-73497321D01*
X338419642Y-73568750D01*
X338491071Y-73711607D01*
X338491071Y-73854464D01*
X337776785Y-73997321D01*
X339133928Y-74497321D02*
X339133928Y-72997321D01*
X339276785Y-73925892D02*
X339705357Y-74497321D01*
X339705357Y-73497321D02*
X339133928Y-74068750D01*
X341348214Y-72997321D02*
X342348214Y-72997321D01*
X341705357Y-74497321D01*
X342848214Y-73140178D02*
X342919642Y-73068750D01*
X343062500Y-72997321D01*
X343419642Y-72997321D01*
X343562500Y-73068750D01*
X343633928Y-73140178D01*
X343705357Y-73283035D01*
X343705357Y-73425892D01*
X343633928Y-73640178D01*
X342776785Y-74497321D01*
X343705357Y-74497321D01*
X345062500Y-72997321D02*
X344348214Y-72997321D01*
X344276785Y-73711607D01*
X344348214Y-73640178D01*
X344491071Y-73568750D01*
X344848214Y-73568750D01*
X344991071Y-73640178D01*
X345062500Y-73711607D01*
X345133928Y-73854464D01*
X345133928Y-74211607D01*
X345062500Y-74354464D01*
X344991071Y-74425892D01*
X344848214Y-74497321D01*
X344491071Y-74497321D01*
X344348214Y-74425892D01*
X344276785Y-74354464D01*
X346705357Y-72997321D02*
X347562500Y-72997321D01*
X347133928Y-74497321D02*
X347133928Y-72997321D01*
X348062500Y-74497321D02*
X348062500Y-72997321D01*
X348919642Y-74497321D02*
X348276785Y-73640178D01*
X348919642Y-72997321D02*
X348062500Y-73854464D01*
X350276785Y-74497321D02*
X349562500Y-74497321D01*
X349562500Y-72997321D01*
D11*
G04 #@! TO.C,G\002A\002A\002A*
G36*
X358738629Y-65030429D02*
X358986015Y-65030762D01*
X359190957Y-65031489D01*
X359357629Y-65032754D01*
X359490210Y-65034698D01*
X359592877Y-65037462D01*
X359669806Y-65041189D01*
X359725175Y-65046020D01*
X359763161Y-65052097D01*
X359787942Y-65059563D01*
X359803693Y-65068558D01*
X359812463Y-65076800D01*
X359848974Y-65149103D01*
X359846925Y-65228532D01*
X359808049Y-65293113D01*
X359793530Y-65302799D01*
X359770376Y-65310889D01*
X359734284Y-65317523D01*
X359680950Y-65322843D01*
X359606069Y-65326989D01*
X359505336Y-65330104D01*
X359374448Y-65332328D01*
X359209099Y-65333803D01*
X359004985Y-65334670D01*
X358757802Y-65335070D01*
X358527427Y-65335150D01*
X358280782Y-65335459D01*
X358048934Y-65336346D01*
X357836976Y-65337749D01*
X357650001Y-65339606D01*
X357493101Y-65341856D01*
X357371368Y-65344438D01*
X357289895Y-65347289D01*
X357253774Y-65350347D01*
X357253077Y-65350567D01*
X357242684Y-65359028D01*
X357234228Y-65378789D01*
X357227514Y-65414575D01*
X357222348Y-65471109D01*
X357218535Y-65553116D01*
X357215881Y-65665319D01*
X357214190Y-65812441D01*
X357213268Y-65999207D01*
X357212921Y-66230340D01*
X357212900Y-66325750D01*
X357213087Y-66574088D01*
X357213778Y-66776351D01*
X357215168Y-66937262D01*
X357217452Y-67061546D01*
X357220824Y-67153925D01*
X357225478Y-67219125D01*
X357231610Y-67261868D01*
X357239413Y-67286878D01*
X357249083Y-67298879D01*
X357253077Y-67300932D01*
X357286060Y-67304091D01*
X357364587Y-67307033D01*
X357483401Y-67309690D01*
X357637249Y-67311994D01*
X357820873Y-67313878D01*
X358029017Y-67315275D01*
X358256426Y-67316119D01*
X358457763Y-67316350D01*
X358741129Y-67316363D01*
X358977880Y-67316735D01*
X359172197Y-67317964D01*
X359328265Y-67320545D01*
X359450267Y-67324978D01*
X359542387Y-67331758D01*
X359608807Y-67341383D01*
X359653712Y-67354350D01*
X359681285Y-67371158D01*
X359695709Y-67392302D01*
X359701168Y-67418280D01*
X359701845Y-67449590D01*
X359701711Y-67464214D01*
X359701935Y-67496755D01*
X359700244Y-67524002D01*
X359692488Y-67546470D01*
X359674513Y-67564677D01*
X359642170Y-67579138D01*
X359591306Y-67590369D01*
X359517770Y-67598886D01*
X359417410Y-67605205D01*
X359286076Y-67609844D01*
X359119616Y-67613316D01*
X358913877Y-67616140D01*
X358664710Y-67618831D01*
X358439389Y-67621150D01*
X357225600Y-67633850D01*
X357212402Y-70034150D01*
X358442897Y-70034150D01*
X358739958Y-70034376D01*
X358990373Y-70035222D01*
X359198295Y-70036939D01*
X359367879Y-70039778D01*
X359503277Y-70043990D01*
X359608642Y-70049826D01*
X359688128Y-70057538D01*
X359745888Y-70067376D01*
X359786075Y-70079591D01*
X359812843Y-70094435D01*
X359830344Y-70112159D01*
X359834544Y-70118289D01*
X359853698Y-70188048D01*
X359842301Y-70266544D01*
X359808049Y-70322313D01*
X359793918Y-70331744D01*
X359771352Y-70339655D01*
X359736174Y-70346173D01*
X359684205Y-70351425D01*
X359611268Y-70355538D01*
X359513183Y-70358638D01*
X359385772Y-70360852D01*
X359224857Y-70362307D01*
X359026260Y-70363130D01*
X358785802Y-70363448D01*
X358499305Y-70363387D01*
X358455499Y-70363355D01*
X358148982Y-70362859D01*
X357889541Y-70361813D01*
X357673453Y-70360123D01*
X357496995Y-70357695D01*
X357356446Y-70354438D01*
X357248083Y-70350256D01*
X357168184Y-70345057D01*
X357113026Y-70338746D01*
X357078886Y-70331232D01*
X357071940Y-70328622D01*
X356980620Y-70268055D01*
X356902175Y-70179518D01*
X356852008Y-70081722D01*
X356844606Y-70052452D01*
X356842539Y-70015523D01*
X356840716Y-69931504D01*
X356839147Y-69804103D01*
X356837845Y-69637029D01*
X356836820Y-69433990D01*
X356836084Y-69198695D01*
X356835647Y-68934854D01*
X356835522Y-68646174D01*
X356835719Y-68336364D01*
X356836250Y-68009134D01*
X356837126Y-67668192D01*
X356837246Y-67629354D01*
X356838509Y-67231812D01*
X356839696Y-66881921D01*
X356840888Y-66576531D01*
X356842163Y-66312494D01*
X356843599Y-66086661D01*
X356845276Y-65895883D01*
X356847272Y-65737011D01*
X356849667Y-65606895D01*
X356852540Y-65502387D01*
X356855969Y-65420339D01*
X356860033Y-65357600D01*
X356864812Y-65311022D01*
X356870384Y-65277456D01*
X356876828Y-65253752D01*
X356884223Y-65236763D01*
X356892648Y-65223339D01*
X356897735Y-65216354D01*
X356956338Y-65152320D01*
X357028037Y-65092242D01*
X357034841Y-65087500D01*
X357118812Y-65030350D01*
X358444619Y-65030350D01*
X358738629Y-65030429D01*
X358738629Y-65030429D01*
G37*
X358738629Y-65030429D02*
X358986015Y-65030762D01*
X359190957Y-65031489D01*
X359357629Y-65032754D01*
X359490210Y-65034698D01*
X359592877Y-65037462D01*
X359669806Y-65041189D01*
X359725175Y-65046020D01*
X359763161Y-65052097D01*
X359787942Y-65059563D01*
X359803693Y-65068558D01*
X359812463Y-65076800D01*
X359848974Y-65149103D01*
X359846925Y-65228532D01*
X359808049Y-65293113D01*
X359793530Y-65302799D01*
X359770376Y-65310889D01*
X359734284Y-65317523D01*
X359680950Y-65322843D01*
X359606069Y-65326989D01*
X359505336Y-65330104D01*
X359374448Y-65332328D01*
X359209099Y-65333803D01*
X359004985Y-65334670D01*
X358757802Y-65335070D01*
X358527427Y-65335150D01*
X358280782Y-65335459D01*
X358048934Y-65336346D01*
X357836976Y-65337749D01*
X357650001Y-65339606D01*
X357493101Y-65341856D01*
X357371368Y-65344438D01*
X357289895Y-65347289D01*
X357253774Y-65350347D01*
X357253077Y-65350567D01*
X357242684Y-65359028D01*
X357234228Y-65378789D01*
X357227514Y-65414575D01*
X357222348Y-65471109D01*
X357218535Y-65553116D01*
X357215881Y-65665319D01*
X357214190Y-65812441D01*
X357213268Y-65999207D01*
X357212921Y-66230340D01*
X357212900Y-66325750D01*
X357213087Y-66574088D01*
X357213778Y-66776351D01*
X357215168Y-66937262D01*
X357217452Y-67061546D01*
X357220824Y-67153925D01*
X357225478Y-67219125D01*
X357231610Y-67261868D01*
X357239413Y-67286878D01*
X357249083Y-67298879D01*
X357253077Y-67300932D01*
X357286060Y-67304091D01*
X357364587Y-67307033D01*
X357483401Y-67309690D01*
X357637249Y-67311994D01*
X357820873Y-67313878D01*
X358029017Y-67315275D01*
X358256426Y-67316119D01*
X358457763Y-67316350D01*
X358741129Y-67316363D01*
X358977880Y-67316735D01*
X359172197Y-67317964D01*
X359328265Y-67320545D01*
X359450267Y-67324978D01*
X359542387Y-67331758D01*
X359608807Y-67341383D01*
X359653712Y-67354350D01*
X359681285Y-67371158D01*
X359695709Y-67392302D01*
X359701168Y-67418280D01*
X359701845Y-67449590D01*
X359701711Y-67464214D01*
X359701935Y-67496755D01*
X359700244Y-67524002D01*
X359692488Y-67546470D01*
X359674513Y-67564677D01*
X359642170Y-67579138D01*
X359591306Y-67590369D01*
X359517770Y-67598886D01*
X359417410Y-67605205D01*
X359286076Y-67609844D01*
X359119616Y-67613316D01*
X358913877Y-67616140D01*
X358664710Y-67618831D01*
X358439389Y-67621150D01*
X357225600Y-67633850D01*
X357212402Y-70034150D01*
X358442897Y-70034150D01*
X358739958Y-70034376D01*
X358990373Y-70035222D01*
X359198295Y-70036939D01*
X359367879Y-70039778D01*
X359503277Y-70043990D01*
X359608642Y-70049826D01*
X359688128Y-70057538D01*
X359745888Y-70067376D01*
X359786075Y-70079591D01*
X359812843Y-70094435D01*
X359830344Y-70112159D01*
X359834544Y-70118289D01*
X359853698Y-70188048D01*
X359842301Y-70266544D01*
X359808049Y-70322313D01*
X359793918Y-70331744D01*
X359771352Y-70339655D01*
X359736174Y-70346173D01*
X359684205Y-70351425D01*
X359611268Y-70355538D01*
X359513183Y-70358638D01*
X359385772Y-70360852D01*
X359224857Y-70362307D01*
X359026260Y-70363130D01*
X358785802Y-70363448D01*
X358499305Y-70363387D01*
X358455499Y-70363355D01*
X358148982Y-70362859D01*
X357889541Y-70361813D01*
X357673453Y-70360123D01*
X357496995Y-70357695D01*
X357356446Y-70354438D01*
X357248083Y-70350256D01*
X357168184Y-70345057D01*
X357113026Y-70338746D01*
X357078886Y-70331232D01*
X357071940Y-70328622D01*
X356980620Y-70268055D01*
X356902175Y-70179518D01*
X356852008Y-70081722D01*
X356844606Y-70052452D01*
X356842539Y-70015523D01*
X356840716Y-69931504D01*
X356839147Y-69804103D01*
X356837845Y-69637029D01*
X356836820Y-69433990D01*
X356836084Y-69198695D01*
X356835647Y-68934854D01*
X356835522Y-68646174D01*
X356835719Y-68336364D01*
X356836250Y-68009134D01*
X356837126Y-67668192D01*
X356837246Y-67629354D01*
X356838509Y-67231812D01*
X356839696Y-66881921D01*
X356840888Y-66576531D01*
X356842163Y-66312494D01*
X356843599Y-66086661D01*
X356845276Y-65895883D01*
X356847272Y-65737011D01*
X356849667Y-65606895D01*
X356852540Y-65502387D01*
X356855969Y-65420339D01*
X356860033Y-65357600D01*
X356864812Y-65311022D01*
X356870384Y-65277456D01*
X356876828Y-65253752D01*
X356884223Y-65236763D01*
X356892648Y-65223339D01*
X356897735Y-65216354D01*
X356956338Y-65152320D01*
X357028037Y-65092242D01*
X357034841Y-65087500D01*
X357118812Y-65030350D01*
X358444619Y-65030350D01*
X358738629Y-65030429D01*
G36*
X352046557Y-65051926D02*
X352137977Y-65103495D01*
X352158181Y-65122098D01*
X352181307Y-65153113D01*
X352229843Y-65224099D01*
X352301920Y-65332176D01*
X352395667Y-65474460D01*
X352509212Y-65648072D01*
X352640684Y-65850129D01*
X352788214Y-66077751D01*
X352949930Y-66328056D01*
X353123960Y-66598162D01*
X353308435Y-66885189D01*
X353501484Y-67186255D01*
X353701235Y-67498478D01*
X353705222Y-67504717D01*
X355180900Y-69813984D01*
X355180900Y-67477756D01*
X355180916Y-67080649D01*
X355181010Y-66731210D01*
X355181249Y-66426309D01*
X355181702Y-66162812D01*
X355182436Y-65937589D01*
X355183519Y-65747509D01*
X355185019Y-65589439D01*
X355187003Y-65460248D01*
X355189540Y-65356805D01*
X355192697Y-65275977D01*
X355196542Y-65214634D01*
X355201143Y-65169643D01*
X355206567Y-65137874D01*
X355212883Y-65116195D01*
X355220158Y-65101473D01*
X355228460Y-65090578D01*
X355232689Y-65085939D01*
X355301967Y-65042477D01*
X355385683Y-65030976D01*
X355463124Y-65052160D01*
X355494463Y-65076800D01*
X355501335Y-65087421D01*
X355507421Y-65105151D01*
X355512768Y-65132927D01*
X355517422Y-65173687D01*
X355521432Y-65230367D01*
X355524844Y-65305905D01*
X355527706Y-65403238D01*
X355530064Y-65525304D01*
X355531967Y-65675040D01*
X355533462Y-65855382D01*
X355534595Y-66069269D01*
X355535415Y-66319638D01*
X355535968Y-66609426D01*
X355536301Y-66941569D01*
X355536462Y-67319007D01*
X355536500Y-67688572D01*
X355536500Y-70253894D01*
X355477712Y-70309122D01*
X355393732Y-70354767D01*
X355287944Y-70360394D01*
X355170400Y-70325553D01*
X355165166Y-70323108D01*
X355151136Y-70317026D01*
X355138737Y-70311834D01*
X355126457Y-70305260D01*
X355112788Y-70295034D01*
X355096220Y-70278885D01*
X355075245Y-70254543D01*
X355048351Y-70219736D01*
X355014031Y-70172194D01*
X354970775Y-70109647D01*
X354917072Y-70029824D01*
X354851414Y-69930454D01*
X354772291Y-69809266D01*
X354678194Y-69663990D01*
X354567613Y-69492355D01*
X354439039Y-69292090D01*
X354290963Y-69060926D01*
X354121874Y-68796590D01*
X353930264Y-68496812D01*
X353714623Y-68159323D01*
X353473441Y-67781850D01*
X353413947Y-67688745D01*
X352069400Y-65584640D01*
X352056432Y-70247060D01*
X352001338Y-70305705D01*
X351925906Y-70353913D01*
X351840691Y-70359959D01*
X351762529Y-70323313D01*
X351751900Y-70313550D01*
X351743629Y-70304447D01*
X351736309Y-70292683D01*
X351729880Y-70275279D01*
X351724286Y-70249254D01*
X351719468Y-70211630D01*
X351715368Y-70159428D01*
X351711929Y-70089668D01*
X351709092Y-69999372D01*
X351706799Y-69885559D01*
X351704992Y-69745250D01*
X351703614Y-69575468D01*
X351702607Y-69373231D01*
X351701912Y-69135561D01*
X351701472Y-68859479D01*
X351701228Y-68542006D01*
X351701124Y-68180162D01*
X351701100Y-67770967D01*
X351701100Y-65140805D01*
X351763445Y-65082234D01*
X351842769Y-65039627D01*
X351942647Y-65030081D01*
X352046557Y-65051926D01*
X352046557Y-65051926D01*
G37*
X352046557Y-65051926D02*
X352137977Y-65103495D01*
X352158181Y-65122098D01*
X352181307Y-65153113D01*
X352229843Y-65224099D01*
X352301920Y-65332176D01*
X352395667Y-65474460D01*
X352509212Y-65648072D01*
X352640684Y-65850129D01*
X352788214Y-66077751D01*
X352949930Y-66328056D01*
X353123960Y-66598162D01*
X353308435Y-66885189D01*
X353501484Y-67186255D01*
X353701235Y-67498478D01*
X353705222Y-67504717D01*
X355180900Y-69813984D01*
X355180900Y-67477756D01*
X355180916Y-67080649D01*
X355181010Y-66731210D01*
X355181249Y-66426309D01*
X355181702Y-66162812D01*
X355182436Y-65937589D01*
X355183519Y-65747509D01*
X355185019Y-65589439D01*
X355187003Y-65460248D01*
X355189540Y-65356805D01*
X355192697Y-65275977D01*
X355196542Y-65214634D01*
X355201143Y-65169643D01*
X355206567Y-65137874D01*
X355212883Y-65116195D01*
X355220158Y-65101473D01*
X355228460Y-65090578D01*
X355232689Y-65085939D01*
X355301967Y-65042477D01*
X355385683Y-65030976D01*
X355463124Y-65052160D01*
X355494463Y-65076800D01*
X355501335Y-65087421D01*
X355507421Y-65105151D01*
X355512768Y-65132927D01*
X355517422Y-65173687D01*
X355521432Y-65230367D01*
X355524844Y-65305905D01*
X355527706Y-65403238D01*
X355530064Y-65525304D01*
X355531967Y-65675040D01*
X355533462Y-65855382D01*
X355534595Y-66069269D01*
X355535415Y-66319638D01*
X355535968Y-66609426D01*
X355536301Y-66941569D01*
X355536462Y-67319007D01*
X355536500Y-67688572D01*
X355536500Y-70253894D01*
X355477712Y-70309122D01*
X355393732Y-70354767D01*
X355287944Y-70360394D01*
X355170400Y-70325553D01*
X355165166Y-70323108D01*
X355151136Y-70317026D01*
X355138737Y-70311834D01*
X355126457Y-70305260D01*
X355112788Y-70295034D01*
X355096220Y-70278885D01*
X355075245Y-70254543D01*
X355048351Y-70219736D01*
X355014031Y-70172194D01*
X354970775Y-70109647D01*
X354917072Y-70029824D01*
X354851414Y-69930454D01*
X354772291Y-69809266D01*
X354678194Y-69663990D01*
X354567613Y-69492355D01*
X354439039Y-69292090D01*
X354290963Y-69060926D01*
X354121874Y-68796590D01*
X353930264Y-68496812D01*
X353714623Y-68159323D01*
X353473441Y-67781850D01*
X353413947Y-67688745D01*
X352069400Y-65584640D01*
X352056432Y-70247060D01*
X352001338Y-70305705D01*
X351925906Y-70353913D01*
X351840691Y-70359959D01*
X351762529Y-70323313D01*
X351751900Y-70313550D01*
X351743629Y-70304447D01*
X351736309Y-70292683D01*
X351729880Y-70275279D01*
X351724286Y-70249254D01*
X351719468Y-70211630D01*
X351715368Y-70159428D01*
X351711929Y-70089668D01*
X351709092Y-69999372D01*
X351706799Y-69885559D01*
X351704992Y-69745250D01*
X351703614Y-69575468D01*
X351702607Y-69373231D01*
X351701912Y-69135561D01*
X351701472Y-68859479D01*
X351701228Y-68542006D01*
X351701124Y-68180162D01*
X351701100Y-67770967D01*
X351701100Y-65140805D01*
X351763445Y-65082234D01*
X351842769Y-65039627D01*
X351942647Y-65030081D01*
X352046557Y-65051926D01*
G36*
X350068436Y-65064269D02*
X350096472Y-65089137D01*
X350151700Y-65147924D01*
X350151700Y-70259062D01*
X350084774Y-70311706D01*
X349997742Y-70354986D01*
X349907532Y-70358566D01*
X349841548Y-70329722D01*
X349800026Y-70281410D01*
X349771698Y-70227276D01*
X349767092Y-70189918D01*
X349762907Y-70106043D01*
X349759144Y-69979934D01*
X349755800Y-69815873D01*
X349752874Y-69618141D01*
X349750364Y-69391020D01*
X349748270Y-69138793D01*
X349746589Y-68865740D01*
X349745321Y-68576145D01*
X349744464Y-68274288D01*
X349744016Y-67964452D01*
X349743976Y-67650919D01*
X349744343Y-67337971D01*
X349745116Y-67029889D01*
X349746292Y-66730955D01*
X349747871Y-66445452D01*
X349749850Y-66177661D01*
X349752229Y-65931864D01*
X349755007Y-65712343D01*
X349758181Y-65523380D01*
X349761751Y-65369256D01*
X349765714Y-65254255D01*
X349770071Y-65182657D01*
X349773371Y-65160604D01*
X349823933Y-65081050D01*
X349899335Y-65036403D01*
X349985521Y-65029773D01*
X350068436Y-65064269D01*
X350068436Y-65064269D01*
G37*
X350068436Y-65064269D02*
X350096472Y-65089137D01*
X350151700Y-65147924D01*
X350151700Y-70259062D01*
X350084774Y-70311706D01*
X349997742Y-70354986D01*
X349907532Y-70358566D01*
X349841548Y-70329722D01*
X349800026Y-70281410D01*
X349771698Y-70227276D01*
X349767092Y-70189918D01*
X349762907Y-70106043D01*
X349759144Y-69979934D01*
X349755800Y-69815873D01*
X349752874Y-69618141D01*
X349750364Y-69391020D01*
X349748270Y-69138793D01*
X349746589Y-68865740D01*
X349745321Y-68576145D01*
X349744464Y-68274288D01*
X349744016Y-67964452D01*
X349743976Y-67650919D01*
X349744343Y-67337971D01*
X349745116Y-67029889D01*
X349746292Y-66730955D01*
X349747871Y-66445452D01*
X349749850Y-66177661D01*
X349752229Y-65931864D01*
X349755007Y-65712343D01*
X349758181Y-65523380D01*
X349761751Y-65369256D01*
X349765714Y-65254255D01*
X349770071Y-65182657D01*
X349773371Y-65160604D01*
X349823933Y-65081050D01*
X349899335Y-65036403D01*
X349985521Y-65029773D01*
X350068436Y-65064269D01*
G36*
X347135453Y-65030856D02*
X347393886Y-65031252D01*
X347612095Y-65031988D01*
X347793605Y-65033152D01*
X347941940Y-65034829D01*
X348060626Y-65037107D01*
X348153189Y-65040071D01*
X348223153Y-65043810D01*
X348274043Y-65048409D01*
X348309385Y-65053956D01*
X348332704Y-65060536D01*
X348347525Y-65068237D01*
X348357063Y-65076800D01*
X348395613Y-65152292D01*
X348388645Y-65232598D01*
X348337702Y-65303397D01*
X348332174Y-65307906D01*
X348311606Y-65322604D01*
X348287613Y-65334279D01*
X348254501Y-65343278D01*
X348206576Y-65349950D01*
X348138144Y-65354641D01*
X348043509Y-65357698D01*
X347916979Y-65359468D01*
X347752858Y-65360300D01*
X347545452Y-65360541D01*
X347469068Y-65360550D01*
X346672888Y-65360550D01*
X346666044Y-67813899D01*
X346659200Y-70267249D01*
X346599236Y-70315799D01*
X346513044Y-70358183D01*
X346424674Y-70355039D01*
X346347391Y-70306897D01*
X346346255Y-70305699D01*
X346291156Y-70247049D01*
X346284678Y-67810149D01*
X346278200Y-65373250D01*
X345465400Y-65360550D01*
X345266127Y-65356800D01*
X345082488Y-65352128D01*
X344920828Y-65346790D01*
X344787491Y-65341042D01*
X344688820Y-65335141D01*
X344631158Y-65329344D01*
X344619283Y-65326332D01*
X344571115Y-65268440D01*
X344555791Y-65190839D01*
X344572947Y-65112265D01*
X344622220Y-65051452D01*
X344624652Y-65049788D01*
X344654053Y-65046721D01*
X344730167Y-65043801D01*
X344848907Y-65041069D01*
X345006187Y-65038567D01*
X345197918Y-65036337D01*
X345420016Y-65034421D01*
X345668392Y-65032861D01*
X345938961Y-65031698D01*
X346227634Y-65030976D01*
X346483813Y-65030738D01*
X346833270Y-65030714D01*
X347135453Y-65030856D01*
X347135453Y-65030856D01*
G37*
X347135453Y-65030856D02*
X347393886Y-65031252D01*
X347612095Y-65031988D01*
X347793605Y-65033152D01*
X347941940Y-65034829D01*
X348060626Y-65037107D01*
X348153189Y-65040071D01*
X348223153Y-65043810D01*
X348274043Y-65048409D01*
X348309385Y-65053956D01*
X348332704Y-65060536D01*
X348347525Y-65068237D01*
X348357063Y-65076800D01*
X348395613Y-65152292D01*
X348388645Y-65232598D01*
X348337702Y-65303397D01*
X348332174Y-65307906D01*
X348311606Y-65322604D01*
X348287613Y-65334279D01*
X348254501Y-65343278D01*
X348206576Y-65349950D01*
X348138144Y-65354641D01*
X348043509Y-65357698D01*
X347916979Y-65359468D01*
X347752858Y-65360300D01*
X347545452Y-65360541D01*
X347469068Y-65360550D01*
X346672888Y-65360550D01*
X346666044Y-67813899D01*
X346659200Y-70267249D01*
X346599236Y-70315799D01*
X346513044Y-70358183D01*
X346424674Y-70355039D01*
X346347391Y-70306897D01*
X346346255Y-70305699D01*
X346291156Y-70247049D01*
X346284678Y-67810149D01*
X346278200Y-65373250D01*
X345465400Y-65360550D01*
X345266127Y-65356800D01*
X345082488Y-65352128D01*
X344920828Y-65346790D01*
X344787491Y-65341042D01*
X344688820Y-65335141D01*
X344631158Y-65329344D01*
X344619283Y-65326332D01*
X344571115Y-65268440D01*
X344555791Y-65190839D01*
X344572947Y-65112265D01*
X344622220Y-65051452D01*
X344624652Y-65049788D01*
X344654053Y-65046721D01*
X344730167Y-65043801D01*
X344848907Y-65041069D01*
X345006187Y-65038567D01*
X345197918Y-65036337D01*
X345420016Y-65034421D01*
X345668392Y-65032861D01*
X345938961Y-65031698D01*
X346227634Y-65030976D01*
X346483813Y-65030738D01*
X346833270Y-65030714D01*
X347135453Y-65030856D01*
G36*
X338814699Y-65030464D02*
X339027739Y-65031305D01*
X339201774Y-65033286D01*
X339340737Y-65036872D01*
X339448560Y-65042529D01*
X339529175Y-65050719D01*
X339586513Y-65061909D01*
X339624505Y-65076561D01*
X339647085Y-65095140D01*
X339658183Y-65118112D01*
X339661732Y-65145939D01*
X339661663Y-65179088D01*
X339661500Y-65196370D01*
X339647320Y-65272892D01*
X339612369Y-65308856D01*
X339573504Y-65315680D01*
X339484969Y-65321520D01*
X339347886Y-65326353D01*
X339163376Y-65330155D01*
X338932560Y-65332904D01*
X338656559Y-65334576D01*
X338336496Y-65335149D01*
X338331747Y-65335150D01*
X338085373Y-65335460D01*
X337853799Y-65336348D01*
X337642124Y-65337754D01*
X337455446Y-65339615D01*
X337298864Y-65341870D01*
X337177475Y-65344456D01*
X337096378Y-65347311D01*
X337060672Y-65350375D01*
X337060077Y-65350567D01*
X337049684Y-65359028D01*
X337041228Y-65378789D01*
X337034514Y-65414575D01*
X337029348Y-65471109D01*
X337025535Y-65553116D01*
X337022881Y-65665319D01*
X337021190Y-65812441D01*
X337020268Y-65999207D01*
X337019921Y-66230340D01*
X337019900Y-66325750D01*
X337020087Y-66574088D01*
X337020778Y-66776351D01*
X337022168Y-66937262D01*
X337024452Y-67061546D01*
X337027824Y-67153925D01*
X337032478Y-67219125D01*
X337038610Y-67261868D01*
X337046413Y-67286878D01*
X337056083Y-67298879D01*
X337060077Y-67300932D01*
X337093018Y-67304074D01*
X337171534Y-67307002D01*
X337290403Y-67309648D01*
X337444399Y-67311946D01*
X337628299Y-67313831D01*
X337836880Y-67315237D01*
X338064916Y-67316097D01*
X338277837Y-67316350D01*
X339455419Y-67316350D01*
X339494959Y-67372801D01*
X339531019Y-67453539D01*
X339517766Y-67526155D01*
X339483700Y-67570350D01*
X339470312Y-67582234D01*
X339453053Y-67592107D01*
X339427420Y-67600157D01*
X339388912Y-67606572D01*
X339333027Y-67611540D01*
X339255262Y-67615249D01*
X339151117Y-67617887D01*
X339016089Y-67619642D01*
X338845676Y-67620702D01*
X338635376Y-67621255D01*
X338380688Y-67621489D01*
X338258150Y-67621538D01*
X338017946Y-67622045D01*
X337792890Y-67623343D01*
X337588167Y-67625344D01*
X337408959Y-67627957D01*
X337260451Y-67631096D01*
X337147825Y-67634669D01*
X337076265Y-67638590D01*
X337051393Y-67642246D01*
X337043644Y-67657386D01*
X337037313Y-67694470D01*
X337032322Y-67757153D01*
X337028594Y-67849091D01*
X337026051Y-67973937D01*
X337024615Y-68135346D01*
X337024211Y-68336974D01*
X337024759Y-68582474D01*
X337025993Y-68842007D01*
X337032600Y-70021450D01*
X338308063Y-70034150D01*
X338597865Y-70037166D01*
X338841071Y-70040068D01*
X339041883Y-70043031D01*
X339204505Y-70046230D01*
X339333139Y-70049840D01*
X339431989Y-70054036D01*
X339505257Y-70058994D01*
X339557146Y-70064887D01*
X339591859Y-70071892D01*
X339613599Y-70080184D01*
X339625688Y-70089032D01*
X339661946Y-70157630D01*
X339661136Y-70239474D01*
X339623544Y-70313381D01*
X339622638Y-70314391D01*
X339611081Y-70325507D01*
X339595420Y-70334839D01*
X339571431Y-70342543D01*
X339534889Y-70348774D01*
X339481569Y-70353689D01*
X339407247Y-70357441D01*
X339307698Y-70360187D01*
X339178697Y-70362081D01*
X339016019Y-70363280D01*
X338815441Y-70363938D01*
X338572737Y-70364212D01*
X338283682Y-70364256D01*
X338266913Y-70364255D01*
X337974295Y-70364146D01*
X337728157Y-70363769D01*
X337524176Y-70362976D01*
X337358032Y-70361620D01*
X337225404Y-70359555D01*
X337121970Y-70356632D01*
X337043410Y-70352706D01*
X336985403Y-70347629D01*
X336943627Y-70341253D01*
X336913762Y-70333433D01*
X336891487Y-70324020D01*
X336879117Y-70317031D01*
X336766465Y-70225158D01*
X336687196Y-70112009D01*
X336651914Y-70002279D01*
X336649713Y-69961288D01*
X336647771Y-69873312D01*
X336646103Y-69742163D01*
X336644719Y-69571654D01*
X336643632Y-69365600D01*
X336642856Y-69127812D01*
X336642402Y-68862105D01*
X336642284Y-68572293D01*
X336642513Y-68262187D01*
X336643103Y-67935602D01*
X336644025Y-67608450D01*
X336645275Y-67206414D01*
X336646356Y-66852030D01*
X336647507Y-66542149D01*
X336648968Y-66273624D01*
X336650980Y-66043308D01*
X336653781Y-65848053D01*
X336657612Y-65684711D01*
X336662713Y-65550135D01*
X336669324Y-65441178D01*
X336677683Y-65354693D01*
X336688032Y-65287531D01*
X336700610Y-65236545D01*
X336715656Y-65198588D01*
X336733411Y-65170512D01*
X336754114Y-65149170D01*
X336778005Y-65131415D01*
X336805325Y-65114099D01*
X336835571Y-65094578D01*
X336930092Y-65030349D01*
X338255881Y-65030349D01*
X338558724Y-65030301D01*
X338814699Y-65030464D01*
X338814699Y-65030464D01*
G37*
X338814699Y-65030464D02*
X339027739Y-65031305D01*
X339201774Y-65033286D01*
X339340737Y-65036872D01*
X339448560Y-65042529D01*
X339529175Y-65050719D01*
X339586513Y-65061909D01*
X339624505Y-65076561D01*
X339647085Y-65095140D01*
X339658183Y-65118112D01*
X339661732Y-65145939D01*
X339661663Y-65179088D01*
X339661500Y-65196370D01*
X339647320Y-65272892D01*
X339612369Y-65308856D01*
X339573504Y-65315680D01*
X339484969Y-65321520D01*
X339347886Y-65326353D01*
X339163376Y-65330155D01*
X338932560Y-65332904D01*
X338656559Y-65334576D01*
X338336496Y-65335149D01*
X338331747Y-65335150D01*
X338085373Y-65335460D01*
X337853799Y-65336348D01*
X337642124Y-65337754D01*
X337455446Y-65339615D01*
X337298864Y-65341870D01*
X337177475Y-65344456D01*
X337096378Y-65347311D01*
X337060672Y-65350375D01*
X337060077Y-65350567D01*
X337049684Y-65359028D01*
X337041228Y-65378789D01*
X337034514Y-65414575D01*
X337029348Y-65471109D01*
X337025535Y-65553116D01*
X337022881Y-65665319D01*
X337021190Y-65812441D01*
X337020268Y-65999207D01*
X337019921Y-66230340D01*
X337019900Y-66325750D01*
X337020087Y-66574088D01*
X337020778Y-66776351D01*
X337022168Y-66937262D01*
X337024452Y-67061546D01*
X337027824Y-67153925D01*
X337032478Y-67219125D01*
X337038610Y-67261868D01*
X337046413Y-67286878D01*
X337056083Y-67298879D01*
X337060077Y-67300932D01*
X337093018Y-67304074D01*
X337171534Y-67307002D01*
X337290403Y-67309648D01*
X337444399Y-67311946D01*
X337628299Y-67313831D01*
X337836880Y-67315237D01*
X338064916Y-67316097D01*
X338277837Y-67316350D01*
X339455419Y-67316350D01*
X339494959Y-67372801D01*
X339531019Y-67453539D01*
X339517766Y-67526155D01*
X339483700Y-67570350D01*
X339470312Y-67582234D01*
X339453053Y-67592107D01*
X339427420Y-67600157D01*
X339388912Y-67606572D01*
X339333027Y-67611540D01*
X339255262Y-67615249D01*
X339151117Y-67617887D01*
X339016089Y-67619642D01*
X338845676Y-67620702D01*
X338635376Y-67621255D01*
X338380688Y-67621489D01*
X338258150Y-67621538D01*
X338017946Y-67622045D01*
X337792890Y-67623343D01*
X337588167Y-67625344D01*
X337408959Y-67627957D01*
X337260451Y-67631096D01*
X337147825Y-67634669D01*
X337076265Y-67638590D01*
X337051393Y-67642246D01*
X337043644Y-67657386D01*
X337037313Y-67694470D01*
X337032322Y-67757153D01*
X337028594Y-67849091D01*
X337026051Y-67973937D01*
X337024615Y-68135346D01*
X337024211Y-68336974D01*
X337024759Y-68582474D01*
X337025993Y-68842007D01*
X337032600Y-70021450D01*
X338308063Y-70034150D01*
X338597865Y-70037166D01*
X338841071Y-70040068D01*
X339041883Y-70043031D01*
X339204505Y-70046230D01*
X339333139Y-70049840D01*
X339431989Y-70054036D01*
X339505257Y-70058994D01*
X339557146Y-70064887D01*
X339591859Y-70071892D01*
X339613599Y-70080184D01*
X339625688Y-70089032D01*
X339661946Y-70157630D01*
X339661136Y-70239474D01*
X339623544Y-70313381D01*
X339622638Y-70314391D01*
X339611081Y-70325507D01*
X339595420Y-70334839D01*
X339571431Y-70342543D01*
X339534889Y-70348774D01*
X339481569Y-70353689D01*
X339407247Y-70357441D01*
X339307698Y-70360187D01*
X339178697Y-70362081D01*
X339016019Y-70363280D01*
X338815441Y-70363938D01*
X338572737Y-70364212D01*
X338283682Y-70364256D01*
X338266913Y-70364255D01*
X337974295Y-70364146D01*
X337728157Y-70363769D01*
X337524176Y-70362976D01*
X337358032Y-70361620D01*
X337225404Y-70359555D01*
X337121970Y-70356632D01*
X337043410Y-70352706D01*
X336985403Y-70347629D01*
X336943627Y-70341253D01*
X336913762Y-70333433D01*
X336891487Y-70324020D01*
X336879117Y-70317031D01*
X336766465Y-70225158D01*
X336687196Y-70112009D01*
X336651914Y-70002279D01*
X336649713Y-69961288D01*
X336647771Y-69873312D01*
X336646103Y-69742163D01*
X336644719Y-69571654D01*
X336643632Y-69365600D01*
X336642856Y-69127812D01*
X336642402Y-68862105D01*
X336642284Y-68572293D01*
X336642513Y-68262187D01*
X336643103Y-67935602D01*
X336644025Y-67608450D01*
X336645275Y-67206414D01*
X336646356Y-66852030D01*
X336647507Y-66542149D01*
X336648968Y-66273624D01*
X336650980Y-66043308D01*
X336653781Y-65848053D01*
X336657612Y-65684711D01*
X336662713Y-65550135D01*
X336669324Y-65441178D01*
X336677683Y-65354693D01*
X336688032Y-65287531D01*
X336700610Y-65236545D01*
X336715656Y-65198588D01*
X336733411Y-65170512D01*
X336754114Y-65149170D01*
X336778005Y-65131415D01*
X336805325Y-65114099D01*
X336835571Y-65094578D01*
X336930092Y-65030349D01*
X338255881Y-65030349D01*
X338558724Y-65030301D01*
X338814699Y-65030464D01*
G36*
X332700634Y-65068935D02*
X332722872Y-65089137D01*
X332778100Y-65147924D01*
X332778100Y-67550859D01*
X332778259Y-67896514D01*
X332778724Y-68228116D01*
X332779470Y-68542091D01*
X332780476Y-68834863D01*
X332781719Y-69102859D01*
X332783176Y-69342503D01*
X332784825Y-69550222D01*
X332786644Y-69722440D01*
X332788608Y-69855583D01*
X332790698Y-69946077D01*
X332792888Y-69990346D01*
X332793517Y-69993972D01*
X332801054Y-70002967D01*
X332818868Y-70010528D01*
X332850991Y-70016777D01*
X332901456Y-70021835D01*
X332974295Y-70025824D01*
X333073542Y-70028867D01*
X333203227Y-70031086D01*
X333367385Y-70032601D01*
X333570047Y-70033535D01*
X333815246Y-70034011D01*
X334107014Y-70034149D01*
X334122589Y-70034150D01*
X335436244Y-70034150D01*
X335491472Y-70092937D01*
X335539025Y-70171683D01*
X335537214Y-70250312D01*
X335495900Y-70313550D01*
X335483487Y-70324639D01*
X335467505Y-70333983D01*
X335443802Y-70341728D01*
X335408226Y-70348023D01*
X335356626Y-70353014D01*
X335284852Y-70356849D01*
X335188751Y-70359675D01*
X335064173Y-70361638D01*
X334906966Y-70362887D01*
X334712980Y-70363568D01*
X334478062Y-70363829D01*
X334198061Y-70363816D01*
X334079850Y-70363771D01*
X333777941Y-70363510D01*
X333522652Y-70362924D01*
X333309799Y-70361891D01*
X333135202Y-70360288D01*
X332994681Y-70357996D01*
X332884053Y-70354891D01*
X332799138Y-70350854D01*
X332735753Y-70345761D01*
X332689719Y-70339492D01*
X332656855Y-70331925D01*
X332632977Y-70322938D01*
X332630262Y-70321633D01*
X332559444Y-70273430D01*
X332490635Y-70206590D01*
X332477862Y-70190845D01*
X332409800Y-70101618D01*
X332403078Y-67625166D01*
X332396356Y-65148715D01*
X332451955Y-65089532D01*
X332529592Y-65039823D01*
X332617948Y-65032950D01*
X332700634Y-65068935D01*
X332700634Y-65068935D01*
G37*
X332700634Y-65068935D02*
X332722872Y-65089137D01*
X332778100Y-65147924D01*
X332778100Y-67550859D01*
X332778259Y-67896514D01*
X332778724Y-68228116D01*
X332779470Y-68542091D01*
X332780476Y-68834863D01*
X332781719Y-69102859D01*
X332783176Y-69342503D01*
X332784825Y-69550222D01*
X332786644Y-69722440D01*
X332788608Y-69855583D01*
X332790698Y-69946077D01*
X332792888Y-69990346D01*
X332793517Y-69993972D01*
X332801054Y-70002967D01*
X332818868Y-70010528D01*
X332850991Y-70016777D01*
X332901456Y-70021835D01*
X332974295Y-70025824D01*
X333073542Y-70028867D01*
X333203227Y-70031086D01*
X333367385Y-70032601D01*
X333570047Y-70033535D01*
X333815246Y-70034011D01*
X334107014Y-70034149D01*
X334122589Y-70034150D01*
X335436244Y-70034150D01*
X335491472Y-70092937D01*
X335539025Y-70171683D01*
X335537214Y-70250312D01*
X335495900Y-70313550D01*
X335483487Y-70324639D01*
X335467505Y-70333983D01*
X335443802Y-70341728D01*
X335408226Y-70348023D01*
X335356626Y-70353014D01*
X335284852Y-70356849D01*
X335188751Y-70359675D01*
X335064173Y-70361638D01*
X334906966Y-70362887D01*
X334712980Y-70363568D01*
X334478062Y-70363829D01*
X334198061Y-70363816D01*
X334079850Y-70363771D01*
X333777941Y-70363510D01*
X333522652Y-70362924D01*
X333309799Y-70361891D01*
X333135202Y-70360288D01*
X332994681Y-70357996D01*
X332884053Y-70354891D01*
X332799138Y-70350854D01*
X332735753Y-70345761D01*
X332689719Y-70339492D01*
X332656855Y-70331925D01*
X332632977Y-70322938D01*
X332630262Y-70321633D01*
X332559444Y-70273430D01*
X332490635Y-70206590D01*
X332477862Y-70190845D01*
X332409800Y-70101618D01*
X332403078Y-67625166D01*
X332396356Y-65148715D01*
X332451955Y-65089532D01*
X332529592Y-65039823D01*
X332617948Y-65032950D01*
X332700634Y-65068935D01*
G36*
X330329236Y-65030543D02*
X330542415Y-65031423D01*
X330716593Y-65033393D01*
X330855701Y-65036879D01*
X330963672Y-65042306D01*
X331044439Y-65050101D01*
X331101935Y-65060688D01*
X331140091Y-65074494D01*
X331162842Y-65091945D01*
X331174118Y-65113465D01*
X331177853Y-65139482D01*
X331177980Y-65170420D01*
X331177900Y-65182749D01*
X331177992Y-65216523D01*
X331175563Y-65244903D01*
X331166549Y-65268357D01*
X331146888Y-65287355D01*
X331112520Y-65302366D01*
X331059382Y-65313858D01*
X330983412Y-65322299D01*
X330880548Y-65328160D01*
X330746728Y-65331908D01*
X330577890Y-65334012D01*
X330369974Y-65334942D01*
X330118915Y-65335165D01*
X329857363Y-65335150D01*
X329610057Y-65335457D01*
X329377542Y-65336340D01*
X329164897Y-65337736D01*
X328977199Y-65339584D01*
X328819526Y-65341824D01*
X328696956Y-65344394D01*
X328614567Y-65347233D01*
X328577436Y-65350281D01*
X328576477Y-65350567D01*
X328566084Y-65359028D01*
X328557628Y-65378789D01*
X328550914Y-65414575D01*
X328545748Y-65471109D01*
X328541935Y-65553116D01*
X328539281Y-65665319D01*
X328537590Y-65812441D01*
X328536668Y-65999207D01*
X328536321Y-66230340D01*
X328536300Y-66325750D01*
X328536487Y-66574088D01*
X328537178Y-66776351D01*
X328538568Y-66937262D01*
X328540852Y-67061546D01*
X328544224Y-67153925D01*
X328548878Y-67219125D01*
X328555010Y-67261868D01*
X328562813Y-67286878D01*
X328572483Y-67298879D01*
X328576477Y-67300932D01*
X328609470Y-67304095D01*
X328687999Y-67307040D01*
X328806801Y-67309699D01*
X328960613Y-67312005D01*
X329144172Y-67313889D01*
X329352214Y-67315284D01*
X329579476Y-67316124D01*
X329778122Y-67316350D01*
X330061607Y-67316607D01*
X330298329Y-67317455D01*
X330492322Y-67319011D01*
X330647623Y-67321387D01*
X330768266Y-67324701D01*
X330858285Y-67329067D01*
X330921717Y-67334600D01*
X330962595Y-67341416D01*
X330984954Y-67349629D01*
X330986778Y-67350854D01*
X331021446Y-67403027D01*
X331033782Y-67476841D01*
X331022001Y-67547477D01*
X331003081Y-67577546D01*
X330981596Y-67585347D01*
X330931694Y-67592222D01*
X330850321Y-67598278D01*
X330734422Y-67603622D01*
X330580942Y-67608362D01*
X330386827Y-67612604D01*
X330149022Y-67616455D01*
X329864472Y-67620024D01*
X329760598Y-67621150D01*
X328549000Y-67633850D01*
X328535802Y-70034150D01*
X329787001Y-70034524D01*
X330090900Y-70034929D01*
X330347438Y-70036004D01*
X330560051Y-70037832D01*
X330732175Y-70040500D01*
X330867246Y-70044090D01*
X330968699Y-70048688D01*
X331039970Y-70054379D01*
X331084495Y-70061245D01*
X331101700Y-70066853D01*
X331153604Y-70118233D01*
X331175567Y-70192898D01*
X331164747Y-70271167D01*
X331137649Y-70315925D01*
X331126081Y-70326706D01*
X331109734Y-70335757D01*
X331084392Y-70343227D01*
X331045838Y-70349267D01*
X330989854Y-70354027D01*
X330912224Y-70357657D01*
X330808731Y-70360306D01*
X330675157Y-70362126D01*
X330507287Y-70363266D01*
X330300902Y-70363875D01*
X330051786Y-70364104D01*
X329783313Y-70364109D01*
X328472800Y-70363869D01*
X328367055Y-70300485D01*
X328259515Y-70207638D01*
X328208305Y-70127606D01*
X328199272Y-70108215D01*
X328191328Y-70087568D01*
X328184403Y-70062452D01*
X328178428Y-70029656D01*
X328173332Y-69985965D01*
X328169045Y-69928168D01*
X328165498Y-69853052D01*
X328162621Y-69757403D01*
X328160343Y-69638010D01*
X328158594Y-69491659D01*
X328157305Y-69315138D01*
X328156405Y-69105234D01*
X328155825Y-68858734D01*
X328155494Y-68572425D01*
X328155343Y-68243095D01*
X328155301Y-67867532D01*
X328155300Y-67694712D01*
X328155300Y-65371313D01*
X328212450Y-65258187D01*
X328265667Y-65176787D01*
X328331611Y-65106418D01*
X328355906Y-65087705D01*
X328442212Y-65030350D01*
X329770141Y-65030349D01*
X330073122Y-65030327D01*
X330329236Y-65030543D01*
X330329236Y-65030543D01*
G37*
X330329236Y-65030543D02*
X330542415Y-65031423D01*
X330716593Y-65033393D01*
X330855701Y-65036879D01*
X330963672Y-65042306D01*
X331044439Y-65050101D01*
X331101935Y-65060688D01*
X331140091Y-65074494D01*
X331162842Y-65091945D01*
X331174118Y-65113465D01*
X331177853Y-65139482D01*
X331177980Y-65170420D01*
X331177900Y-65182749D01*
X331177992Y-65216523D01*
X331175563Y-65244903D01*
X331166549Y-65268357D01*
X331146888Y-65287355D01*
X331112520Y-65302366D01*
X331059382Y-65313858D01*
X330983412Y-65322299D01*
X330880548Y-65328160D01*
X330746728Y-65331908D01*
X330577890Y-65334012D01*
X330369974Y-65334942D01*
X330118915Y-65335165D01*
X329857363Y-65335150D01*
X329610057Y-65335457D01*
X329377542Y-65336340D01*
X329164897Y-65337736D01*
X328977199Y-65339584D01*
X328819526Y-65341824D01*
X328696956Y-65344394D01*
X328614567Y-65347233D01*
X328577436Y-65350281D01*
X328576477Y-65350567D01*
X328566084Y-65359028D01*
X328557628Y-65378789D01*
X328550914Y-65414575D01*
X328545748Y-65471109D01*
X328541935Y-65553116D01*
X328539281Y-65665319D01*
X328537590Y-65812441D01*
X328536668Y-65999207D01*
X328536321Y-66230340D01*
X328536300Y-66325750D01*
X328536487Y-66574088D01*
X328537178Y-66776351D01*
X328538568Y-66937262D01*
X328540852Y-67061546D01*
X328544224Y-67153925D01*
X328548878Y-67219125D01*
X328555010Y-67261868D01*
X328562813Y-67286878D01*
X328572483Y-67298879D01*
X328576477Y-67300932D01*
X328609470Y-67304095D01*
X328687999Y-67307040D01*
X328806801Y-67309699D01*
X328960613Y-67312005D01*
X329144172Y-67313889D01*
X329352214Y-67315284D01*
X329579476Y-67316124D01*
X329778122Y-67316350D01*
X330061607Y-67316607D01*
X330298329Y-67317455D01*
X330492322Y-67319011D01*
X330647623Y-67321387D01*
X330768266Y-67324701D01*
X330858285Y-67329067D01*
X330921717Y-67334600D01*
X330962595Y-67341416D01*
X330984954Y-67349629D01*
X330986778Y-67350854D01*
X331021446Y-67403027D01*
X331033782Y-67476841D01*
X331022001Y-67547477D01*
X331003081Y-67577546D01*
X330981596Y-67585347D01*
X330931694Y-67592222D01*
X330850321Y-67598278D01*
X330734422Y-67603622D01*
X330580942Y-67608362D01*
X330386827Y-67612604D01*
X330149022Y-67616455D01*
X329864472Y-67620024D01*
X329760598Y-67621150D01*
X328549000Y-67633850D01*
X328535802Y-70034150D01*
X329787001Y-70034524D01*
X330090900Y-70034929D01*
X330347438Y-70036004D01*
X330560051Y-70037832D01*
X330732175Y-70040500D01*
X330867246Y-70044090D01*
X330968699Y-70048688D01*
X331039970Y-70054379D01*
X331084495Y-70061245D01*
X331101700Y-70066853D01*
X331153604Y-70118233D01*
X331175567Y-70192898D01*
X331164747Y-70271167D01*
X331137649Y-70315925D01*
X331126081Y-70326706D01*
X331109734Y-70335757D01*
X331084392Y-70343227D01*
X331045838Y-70349267D01*
X330989854Y-70354027D01*
X330912224Y-70357657D01*
X330808731Y-70360306D01*
X330675157Y-70362126D01*
X330507287Y-70363266D01*
X330300902Y-70363875D01*
X330051786Y-70364104D01*
X329783313Y-70364109D01*
X328472800Y-70363869D01*
X328367055Y-70300485D01*
X328259515Y-70207638D01*
X328208305Y-70127606D01*
X328199272Y-70108215D01*
X328191328Y-70087568D01*
X328184403Y-70062452D01*
X328178428Y-70029656D01*
X328173332Y-69985965D01*
X328169045Y-69928168D01*
X328165498Y-69853052D01*
X328162621Y-69757403D01*
X328160343Y-69638010D01*
X328158594Y-69491659D01*
X328157305Y-69315138D01*
X328156405Y-69105234D01*
X328155825Y-68858734D01*
X328155494Y-68572425D01*
X328155343Y-68243095D01*
X328155301Y-67867532D01*
X328155300Y-67694712D01*
X328155300Y-65371313D01*
X328212450Y-65258187D01*
X328265667Y-65176787D01*
X328331611Y-65106418D01*
X328355906Y-65087705D01*
X328442212Y-65030350D01*
X329770141Y-65030349D01*
X330073122Y-65030327D01*
X330329236Y-65030543D01*
G36*
X342483529Y-64967796D02*
X342862868Y-65018000D01*
X343217197Y-65111024D01*
X343439737Y-65197175D01*
X343532952Y-65241627D01*
X343588065Y-65280071D01*
X343614873Y-65323421D01*
X343623175Y-65382590D01*
X343623511Y-65401889D01*
X343615626Y-65469402D01*
X343587843Y-65512350D01*
X343535146Y-65531134D01*
X343452518Y-65526160D01*
X343334942Y-65497830D01*
X343177400Y-65446548D01*
X343157066Y-65439400D01*
X342859134Y-65352533D01*
X342551593Y-65301100D01*
X342219548Y-65282688D01*
X342188800Y-65282568D01*
X341904651Y-65297955D01*
X341660074Y-65344467D01*
X341454158Y-65422541D01*
X341285988Y-65532616D01*
X341154654Y-65675130D01*
X341072792Y-65818757D01*
X341034370Y-65914652D01*
X341012880Y-66001985D01*
X341003974Y-66103355D01*
X341002863Y-66182186D01*
X341013722Y-66366002D01*
X341049839Y-66519800D01*
X341117241Y-66657710D01*
X341221953Y-66793867D01*
X341297389Y-66872885D01*
X341402553Y-66969970D01*
X341511636Y-67053764D01*
X341633355Y-67128972D01*
X341776428Y-67200302D01*
X341949571Y-67272459D01*
X342161501Y-67350152D01*
X342216985Y-67369415D01*
X342547099Y-67491729D01*
X342829768Y-67616094D01*
X343068339Y-67745336D01*
X343266162Y-67882283D01*
X343426584Y-68029762D01*
X343552954Y-68190598D01*
X343648621Y-68367619D01*
X343716932Y-68563653D01*
X343738634Y-68654046D01*
X343769797Y-68889882D01*
X343770077Y-69140126D01*
X343739498Y-69378871D01*
X343737922Y-69386450D01*
X343662339Y-69633152D01*
X343546672Y-69848957D01*
X343391903Y-70032872D01*
X343199012Y-70183905D01*
X342968980Y-70301064D01*
X342768274Y-70367275D01*
X342619836Y-70396562D01*
X342436999Y-70417455D01*
X342235551Y-70429427D01*
X342031282Y-70431950D01*
X341839980Y-70424496D01*
X341677433Y-70406539D01*
X341663560Y-70404179D01*
X341506790Y-70369882D01*
X341339285Y-70321991D01*
X341170770Y-70264419D01*
X341010974Y-70201082D01*
X340869623Y-70135894D01*
X340756447Y-70072769D01*
X340681172Y-70015622D01*
X340671150Y-70004817D01*
X340632131Y-69929037D01*
X340629938Y-69850204D01*
X340659858Y-69782034D01*
X340717179Y-69738245D01*
X340765774Y-69729350D01*
X340817835Y-69741542D01*
X340895547Y-69773380D01*
X340975265Y-69814273D01*
X341280123Y-69957714D01*
X341603712Y-70053970D01*
X341946128Y-70103066D01*
X342143279Y-70109974D01*
X342425487Y-70093338D01*
X342670511Y-70043754D01*
X342880462Y-69960467D01*
X343057450Y-69842726D01*
X343154224Y-69749135D01*
X343263487Y-69599131D01*
X343337500Y-69427965D01*
X343379474Y-69226946D01*
X343389447Y-69112591D01*
X343386134Y-68854944D01*
X343345019Y-68629222D01*
X343264245Y-68431449D01*
X343141954Y-68257652D01*
X342976288Y-68103855D01*
X342888527Y-68041066D01*
X342802145Y-67985529D01*
X342719710Y-67937739D01*
X342632139Y-67893676D01*
X342530354Y-67849320D01*
X342405273Y-67800650D01*
X342247816Y-67743648D01*
X342099900Y-67691929D01*
X341803309Y-67581484D01*
X341551757Y-67470485D01*
X341339553Y-67355706D01*
X341161008Y-67233923D01*
X341010429Y-67101910D01*
X340953897Y-67042349D01*
X340807869Y-66845467D01*
X340704315Y-66631378D01*
X340643171Y-66406621D01*
X340624368Y-66177735D01*
X340647841Y-65951261D01*
X340713523Y-65733736D01*
X340821347Y-65531702D01*
X340971098Y-65351843D01*
X341130272Y-65218364D01*
X341306176Y-65115341D01*
X341505860Y-65040289D01*
X341736374Y-64990725D01*
X342004767Y-64964165D01*
X342081078Y-64960740D01*
X342483529Y-64967796D01*
X342483529Y-64967796D01*
G37*
X342483529Y-64967796D02*
X342862868Y-65018000D01*
X343217197Y-65111024D01*
X343439737Y-65197175D01*
X343532952Y-65241627D01*
X343588065Y-65280071D01*
X343614873Y-65323421D01*
X343623175Y-65382590D01*
X343623511Y-65401889D01*
X343615626Y-65469402D01*
X343587843Y-65512350D01*
X343535146Y-65531134D01*
X343452518Y-65526160D01*
X343334942Y-65497830D01*
X343177400Y-65446548D01*
X343157066Y-65439400D01*
X342859134Y-65352533D01*
X342551593Y-65301100D01*
X342219548Y-65282688D01*
X342188800Y-65282568D01*
X341904651Y-65297955D01*
X341660074Y-65344467D01*
X341454158Y-65422541D01*
X341285988Y-65532616D01*
X341154654Y-65675130D01*
X341072792Y-65818757D01*
X341034370Y-65914652D01*
X341012880Y-66001985D01*
X341003974Y-66103355D01*
X341002863Y-66182186D01*
X341013722Y-66366002D01*
X341049839Y-66519800D01*
X341117241Y-66657710D01*
X341221953Y-66793867D01*
X341297389Y-66872885D01*
X341402553Y-66969970D01*
X341511636Y-67053764D01*
X341633355Y-67128972D01*
X341776428Y-67200302D01*
X341949571Y-67272459D01*
X342161501Y-67350152D01*
X342216985Y-67369415D01*
X342547099Y-67491729D01*
X342829768Y-67616094D01*
X343068339Y-67745336D01*
X343266162Y-67882283D01*
X343426584Y-68029762D01*
X343552954Y-68190598D01*
X343648621Y-68367619D01*
X343716932Y-68563653D01*
X343738634Y-68654046D01*
X343769797Y-68889882D01*
X343770077Y-69140126D01*
X343739498Y-69378871D01*
X343737922Y-69386450D01*
X343662339Y-69633152D01*
X343546672Y-69848957D01*
X343391903Y-70032872D01*
X343199012Y-70183905D01*
X342968980Y-70301064D01*
X342768274Y-70367275D01*
X342619836Y-70396562D01*
X342436999Y-70417455D01*
X342235551Y-70429427D01*
X342031282Y-70431950D01*
X341839980Y-70424496D01*
X341677433Y-70406539D01*
X341663560Y-70404179D01*
X341506790Y-70369882D01*
X341339285Y-70321991D01*
X341170770Y-70264419D01*
X341010974Y-70201082D01*
X340869623Y-70135894D01*
X340756447Y-70072769D01*
X340681172Y-70015622D01*
X340671150Y-70004817D01*
X340632131Y-69929037D01*
X340629938Y-69850204D01*
X340659858Y-69782034D01*
X340717179Y-69738245D01*
X340765774Y-69729350D01*
X340817835Y-69741542D01*
X340895547Y-69773380D01*
X340975265Y-69814273D01*
X341280123Y-69957714D01*
X341603712Y-70053970D01*
X341946128Y-70103066D01*
X342143279Y-70109974D01*
X342425487Y-70093338D01*
X342670511Y-70043754D01*
X342880462Y-69960467D01*
X343057450Y-69842726D01*
X343154224Y-69749135D01*
X343263487Y-69599131D01*
X343337500Y-69427965D01*
X343379474Y-69226946D01*
X343389447Y-69112591D01*
X343386134Y-68854944D01*
X343345019Y-68629222D01*
X343264245Y-68431449D01*
X343141954Y-68257652D01*
X342976288Y-68103855D01*
X342888527Y-68041066D01*
X342802145Y-67985529D01*
X342719710Y-67937739D01*
X342632139Y-67893676D01*
X342530354Y-67849320D01*
X342405273Y-67800650D01*
X342247816Y-67743648D01*
X342099900Y-67691929D01*
X341803309Y-67581484D01*
X341551757Y-67470485D01*
X341339553Y-67355706D01*
X341161008Y-67233923D01*
X341010429Y-67101910D01*
X340953897Y-67042349D01*
X340807869Y-66845467D01*
X340704315Y-66631378D01*
X340643171Y-66406621D01*
X340624368Y-66177735D01*
X340647841Y-65951261D01*
X340713523Y-65733736D01*
X340821347Y-65531702D01*
X340971098Y-65351843D01*
X341130272Y-65218364D01*
X341306176Y-65115341D01*
X341505860Y-65040289D01*
X341736374Y-64990725D01*
X342004767Y-64964165D01*
X342081078Y-64960740D01*
X342483529Y-64967796D01*
G36*
X325644673Y-64961326D02*
X325957371Y-64989917D01*
X326249848Y-65049274D01*
X326533740Y-65141654D01*
X326776960Y-65247814D01*
X326902274Y-65312997D01*
X326983902Y-65368572D01*
X327026533Y-65420448D01*
X327034853Y-65474532D01*
X327013552Y-65536732D01*
X327010657Y-65542334D01*
X326973929Y-65599341D01*
X326931670Y-65630603D01*
X326875325Y-65636062D01*
X326796340Y-65615657D01*
X326686159Y-65569332D01*
X326623450Y-65539690D01*
X326288399Y-65405603D01*
X325939140Y-65319683D01*
X325574369Y-65281698D01*
X325214113Y-65289655D01*
X324881866Y-65338981D01*
X324569733Y-65431776D01*
X324282009Y-65566398D01*
X324022993Y-65741204D01*
X324013873Y-65748537D01*
X323798344Y-65955031D01*
X323614554Y-66197858D01*
X323463758Y-66472714D01*
X323347214Y-66775294D01*
X323266177Y-67101293D01*
X323221903Y-67446406D01*
X323215649Y-67806330D01*
X323248671Y-68176758D01*
X323268685Y-68302174D01*
X323351544Y-68634264D01*
X323477897Y-68940255D01*
X323648191Y-69221024D01*
X323862874Y-69477449D01*
X323875400Y-69490275D01*
X324110875Y-69698227D01*
X324366252Y-69862526D01*
X324644036Y-69984061D01*
X324946732Y-70063720D01*
X325276846Y-70102393D01*
X325602600Y-70102742D01*
X325901122Y-70074824D01*
X326173195Y-70018119D01*
X326436924Y-69928241D01*
X326577550Y-69866576D01*
X326723815Y-69802245D01*
X326833532Y-69765771D01*
X326912836Y-69757464D01*
X326967863Y-69777634D01*
X327004748Y-69826592D01*
X327025968Y-69889265D01*
X327030364Y-69944830D01*
X327009020Y-69994065D01*
X326955893Y-70043102D01*
X326864942Y-70098071D01*
X326775532Y-70143363D01*
X326449259Y-70275409D01*
X326097451Y-70369440D01*
X325729725Y-70424114D01*
X325355696Y-70438091D01*
X324984981Y-70410029D01*
X324925321Y-70401347D01*
X324580298Y-70323065D01*
X324258191Y-70200733D01*
X323961856Y-70036972D01*
X323694149Y-69834402D01*
X323457926Y-69595644D01*
X323256042Y-69323319D01*
X323091354Y-69020048D01*
X322966717Y-68688452D01*
X322935325Y-68575078D01*
X322868753Y-68235353D01*
X322835609Y-67881310D01*
X322835171Y-67522831D01*
X322866718Y-67169799D01*
X322929528Y-66832097D01*
X323022878Y-66519609D01*
X323098826Y-66336325D01*
X323230577Y-66087359D01*
X323379675Y-65871465D01*
X323558323Y-65671174D01*
X323575583Y-65653993D01*
X323821334Y-65439452D01*
X324083158Y-65266924D01*
X324365787Y-65134506D01*
X324673950Y-65040300D01*
X325012378Y-64982405D01*
X325300119Y-64961242D01*
X325644673Y-64961326D01*
X325644673Y-64961326D01*
G37*
X325644673Y-64961326D02*
X325957371Y-64989917D01*
X326249848Y-65049274D01*
X326533740Y-65141654D01*
X326776960Y-65247814D01*
X326902274Y-65312997D01*
X326983902Y-65368572D01*
X327026533Y-65420448D01*
X327034853Y-65474532D01*
X327013552Y-65536732D01*
X327010657Y-65542334D01*
X326973929Y-65599341D01*
X326931670Y-65630603D01*
X326875325Y-65636062D01*
X326796340Y-65615657D01*
X326686159Y-65569332D01*
X326623450Y-65539690D01*
X326288399Y-65405603D01*
X325939140Y-65319683D01*
X325574369Y-65281698D01*
X325214113Y-65289655D01*
X324881866Y-65338981D01*
X324569733Y-65431776D01*
X324282009Y-65566398D01*
X324022993Y-65741204D01*
X324013873Y-65748537D01*
X323798344Y-65955031D01*
X323614554Y-66197858D01*
X323463758Y-66472714D01*
X323347214Y-66775294D01*
X323266177Y-67101293D01*
X323221903Y-67446406D01*
X323215649Y-67806330D01*
X323248671Y-68176758D01*
X323268685Y-68302174D01*
X323351544Y-68634264D01*
X323477897Y-68940255D01*
X323648191Y-69221024D01*
X323862874Y-69477449D01*
X323875400Y-69490275D01*
X324110875Y-69698227D01*
X324366252Y-69862526D01*
X324644036Y-69984061D01*
X324946732Y-70063720D01*
X325276846Y-70102393D01*
X325602600Y-70102742D01*
X325901122Y-70074824D01*
X326173195Y-70018119D01*
X326436924Y-69928241D01*
X326577550Y-69866576D01*
X326723815Y-69802245D01*
X326833532Y-69765771D01*
X326912836Y-69757464D01*
X326967863Y-69777634D01*
X327004748Y-69826592D01*
X327025968Y-69889265D01*
X327030364Y-69944830D01*
X327009020Y-69994065D01*
X326955893Y-70043102D01*
X326864942Y-70098071D01*
X326775532Y-70143363D01*
X326449259Y-70275409D01*
X326097451Y-70369440D01*
X325729725Y-70424114D01*
X325355696Y-70438091D01*
X324984981Y-70410029D01*
X324925321Y-70401347D01*
X324580298Y-70323065D01*
X324258191Y-70200733D01*
X323961856Y-70036972D01*
X323694149Y-69834402D01*
X323457926Y-69595644D01*
X323256042Y-69323319D01*
X323091354Y-69020048D01*
X322966717Y-68688452D01*
X322935325Y-68575078D01*
X322868753Y-68235353D01*
X322835609Y-67881310D01*
X322835171Y-67522831D01*
X322866718Y-67169799D01*
X322929528Y-66832097D01*
X323022878Y-66519609D01*
X323098826Y-66336325D01*
X323230577Y-66087359D01*
X323379675Y-65871465D01*
X323558323Y-65671174D01*
X323575583Y-65653993D01*
X323821334Y-65439452D01*
X324083158Y-65266924D01*
X324365787Y-65134506D01*
X324673950Y-65040300D01*
X325012378Y-64982405D01*
X325300119Y-64961242D01*
X325644673Y-64961326D01*
G36*
X39084250Y-99726750D02*
X38679438Y-99726750D01*
X38679438Y-99321938D01*
X39084250Y-99321938D01*
X39084250Y-99726750D01*
X39084250Y-99726750D01*
G37*
X39084250Y-99726750D02*
X38679438Y-99726750D01*
X38679438Y-99321938D01*
X39084250Y-99321938D01*
X39084250Y-99726750D01*
G36*
X39489063Y-100512563D02*
X39084250Y-100512563D01*
X39084250Y-100131563D01*
X39489063Y-100131563D01*
X39489063Y-100512563D01*
X39489063Y-100512563D01*
G37*
X39489063Y-100512563D02*
X39084250Y-100512563D01*
X39084250Y-100131563D01*
X39489063Y-100131563D01*
X39489063Y-100512563D01*
G36*
X38679438Y-100512563D02*
X38298438Y-100512563D01*
X38298438Y-100131563D01*
X38679438Y-100131563D01*
X38679438Y-100512563D01*
X38679438Y-100512563D01*
G37*
X38679438Y-100512563D02*
X38298438Y-100512563D01*
X38298438Y-100131563D01*
X38679438Y-100131563D01*
X38679438Y-100512563D01*
G36*
X39870063Y-101322188D02*
X39489063Y-101322188D01*
X39489063Y-100917375D01*
X39870063Y-100917375D01*
X39870063Y-101322188D01*
X39870063Y-101322188D01*
G37*
X39870063Y-101322188D02*
X39489063Y-101322188D01*
X39489063Y-100917375D01*
X39870063Y-100917375D01*
X39870063Y-101322188D01*
G36*
X39084250Y-101322188D02*
X38679438Y-101322188D01*
X38679438Y-100917375D01*
X39084250Y-100917375D01*
X39084250Y-101322188D01*
X39084250Y-101322188D01*
G37*
X39084250Y-101322188D02*
X38679438Y-101322188D01*
X38679438Y-100917375D01*
X39084250Y-100917375D01*
X39084250Y-101322188D01*
G36*
X38298438Y-101322188D02*
X37893625Y-101322188D01*
X37893625Y-100917375D01*
X38298438Y-100917375D01*
X38298438Y-101322188D01*
X38298438Y-101322188D01*
G37*
X38298438Y-101322188D02*
X37893625Y-101322188D01*
X37893625Y-100917375D01*
X38298438Y-100917375D01*
X38298438Y-101322188D01*
G36*
X40274875Y-102108000D02*
X39870063Y-102108000D01*
X39870063Y-101703188D01*
X40274875Y-101703188D01*
X40274875Y-102108000D01*
X40274875Y-102108000D01*
G37*
X40274875Y-102108000D02*
X39870063Y-102108000D01*
X39870063Y-101703188D01*
X40274875Y-101703188D01*
X40274875Y-102108000D01*
G36*
X37893625Y-102108000D02*
X37488813Y-102108000D01*
X37488813Y-101703188D01*
X37893625Y-101703188D01*
X37893625Y-102108000D01*
X37893625Y-102108000D01*
G37*
X37893625Y-102108000D02*
X37488813Y-102108000D01*
X37488813Y-101703188D01*
X37893625Y-101703188D01*
X37893625Y-102108000D01*
G36*
X38897719Y-97834295D02*
X39021837Y-97835665D01*
X39133549Y-97839822D01*
X39236142Y-97847169D01*
X39332906Y-97858110D01*
X39427128Y-97873048D01*
X39522097Y-97892387D01*
X39621101Y-97916531D01*
X39666380Y-97928668D01*
X39874927Y-97993906D01*
X40077015Y-98073242D01*
X40271878Y-98166278D01*
X40458749Y-98272618D01*
X40636864Y-98391866D01*
X40789010Y-98509867D01*
X40946678Y-98650592D01*
X41094015Y-98802037D01*
X41230336Y-98963135D01*
X41354958Y-99132817D01*
X41467197Y-99310016D01*
X41566370Y-99493666D01*
X41651792Y-99682697D01*
X41722780Y-99876043D01*
X41771534Y-100044053D01*
X41804605Y-100184039D01*
X41829965Y-100315975D01*
X41848357Y-100445247D01*
X41860525Y-100577243D01*
X41867211Y-100717350D01*
X41867864Y-100742750D01*
X41865145Y-100961047D01*
X41846950Y-101175830D01*
X41813285Y-101387071D01*
X41764156Y-101594739D01*
X41699569Y-101798805D01*
X41635372Y-101962737D01*
X41607289Y-102028002D01*
X41583227Y-102082160D01*
X41561358Y-102128863D01*
X41539857Y-102171763D01*
X41516896Y-102214513D01*
X41490650Y-102260765D01*
X41461525Y-102310406D01*
X41342306Y-102496677D01*
X41212202Y-102671403D01*
X41071079Y-102834715D01*
X40918805Y-102986746D01*
X40755247Y-103127630D01*
X40580274Y-103257498D01*
X40397906Y-103374025D01*
X40345077Y-103404994D01*
X40299164Y-103430971D01*
X40256515Y-103453781D01*
X40213478Y-103475251D01*
X40166401Y-103497207D01*
X40111631Y-103521475D01*
X40050237Y-103547872D01*
X39954004Y-103587419D01*
X39865286Y-103620458D01*
X39778172Y-103648945D01*
X39686748Y-103674839D01*
X39604156Y-103695572D01*
X39439640Y-103731126D01*
X39282545Y-103756803D01*
X39128317Y-103773143D01*
X38972399Y-103780686D01*
X38881844Y-103781263D01*
X38830625Y-103780748D01*
X38782504Y-103780043D01*
X38740624Y-103779210D01*
X38708128Y-103778313D01*
X38688160Y-103777415D01*
X38687375Y-103777359D01*
X38471201Y-103753407D01*
X38258444Y-103714420D01*
X38049963Y-103660717D01*
X37846618Y-103592613D01*
X37649266Y-103510426D01*
X37458768Y-103414475D01*
X37275982Y-103305076D01*
X37125026Y-103200046D01*
X36952099Y-103061699D01*
X36791415Y-102913338D01*
X36643201Y-102755289D01*
X36507679Y-102587882D01*
X36385074Y-102411444D01*
X36275611Y-102226302D01*
X36179513Y-102032785D01*
X36097006Y-101831221D01*
X36028313Y-101621938D01*
X36016168Y-101578880D01*
X35989802Y-101477085D01*
X35968417Y-101380761D01*
X35951609Y-101286617D01*
X35938975Y-101191367D01*
X35930110Y-101091720D01*
X35924612Y-100984390D01*
X35922076Y-100866086D01*
X35921795Y-100810219D01*
X35922470Y-100754858D01*
X36454544Y-100754858D01*
X36454647Y-100834996D01*
X36456313Y-100914660D01*
X36459509Y-100989787D01*
X36464206Y-101056310D01*
X36467926Y-101092000D01*
X36499800Y-101289298D01*
X36546451Y-101480913D01*
X36607701Y-101666472D01*
X36683369Y-101845599D01*
X36773277Y-102017919D01*
X36877244Y-102183059D01*
X36995091Y-102340643D01*
X37126638Y-102490297D01*
X37148974Y-102513510D01*
X37283208Y-102640584D01*
X37428910Y-102758520D01*
X37583381Y-102865340D01*
X37743919Y-102959066D01*
X37789708Y-102982754D01*
X37864116Y-103019403D01*
X37929357Y-103049622D01*
X37989854Y-103075190D01*
X38050028Y-103097884D01*
X38114301Y-103119483D01*
X38179375Y-103139477D01*
X38368588Y-103188890D01*
X38554339Y-103223341D01*
X38738077Y-103242964D01*
X38921253Y-103247892D01*
X39105314Y-103238261D01*
X39171856Y-103231281D01*
X39359188Y-103202337D01*
X39538769Y-103160528D01*
X39713107Y-103105104D01*
X39884709Y-103035314D01*
X39981666Y-102989116D01*
X40152298Y-102895697D01*
X40311714Y-102791962D01*
X40460672Y-102677224D01*
X40599929Y-102550800D01*
X40730244Y-102412004D01*
X40852374Y-102260153D01*
X40960642Y-102104509D01*
X40985768Y-102063318D01*
X41015091Y-102011190D01*
X41046791Y-101951746D01*
X41079049Y-101888606D01*
X41110043Y-101825390D01*
X41137956Y-101765717D01*
X41160965Y-101713207D01*
X41174403Y-101679375D01*
X41237270Y-101487834D01*
X41284666Y-101295095D01*
X41316550Y-101101700D01*
X41332880Y-100908190D01*
X41333618Y-100715107D01*
X41318722Y-100522992D01*
X41288152Y-100332386D01*
X41278349Y-100286344D01*
X41244700Y-100150051D01*
X41206392Y-100023868D01*
X41161454Y-99902257D01*
X41107913Y-99779682D01*
X41070254Y-99702208D01*
X40976549Y-99533360D01*
X40869724Y-99372923D01*
X40750548Y-99221618D01*
X40619787Y-99080164D01*
X40478210Y-98949281D01*
X40326584Y-98829690D01*
X40165677Y-98722110D01*
X39996257Y-98627261D01*
X39852075Y-98559730D01*
X39680447Y-98493335D01*
X39507893Y-98441337D01*
X39332406Y-98403328D01*
X39151976Y-98378901D01*
X38964595Y-98367647D01*
X38901688Y-98366757D01*
X38703593Y-98373127D01*
X38511965Y-98393772D01*
X38326031Y-98428923D01*
X38145015Y-98478817D01*
X37968144Y-98543685D01*
X37794644Y-98623763D01*
X37623741Y-98719285D01*
X37523044Y-98783494D01*
X37383611Y-98885022D01*
X37249413Y-98999528D01*
X37122091Y-99125089D01*
X37003285Y-99259781D01*
X36894636Y-99401681D01*
X36797785Y-99548865D01*
X36714372Y-99699411D01*
X36679576Y-99772330D01*
X36618173Y-99917189D01*
X36567942Y-100056428D01*
X36527685Y-100194376D01*
X36496206Y-100335364D01*
X36472306Y-100483721D01*
X36463905Y-100552250D01*
X36459142Y-100609420D01*
X36456032Y-100678311D01*
X36454544Y-100754858D01*
X35922470Y-100754858D01*
X35923540Y-100667223D01*
X35929414Y-100536356D01*
X35939988Y-100414275D01*
X35955835Y-100297635D01*
X35977527Y-100183094D01*
X36005637Y-100067309D01*
X36040736Y-99946937D01*
X36083397Y-99818634D01*
X36099091Y-99774375D01*
X36177476Y-99579656D01*
X36270316Y-99391322D01*
X36377422Y-99209635D01*
X36498602Y-99034858D01*
X36633667Y-98867253D01*
X36782424Y-98707083D01*
X36944683Y-98554610D01*
X37051521Y-98464429D01*
X37137350Y-98398936D01*
X37234889Y-98331610D01*
X37340498Y-98264662D01*
X37450536Y-98200305D01*
X37561363Y-98140750D01*
X37669339Y-98088208D01*
X37675344Y-98085465D01*
X37745304Y-98055592D01*
X37826485Y-98024206D01*
X37914517Y-97992786D01*
X38005029Y-97962812D01*
X38093651Y-97935761D01*
X38176014Y-97913114D01*
X38207900Y-97905221D01*
X38301125Y-97884453D01*
X38390099Y-97867793D01*
X38478103Y-97854902D01*
X38568419Y-97845445D01*
X38664328Y-97839082D01*
X38769110Y-97835478D01*
X38886045Y-97834294D01*
X38897719Y-97834295D01*
X38897719Y-97834295D01*
G37*
X38897719Y-97834295D02*
X39021837Y-97835665D01*
X39133549Y-97839822D01*
X39236142Y-97847169D01*
X39332906Y-97858110D01*
X39427128Y-97873048D01*
X39522097Y-97892387D01*
X39621101Y-97916531D01*
X39666380Y-97928668D01*
X39874927Y-97993906D01*
X40077015Y-98073242D01*
X40271878Y-98166278D01*
X40458749Y-98272618D01*
X40636864Y-98391866D01*
X40789010Y-98509867D01*
X40946678Y-98650592D01*
X41094015Y-98802037D01*
X41230336Y-98963135D01*
X41354958Y-99132817D01*
X41467197Y-99310016D01*
X41566370Y-99493666D01*
X41651792Y-99682697D01*
X41722780Y-99876043D01*
X41771534Y-100044053D01*
X41804605Y-100184039D01*
X41829965Y-100315975D01*
X41848357Y-100445247D01*
X41860525Y-100577243D01*
X41867211Y-100717350D01*
X41867864Y-100742750D01*
X41865145Y-100961047D01*
X41846950Y-101175830D01*
X41813285Y-101387071D01*
X41764156Y-101594739D01*
X41699569Y-101798805D01*
X41635372Y-101962737D01*
X41607289Y-102028002D01*
X41583227Y-102082160D01*
X41561358Y-102128863D01*
X41539857Y-102171763D01*
X41516896Y-102214513D01*
X41490650Y-102260765D01*
X41461525Y-102310406D01*
X41342306Y-102496677D01*
X41212202Y-102671403D01*
X41071079Y-102834715D01*
X40918805Y-102986746D01*
X40755247Y-103127630D01*
X40580274Y-103257498D01*
X40397906Y-103374025D01*
X40345077Y-103404994D01*
X40299164Y-103430971D01*
X40256515Y-103453781D01*
X40213478Y-103475251D01*
X40166401Y-103497207D01*
X40111631Y-103521475D01*
X40050237Y-103547872D01*
X39954004Y-103587419D01*
X39865286Y-103620458D01*
X39778172Y-103648945D01*
X39686748Y-103674839D01*
X39604156Y-103695572D01*
X39439640Y-103731126D01*
X39282545Y-103756803D01*
X39128317Y-103773143D01*
X38972399Y-103780686D01*
X38881844Y-103781263D01*
X38830625Y-103780748D01*
X38782504Y-103780043D01*
X38740624Y-103779210D01*
X38708128Y-103778313D01*
X38688160Y-103777415D01*
X38687375Y-103777359D01*
X38471201Y-103753407D01*
X38258444Y-103714420D01*
X38049963Y-103660717D01*
X37846618Y-103592613D01*
X37649266Y-103510426D01*
X37458768Y-103414475D01*
X37275982Y-103305076D01*
X37125026Y-103200046D01*
X36952099Y-103061699D01*
X36791415Y-102913338D01*
X36643201Y-102755289D01*
X36507679Y-102587882D01*
X36385074Y-102411444D01*
X36275611Y-102226302D01*
X36179513Y-102032785D01*
X36097006Y-101831221D01*
X36028313Y-101621938D01*
X36016168Y-101578880D01*
X35989802Y-101477085D01*
X35968417Y-101380761D01*
X35951609Y-101286617D01*
X35938975Y-101191367D01*
X35930110Y-101091720D01*
X35924612Y-100984390D01*
X35922076Y-100866086D01*
X35921795Y-100810219D01*
X35922470Y-100754858D01*
X36454544Y-100754858D01*
X36454647Y-100834996D01*
X36456313Y-100914660D01*
X36459509Y-100989787D01*
X36464206Y-101056310D01*
X36467926Y-101092000D01*
X36499800Y-101289298D01*
X36546451Y-101480913D01*
X36607701Y-101666472D01*
X36683369Y-101845599D01*
X36773277Y-102017919D01*
X36877244Y-102183059D01*
X36995091Y-102340643D01*
X37126638Y-102490297D01*
X37148974Y-102513510D01*
X37283208Y-102640584D01*
X37428910Y-102758520D01*
X37583381Y-102865340D01*
X37743919Y-102959066D01*
X37789708Y-102982754D01*
X37864116Y-103019403D01*
X37929357Y-103049622D01*
X37989854Y-103075190D01*
X38050028Y-103097884D01*
X38114301Y-103119483D01*
X38179375Y-103139477D01*
X38368588Y-103188890D01*
X38554339Y-103223341D01*
X38738077Y-103242964D01*
X38921253Y-103247892D01*
X39105314Y-103238261D01*
X39171856Y-103231281D01*
X39359188Y-103202337D01*
X39538769Y-103160528D01*
X39713107Y-103105104D01*
X39884709Y-103035314D01*
X39981666Y-102989116D01*
X40152298Y-102895697D01*
X40311714Y-102791962D01*
X40460672Y-102677224D01*
X40599929Y-102550800D01*
X40730244Y-102412004D01*
X40852374Y-102260153D01*
X40960642Y-102104509D01*
X40985768Y-102063318D01*
X41015091Y-102011190D01*
X41046791Y-101951746D01*
X41079049Y-101888606D01*
X41110043Y-101825390D01*
X41137956Y-101765717D01*
X41160965Y-101713207D01*
X41174403Y-101679375D01*
X41237270Y-101487834D01*
X41284666Y-101295095D01*
X41316550Y-101101700D01*
X41332880Y-100908190D01*
X41333618Y-100715107D01*
X41318722Y-100522992D01*
X41288152Y-100332386D01*
X41278349Y-100286344D01*
X41244700Y-100150051D01*
X41206392Y-100023868D01*
X41161454Y-99902257D01*
X41107913Y-99779682D01*
X41070254Y-99702208D01*
X40976549Y-99533360D01*
X40869724Y-99372923D01*
X40750548Y-99221618D01*
X40619787Y-99080164D01*
X40478210Y-98949281D01*
X40326584Y-98829690D01*
X40165677Y-98722110D01*
X39996257Y-98627261D01*
X39852075Y-98559730D01*
X39680447Y-98493335D01*
X39507893Y-98441337D01*
X39332406Y-98403328D01*
X39151976Y-98378901D01*
X38964595Y-98367647D01*
X38901688Y-98366757D01*
X38703593Y-98373127D01*
X38511965Y-98393772D01*
X38326031Y-98428923D01*
X38145015Y-98478817D01*
X37968144Y-98543685D01*
X37794644Y-98623763D01*
X37623741Y-98719285D01*
X37523044Y-98783494D01*
X37383611Y-98885022D01*
X37249413Y-98999528D01*
X37122091Y-99125089D01*
X37003285Y-99259781D01*
X36894636Y-99401681D01*
X36797785Y-99548865D01*
X36714372Y-99699411D01*
X36679576Y-99772330D01*
X36618173Y-99917189D01*
X36567942Y-100056428D01*
X36527685Y-100194376D01*
X36496206Y-100335364D01*
X36472306Y-100483721D01*
X36463905Y-100552250D01*
X36459142Y-100609420D01*
X36456032Y-100678311D01*
X36454544Y-100754858D01*
X35922470Y-100754858D01*
X35923540Y-100667223D01*
X35929414Y-100536356D01*
X35939988Y-100414275D01*
X35955835Y-100297635D01*
X35977527Y-100183094D01*
X36005637Y-100067309D01*
X36040736Y-99946937D01*
X36083397Y-99818634D01*
X36099091Y-99774375D01*
X36177476Y-99579656D01*
X36270316Y-99391322D01*
X36377422Y-99209635D01*
X36498602Y-99034858D01*
X36633667Y-98867253D01*
X36782424Y-98707083D01*
X36944683Y-98554610D01*
X37051521Y-98464429D01*
X37137350Y-98398936D01*
X37234889Y-98331610D01*
X37340498Y-98264662D01*
X37450536Y-98200305D01*
X37561363Y-98140750D01*
X37669339Y-98088208D01*
X37675344Y-98085465D01*
X37745304Y-98055592D01*
X37826485Y-98024206D01*
X37914517Y-97992786D01*
X38005029Y-97962812D01*
X38093651Y-97935761D01*
X38176014Y-97913114D01*
X38207900Y-97905221D01*
X38301125Y-97884453D01*
X38390099Y-97867793D01*
X38478103Y-97854902D01*
X38568419Y-97845445D01*
X38664328Y-97839082D01*
X38769110Y-97835478D01*
X38886045Y-97834294D01*
X38897719Y-97834295D01*
D12*
G36*
X294267521Y-56159586D02*
X294431309Y-56227429D01*
X294578720Y-56325926D01*
X294704074Y-56451280D01*
X294802571Y-56598691D01*
X294870414Y-56762479D01*
X294905000Y-56936356D01*
X294905000Y-57113644D01*
X294870414Y-57287521D01*
X294802571Y-57451309D01*
X294704074Y-57598720D01*
X294578720Y-57724074D01*
X294431309Y-57822571D01*
X294267521Y-57890414D01*
X294093644Y-57925000D01*
X293916356Y-57925000D01*
X293742479Y-57890414D01*
X293578691Y-57822571D01*
X293431280Y-57724074D01*
X293305926Y-57598720D01*
X293207429Y-57451309D01*
X293139586Y-57287521D01*
X293105000Y-57113644D01*
X293105000Y-56936356D01*
X293139586Y-56762479D01*
X293207429Y-56598691D01*
X293305926Y-56451280D01*
X293431280Y-56325926D01*
X293578691Y-56227429D01*
X293742479Y-56159586D01*
X293916356Y-56125000D01*
X294093644Y-56125000D01*
X294267521Y-56159586D01*
X294267521Y-56159586D01*
G37*
G36*
X282962521Y-35964586D02*
X283126309Y-36032429D01*
X283273720Y-36130926D01*
X283399074Y-36256280D01*
X283497571Y-36403691D01*
X283565414Y-36567479D01*
X283600000Y-36741356D01*
X283600000Y-36918644D01*
X283565414Y-37092521D01*
X283497571Y-37256309D01*
X283399074Y-37403720D01*
X283273720Y-37529074D01*
X283126309Y-37627571D01*
X282962521Y-37695414D01*
X282788644Y-37730000D01*
X282611356Y-37730000D01*
X282437479Y-37695414D01*
X282273691Y-37627571D01*
X282126280Y-37529074D01*
X282000926Y-37403720D01*
X281902429Y-37256309D01*
X281834586Y-37092521D01*
X281800000Y-36918644D01*
X281800000Y-36741356D01*
X281834586Y-36567479D01*
X281902429Y-36403691D01*
X282000926Y-36256280D01*
X282126280Y-36130926D01*
X282273691Y-36032429D01*
X282437479Y-35964586D01*
X282611356Y-35930000D01*
X282788644Y-35930000D01*
X282962521Y-35964586D01*
X282962521Y-35964586D01*
G37*
G36*
X285887521Y-30244586D02*
X286051309Y-30312429D01*
X286198720Y-30410926D01*
X286324074Y-30536280D01*
X286422571Y-30683691D01*
X286490414Y-30847479D01*
X286525000Y-31021356D01*
X286525000Y-31198644D01*
X286490414Y-31372521D01*
X286422571Y-31536309D01*
X286324074Y-31683720D01*
X286198720Y-31809074D01*
X286051309Y-31907571D01*
X285887521Y-31975414D01*
X285713644Y-32010000D01*
X285536356Y-32010000D01*
X285362479Y-31975414D01*
X285198691Y-31907571D01*
X285051280Y-31809074D01*
X284925926Y-31683720D01*
X284827429Y-31536309D01*
X284759586Y-31372521D01*
X284725000Y-31198644D01*
X284725000Y-31021356D01*
X284759586Y-30847479D01*
X284827429Y-30683691D01*
X284925926Y-30536280D01*
X285051280Y-30410926D01*
X285198691Y-30312429D01*
X285362479Y-30244586D01*
X285536356Y-30210000D01*
X285713644Y-30210000D01*
X285887521Y-30244586D01*
X285887521Y-30244586D01*
G37*
G36*
X314591223Y-2841378D02*
X314723174Y-2881405D01*
X314844780Y-2946405D01*
X314951369Y-3033880D01*
X315038845Y-3140469D01*
X315103845Y-3262075D01*
X315143872Y-3394026D01*
X315154000Y-3496860D01*
X315154000Y-4665640D01*
X315143872Y-4768474D01*
X315103845Y-4900425D01*
X315038845Y-5022031D01*
X314951370Y-5128620D01*
X314844781Y-5216095D01*
X314723175Y-5281095D01*
X314591224Y-5321122D01*
X314454000Y-5334637D01*
X314316777Y-5321122D01*
X314184826Y-5281095D01*
X314063220Y-5216095D01*
X313956631Y-5128620D01*
X313869156Y-5022031D01*
X313804156Y-4900425D01*
X313764129Y-4768474D01*
X313754001Y-4665640D01*
X313754000Y-3789182D01*
X313751598Y-3764796D01*
X313744485Y-3741346D01*
X313732934Y-3719736D01*
X313717388Y-3700794D01*
X313698446Y-3685248D01*
X313676835Y-3673697D01*
X313653386Y-3666584D01*
X313629000Y-3664182D01*
X313604614Y-3666584D01*
X313581164Y-3673697D01*
X313559554Y-3685248D01*
X313540612Y-3700794D01*
X313525066Y-3719736D01*
X313513516Y-3741343D01*
X313489249Y-3799931D01*
X313432052Y-3885532D01*
X313431792Y-3885921D01*
X313358671Y-3959042D01*
X313358668Y-3959044D01*
X313272681Y-4016499D01*
X313177137Y-4056074D01*
X313177136Y-4056074D01*
X313177134Y-4056075D01*
X313075709Y-4076250D01*
X312972291Y-4076250D01*
X312870866Y-4056075D01*
X312870864Y-4056074D01*
X312870863Y-4056074D01*
X312775319Y-4016499D01*
X312689332Y-3959044D01*
X312689329Y-3959042D01*
X312616208Y-3885921D01*
X312615948Y-3885532D01*
X312558751Y-3799931D01*
X312519176Y-3704387D01*
X312511179Y-3664182D01*
X312499000Y-3602959D01*
X312499000Y-3499541D01*
X312519175Y-3398116D01*
X312520868Y-3394028D01*
X312558751Y-3302569D01*
X312616206Y-3216582D01*
X312616208Y-3216579D01*
X312689329Y-3143458D01*
X312693802Y-3140469D01*
X312775319Y-3086001D01*
X312870863Y-3046426D01*
X312870864Y-3046426D01*
X312870866Y-3046425D01*
X312972291Y-3026250D01*
X313075709Y-3026250D01*
X313177134Y-3046425D01*
X313177136Y-3046426D01*
X313177137Y-3046426D01*
X313272681Y-3086001D01*
X313354198Y-3140469D01*
X313358671Y-3143458D01*
X313431792Y-3216579D01*
X313431794Y-3216582D01*
X313489249Y-3302569D01*
X313527132Y-3394028D01*
X313530248Y-3401551D01*
X313541800Y-3423162D01*
X313557345Y-3442104D01*
X313576287Y-3457649D01*
X313597898Y-3469200D01*
X313621347Y-3476313D01*
X313645733Y-3478715D01*
X313670120Y-3476313D01*
X313693569Y-3469200D01*
X313715180Y-3457648D01*
X313734122Y-3442103D01*
X313749667Y-3423161D01*
X313765346Y-3390011D01*
X313804155Y-3262076D01*
X313869155Y-3140470D01*
X313956630Y-3033881D01*
X314063219Y-2946405D01*
X314184825Y-2881405D01*
X314316776Y-2841378D01*
X314454000Y-2827863D01*
X314591223Y-2841378D01*
X314591223Y-2841378D01*
G37*
G36*
X305951223Y-2841378D02*
X306083174Y-2881405D01*
X306204780Y-2946405D01*
X306311369Y-3033880D01*
X306398845Y-3140469D01*
X306463845Y-3262075D01*
X306502655Y-3390016D01*
X306512027Y-3412639D01*
X306525641Y-3433013D01*
X306542968Y-3450340D01*
X306563342Y-3463954D01*
X306585981Y-3473332D01*
X306610015Y-3478112D01*
X306634519Y-3478112D01*
X306658553Y-3473332D01*
X306681192Y-3463954D01*
X306701566Y-3450340D01*
X306718893Y-3433013D01*
X306737752Y-3401550D01*
X306748832Y-3374802D01*
X306778751Y-3302569D01*
X306836206Y-3216582D01*
X306836208Y-3216579D01*
X306909329Y-3143458D01*
X306913802Y-3140469D01*
X306995319Y-3086001D01*
X307090863Y-3046426D01*
X307090864Y-3046426D01*
X307090866Y-3046425D01*
X307192291Y-3026250D01*
X307295709Y-3026250D01*
X307397134Y-3046425D01*
X307397136Y-3046426D01*
X307397137Y-3046426D01*
X307492681Y-3086001D01*
X307574198Y-3140469D01*
X307578671Y-3143458D01*
X307651792Y-3216579D01*
X307651794Y-3216582D01*
X307709249Y-3302569D01*
X307747132Y-3394028D01*
X307748825Y-3398116D01*
X307769000Y-3499541D01*
X307769000Y-3602959D01*
X307756822Y-3664182D01*
X307748824Y-3704387D01*
X307709249Y-3799931D01*
X307652052Y-3885532D01*
X307651792Y-3885921D01*
X307578671Y-3959042D01*
X307578668Y-3959044D01*
X307492681Y-4016499D01*
X307397137Y-4056074D01*
X307397136Y-4056074D01*
X307397134Y-4056075D01*
X307295709Y-4076250D01*
X307192291Y-4076250D01*
X307090866Y-4056075D01*
X307090864Y-4056074D01*
X307090863Y-4056074D01*
X306995319Y-4016499D01*
X306909332Y-3959044D01*
X306909329Y-3959042D01*
X306836208Y-3885921D01*
X306835948Y-3885532D01*
X306778751Y-3799931D01*
X306754484Y-3741343D01*
X306742933Y-3719735D01*
X306727388Y-3700793D01*
X306708446Y-3685248D01*
X306686835Y-3673697D01*
X306663386Y-3666584D01*
X306638999Y-3664182D01*
X306614613Y-3666584D01*
X306591164Y-3673697D01*
X306569553Y-3685249D01*
X306550611Y-3700794D01*
X306535066Y-3719736D01*
X306523515Y-3741347D01*
X306516402Y-3764796D01*
X306514000Y-3789182D01*
X306514000Y-4665640D01*
X306503872Y-4768474D01*
X306463845Y-4900425D01*
X306398845Y-5022031D01*
X306311370Y-5128620D01*
X306204781Y-5216095D01*
X306083175Y-5281095D01*
X305951224Y-5321122D01*
X305814000Y-5334637D01*
X305676777Y-5321122D01*
X305544826Y-5281095D01*
X305423220Y-5216095D01*
X305316631Y-5128620D01*
X305229156Y-5022031D01*
X305164156Y-4900425D01*
X305124129Y-4768474D01*
X305114001Y-4665640D01*
X305114000Y-3496861D01*
X305124128Y-3394027D01*
X305164155Y-3262076D01*
X305229155Y-3140470D01*
X305316630Y-3033881D01*
X305423219Y-2946405D01*
X305544825Y-2881405D01*
X305676776Y-2841378D01*
X305814000Y-2827863D01*
X305951223Y-2841378D01*
X305951223Y-2841378D01*
G37*
G36*
X314591223Y1088622D02*
X314723174Y1048595D01*
X314844780Y983595D01*
X314951369Y896120D01*
X315038845Y789531D01*
X315103845Y667925D01*
X315143872Y535974D01*
X315154000Y433140D01*
X315154000Y-235640D01*
X315143872Y-338474D01*
X315103845Y-470425D01*
X315038845Y-592031D01*
X314951370Y-698620D01*
X314844781Y-786095D01*
X314723175Y-851095D01*
X314591224Y-891122D01*
X314454000Y-904637D01*
X314316777Y-891122D01*
X314184826Y-851095D01*
X314063220Y-786095D01*
X313956631Y-698620D01*
X313869156Y-592031D01*
X313804155Y-470425D01*
X313764128Y-338474D01*
X313754000Y-235640D01*
X313754000Y433139D01*
X313764128Y535973D01*
X313804155Y667924D01*
X313869155Y789530D01*
X313956630Y896119D01*
X314063219Y983595D01*
X314184825Y1048595D01*
X314316776Y1088622D01*
X314454000Y1102137D01*
X314591223Y1088622D01*
X314591223Y1088622D01*
G37*
G36*
X305951223Y1088622D02*
X306083174Y1048595D01*
X306204780Y983595D01*
X306311369Y896120D01*
X306398845Y789531D01*
X306463845Y667925D01*
X306503872Y535974D01*
X306514000Y433140D01*
X306514000Y-235640D01*
X306503872Y-338474D01*
X306463845Y-470425D01*
X306398845Y-592031D01*
X306311370Y-698620D01*
X306204781Y-786095D01*
X306083175Y-851095D01*
X305951224Y-891122D01*
X305814000Y-904637D01*
X305676777Y-891122D01*
X305544826Y-851095D01*
X305423220Y-786095D01*
X305316631Y-698620D01*
X305229156Y-592031D01*
X305164155Y-470425D01*
X305124128Y-338474D01*
X305114000Y-235640D01*
X305114000Y433139D01*
X305124128Y535973D01*
X305164155Y667924D01*
X305229155Y789530D01*
X305316630Y896119D01*
X305423219Y983595D01*
X305544825Y1048595D01*
X305676776Y1088622D01*
X305814000Y1102137D01*
X305951223Y1088622D01*
X305951223Y1088622D01*
G37*
M02*
