G04 #@! TF.GenerationSoftware,KiCad,Pcbnew,(5.0.2)-1*
G04 #@! TF.CreationDate,2019-04-13T17:16:35-07:00*
G04 #@! TF.ProjectId,Celestine,43656c65-7374-4696-9e65-2e6b69636164,rev?*
G04 #@! TF.SameCoordinates,Original*
G04 #@! TF.FileFunction,Paste,Bot*
G04 #@! TF.FilePolarity,Positive*
%FSLAX46Y46*%
G04 Gerber Fmt 4.6, Leading zero omitted, Abs format (unit mm)*
G04 Created by KiCad (PCBNEW (5.0.2)-1) date 4/13/2019 5:16:35 PM*
%MOMM*%
%LPD*%
G01*
G04 APERTURE LIST*
%ADD10R,0.800000X0.750000*%
%ADD11R,0.750000X0.800000*%
%ADD12R,1.200000X0.900000*%
%ADD13R,2.030000X1.140000*%
%ADD14R,1.300000X0.700000*%
%ADD15R,0.700000X1.300000*%
%ADD16R,1.100000X1.800000*%
%ADD17R,0.700000X0.600000*%
%ADD18R,0.700000X1.000000*%
%ADD19R,0.300000X1.450000*%
%ADD20R,0.600000X1.450000*%
%ADD21R,1.200000X1.400000*%
%ADD22R,1.500000X0.550000*%
%ADD23R,0.550000X1.500000*%
G04 APERTURE END LIST*
D10*
G04 #@! TO.C,C2*
X299097000Y-80454500D03*
X300597000Y-80454500D03*
G04 #@! TD*
D11*
G04 #@! TO.C,C3*
X297434000Y-94222000D03*
X297434000Y-92722000D03*
G04 #@! TD*
D10*
G04 #@! TO.C,C4*
X311011000Y-97663000D03*
X309511000Y-97663000D03*
G04 #@! TD*
G04 #@! TO.C,C5*
X313321000Y-82804000D03*
X314821000Y-82804000D03*
G04 #@! TD*
G04 #@! TO.C,C6*
X305193000Y-80264000D03*
X306693000Y-80264000D03*
G04 #@! TD*
G04 #@! TO.C,C7*
X316813500Y-92710000D03*
X318313500Y-92710000D03*
G04 #@! TD*
G04 #@! TO.C,C8*
X318313500Y-84899500D03*
X316813500Y-84899500D03*
G04 #@! TD*
D12*
G04 #@! TO.C,D1*
X41275000Y-34193750D03*
X41275000Y-30893750D03*
G04 #@! TD*
G04 #@! TO.C,D2*
X60325000Y-30893750D03*
X60325000Y-34193750D03*
G04 #@! TD*
G04 #@! TO.C,D3*
X79375000Y-30893750D03*
X79375000Y-34193750D03*
G04 #@! TD*
G04 #@! TO.C,D4*
X98425000Y-34193750D03*
X98425000Y-30893750D03*
G04 #@! TD*
G04 #@! TO.C,D5*
X117475000Y-34193750D03*
X117475000Y-30893750D03*
G04 #@! TD*
G04 #@! TO.C,D6*
X136525000Y-34193750D03*
X136525000Y-30893750D03*
G04 #@! TD*
G04 #@! TO.C,D7*
X155575000Y-34193750D03*
X155575000Y-30893750D03*
G04 #@! TD*
G04 #@! TO.C,D8*
X174625000Y-30893750D03*
X174625000Y-34193750D03*
G04 #@! TD*
G04 #@! TO.C,D9*
X193675000Y-30893750D03*
X193675000Y-34193750D03*
G04 #@! TD*
G04 #@! TO.C,D10*
X212725000Y-34193750D03*
X212725000Y-30893750D03*
G04 #@! TD*
G04 #@! TO.C,D11*
X231775000Y-30893750D03*
X231775000Y-34193750D03*
G04 #@! TD*
G04 #@! TO.C,D12*
X250825000Y-34193750D03*
X250825000Y-30893750D03*
G04 #@! TD*
G04 #@! TO.C,D13*
X268287500Y-34193750D03*
X268287500Y-30893750D03*
G04 #@! TD*
G04 #@! TO.C,D14*
X271462500Y-34193750D03*
X271462500Y-30893750D03*
G04 #@! TD*
G04 #@! TO.C,D16*
X46037500Y-53243750D03*
X46037500Y-49943750D03*
G04 #@! TD*
G04 #@! TO.C,D17*
X69850000Y-49943750D03*
X69850000Y-53243750D03*
G04 #@! TD*
G04 #@! TO.C,D18*
X88900000Y-53243750D03*
X88900000Y-49943750D03*
G04 #@! TD*
G04 #@! TO.C,D19*
X107950000Y-49943750D03*
X107950000Y-53243750D03*
G04 #@! TD*
G04 #@! TO.C,D20*
X127000000Y-53243750D03*
X127000000Y-49943750D03*
G04 #@! TD*
G04 #@! TO.C,D21*
X146050000Y-49943750D03*
X146050000Y-53243750D03*
G04 #@! TD*
G04 #@! TO.C,D22*
X165100000Y-49943750D03*
X165100000Y-53243750D03*
G04 #@! TD*
G04 #@! TO.C,D23*
X184150000Y-53243750D03*
X184150000Y-49943750D03*
G04 #@! TD*
G04 #@! TO.C,D24*
X203200000Y-53243750D03*
X203200000Y-49943750D03*
G04 #@! TD*
G04 #@! TO.C,D25*
X222250000Y-49943750D03*
X222250000Y-53243750D03*
G04 #@! TD*
G04 #@! TO.C,D26*
X241300000Y-53243750D03*
X241300000Y-49943750D03*
G04 #@! TD*
G04 #@! TO.C,D27*
X260350000Y-53243750D03*
X260350000Y-49943750D03*
G04 #@! TD*
G04 #@! TO.C,D28*
X279400000Y-49943750D03*
X279400000Y-53243750D03*
G04 #@! TD*
G04 #@! TO.C,D29*
X282575000Y-53243750D03*
X282575000Y-49943750D03*
G04 #@! TD*
G04 #@! TO.C,D31*
X48418750Y-68993750D03*
X48418750Y-72293750D03*
G04 #@! TD*
G04 #@! TO.C,D32*
X74612500Y-68993750D03*
X74612500Y-72293750D03*
G04 #@! TD*
G04 #@! TO.C,D33*
X93662500Y-68993750D03*
X93662500Y-72293750D03*
G04 #@! TD*
G04 #@! TO.C,D34*
X112712500Y-72293750D03*
X112712500Y-68993750D03*
G04 #@! TD*
G04 #@! TO.C,D35*
X131762500Y-68993750D03*
X131762500Y-72293750D03*
G04 #@! TD*
G04 #@! TO.C,D36*
X150812500Y-68993750D03*
X150812500Y-72293750D03*
G04 #@! TD*
G04 #@! TO.C,D37*
X169862500Y-72293750D03*
X169862500Y-68993750D03*
G04 #@! TD*
G04 #@! TO.C,D38*
X188912500Y-72293750D03*
X188912500Y-68993750D03*
G04 #@! TD*
G04 #@! TO.C,D39*
X207962500Y-68993750D03*
X207962500Y-72293750D03*
G04 #@! TD*
G04 #@! TO.C,D40*
X227012500Y-68993750D03*
X227012500Y-72293750D03*
G04 #@! TD*
G04 #@! TO.C,D41*
X246062500Y-72293750D03*
X246062500Y-68993750D03*
G04 #@! TD*
G04 #@! TO.C,D42*
X265112500Y-68993750D03*
X265112500Y-72293750D03*
G04 #@! TD*
G04 #@! TO.C,D43*
X277018750Y-68993750D03*
X277018750Y-72293750D03*
G04 #@! TD*
G04 #@! TO.C,D45*
X53181250Y-88043750D03*
X53181250Y-91343750D03*
G04 #@! TD*
G04 #@! TO.C,D46*
X84137500Y-91343750D03*
X84137500Y-88043750D03*
G04 #@! TD*
G04 #@! TO.C,D47*
X103187500Y-91343750D03*
X103187500Y-88043750D03*
G04 #@! TD*
G04 #@! TO.C,D48*
X122237500Y-88043750D03*
X122237500Y-91343750D03*
G04 #@! TD*
G04 #@! TO.C,D49*
X141287500Y-88043750D03*
X141287500Y-91343750D03*
G04 #@! TD*
G04 #@! TO.C,D50*
X160337500Y-91343750D03*
X160337500Y-88043750D03*
G04 #@! TD*
G04 #@! TO.C,D51*
X179387500Y-88043750D03*
X179387500Y-91343750D03*
G04 #@! TD*
G04 #@! TO.C,D52*
X198437500Y-91343750D03*
X198437500Y-88043750D03*
G04 #@! TD*
G04 #@! TO.C,D53*
X217487500Y-91343750D03*
X217487500Y-88043750D03*
G04 #@! TD*
G04 #@! TO.C,D54*
X236537500Y-88043750D03*
X236537500Y-91343750D03*
G04 #@! TD*
G04 #@! TO.C,D55*
X255587500Y-88043750D03*
X255587500Y-91343750D03*
G04 #@! TD*
G04 #@! TO.C,D56*
X268287500Y-91343750D03*
X268287500Y-88043750D03*
G04 #@! TD*
G04 #@! TO.C,D59*
X26987500Y-107093750D03*
X26987500Y-110393750D03*
G04 #@! TD*
G04 #@! TO.C,D61*
X174625000Y-110393750D03*
X174625000Y-107093750D03*
G04 #@! TD*
G04 #@! TO.C,D64*
X236537500Y-107093750D03*
X236537500Y-110393750D03*
G04 #@! TD*
G04 #@! TO.C,D65*
X303212500Y-110393750D03*
X303212500Y-107093750D03*
G04 #@! TD*
G04 #@! TO.C,D67*
X93662500Y-107093750D03*
X93662500Y-110393750D03*
G04 #@! TD*
G04 #@! TO.C,D68*
X272256250Y-88043750D03*
X272256250Y-91343750D03*
G04 #@! TD*
D13*
G04 #@! TO.C,F1*
X307213000Y-12579500D03*
X307213000Y-14979500D03*
G04 #@! TD*
D14*
G04 #@! TO.C,R67*
X302387000Y-77912000D03*
X302387000Y-76012000D03*
G04 #@! TD*
G04 #@! TO.C,R68*
X305435000Y-76012000D03*
X305435000Y-77912000D03*
G04 #@! TD*
D15*
G04 #@! TO.C,R70*
X313248000Y-79883000D03*
X315148000Y-79883000D03*
G04 #@! TD*
G04 #@! TO.C,R71*
X299273000Y-97282000D03*
X297373000Y-97282000D03*
G04 #@! TD*
G04 #@! TO.C,R73*
X300675000Y-2381250D03*
X302575000Y-2381250D03*
G04 #@! TD*
G04 #@! TO.C,R74*
X317343750Y-2381250D03*
X319243750Y-2381250D03*
G04 #@! TD*
D16*
G04 #@! TO.C,SW1*
X329510000Y-91873000D03*
X325810000Y-85673000D03*
X325810000Y-91873000D03*
X329510000Y-85673000D03*
G04 #@! TD*
D17*
G04 #@! TO.C,U2*
X309134000Y-10316250D03*
X311134000Y-10316250D03*
X309134000Y-8416250D03*
D18*
X311134000Y-8616250D03*
G04 #@! TD*
D19*
G04 #@! TO.C,USB1*
X309884000Y-4996250D03*
X310384000Y-4996250D03*
X310884000Y-4996250D03*
X309384000Y-4996250D03*
X311384000Y-4996250D03*
X308884000Y-4996250D03*
X311884000Y-4996250D03*
X308384000Y-4996250D03*
D20*
X307684000Y-4996250D03*
X312584000Y-4996250D03*
X306909000Y-4996250D03*
X313359000Y-4996250D03*
G04 #@! TD*
D21*
G04 #@! TO.C,Y1*
X318413500Y-89873000D03*
X318413500Y-87673000D03*
X316713500Y-87673000D03*
X316713500Y-89873000D03*
G04 #@! TD*
D12*
G04 #@! TO.C,D15*
X41275000Y-7081250D03*
X41275000Y-10381250D03*
G04 #@! TD*
G04 #@! TO.C,D30*
X79375000Y-10381250D03*
X79375000Y-7081250D03*
G04 #@! TD*
G04 #@! TO.C,D58*
X98425000Y-7081250D03*
X98425000Y-10381250D03*
G04 #@! TD*
G04 #@! TO.C,D60*
X117475000Y-10381250D03*
X117475000Y-7081250D03*
G04 #@! TD*
G04 #@! TO.C,D62*
X136525000Y-7081250D03*
X136525000Y-10381250D03*
G04 #@! TD*
G04 #@! TO.C,D63*
X165100000Y-7081250D03*
X165100000Y-10381250D03*
G04 #@! TD*
G04 #@! TO.C,D66*
X184150000Y-10381250D03*
X184150000Y-7081250D03*
G04 #@! TD*
G04 #@! TO.C,D69*
X203200000Y-7081250D03*
X203200000Y-10381250D03*
G04 #@! TD*
G04 #@! TO.C,D70*
X222250000Y-10381250D03*
X222250000Y-7081250D03*
G04 #@! TD*
G04 #@! TO.C,D71*
X231775000Y-7081250D03*
X231775000Y-10381250D03*
G04 #@! TD*
G04 #@! TO.C,D72*
X250825000Y-10381250D03*
X250825000Y-7081250D03*
G04 #@! TD*
G04 #@! TO.C,D73*
X269875000Y-7081250D03*
X269875000Y-10381250D03*
G04 #@! TD*
G04 #@! TO.C,D74*
X288925000Y-7081250D03*
X288925000Y-10381250D03*
G04 #@! TD*
G04 #@! TO.C,D75*
X50800000Y-110393750D03*
X50800000Y-107093750D03*
G04 #@! TD*
G04 #@! TO.C,D76*
X279400000Y-107093750D03*
X279400000Y-110393750D03*
G04 #@! TD*
G04 #@! TO.C,D77*
X331787500Y-10381250D03*
X331787500Y-7081250D03*
G04 #@! TD*
G04 #@! TO.C,D78*
X350837500Y-7081250D03*
X350837500Y-10381250D03*
G04 #@! TD*
G04 #@! TO.C,D79*
X360362500Y-21493750D03*
X360362500Y-18193750D03*
G04 #@! TD*
G04 #@! TO.C,D80*
X331787500Y-34193750D03*
X331787500Y-30893750D03*
G04 #@! TD*
G04 #@! TO.C,D81*
X350837500Y-30893750D03*
X350837500Y-34193750D03*
G04 #@! TD*
G04 #@! TO.C,D82*
X350837500Y-43718750D03*
X350837500Y-40418750D03*
G04 #@! TD*
G04 #@! TO.C,D83*
X331787500Y-49943750D03*
X331787500Y-53243750D03*
G04 #@! TD*
G04 #@! TO.C,D84*
X350837500Y-49943750D03*
X350837500Y-53243750D03*
G04 #@! TD*
G04 #@! TO.C,D85*
X360362500Y-42006250D03*
X360362500Y-45306250D03*
G04 #@! TD*
G04 #@! TO.C,D86*
X350837500Y-88043750D03*
X350837500Y-91343750D03*
G04 #@! TD*
G04 #@! TO.C,D87*
X312737500Y-110393750D03*
X312737500Y-107093750D03*
G04 #@! TD*
G04 #@! TO.C,D88*
X331787500Y-107093750D03*
X331787500Y-110393750D03*
G04 #@! TD*
G04 #@! TO.C,D89*
X350837500Y-110393750D03*
X350837500Y-107093750D03*
G04 #@! TD*
D22*
G04 #@! TO.C,U1*
X300243000Y-85154000D03*
X300243000Y-85954000D03*
X300243000Y-86754000D03*
X300243000Y-87554000D03*
X300243000Y-88354000D03*
X300243000Y-89154000D03*
X300243000Y-89954000D03*
X300243000Y-90754000D03*
X300243000Y-91554000D03*
X300243000Y-92354000D03*
X300243000Y-93154000D03*
D23*
X301943000Y-94854000D03*
X302743000Y-94854000D03*
X303543000Y-94854000D03*
X304343000Y-94854000D03*
X305143000Y-94854000D03*
X305943000Y-94854000D03*
X306743000Y-94854000D03*
X307543000Y-94854000D03*
X308343000Y-94854000D03*
X309143000Y-94854000D03*
X309943000Y-94854000D03*
D22*
X311643000Y-93154000D03*
X311643000Y-92354000D03*
X311643000Y-91554000D03*
X311643000Y-90754000D03*
X311643000Y-89954000D03*
X311643000Y-89154000D03*
X311643000Y-88354000D03*
X311643000Y-87554000D03*
X311643000Y-86754000D03*
X311643000Y-85954000D03*
X311643000Y-85154000D03*
D23*
X309943000Y-83454000D03*
X309143000Y-83454000D03*
X308343000Y-83454000D03*
X307543000Y-83454000D03*
X306743000Y-83454000D03*
X305943000Y-83454000D03*
X305143000Y-83454000D03*
X304343000Y-83454000D03*
X303543000Y-83454000D03*
X302743000Y-83454000D03*
X301943000Y-83454000D03*
G04 #@! TD*
M02*
