G04 #@! TF.GenerationSoftware,KiCad,Pcbnew,(5.0.0)*
G04 #@! TF.CreationDate,2019-01-11T11:26:53-08:00*
G04 #@! TF.ProjectId,Celestine-SandwichCase-Bottom,43656C657374696E652D53616E647769,rev?*
G04 #@! TF.SameCoordinates,Original*
G04 #@! TF.FileFunction,Copper,L1,Top,Signal*
G04 #@! TF.FilePolarity,Positive*
%FSLAX46Y46*%
G04 Gerber Fmt 4.6, Leading zero omitted, Abs format (unit mm)*
G04 Created by KiCad (PCBNEW (5.0.0)) date 01/11/19 11:26:53*
%MOMM*%
%LPD*%
G01*
G04 APERTURE LIST*
G04 #@! TA.AperFunction,Conductor*
%ADD10C,1.524000*%
G04 #@! TD*
G04 #@! TA.AperFunction,Conductor*
%ADD11C,0.254000*%
G04 #@! TD*
G04 APERTURE END LIST*
D10*
G04 #@! TO.N,GND*
G04 #@! TO.C,O1*
X131619625Y-68580000D03*
G04 #@! TD*
D11*
G04 #@! TO.N,GND*
G36*
X377397355Y-17965546D02*
X378050943Y-18170369D01*
X378649999Y-18502431D01*
X379170048Y-18948166D01*
X379589849Y-19489369D01*
X379892254Y-20103936D01*
X380066794Y-20774005D01*
X380107925Y-21308556D01*
X380107926Y-148316894D01*
X380035580Y-149029125D01*
X379830757Y-149682716D01*
X379498694Y-150281774D01*
X379052956Y-150801825D01*
X378511751Y-151221627D01*
X377897189Y-151524029D01*
X377227121Y-151698569D01*
X376692569Y-151739700D01*
X21084221Y-151739700D01*
X20372000Y-151667355D01*
X19718409Y-151462532D01*
X19119351Y-151130469D01*
X18599300Y-150684731D01*
X18179498Y-150143526D01*
X17877096Y-149528964D01*
X17702556Y-148858896D01*
X17661425Y-148324344D01*
X17661425Y-148042010D01*
X19301901Y-148042010D01*
X19309287Y-148693049D01*
X19550549Y-149297778D01*
X19993337Y-149775109D01*
X20578275Y-150061035D01*
X21226927Y-150117214D01*
X21852314Y-149936114D01*
X22370576Y-149542019D01*
X22712216Y-148987774D01*
X22831425Y-148347700D01*
X22830967Y-148307362D01*
X22775291Y-148042010D01*
X108217526Y-148042010D01*
X108224912Y-148693049D01*
X108466174Y-149297778D01*
X108908962Y-149775109D01*
X109493900Y-150061035D01*
X110142552Y-150117214D01*
X110767939Y-149936114D01*
X111286201Y-149542019D01*
X111627841Y-148987774D01*
X111747050Y-148347700D01*
X111746592Y-148307362D01*
X111690916Y-148042010D01*
X197133151Y-148042010D01*
X197140537Y-148693049D01*
X197381799Y-149297778D01*
X197824587Y-149775109D01*
X198409525Y-150061035D01*
X199058177Y-150117214D01*
X199683564Y-149936114D01*
X200201826Y-149542019D01*
X200543466Y-148987774D01*
X200662675Y-148347700D01*
X200662217Y-148307362D01*
X200606541Y-148042010D01*
X286048776Y-148042010D01*
X286056162Y-148693049D01*
X286297424Y-149297778D01*
X286740212Y-149775109D01*
X287325150Y-150061035D01*
X287973802Y-150117214D01*
X288599189Y-149936114D01*
X289117451Y-149542019D01*
X289459091Y-148987774D01*
X289578300Y-148347700D01*
X289577842Y-148307362D01*
X289522166Y-148042010D01*
X374964401Y-148042010D01*
X374971787Y-148693049D01*
X375213049Y-149297778D01*
X375655837Y-149775109D01*
X376240775Y-150061035D01*
X376889427Y-150117214D01*
X377514814Y-149936114D01*
X378033076Y-149542019D01*
X378374716Y-148987774D01*
X378493925Y-148347700D01*
X378493467Y-148307362D01*
X378359768Y-147670157D01*
X378005641Y-147123806D01*
X377478572Y-146741570D01*
X376849237Y-146574705D01*
X376202026Y-146645586D01*
X375623726Y-146944708D01*
X375191882Y-147431962D01*
X374964401Y-148042010D01*
X289522166Y-148042010D01*
X289444143Y-147670157D01*
X289090016Y-147123806D01*
X288562947Y-146741570D01*
X287933612Y-146574705D01*
X287286401Y-146645586D01*
X286708101Y-146944708D01*
X286276257Y-147431962D01*
X286048776Y-148042010D01*
X200606541Y-148042010D01*
X200528518Y-147670157D01*
X200174391Y-147123806D01*
X199647322Y-146741570D01*
X199017987Y-146574705D01*
X198370776Y-146645586D01*
X197792476Y-146944708D01*
X197360632Y-147431962D01*
X197133151Y-148042010D01*
X111690916Y-148042010D01*
X111612893Y-147670157D01*
X111258766Y-147123806D01*
X110731697Y-146741570D01*
X110102362Y-146574705D01*
X109455151Y-146645586D01*
X108876851Y-146944708D01*
X108445007Y-147431962D01*
X108217526Y-148042010D01*
X22775291Y-148042010D01*
X22697268Y-147670157D01*
X22343141Y-147123806D01*
X21816072Y-146741570D01*
X21186737Y-146574705D01*
X20539526Y-146645586D01*
X19961226Y-146944708D01*
X19529382Y-147431962D01*
X19301901Y-148042010D01*
X17661425Y-148042010D01*
X17661425Y-84510760D01*
X19301901Y-84510760D01*
X19309287Y-85161799D01*
X19550549Y-85766528D01*
X19993337Y-86243859D01*
X20578275Y-86529785D01*
X21226927Y-86585964D01*
X21852314Y-86404864D01*
X22370576Y-86010769D01*
X22712216Y-85456524D01*
X22831425Y-84816450D01*
X22830967Y-84776112D01*
X22775291Y-84510760D01*
X374964401Y-84510760D01*
X374971787Y-85161799D01*
X375213049Y-85766528D01*
X375655837Y-86243859D01*
X376240775Y-86529785D01*
X376889427Y-86585964D01*
X377514814Y-86404864D01*
X378033076Y-86010769D01*
X378374716Y-85456524D01*
X378493925Y-84816450D01*
X378493467Y-84776112D01*
X378359768Y-84138907D01*
X378005641Y-83592556D01*
X377478572Y-83210320D01*
X376849237Y-83043455D01*
X376202026Y-83114336D01*
X375623726Y-83413458D01*
X375191882Y-83900712D01*
X374964401Y-84510760D01*
X22775291Y-84510760D01*
X22697268Y-84138907D01*
X22343141Y-83592556D01*
X21816072Y-83210320D01*
X21186737Y-83043455D01*
X20539526Y-83114336D01*
X19961226Y-83413458D01*
X19529382Y-83900712D01*
X19301901Y-84510760D01*
X17661425Y-84510760D01*
X17661425Y-21315995D01*
X17695604Y-20979510D01*
X19301901Y-20979510D01*
X19309287Y-21630549D01*
X19550549Y-22235278D01*
X19993337Y-22712609D01*
X20578275Y-22998535D01*
X21226927Y-23054714D01*
X21852314Y-22873614D01*
X22370576Y-22479519D01*
X22712216Y-21925274D01*
X22831425Y-21285200D01*
X22830967Y-21244862D01*
X22775291Y-20979510D01*
X108217526Y-20979510D01*
X108224912Y-21630549D01*
X108466174Y-22235278D01*
X108908962Y-22712609D01*
X109493900Y-22998535D01*
X110142552Y-23054714D01*
X110767939Y-22873614D01*
X111286201Y-22479519D01*
X111627841Y-21925274D01*
X111747050Y-21285200D01*
X111746592Y-21244862D01*
X111690916Y-20979510D01*
X197133151Y-20979510D01*
X197140537Y-21630549D01*
X197381799Y-22235278D01*
X197824587Y-22712609D01*
X198409525Y-22998535D01*
X199058177Y-23054714D01*
X199683564Y-22873614D01*
X200201826Y-22479519D01*
X200543466Y-21925274D01*
X200662675Y-21285200D01*
X200662217Y-21244862D01*
X200606541Y-20979510D01*
X286048776Y-20979510D01*
X286056162Y-21630549D01*
X286297424Y-22235278D01*
X286740212Y-22712609D01*
X287325150Y-22998535D01*
X287973802Y-23054714D01*
X288599189Y-22873614D01*
X289117451Y-22479519D01*
X289459091Y-21925274D01*
X289578300Y-21285200D01*
X289577842Y-21244862D01*
X289522166Y-20979510D01*
X374964401Y-20979510D01*
X374971787Y-21630549D01*
X375213049Y-22235278D01*
X375655837Y-22712609D01*
X376240775Y-22998535D01*
X376889427Y-23054714D01*
X377514814Y-22873614D01*
X378033076Y-22479519D01*
X378374716Y-21925274D01*
X378493925Y-21285200D01*
X378493467Y-21244862D01*
X378359768Y-20607657D01*
X378005641Y-20061306D01*
X377478572Y-19679070D01*
X376849237Y-19512205D01*
X376202026Y-19583086D01*
X375623726Y-19882208D01*
X375191882Y-20369462D01*
X374964401Y-20979510D01*
X289522166Y-20979510D01*
X289444143Y-20607657D01*
X289090016Y-20061306D01*
X288562947Y-19679070D01*
X287933612Y-19512205D01*
X287286401Y-19583086D01*
X286708101Y-19882208D01*
X286276257Y-20369462D01*
X286048776Y-20979510D01*
X200606541Y-20979510D01*
X200528518Y-20607657D01*
X200174391Y-20061306D01*
X199647322Y-19679070D01*
X199017987Y-19512205D01*
X198370776Y-19583086D01*
X197792476Y-19882208D01*
X197360632Y-20369462D01*
X197133151Y-20979510D01*
X111690916Y-20979510D01*
X111612893Y-20607657D01*
X111258766Y-20061306D01*
X110731697Y-19679070D01*
X110102362Y-19512205D01*
X109455151Y-19583086D01*
X108876851Y-19882208D01*
X108445007Y-20369462D01*
X108217526Y-20979510D01*
X22775291Y-20979510D01*
X22697268Y-20607657D01*
X22343141Y-20061306D01*
X21816072Y-19679070D01*
X21186737Y-19512205D01*
X20539526Y-19583086D01*
X19961226Y-19882208D01*
X19529382Y-20369462D01*
X19301901Y-20979510D01*
X17695604Y-20979510D01*
X17733771Y-20603770D01*
X17938594Y-19950182D01*
X18270656Y-19351126D01*
X18716391Y-18831077D01*
X19257594Y-18411276D01*
X19872161Y-18108871D01*
X20542230Y-17934331D01*
X21076781Y-17893200D01*
X376685130Y-17893200D01*
X377397355Y-17965546D01*
X377397355Y-17965546D01*
G37*
X377397355Y-17965546D02*
X378050943Y-18170369D01*
X378649999Y-18502431D01*
X379170048Y-18948166D01*
X379589849Y-19489369D01*
X379892254Y-20103936D01*
X380066794Y-20774005D01*
X380107925Y-21308556D01*
X380107926Y-148316894D01*
X380035580Y-149029125D01*
X379830757Y-149682716D01*
X379498694Y-150281774D01*
X379052956Y-150801825D01*
X378511751Y-151221627D01*
X377897189Y-151524029D01*
X377227121Y-151698569D01*
X376692569Y-151739700D01*
X21084221Y-151739700D01*
X20372000Y-151667355D01*
X19718409Y-151462532D01*
X19119351Y-151130469D01*
X18599300Y-150684731D01*
X18179498Y-150143526D01*
X17877096Y-149528964D01*
X17702556Y-148858896D01*
X17661425Y-148324344D01*
X17661425Y-148042010D01*
X19301901Y-148042010D01*
X19309287Y-148693049D01*
X19550549Y-149297778D01*
X19993337Y-149775109D01*
X20578275Y-150061035D01*
X21226927Y-150117214D01*
X21852314Y-149936114D01*
X22370576Y-149542019D01*
X22712216Y-148987774D01*
X22831425Y-148347700D01*
X22830967Y-148307362D01*
X22775291Y-148042010D01*
X108217526Y-148042010D01*
X108224912Y-148693049D01*
X108466174Y-149297778D01*
X108908962Y-149775109D01*
X109493900Y-150061035D01*
X110142552Y-150117214D01*
X110767939Y-149936114D01*
X111286201Y-149542019D01*
X111627841Y-148987774D01*
X111747050Y-148347700D01*
X111746592Y-148307362D01*
X111690916Y-148042010D01*
X197133151Y-148042010D01*
X197140537Y-148693049D01*
X197381799Y-149297778D01*
X197824587Y-149775109D01*
X198409525Y-150061035D01*
X199058177Y-150117214D01*
X199683564Y-149936114D01*
X200201826Y-149542019D01*
X200543466Y-148987774D01*
X200662675Y-148347700D01*
X200662217Y-148307362D01*
X200606541Y-148042010D01*
X286048776Y-148042010D01*
X286056162Y-148693049D01*
X286297424Y-149297778D01*
X286740212Y-149775109D01*
X287325150Y-150061035D01*
X287973802Y-150117214D01*
X288599189Y-149936114D01*
X289117451Y-149542019D01*
X289459091Y-148987774D01*
X289578300Y-148347700D01*
X289577842Y-148307362D01*
X289522166Y-148042010D01*
X374964401Y-148042010D01*
X374971787Y-148693049D01*
X375213049Y-149297778D01*
X375655837Y-149775109D01*
X376240775Y-150061035D01*
X376889427Y-150117214D01*
X377514814Y-149936114D01*
X378033076Y-149542019D01*
X378374716Y-148987774D01*
X378493925Y-148347700D01*
X378493467Y-148307362D01*
X378359768Y-147670157D01*
X378005641Y-147123806D01*
X377478572Y-146741570D01*
X376849237Y-146574705D01*
X376202026Y-146645586D01*
X375623726Y-146944708D01*
X375191882Y-147431962D01*
X374964401Y-148042010D01*
X289522166Y-148042010D01*
X289444143Y-147670157D01*
X289090016Y-147123806D01*
X288562947Y-146741570D01*
X287933612Y-146574705D01*
X287286401Y-146645586D01*
X286708101Y-146944708D01*
X286276257Y-147431962D01*
X286048776Y-148042010D01*
X200606541Y-148042010D01*
X200528518Y-147670157D01*
X200174391Y-147123806D01*
X199647322Y-146741570D01*
X199017987Y-146574705D01*
X198370776Y-146645586D01*
X197792476Y-146944708D01*
X197360632Y-147431962D01*
X197133151Y-148042010D01*
X111690916Y-148042010D01*
X111612893Y-147670157D01*
X111258766Y-147123806D01*
X110731697Y-146741570D01*
X110102362Y-146574705D01*
X109455151Y-146645586D01*
X108876851Y-146944708D01*
X108445007Y-147431962D01*
X108217526Y-148042010D01*
X22775291Y-148042010D01*
X22697268Y-147670157D01*
X22343141Y-147123806D01*
X21816072Y-146741570D01*
X21186737Y-146574705D01*
X20539526Y-146645586D01*
X19961226Y-146944708D01*
X19529382Y-147431962D01*
X19301901Y-148042010D01*
X17661425Y-148042010D01*
X17661425Y-84510760D01*
X19301901Y-84510760D01*
X19309287Y-85161799D01*
X19550549Y-85766528D01*
X19993337Y-86243859D01*
X20578275Y-86529785D01*
X21226927Y-86585964D01*
X21852314Y-86404864D01*
X22370576Y-86010769D01*
X22712216Y-85456524D01*
X22831425Y-84816450D01*
X22830967Y-84776112D01*
X22775291Y-84510760D01*
X374964401Y-84510760D01*
X374971787Y-85161799D01*
X375213049Y-85766528D01*
X375655837Y-86243859D01*
X376240775Y-86529785D01*
X376889427Y-86585964D01*
X377514814Y-86404864D01*
X378033076Y-86010769D01*
X378374716Y-85456524D01*
X378493925Y-84816450D01*
X378493467Y-84776112D01*
X378359768Y-84138907D01*
X378005641Y-83592556D01*
X377478572Y-83210320D01*
X376849237Y-83043455D01*
X376202026Y-83114336D01*
X375623726Y-83413458D01*
X375191882Y-83900712D01*
X374964401Y-84510760D01*
X22775291Y-84510760D01*
X22697268Y-84138907D01*
X22343141Y-83592556D01*
X21816072Y-83210320D01*
X21186737Y-83043455D01*
X20539526Y-83114336D01*
X19961226Y-83413458D01*
X19529382Y-83900712D01*
X19301901Y-84510760D01*
X17661425Y-84510760D01*
X17661425Y-21315995D01*
X17695604Y-20979510D01*
X19301901Y-20979510D01*
X19309287Y-21630549D01*
X19550549Y-22235278D01*
X19993337Y-22712609D01*
X20578275Y-22998535D01*
X21226927Y-23054714D01*
X21852314Y-22873614D01*
X22370576Y-22479519D01*
X22712216Y-21925274D01*
X22831425Y-21285200D01*
X22830967Y-21244862D01*
X22775291Y-20979510D01*
X108217526Y-20979510D01*
X108224912Y-21630549D01*
X108466174Y-22235278D01*
X108908962Y-22712609D01*
X109493900Y-22998535D01*
X110142552Y-23054714D01*
X110767939Y-22873614D01*
X111286201Y-22479519D01*
X111627841Y-21925274D01*
X111747050Y-21285200D01*
X111746592Y-21244862D01*
X111690916Y-20979510D01*
X197133151Y-20979510D01*
X197140537Y-21630549D01*
X197381799Y-22235278D01*
X197824587Y-22712609D01*
X198409525Y-22998535D01*
X199058177Y-23054714D01*
X199683564Y-22873614D01*
X200201826Y-22479519D01*
X200543466Y-21925274D01*
X200662675Y-21285200D01*
X200662217Y-21244862D01*
X200606541Y-20979510D01*
X286048776Y-20979510D01*
X286056162Y-21630549D01*
X286297424Y-22235278D01*
X286740212Y-22712609D01*
X287325150Y-22998535D01*
X287973802Y-23054714D01*
X288599189Y-22873614D01*
X289117451Y-22479519D01*
X289459091Y-21925274D01*
X289578300Y-21285200D01*
X289577842Y-21244862D01*
X289522166Y-20979510D01*
X374964401Y-20979510D01*
X374971787Y-21630549D01*
X375213049Y-22235278D01*
X375655837Y-22712609D01*
X376240775Y-22998535D01*
X376889427Y-23054714D01*
X377514814Y-22873614D01*
X378033076Y-22479519D01*
X378374716Y-21925274D01*
X378493925Y-21285200D01*
X378493467Y-21244862D01*
X378359768Y-20607657D01*
X378005641Y-20061306D01*
X377478572Y-19679070D01*
X376849237Y-19512205D01*
X376202026Y-19583086D01*
X375623726Y-19882208D01*
X375191882Y-20369462D01*
X374964401Y-20979510D01*
X289522166Y-20979510D01*
X289444143Y-20607657D01*
X289090016Y-20061306D01*
X288562947Y-19679070D01*
X287933612Y-19512205D01*
X287286401Y-19583086D01*
X286708101Y-19882208D01*
X286276257Y-20369462D01*
X286048776Y-20979510D01*
X200606541Y-20979510D01*
X200528518Y-20607657D01*
X200174391Y-20061306D01*
X199647322Y-19679070D01*
X199017987Y-19512205D01*
X198370776Y-19583086D01*
X197792476Y-19882208D01*
X197360632Y-20369462D01*
X197133151Y-20979510D01*
X111690916Y-20979510D01*
X111612893Y-20607657D01*
X111258766Y-20061306D01*
X110731697Y-19679070D01*
X110102362Y-19512205D01*
X109455151Y-19583086D01*
X108876851Y-19882208D01*
X108445007Y-20369462D01*
X108217526Y-20979510D01*
X22775291Y-20979510D01*
X22697268Y-20607657D01*
X22343141Y-20061306D01*
X21816072Y-19679070D01*
X21186737Y-19512205D01*
X20539526Y-19583086D01*
X19961226Y-19882208D01*
X19529382Y-20369462D01*
X19301901Y-20979510D01*
X17695604Y-20979510D01*
X17733771Y-20603770D01*
X17938594Y-19950182D01*
X18270656Y-19351126D01*
X18716391Y-18831077D01*
X19257594Y-18411276D01*
X19872161Y-18108871D01*
X20542230Y-17934331D01*
X21076781Y-17893200D01*
X376685130Y-17893200D01*
X377397355Y-17965546D01*
G04 #@! TD*
M02*
