G04 #@! TF.GenerationSoftware,KiCad,Pcbnew,(5.0.0)*
G04 #@! TF.CreationDate,2019-01-11T11:26:53-08:00*
G04 #@! TF.ProjectId,Celestine-SandwichCase-Bottom,43656C657374696E652D53616E647769,rev?*
G04 #@! TF.SameCoordinates,Original*
G04 #@! TF.FileFunction,Soldermask,Top*
G04 #@! TF.FilePolarity,Negative*
%FSLAX46Y46*%
G04 Gerber Fmt 4.6, Leading zero omitted, Abs format (unit mm)*
G04 Created by KiCad (PCBNEW (5.0.0)) date 01/11/19 11:26:53*
%MOMM*%
%LPD*%
G01*
G04 APERTURE LIST*
%ADD10C,0.300000*%
%ADD11C,0.010000*%
G04 APERTURE END LIST*
D10*
X29863392Y-141565178D02*
X29720535Y-141708035D01*
X29291964Y-141850892D01*
X29006249Y-141850892D01*
X28577678Y-141708035D01*
X28291964Y-141422321D01*
X28149107Y-141136607D01*
X28006249Y-140565178D01*
X28006249Y-140136607D01*
X28149107Y-139565178D01*
X28291964Y-139279464D01*
X28577678Y-138993750D01*
X29006249Y-138850892D01*
X29291964Y-138850892D01*
X29720535Y-138993750D01*
X29863392Y-139136607D01*
X32291964Y-141708035D02*
X32006249Y-141850892D01*
X31434821Y-141850892D01*
X31149107Y-141708035D01*
X31006249Y-141422321D01*
X31006249Y-140279464D01*
X31149107Y-139993750D01*
X31434821Y-139850892D01*
X32006249Y-139850892D01*
X32291964Y-139993750D01*
X32434821Y-140279464D01*
X32434821Y-140565178D01*
X31006249Y-140850892D01*
X34149107Y-141850892D02*
X33863392Y-141708035D01*
X33720535Y-141422321D01*
X33720535Y-138850892D01*
X36434821Y-141708035D02*
X36149107Y-141850892D01*
X35577678Y-141850892D01*
X35291964Y-141708035D01*
X35149107Y-141422321D01*
X35149107Y-140279464D01*
X35291964Y-139993750D01*
X35577678Y-139850892D01*
X36149107Y-139850892D01*
X36434821Y-139993750D01*
X36577678Y-140279464D01*
X36577678Y-140565178D01*
X35149107Y-140850892D01*
X37720535Y-141708035D02*
X38006249Y-141850892D01*
X38577678Y-141850892D01*
X38863392Y-141708035D01*
X39006250Y-141422321D01*
X39006250Y-141279464D01*
X38863392Y-140993750D01*
X38577678Y-140850892D01*
X38149107Y-140850892D01*
X37863392Y-140708035D01*
X37720535Y-140422321D01*
X37720535Y-140279464D01*
X37863392Y-139993750D01*
X38149107Y-139850892D01*
X38577678Y-139850892D01*
X38863392Y-139993750D01*
X39863392Y-139850892D02*
X41006250Y-139850892D01*
X40291964Y-138850892D02*
X40291964Y-141422321D01*
X40434821Y-141708035D01*
X40720535Y-141850892D01*
X41006250Y-141850892D01*
X42006250Y-141850892D02*
X42006250Y-139850892D01*
X42006250Y-138850892D02*
X41863392Y-138993750D01*
X42006250Y-139136607D01*
X42149107Y-138993750D01*
X42006250Y-138850892D01*
X42006250Y-139136607D01*
X43434821Y-139850892D02*
X43434821Y-141850892D01*
X43434821Y-140136607D02*
X43577678Y-139993750D01*
X43863392Y-139850892D01*
X44291964Y-139850892D01*
X44577678Y-139993750D01*
X44720535Y-140279464D01*
X44720535Y-141850892D01*
X47291964Y-141708035D02*
X47006250Y-141850892D01*
X46434821Y-141850892D01*
X46149107Y-141708035D01*
X46006250Y-141422321D01*
X46006250Y-140279464D01*
X46149107Y-139993750D01*
X46434821Y-139850892D01*
X47006250Y-139850892D01*
X47291964Y-139993750D01*
X47434821Y-140279464D01*
X47434821Y-140565178D01*
X46006250Y-140850892D01*
X50577678Y-138850892D02*
X52291964Y-138850892D01*
X51434821Y-141850892D02*
X51434821Y-138850892D01*
X53291964Y-141850892D02*
X53291964Y-138850892D01*
X55006250Y-141850892D02*
X53720535Y-140136607D01*
X55006250Y-138850892D02*
X53291964Y-140565178D01*
X57720535Y-141850892D02*
X56291964Y-141850892D01*
X56291964Y-138850892D01*
X60863392Y-140993750D02*
X62291964Y-140993750D01*
X60577678Y-141850892D02*
X61577678Y-138850892D01*
X62577678Y-141850892D01*
X64006250Y-141850892D02*
X63720535Y-141708035D01*
X63577678Y-141422321D01*
X63577678Y-138850892D01*
X65149107Y-139850892D02*
X65149107Y-142850892D01*
X65149107Y-139993750D02*
X65434821Y-139850892D01*
X66006250Y-139850892D01*
X66291964Y-139993750D01*
X66434821Y-140136607D01*
X66577678Y-140422321D01*
X66577678Y-141279464D01*
X66434821Y-141565178D01*
X66291964Y-141708035D01*
X66006250Y-141850892D01*
X65434821Y-141850892D01*
X65149107Y-141708035D01*
X67863392Y-141850892D02*
X67863392Y-138850892D01*
X69149107Y-141850892D02*
X69149107Y-140279464D01*
X69006250Y-139993750D01*
X68720535Y-139850892D01*
X68291964Y-139850892D01*
X68006250Y-139993750D01*
X67863392Y-140136607D01*
X71863392Y-141850892D02*
X71863392Y-140279464D01*
X71720535Y-139993750D01*
X71434821Y-139850892D01*
X70863392Y-139850892D01*
X70577678Y-139993750D01*
X71863392Y-141708035D02*
X71577678Y-141850892D01*
X70863392Y-141850892D01*
X70577678Y-141708035D01*
X70434821Y-141422321D01*
X70434821Y-141136607D01*
X70577678Y-140850892D01*
X70863392Y-140708035D01*
X71577678Y-140708035D01*
X71863392Y-140565178D01*
D11*
G04 #@! TO.C,G\002A\002A\002A*
G36*
X370208343Y-140263145D02*
X369526553Y-140263145D01*
X369526553Y-139581356D01*
X370208343Y-139581356D01*
X370208343Y-140263145D01*
X370208343Y-140263145D01*
G37*
X370208343Y-140263145D02*
X369526553Y-140263145D01*
X369526553Y-139581356D01*
X370208343Y-139581356D01*
X370208343Y-140263145D01*
G36*
X370890132Y-141586619D02*
X370208343Y-141586619D01*
X370208343Y-140944935D01*
X370890132Y-140944935D01*
X370890132Y-141586619D01*
X370890132Y-141586619D01*
G37*
X370890132Y-141586619D02*
X370208343Y-141586619D01*
X370208343Y-140944935D01*
X370890132Y-140944935D01*
X370890132Y-141586619D01*
G36*
X369526553Y-141586619D02*
X368884869Y-141586619D01*
X368884869Y-140944935D01*
X369526553Y-140944935D01*
X369526553Y-141586619D01*
X369526553Y-141586619D01*
G37*
X369526553Y-141586619D02*
X368884869Y-141586619D01*
X368884869Y-140944935D01*
X369526553Y-140944935D01*
X369526553Y-141586619D01*
G36*
X371531816Y-142950198D02*
X370890132Y-142950198D01*
X370890132Y-142268408D01*
X371531816Y-142268408D01*
X371531816Y-142950198D01*
X371531816Y-142950198D01*
G37*
X371531816Y-142950198D02*
X370890132Y-142950198D01*
X370890132Y-142268408D01*
X371531816Y-142268408D01*
X371531816Y-142950198D01*
G36*
X370208343Y-142950198D02*
X369526553Y-142950198D01*
X369526553Y-142268408D01*
X370208343Y-142268408D01*
X370208343Y-142950198D01*
X370208343Y-142950198D01*
G37*
X370208343Y-142950198D02*
X369526553Y-142950198D01*
X369526553Y-142268408D01*
X370208343Y-142268408D01*
X370208343Y-142950198D01*
G36*
X368884869Y-142950198D02*
X368203079Y-142950198D01*
X368203079Y-142268408D01*
X368884869Y-142268408D01*
X368884869Y-142950198D01*
X368884869Y-142950198D01*
G37*
X368884869Y-142950198D02*
X368203079Y-142950198D01*
X368203079Y-142268408D01*
X368884869Y-142268408D01*
X368884869Y-142950198D01*
G36*
X372213606Y-144273671D02*
X371531816Y-144273671D01*
X371531816Y-143591882D01*
X372213606Y-143591882D01*
X372213606Y-144273671D01*
X372213606Y-144273671D01*
G37*
X372213606Y-144273671D02*
X371531816Y-144273671D01*
X371531816Y-143591882D01*
X372213606Y-143591882D01*
X372213606Y-144273671D01*
G36*
X368203079Y-144273671D02*
X367521290Y-144273671D01*
X367521290Y-143591882D01*
X368203079Y-143591882D01*
X368203079Y-144273671D01*
X368203079Y-144273671D01*
G37*
X368203079Y-144273671D02*
X367521290Y-144273671D01*
X367521290Y-143591882D01*
X368203079Y-143591882D01*
X368203079Y-144273671D01*
G36*
X369894185Y-137075852D02*
X370103226Y-137078160D01*
X370291372Y-137085161D01*
X370464161Y-137097535D01*
X370627131Y-137115961D01*
X370785821Y-137141120D01*
X370945769Y-137173691D01*
X371112513Y-137214355D01*
X371188771Y-137234797D01*
X371540009Y-137344672D01*
X371880368Y-137478289D01*
X372208558Y-137634981D01*
X372523289Y-137814081D01*
X372823272Y-138014920D01*
X373079516Y-138213657D01*
X373345064Y-138450668D01*
X373593210Y-138705734D01*
X373822803Y-138977056D01*
X374032693Y-139262837D01*
X374221727Y-139561278D01*
X374388755Y-139870582D01*
X374532624Y-140188951D01*
X374652183Y-140514586D01*
X374734295Y-140797551D01*
X374789992Y-141033316D01*
X374832704Y-141255524D01*
X374863681Y-141473245D01*
X374884174Y-141695555D01*
X374895434Y-141931524D01*
X374896535Y-141974303D01*
X374891955Y-142341961D01*
X374861311Y-142703701D01*
X374804613Y-143059475D01*
X374721869Y-143409231D01*
X374613090Y-143752922D01*
X374504968Y-144029018D01*
X374457672Y-144138938D01*
X374417146Y-144230151D01*
X374380314Y-144308809D01*
X374344101Y-144381062D01*
X374305431Y-144453062D01*
X374261227Y-144530960D01*
X374212174Y-144614566D01*
X374011385Y-144928286D01*
X373792261Y-145222560D01*
X373554580Y-145497612D01*
X373298119Y-145753665D01*
X373022654Y-145990943D01*
X372727962Y-146209668D01*
X372420816Y-146405924D01*
X372331840Y-146458083D01*
X372254513Y-146501833D01*
X372182683Y-146540250D01*
X372110200Y-146576410D01*
X372030913Y-146613388D01*
X371938669Y-146654261D01*
X371835268Y-146698718D01*
X371673191Y-146765325D01*
X371523772Y-146820969D01*
X371377053Y-146868948D01*
X371223076Y-146912558D01*
X371083974Y-146947477D01*
X370806893Y-147007358D01*
X370542313Y-147050603D01*
X370282561Y-147078122D01*
X370019962Y-147090826D01*
X369867448Y-147091798D01*
X369781185Y-147090931D01*
X369700139Y-147089743D01*
X369629603Y-147088341D01*
X369574873Y-147086830D01*
X369541243Y-147085318D01*
X369539921Y-147085223D01*
X369175839Y-147044883D01*
X368817512Y-146979222D01*
X368466386Y-146888773D01*
X368123909Y-146774072D01*
X367791528Y-146635653D01*
X367470689Y-146474051D01*
X367162839Y-146289800D01*
X366908598Y-146112906D01*
X366617351Y-145879901D01*
X366346726Y-145630030D01*
X366097101Y-145363843D01*
X365868854Y-145081894D01*
X365662362Y-144784734D01*
X365478003Y-144472917D01*
X365316155Y-144146994D01*
X365177195Y-143807518D01*
X365061501Y-143455040D01*
X365041047Y-143382521D01*
X364996641Y-143211079D01*
X364960624Y-143048848D01*
X364932316Y-142890290D01*
X364911037Y-142729868D01*
X364896107Y-142562042D01*
X364886847Y-142381275D01*
X364882575Y-142182027D01*
X364882102Y-142087935D01*
X364883239Y-141994695D01*
X365779364Y-141994695D01*
X365779538Y-142129664D01*
X365782343Y-142263836D01*
X365787726Y-142390365D01*
X365795637Y-142502404D01*
X365801902Y-142562514D01*
X365855584Y-142894804D01*
X365934155Y-143217525D01*
X366037313Y-143530045D01*
X366164754Y-143831732D01*
X366316177Y-144121957D01*
X366491279Y-144400087D01*
X366689759Y-144665492D01*
X366911312Y-144917540D01*
X366948930Y-144956636D01*
X367175009Y-145170656D01*
X367420402Y-145369284D01*
X367680563Y-145549191D01*
X367950943Y-145707046D01*
X368028061Y-145746941D01*
X368153380Y-145808666D01*
X368263260Y-145859561D01*
X368365150Y-145902622D01*
X368466495Y-145940844D01*
X368574744Y-145977222D01*
X368684343Y-146010897D01*
X369003017Y-146094118D01*
X369315860Y-146152141D01*
X369625315Y-146185190D01*
X369933821Y-146193490D01*
X370243819Y-146177269D01*
X370355890Y-146165513D01*
X370671396Y-146116766D01*
X370973848Y-146046351D01*
X371267470Y-145953004D01*
X371556483Y-145835463D01*
X371719780Y-145757656D01*
X372007160Y-145600319D01*
X372275650Y-145425607D01*
X372526527Y-145232364D01*
X372761066Y-145019440D01*
X372980543Y-144785679D01*
X373186236Y-144529930D01*
X373368582Y-144267793D01*
X373410898Y-144198417D01*
X373460285Y-144110623D01*
X373513675Y-144010507D01*
X373568003Y-143904166D01*
X373620205Y-143797697D01*
X373667215Y-143697194D01*
X373705968Y-143608756D01*
X373728600Y-143551777D01*
X373834482Y-143229181D01*
X373914307Y-142904569D01*
X373968005Y-142578850D01*
X373995510Y-142252939D01*
X373996752Y-141927746D01*
X373971664Y-141604183D01*
X373920178Y-141283164D01*
X373903667Y-141205619D01*
X373846995Y-140976073D01*
X373782477Y-140763554D01*
X373706792Y-140558736D01*
X373616617Y-140352294D01*
X373553191Y-140221811D01*
X373395372Y-139937435D01*
X373215457Y-139667226D01*
X373014739Y-139412396D01*
X372794511Y-139174158D01*
X372556065Y-138953724D01*
X372300695Y-138752307D01*
X372029694Y-138571120D01*
X371744354Y-138411374D01*
X371501522Y-138297637D01*
X371212463Y-138185814D01*
X370921846Y-138098239D01*
X370626289Y-138034225D01*
X370322407Y-137993084D01*
X370006819Y-137974129D01*
X369900869Y-137972631D01*
X369567236Y-137983360D01*
X369244495Y-138018129D01*
X368931341Y-138077332D01*
X368626472Y-138161362D01*
X368328584Y-138270615D01*
X368036374Y-138405484D01*
X367748539Y-138566362D01*
X367578944Y-138674504D01*
X367344109Y-138845498D01*
X367118091Y-139038350D01*
X366903654Y-139249821D01*
X366703560Y-139476671D01*
X366520572Y-139715660D01*
X366357454Y-139963550D01*
X366216969Y-140217101D01*
X366158366Y-140339912D01*
X366054950Y-140583885D01*
X365970350Y-140818392D01*
X365902549Y-141050726D01*
X365849531Y-141288179D01*
X365809279Y-141538044D01*
X365795130Y-141653461D01*
X365787108Y-141749747D01*
X365781870Y-141865774D01*
X365779364Y-141994695D01*
X364883239Y-141994695D01*
X364885041Y-141847100D01*
X364894934Y-141626693D01*
X364912743Y-141421082D01*
X364939433Y-141224636D01*
X364975968Y-141031725D01*
X365023310Y-140836719D01*
X365082424Y-140633986D01*
X365154274Y-140417896D01*
X365180707Y-140343356D01*
X365312723Y-140015408D01*
X365469086Y-139698214D01*
X365649474Y-139392215D01*
X365853568Y-139097854D01*
X366081044Y-138815572D01*
X366331583Y-138545811D01*
X366604862Y-138289014D01*
X366784799Y-138137131D01*
X366929352Y-138026827D01*
X367093629Y-137913436D01*
X367271497Y-137800682D01*
X367456825Y-137692291D01*
X367643481Y-137591987D01*
X367825334Y-137503495D01*
X367835448Y-137498875D01*
X367953276Y-137448563D01*
X368090002Y-137395703D01*
X368238266Y-137342785D01*
X368390707Y-137292302D01*
X368539966Y-137246743D01*
X368678682Y-137208600D01*
X368732385Y-137195306D01*
X368889394Y-137160329D01*
X369039246Y-137132270D01*
X369187464Y-137110560D01*
X369339575Y-137094631D01*
X369501105Y-137083915D01*
X369677580Y-137077844D01*
X369874524Y-137075850D01*
X369894185Y-137075852D01*
X369894185Y-137075852D01*
G37*
X369894185Y-137075852D02*
X370103226Y-137078160D01*
X370291372Y-137085161D01*
X370464161Y-137097535D01*
X370627131Y-137115961D01*
X370785821Y-137141120D01*
X370945769Y-137173691D01*
X371112513Y-137214355D01*
X371188771Y-137234797D01*
X371540009Y-137344672D01*
X371880368Y-137478289D01*
X372208558Y-137634981D01*
X372523289Y-137814081D01*
X372823272Y-138014920D01*
X373079516Y-138213657D01*
X373345064Y-138450668D01*
X373593210Y-138705734D01*
X373822803Y-138977056D01*
X374032693Y-139262837D01*
X374221727Y-139561278D01*
X374388755Y-139870582D01*
X374532624Y-140188951D01*
X374652183Y-140514586D01*
X374734295Y-140797551D01*
X374789992Y-141033316D01*
X374832704Y-141255524D01*
X374863681Y-141473245D01*
X374884174Y-141695555D01*
X374895434Y-141931524D01*
X374896535Y-141974303D01*
X374891955Y-142341961D01*
X374861311Y-142703701D01*
X374804613Y-143059475D01*
X374721869Y-143409231D01*
X374613090Y-143752922D01*
X374504968Y-144029018D01*
X374457672Y-144138938D01*
X374417146Y-144230151D01*
X374380314Y-144308809D01*
X374344101Y-144381062D01*
X374305431Y-144453062D01*
X374261227Y-144530960D01*
X374212174Y-144614566D01*
X374011385Y-144928286D01*
X373792261Y-145222560D01*
X373554580Y-145497612D01*
X373298119Y-145753665D01*
X373022654Y-145990943D01*
X372727962Y-146209668D01*
X372420816Y-146405924D01*
X372331840Y-146458083D01*
X372254513Y-146501833D01*
X372182683Y-146540250D01*
X372110200Y-146576410D01*
X372030913Y-146613388D01*
X371938669Y-146654261D01*
X371835268Y-146698718D01*
X371673191Y-146765325D01*
X371523772Y-146820969D01*
X371377053Y-146868948D01*
X371223076Y-146912558D01*
X371083974Y-146947477D01*
X370806893Y-147007358D01*
X370542313Y-147050603D01*
X370282561Y-147078122D01*
X370019962Y-147090826D01*
X369867448Y-147091798D01*
X369781185Y-147090931D01*
X369700139Y-147089743D01*
X369629603Y-147088341D01*
X369574873Y-147086830D01*
X369541243Y-147085318D01*
X369539921Y-147085223D01*
X369175839Y-147044883D01*
X368817512Y-146979222D01*
X368466386Y-146888773D01*
X368123909Y-146774072D01*
X367791528Y-146635653D01*
X367470689Y-146474051D01*
X367162839Y-146289800D01*
X366908598Y-146112906D01*
X366617351Y-145879901D01*
X366346726Y-145630030D01*
X366097101Y-145363843D01*
X365868854Y-145081894D01*
X365662362Y-144784734D01*
X365478003Y-144472917D01*
X365316155Y-144146994D01*
X365177195Y-143807518D01*
X365061501Y-143455040D01*
X365041047Y-143382521D01*
X364996641Y-143211079D01*
X364960624Y-143048848D01*
X364932316Y-142890290D01*
X364911037Y-142729868D01*
X364896107Y-142562042D01*
X364886847Y-142381275D01*
X364882575Y-142182027D01*
X364882102Y-142087935D01*
X364883239Y-141994695D01*
X365779364Y-141994695D01*
X365779538Y-142129664D01*
X365782343Y-142263836D01*
X365787726Y-142390365D01*
X365795637Y-142502404D01*
X365801902Y-142562514D01*
X365855584Y-142894804D01*
X365934155Y-143217525D01*
X366037313Y-143530045D01*
X366164754Y-143831732D01*
X366316177Y-144121957D01*
X366491279Y-144400087D01*
X366689759Y-144665492D01*
X366911312Y-144917540D01*
X366948930Y-144956636D01*
X367175009Y-145170656D01*
X367420402Y-145369284D01*
X367680563Y-145549191D01*
X367950943Y-145707046D01*
X368028061Y-145746941D01*
X368153380Y-145808666D01*
X368263260Y-145859561D01*
X368365150Y-145902622D01*
X368466495Y-145940844D01*
X368574744Y-145977222D01*
X368684343Y-146010897D01*
X369003017Y-146094118D01*
X369315860Y-146152141D01*
X369625315Y-146185190D01*
X369933821Y-146193490D01*
X370243819Y-146177269D01*
X370355890Y-146165513D01*
X370671396Y-146116766D01*
X370973848Y-146046351D01*
X371267470Y-145953004D01*
X371556483Y-145835463D01*
X371719780Y-145757656D01*
X372007160Y-145600319D01*
X372275650Y-145425607D01*
X372526527Y-145232364D01*
X372761066Y-145019440D01*
X372980543Y-144785679D01*
X373186236Y-144529930D01*
X373368582Y-144267793D01*
X373410898Y-144198417D01*
X373460285Y-144110623D01*
X373513675Y-144010507D01*
X373568003Y-143904166D01*
X373620205Y-143797697D01*
X373667215Y-143697194D01*
X373705968Y-143608756D01*
X373728600Y-143551777D01*
X373834482Y-143229181D01*
X373914307Y-142904569D01*
X373968005Y-142578850D01*
X373995510Y-142252939D01*
X373996752Y-141927746D01*
X373971664Y-141604183D01*
X373920178Y-141283164D01*
X373903667Y-141205619D01*
X373846995Y-140976073D01*
X373782477Y-140763554D01*
X373706792Y-140558736D01*
X373616617Y-140352294D01*
X373553191Y-140221811D01*
X373395372Y-139937435D01*
X373215457Y-139667226D01*
X373014739Y-139412396D01*
X372794511Y-139174158D01*
X372556065Y-138953724D01*
X372300695Y-138752307D01*
X372029694Y-138571120D01*
X371744354Y-138411374D01*
X371501522Y-138297637D01*
X371212463Y-138185814D01*
X370921846Y-138098239D01*
X370626289Y-138034225D01*
X370322407Y-137993084D01*
X370006819Y-137974129D01*
X369900869Y-137972631D01*
X369567236Y-137983360D01*
X369244495Y-138018129D01*
X368931341Y-138077332D01*
X368626472Y-138161362D01*
X368328584Y-138270615D01*
X368036374Y-138405484D01*
X367748539Y-138566362D01*
X367578944Y-138674504D01*
X367344109Y-138845498D01*
X367118091Y-139038350D01*
X366903654Y-139249821D01*
X366703560Y-139476671D01*
X366520572Y-139715660D01*
X366357454Y-139963550D01*
X366216969Y-140217101D01*
X366158366Y-140339912D01*
X366054950Y-140583885D01*
X365970350Y-140818392D01*
X365902549Y-141050726D01*
X365849531Y-141288179D01*
X365809279Y-141538044D01*
X365795130Y-141653461D01*
X365787108Y-141749747D01*
X365781870Y-141865774D01*
X365779364Y-141994695D01*
X364883239Y-141994695D01*
X364885041Y-141847100D01*
X364894934Y-141626693D01*
X364912743Y-141421082D01*
X364939433Y-141224636D01*
X364975968Y-141031725D01*
X365023310Y-140836719D01*
X365082424Y-140633986D01*
X365154274Y-140417896D01*
X365180707Y-140343356D01*
X365312723Y-140015408D01*
X365469086Y-139698214D01*
X365649474Y-139392215D01*
X365853568Y-139097854D01*
X366081044Y-138815572D01*
X366331583Y-138545811D01*
X366604862Y-138289014D01*
X366784799Y-138137131D01*
X366929352Y-138026827D01*
X367093629Y-137913436D01*
X367271497Y-137800682D01*
X367456825Y-137692291D01*
X367643481Y-137591987D01*
X367825334Y-137503495D01*
X367835448Y-137498875D01*
X367953276Y-137448563D01*
X368090002Y-137395703D01*
X368238266Y-137342785D01*
X368390707Y-137292302D01*
X368539966Y-137246743D01*
X368678682Y-137208600D01*
X368732385Y-137195306D01*
X368889394Y-137160329D01*
X369039246Y-137132270D01*
X369187464Y-137110560D01*
X369339575Y-137094631D01*
X369501105Y-137083915D01*
X369677580Y-137077844D01*
X369874524Y-137075850D01*
X369894185Y-137075852D01*
G04 #@! TD*
M02*
