G04 #@! TF.GenerationSoftware,KiCad,Pcbnew,(5.0.0)*
G04 #@! TF.CreationDate,2019-01-11T00:29:23-08:00*
G04 #@! TF.ProjectId,Celestine,43656C657374696E652E6B696361645F,rev?*
G04 #@! TF.SameCoordinates,Original*
G04 #@! TF.FileFunction,Copper,L2,Bot,Signal*
G04 #@! TF.FilePolarity,Positive*
%FSLAX46Y46*%
G04 Gerber Fmt 4.6, Leading zero omitted, Abs format (unit mm)*
G04 Created by KiCad (PCBNEW (5.0.0)) date 01/11/19 00:29:23*
%MOMM*%
%LPD*%
G01*
G04 APERTURE LIST*
G04 #@! TA.AperFunction,NonConductor*
%ADD10C,0.300000*%
G04 #@! TD*
G04 #@! TA.AperFunction,EtchedComponent*
%ADD11C,0.010000*%
G04 #@! TD*
G04 #@! TA.AperFunction,SMDPad,CuDef*
%ADD12R,0.800000X0.750000*%
G04 #@! TD*
G04 #@! TA.AperFunction,SMDPad,CuDef*
%ADD13R,0.750000X0.800000*%
G04 #@! TD*
G04 #@! TA.AperFunction,SMDPad,CuDef*
%ADD14R,1.200000X0.900000*%
G04 #@! TD*
G04 #@! TA.AperFunction,SMDPad,CuDef*
%ADD15R,2.030000X1.140000*%
G04 #@! TD*
G04 #@! TA.AperFunction,ComponentPad*
%ADD16C,3.180000*%
G04 #@! TD*
G04 #@! TA.AperFunction,SMDPad,CuDef*
%ADD17R,1.300000X0.700000*%
G04 #@! TD*
G04 #@! TA.AperFunction,SMDPad,CuDef*
%ADD18R,0.700000X1.300000*%
G04 #@! TD*
G04 #@! TA.AperFunction,SMDPad,CuDef*
%ADD19R,1.100000X1.800000*%
G04 #@! TD*
G04 #@! TA.AperFunction,SMDPad,CuDef*
%ADD20R,0.700000X0.600000*%
G04 #@! TD*
G04 #@! TA.AperFunction,SMDPad,CuDef*
%ADD21R,0.700000X1.000000*%
G04 #@! TD*
G04 #@! TA.AperFunction,ComponentPad*
%ADD22O,1.000000X1.600000*%
G04 #@! TD*
G04 #@! TA.AperFunction,ComponentPad*
%ADD23O,1.000000X2.100000*%
G04 #@! TD*
G04 #@! TA.AperFunction,SMDPad,CuDef*
%ADD24R,0.300000X1.450000*%
G04 #@! TD*
G04 #@! TA.AperFunction,SMDPad,CuDef*
%ADD25R,0.600000X1.450000*%
G04 #@! TD*
G04 #@! TA.AperFunction,SMDPad,CuDef*
%ADD26R,1.200000X1.400000*%
G04 #@! TD*
G04 #@! TA.AperFunction,SMDPad,CuDef*
%ADD27R,1.500000X0.550000*%
G04 #@! TD*
G04 #@! TA.AperFunction,SMDPad,CuDef*
%ADD28R,0.550000X1.500000*%
G04 #@! TD*
G04 #@! TA.AperFunction,ViaPad*
%ADD29C,0.800000*%
G04 #@! TD*
G04 #@! TA.AperFunction,Conductor*
%ADD30C,0.381000*%
G04 #@! TD*
G04 #@! TA.AperFunction,Conductor*
%ADD31C,0.203200*%
G04 #@! TD*
G04 #@! TA.AperFunction,Conductor*
%ADD32C,1.270000*%
G04 #@! TD*
G04 #@! TA.AperFunction,Conductor*
%ADD33C,0.635000*%
G04 #@! TD*
G04 #@! TA.AperFunction,Conductor*
%ADD34C,0.254000*%
G04 #@! TD*
G04 #@! TA.AperFunction,Conductor*
%ADD35C,0.250000*%
G04 #@! TD*
G04 APERTURE END LIST*
D10*
X69670535Y-62384821D02*
X69384821Y-63384821D01*
X69099107Y-62670535D01*
X68813392Y-63384821D01*
X68527678Y-62384821D01*
X68099107Y-62384821D02*
X67813392Y-63384821D01*
X67527678Y-62670535D01*
X67241964Y-63384821D01*
X66956250Y-62384821D01*
X66527678Y-62384821D02*
X66241964Y-63384821D01*
X65956250Y-62670535D01*
X65670535Y-63384821D01*
X65384821Y-62384821D01*
X64813392Y-63241964D02*
X64741964Y-63313392D01*
X64813392Y-63384821D01*
X64884821Y-63313392D01*
X64813392Y-63241964D01*
X64813392Y-63384821D01*
X63456250Y-63384821D02*
X63456250Y-62599107D01*
X63527678Y-62456250D01*
X63670535Y-62384821D01*
X63956250Y-62384821D01*
X64099107Y-62456250D01*
X63456250Y-63313392D02*
X63599107Y-63384821D01*
X63956250Y-63384821D01*
X64099107Y-63313392D01*
X64170535Y-63170535D01*
X64170535Y-63027678D01*
X64099107Y-62884821D01*
X63956250Y-62813392D01*
X63599107Y-62813392D01*
X63456250Y-62741964D01*
X62741964Y-63384821D02*
X62741964Y-62384821D01*
X62741964Y-61884821D02*
X62813392Y-61956250D01*
X62741964Y-62027678D01*
X62670535Y-61956250D01*
X62741964Y-61884821D01*
X62741964Y-62027678D01*
X61741964Y-61884821D02*
X61599107Y-61884821D01*
X61456250Y-61956250D01*
X61384821Y-62027678D01*
X61313392Y-62170535D01*
X61241964Y-62456250D01*
X61241964Y-62813392D01*
X61313392Y-63099107D01*
X61384821Y-63241964D01*
X61456250Y-63313392D01*
X61599107Y-63384821D01*
X61741964Y-63384821D01*
X61884821Y-63313392D01*
X61956250Y-63241964D01*
X62027678Y-63099107D01*
X62099107Y-62813392D01*
X62099107Y-62456250D01*
X62027678Y-62170535D01*
X61956250Y-62027678D01*
X61884821Y-61956250D01*
X61741964Y-61884821D01*
X60741964Y-61884821D02*
X59813392Y-61884821D01*
X60313392Y-62456250D01*
X60099107Y-62456250D01*
X59956250Y-62527678D01*
X59884821Y-62599107D01*
X59813392Y-62741964D01*
X59813392Y-63099107D01*
X59884821Y-63241964D01*
X59956250Y-63313392D01*
X60099107Y-63384821D01*
X60527678Y-63384821D01*
X60670535Y-63313392D01*
X60741964Y-63241964D01*
X59170535Y-63241964D02*
X59099107Y-63313392D01*
X59170535Y-63384821D01*
X59241964Y-63313392D01*
X59170535Y-63241964D01*
X59170535Y-63384821D01*
X58456250Y-63384821D02*
X58456250Y-62384821D01*
X58456250Y-62527678D02*
X58384821Y-62456250D01*
X58241964Y-62384821D01*
X58027678Y-62384821D01*
X57884821Y-62456250D01*
X57813392Y-62599107D01*
X57813392Y-63384821D01*
X57813392Y-62599107D02*
X57741964Y-62456250D01*
X57599107Y-62384821D01*
X57384821Y-62384821D01*
X57241964Y-62456250D01*
X57170535Y-62599107D01*
X57170535Y-63384821D01*
X55884821Y-63313392D02*
X56027678Y-63384821D01*
X56313392Y-63384821D01*
X56456250Y-63313392D01*
X56527678Y-63170535D01*
X56527678Y-62599107D01*
X56456250Y-62456250D01*
X56313392Y-62384821D01*
X56027678Y-62384821D01*
X55884821Y-62456250D01*
X55813392Y-62599107D01*
X55813392Y-62741964D01*
X56527678Y-62884821D01*
X263394642Y-63241964D02*
X263466071Y-63313392D01*
X263680357Y-63384821D01*
X263823214Y-63384821D01*
X264037500Y-63313392D01*
X264180357Y-63170535D01*
X264251785Y-63027678D01*
X264323214Y-62741964D01*
X264323214Y-62527678D01*
X264251785Y-62241964D01*
X264180357Y-62099107D01*
X264037500Y-61956250D01*
X263823214Y-61884821D01*
X263680357Y-61884821D01*
X263466071Y-61956250D01*
X263394642Y-62027678D01*
X262180357Y-63313392D02*
X262323214Y-63384821D01*
X262608928Y-63384821D01*
X262751785Y-63313392D01*
X262823214Y-63170535D01*
X262823214Y-62599107D01*
X262751785Y-62456250D01*
X262608928Y-62384821D01*
X262323214Y-62384821D01*
X262180357Y-62456250D01*
X262108928Y-62599107D01*
X262108928Y-62741964D01*
X262823214Y-62884821D01*
X261251785Y-63384821D02*
X261394642Y-63313392D01*
X261466071Y-63170535D01*
X261466071Y-61884821D01*
X260108928Y-63313392D02*
X260251785Y-63384821D01*
X260537500Y-63384821D01*
X260680357Y-63313392D01*
X260751785Y-63170535D01*
X260751785Y-62599107D01*
X260680357Y-62456250D01*
X260537500Y-62384821D01*
X260251785Y-62384821D01*
X260108928Y-62456250D01*
X260037500Y-62599107D01*
X260037500Y-62741964D01*
X260751785Y-62884821D01*
X259466071Y-63313392D02*
X259323214Y-63384821D01*
X259037500Y-63384821D01*
X258894642Y-63313392D01*
X258823214Y-63170535D01*
X258823214Y-63099107D01*
X258894642Y-62956250D01*
X259037500Y-62884821D01*
X259251785Y-62884821D01*
X259394642Y-62813392D01*
X259466071Y-62670535D01*
X259466071Y-62599107D01*
X259394642Y-62456250D01*
X259251785Y-62384821D01*
X259037500Y-62384821D01*
X258894642Y-62456250D01*
X258394642Y-62384821D02*
X257823214Y-62384821D01*
X258180357Y-61884821D02*
X258180357Y-63170535D01*
X258108928Y-63313392D01*
X257966071Y-63384821D01*
X257823214Y-63384821D01*
X257323214Y-63384821D02*
X257323214Y-62384821D01*
X257323214Y-61884821D02*
X257394642Y-61956250D01*
X257323214Y-62027678D01*
X257251785Y-61956250D01*
X257323214Y-61884821D01*
X257323214Y-62027678D01*
X256608928Y-62384821D02*
X256608928Y-63384821D01*
X256608928Y-62527678D02*
X256537500Y-62456250D01*
X256394642Y-62384821D01*
X256180357Y-62384821D01*
X256037500Y-62456250D01*
X255966071Y-62599107D01*
X255966071Y-63384821D01*
X254680357Y-63313392D02*
X254823214Y-63384821D01*
X255108928Y-63384821D01*
X255251785Y-63313392D01*
X255323214Y-63170535D01*
X255323214Y-62599107D01*
X255251785Y-62456250D01*
X255108928Y-62384821D01*
X254823214Y-62384821D01*
X254680357Y-62456250D01*
X254608928Y-62599107D01*
X254608928Y-62741964D01*
X255323214Y-62884821D01*
X253037500Y-61884821D02*
X252180357Y-61884821D01*
X252608928Y-63384821D02*
X252608928Y-61884821D01*
X251680357Y-63384821D02*
X251680357Y-61884821D01*
X250823214Y-63384821D02*
X251466071Y-62527678D01*
X250823214Y-61884821D02*
X251680357Y-62741964D01*
X249466071Y-63384821D02*
X250180357Y-63384821D01*
X250180357Y-61884821D01*
X247823214Y-63384821D02*
X247823214Y-61884821D01*
X247251785Y-61884821D01*
X247108928Y-61956250D01*
X247037499Y-62027678D01*
X246966071Y-62170535D01*
X246966071Y-62384821D01*
X247037499Y-62527678D01*
X247108928Y-62599107D01*
X247251785Y-62670535D01*
X247823214Y-62670535D01*
X245466071Y-63241964D02*
X245537499Y-63313392D01*
X245751785Y-63384821D01*
X245894642Y-63384821D01*
X246108928Y-63313392D01*
X246251785Y-63170535D01*
X246323214Y-63027678D01*
X246394642Y-62741964D01*
X246394642Y-62527678D01*
X246323214Y-62241964D01*
X246251785Y-62099107D01*
X246108928Y-61956250D01*
X245894642Y-61884821D01*
X245751785Y-61884821D01*
X245537499Y-61956250D01*
X245466071Y-62027678D01*
X244323214Y-62599107D02*
X244108928Y-62670535D01*
X244037499Y-62741964D01*
X243966071Y-62884821D01*
X243966071Y-63099107D01*
X244037499Y-63241964D01*
X244108928Y-63313392D01*
X244251785Y-63384821D01*
X244823214Y-63384821D01*
X244823214Y-61884821D01*
X244323214Y-61884821D01*
X244180357Y-61956250D01*
X244108928Y-62027678D01*
X244037499Y-62170535D01*
X244037499Y-62313392D01*
X244108928Y-62456250D01*
X244180357Y-62527678D01*
X244323214Y-62599107D01*
X244823214Y-62599107D01*
X241323214Y-63384821D02*
X241823214Y-62670535D01*
X242180357Y-63384821D02*
X242180357Y-61884821D01*
X241608928Y-61884821D01*
X241466071Y-61956250D01*
X241394642Y-62027678D01*
X241323214Y-62170535D01*
X241323214Y-62384821D01*
X241394642Y-62527678D01*
X241466071Y-62599107D01*
X241608928Y-62670535D01*
X242180357Y-62670535D01*
X240108928Y-63313392D02*
X240251785Y-63384821D01*
X240537499Y-63384821D01*
X240680357Y-63313392D01*
X240751785Y-63170535D01*
X240751785Y-62599107D01*
X240680357Y-62456250D01*
X240537499Y-62384821D01*
X240251785Y-62384821D01*
X240108928Y-62456250D01*
X240037499Y-62599107D01*
X240037499Y-62741964D01*
X240751785Y-62884821D01*
X239537499Y-62384821D02*
X239180357Y-63384821D01*
X238823214Y-62384821D01*
X238251785Y-63384821D02*
X238251785Y-62384821D01*
X238251785Y-61884821D02*
X238323214Y-61956250D01*
X238251785Y-62027678D01*
X238180357Y-61956250D01*
X238251785Y-61884821D01*
X238251785Y-62027678D01*
X237608928Y-63313392D02*
X237466071Y-63384821D01*
X237180357Y-63384821D01*
X237037499Y-63313392D01*
X236966071Y-63170535D01*
X236966071Y-63099107D01*
X237037499Y-62956250D01*
X237180357Y-62884821D01*
X237394642Y-62884821D01*
X237537499Y-62813392D01*
X237608928Y-62670535D01*
X237608928Y-62599107D01*
X237537499Y-62456250D01*
X237394642Y-62384821D01*
X237180357Y-62384821D01*
X237037499Y-62456250D01*
X236323214Y-63384821D02*
X236323214Y-62384821D01*
X236323214Y-61884821D02*
X236394642Y-61956250D01*
X236323214Y-62027678D01*
X236251785Y-61956250D01*
X236323214Y-61884821D01*
X236323214Y-62027678D01*
X235394642Y-63384821D02*
X235537499Y-63313392D01*
X235608928Y-63241964D01*
X235680357Y-63099107D01*
X235680357Y-62670535D01*
X235608928Y-62527678D01*
X235537499Y-62456250D01*
X235394642Y-62384821D01*
X235180357Y-62384821D01*
X235037499Y-62456250D01*
X234966071Y-62527678D01*
X234894642Y-62670535D01*
X234894642Y-63099107D01*
X234966071Y-63241964D01*
X235037499Y-63313392D01*
X235180357Y-63384821D01*
X235394642Y-63384821D01*
X234251785Y-62384821D02*
X234251785Y-63384821D01*
X234251785Y-62527678D02*
X234180357Y-62456250D01*
X234037499Y-62384821D01*
X233823214Y-62384821D01*
X233680357Y-62456250D01*
X233608928Y-62599107D01*
X233608928Y-63384821D01*
X230966071Y-63384821D02*
X231823214Y-63384821D01*
X231394642Y-63384821D02*
X231394642Y-61884821D01*
X231537499Y-62099107D01*
X231680357Y-62241964D01*
X231823214Y-62313392D01*
X230323214Y-63241964D02*
X230251785Y-63313392D01*
X230323214Y-63384821D01*
X230394642Y-63313392D01*
X230323214Y-63241964D01*
X230323214Y-63384821D01*
X229323214Y-61884821D02*
X229180357Y-61884821D01*
X229037499Y-61956250D01*
X228966071Y-62027678D01*
X228894642Y-62170535D01*
X228823214Y-62456250D01*
X228823214Y-62813392D01*
X228894642Y-63099107D01*
X228966071Y-63241964D01*
X229037499Y-63313392D01*
X229180357Y-63384821D01*
X229323214Y-63384821D01*
X229466071Y-63313392D01*
X229537499Y-63241964D01*
X229608928Y-63099107D01*
X229680357Y-62813392D01*
X229680357Y-62456250D01*
X229608928Y-62170535D01*
X229537499Y-62027678D01*
X229466071Y-61956250D01*
X229323214Y-61884821D01*
X227108928Y-62027678D02*
X227037499Y-61956250D01*
X226894642Y-61884821D01*
X226537499Y-61884821D01*
X226394642Y-61956250D01*
X226323214Y-62027678D01*
X226251785Y-62170535D01*
X226251785Y-62313392D01*
X226323214Y-62527678D01*
X227180357Y-63384821D01*
X226251785Y-63384821D01*
X225323214Y-61884821D02*
X225180357Y-61884821D01*
X225037499Y-61956250D01*
X224966071Y-62027678D01*
X224894642Y-62170535D01*
X224823214Y-62456250D01*
X224823214Y-62813392D01*
X224894642Y-63099107D01*
X224966071Y-63241964D01*
X225037499Y-63313392D01*
X225180357Y-63384821D01*
X225323214Y-63384821D01*
X225466071Y-63313392D01*
X225537499Y-63241964D01*
X225608928Y-63099107D01*
X225680357Y-62813392D01*
X225680357Y-62456250D01*
X225608928Y-62170535D01*
X225537499Y-62027678D01*
X225466071Y-61956250D01*
X225323214Y-61884821D01*
X223394642Y-63384821D02*
X224251785Y-63384821D01*
X223823214Y-63384821D02*
X223823214Y-61884821D01*
X223966071Y-62099107D01*
X224108928Y-62241964D01*
X224251785Y-62313392D01*
X222680357Y-63384821D02*
X222394642Y-63384821D01*
X222251785Y-63313392D01*
X222180357Y-63241964D01*
X222037499Y-63027678D01*
X221966071Y-62741964D01*
X221966071Y-62170535D01*
X222037499Y-62027678D01*
X222108928Y-61956250D01*
X222251785Y-61884821D01*
X222537499Y-61884821D01*
X222680357Y-61956250D01*
X222751785Y-62027678D01*
X222823214Y-62170535D01*
X222823214Y-62527678D01*
X222751785Y-62670535D01*
X222680357Y-62741964D01*
X222537499Y-62813392D01*
X222251785Y-62813392D01*
X222108928Y-62741964D01*
X222037499Y-62670535D01*
X221966071Y-62527678D01*
X220537499Y-63384821D02*
X221394642Y-63384821D01*
X220966071Y-63384821D02*
X220966071Y-61884821D01*
X221108928Y-62099107D01*
X221251785Y-62241964D01*
X221394642Y-62313392D01*
X219108928Y-63384821D02*
X219966071Y-63384821D01*
X219537499Y-63384821D02*
X219537499Y-61884821D01*
X219680357Y-62099107D01*
X219823214Y-62241964D01*
X219966071Y-62313392D01*
X217680357Y-63384821D02*
X218537499Y-63384821D01*
X218108928Y-63384821D02*
X218108928Y-61884821D01*
X218251785Y-62099107D01*
X218394642Y-62241964D01*
X218537499Y-62313392D01*
X216751785Y-61884821D02*
X216608928Y-61884821D01*
X216466071Y-61956250D01*
X216394642Y-62027678D01*
X216323214Y-62170535D01*
X216251785Y-62456250D01*
X216251785Y-62813392D01*
X216323214Y-63099107D01*
X216394642Y-63241964D01*
X216466071Y-63313392D01*
X216608928Y-63384821D01*
X216751785Y-63384821D01*
X216894642Y-63313392D01*
X216966071Y-63241964D01*
X217037499Y-63099107D01*
X217108928Y-62813392D01*
X217108928Y-62456250D01*
X217037499Y-62170535D01*
X216966071Y-62027678D01*
X216894642Y-61956250D01*
X216751785Y-61884821D01*
X214108928Y-63884821D02*
X214108928Y-61741964D01*
X211037499Y-63241964D02*
X211108928Y-63313392D01*
X211323214Y-63384821D01*
X211466071Y-63384821D01*
X211680357Y-63313392D01*
X211823214Y-63170535D01*
X211894642Y-63027678D01*
X211966071Y-62741964D01*
X211966071Y-62527678D01*
X211894642Y-62241964D01*
X211823214Y-62099107D01*
X211680357Y-61956250D01*
X211466071Y-61884821D01*
X211323214Y-61884821D01*
X211108928Y-61956250D01*
X211037499Y-62027678D01*
X210394642Y-63384821D02*
X210394642Y-62384821D01*
X210394642Y-62670535D02*
X210323214Y-62527678D01*
X210251785Y-62456250D01*
X210108928Y-62384821D01*
X209966071Y-62384821D01*
X208894642Y-63313392D02*
X209037499Y-63384821D01*
X209323214Y-63384821D01*
X209466071Y-63313392D01*
X209537499Y-63170535D01*
X209537499Y-62599107D01*
X209466071Y-62456250D01*
X209323214Y-62384821D01*
X209037499Y-62384821D01*
X208894642Y-62456250D01*
X208823214Y-62599107D01*
X208823214Y-62741964D01*
X209537499Y-62884821D01*
X207537499Y-63384821D02*
X207537499Y-61884821D01*
X207537499Y-63313392D02*
X207680357Y-63384821D01*
X207966071Y-63384821D01*
X208108928Y-63313392D01*
X208180357Y-63241964D01*
X208251785Y-63099107D01*
X208251785Y-62670535D01*
X208180357Y-62527678D01*
X208108928Y-62456250D01*
X207966071Y-62384821D01*
X207680357Y-62384821D01*
X207537499Y-62456250D01*
X206823214Y-63384821D02*
X206823214Y-62384821D01*
X206823214Y-61884821D02*
X206894642Y-61956250D01*
X206823214Y-62027678D01*
X206751785Y-61956250D01*
X206823214Y-61884821D01*
X206823214Y-62027678D01*
X206323214Y-62384821D02*
X205751785Y-62384821D01*
X206108928Y-61884821D02*
X206108928Y-63170535D01*
X206037499Y-63313392D01*
X205894642Y-63384821D01*
X205751785Y-63384821D01*
X205323214Y-63313392D02*
X205180357Y-63384821D01*
X204894642Y-63384821D01*
X204751785Y-63313392D01*
X204680357Y-63170535D01*
X204680357Y-63099107D01*
X204751785Y-62956250D01*
X204894642Y-62884821D01*
X205108928Y-62884821D01*
X205251785Y-62813392D01*
X205323214Y-62670535D01*
X205323214Y-62599107D01*
X205251785Y-62456250D01*
X205108928Y-62384821D01*
X204894642Y-62384821D01*
X204751785Y-62456250D01*
X203108928Y-62384821D02*
X202537499Y-62384821D01*
X202894642Y-61884821D02*
X202894642Y-63170535D01*
X202823214Y-63313392D01*
X202680357Y-63384821D01*
X202537499Y-63384821D01*
X201823214Y-63384821D02*
X201966071Y-63313392D01*
X202037499Y-63241964D01*
X202108928Y-63099107D01*
X202108928Y-62670535D01*
X202037499Y-62527678D01*
X201966071Y-62456250D01*
X201823214Y-62384821D01*
X201608928Y-62384821D01*
X201466071Y-62456250D01*
X201394642Y-62527678D01*
X201323214Y-62670535D01*
X201323214Y-63099107D01*
X201394642Y-63241964D01*
X201466071Y-63313392D01*
X201608928Y-63384821D01*
X201823214Y-63384821D01*
X199537499Y-63384821D02*
X199537499Y-62384821D01*
X199537499Y-62527678D02*
X199466071Y-62456250D01*
X199323214Y-62384821D01*
X199108928Y-62384821D01*
X198966071Y-62456250D01*
X198894642Y-62599107D01*
X198894642Y-63384821D01*
X198894642Y-62599107D02*
X198823214Y-62456250D01*
X198680357Y-62384821D01*
X198466071Y-62384821D01*
X198323214Y-62456250D01*
X198251785Y-62599107D01*
X198251785Y-63384821D01*
X196894642Y-63313392D02*
X197037499Y-63384821D01*
X197323214Y-63384821D01*
X197466071Y-63313392D01*
X197537499Y-63241964D01*
X197608928Y-63099107D01*
X197608928Y-62670535D01*
X197537499Y-62527678D01*
X197466071Y-62456250D01*
X197323214Y-62384821D01*
X197037499Y-62384821D01*
X196894642Y-62456250D01*
X196251785Y-63384821D02*
X196251785Y-62384821D01*
X196251785Y-62527678D02*
X196180357Y-62456250D01*
X196037499Y-62384821D01*
X195823214Y-62384821D01*
X195680357Y-62456250D01*
X195608928Y-62599107D01*
X195608928Y-63384821D01*
X195608928Y-62599107D02*
X195537499Y-62456250D01*
X195394642Y-62384821D01*
X195180357Y-62384821D01*
X195037499Y-62456250D01*
X194966071Y-62599107D01*
X194966071Y-63384821D01*
X193608928Y-63384821D02*
X193608928Y-62599107D01*
X193680357Y-62456250D01*
X193823214Y-62384821D01*
X194108928Y-62384821D01*
X194251785Y-62456250D01*
X193608928Y-63313392D02*
X193751785Y-63384821D01*
X194108928Y-63384821D01*
X194251785Y-63313392D01*
X194323214Y-63170535D01*
X194323214Y-63027678D01*
X194251785Y-62884821D01*
X194108928Y-62813392D01*
X193751785Y-62813392D01*
X193608928Y-62741964D01*
X193037499Y-63384821D02*
X192251785Y-62384821D01*
X193037499Y-62384821D02*
X192251785Y-63384821D01*
X191680357Y-63384821D02*
X191680357Y-62384821D01*
X191680357Y-62527678D02*
X191608928Y-62456250D01*
X191466071Y-62384821D01*
X191251785Y-62384821D01*
X191108928Y-62456250D01*
X191037499Y-62599107D01*
X191037499Y-63384821D01*
X191037499Y-62599107D02*
X190966071Y-62456250D01*
X190823214Y-62384821D01*
X190608928Y-62384821D01*
X190466071Y-62456250D01*
X190394642Y-62599107D01*
X190394642Y-63384821D01*
X189037499Y-63313392D02*
X189180357Y-63384821D01*
X189466071Y-63384821D01*
X189608928Y-63313392D01*
X189680357Y-63241964D01*
X189751785Y-63099107D01*
X189751785Y-62670535D01*
X189680357Y-62527678D01*
X189608928Y-62456250D01*
X189466071Y-62384821D01*
X189180357Y-62384821D01*
X189037499Y-62456250D01*
X188394642Y-63384821D02*
X188394642Y-62384821D01*
X188394642Y-62527678D02*
X188323214Y-62456250D01*
X188180357Y-62384821D01*
X187966071Y-62384821D01*
X187823214Y-62456250D01*
X187751785Y-62599107D01*
X187751785Y-63384821D01*
X187751785Y-62599107D02*
X187680357Y-62456250D01*
X187537499Y-62384821D01*
X187323214Y-62384821D01*
X187180357Y-62456250D01*
X187108928Y-62599107D01*
X187108928Y-63384821D01*
X185751785Y-63313392D02*
X185894642Y-63384821D01*
X186180357Y-63384821D01*
X186323214Y-63313392D01*
X186394642Y-63241964D01*
X186466071Y-63099107D01*
X186466071Y-62670535D01*
X186394642Y-62527678D01*
X186323214Y-62456250D01*
X186180357Y-62384821D01*
X185894642Y-62384821D01*
X185751785Y-62456250D01*
X185037499Y-63313392D02*
X185037499Y-63384821D01*
X185108928Y-63527678D01*
X185180357Y-63599107D01*
X183251785Y-62599107D02*
X182751785Y-62599107D01*
X182537499Y-63384821D02*
X183251785Y-63384821D01*
X183251785Y-61884821D01*
X182537499Y-61884821D01*
X181894642Y-62384821D02*
X181894642Y-63384821D01*
X181894642Y-62527678D02*
X181823214Y-62456250D01*
X181680357Y-62384821D01*
X181466071Y-62384821D01*
X181323214Y-62456250D01*
X181251785Y-62599107D01*
X181251785Y-63384821D01*
X179894642Y-62384821D02*
X179894642Y-63599107D01*
X179966071Y-63741964D01*
X180037499Y-63813392D01*
X180180357Y-63884821D01*
X180394642Y-63884821D01*
X180537499Y-63813392D01*
X179894642Y-63313392D02*
X180037499Y-63384821D01*
X180323214Y-63384821D01*
X180466071Y-63313392D01*
X180537499Y-63241964D01*
X180608928Y-63099107D01*
X180608928Y-62670535D01*
X180537499Y-62527678D01*
X180466071Y-62456250D01*
X180323214Y-62384821D01*
X180037499Y-62384821D01*
X179894642Y-62456250D01*
X179180357Y-63384821D02*
X179180357Y-62384821D01*
X179180357Y-61884821D02*
X179251785Y-61956250D01*
X179180357Y-62027678D01*
X179108928Y-61956250D01*
X179180357Y-61884821D01*
X179180357Y-62027678D01*
X177823214Y-63313392D02*
X177966071Y-63384821D01*
X178251785Y-63384821D01*
X178394642Y-63313392D01*
X178466071Y-63241964D01*
X178537499Y-63099107D01*
X178537499Y-62670535D01*
X178466071Y-62527678D01*
X178394642Y-62456250D01*
X178251785Y-62384821D01*
X177966071Y-62384821D01*
X177823214Y-62456250D01*
X176966071Y-63384821D02*
X177108928Y-63313392D01*
X177180357Y-63241964D01*
X177251785Y-63099107D01*
X177251785Y-62670535D01*
X177180357Y-62527678D01*
X177108928Y-62456250D01*
X176966071Y-62384821D01*
X176751785Y-62384821D01*
X176608928Y-62456250D01*
X176537499Y-62527678D01*
X176466071Y-62670535D01*
X176466071Y-63099107D01*
X176537499Y-63241964D01*
X176608928Y-63313392D01*
X176751785Y-63384821D01*
X176966071Y-63384821D01*
X175180357Y-63384821D02*
X175180357Y-61884821D01*
X175180357Y-63313392D02*
X175323214Y-63384821D01*
X175608928Y-63384821D01*
X175751785Y-63313392D01*
X175823214Y-63241964D01*
X175894642Y-63099107D01*
X175894642Y-62670535D01*
X175823214Y-62527678D01*
X175751785Y-62456250D01*
X175608928Y-62384821D01*
X175323214Y-62384821D01*
X175180357Y-62456250D01*
X173894642Y-63313392D02*
X174037499Y-63384821D01*
X174323214Y-63384821D01*
X174466071Y-63313392D01*
X174537499Y-63170535D01*
X174537499Y-62599107D01*
X174466071Y-62456250D01*
X174323214Y-62384821D01*
X174037499Y-62384821D01*
X173894642Y-62456250D01*
X173823214Y-62599107D01*
X173823214Y-62741964D01*
X174537499Y-62884821D01*
X173180357Y-63384821D02*
X173180357Y-62384821D01*
X173180357Y-62670535D02*
X173108928Y-62527678D01*
X173037499Y-62456250D01*
X172894642Y-62384821D01*
X172751785Y-62384821D01*
X171323214Y-62384821D02*
X170751785Y-62384821D01*
X171108928Y-63384821D02*
X171108928Y-62099107D01*
X171037499Y-61956250D01*
X170894642Y-61884821D01*
X170751785Y-61884821D01*
X170037499Y-63384821D02*
X170180357Y-63313392D01*
X170251785Y-63241964D01*
X170323214Y-63099107D01*
X170323214Y-62670535D01*
X170251785Y-62527678D01*
X170180357Y-62456250D01*
X170037499Y-62384821D01*
X169823214Y-62384821D01*
X169680357Y-62456250D01*
X169608928Y-62527678D01*
X169537499Y-62670535D01*
X169537499Y-63099107D01*
X169608928Y-63241964D01*
X169680357Y-63313392D01*
X169823214Y-63384821D01*
X170037499Y-63384821D01*
X168894642Y-63384821D02*
X168894642Y-62384821D01*
X168894642Y-62670535D02*
X168823214Y-62527678D01*
X168751785Y-62456250D01*
X168608928Y-62384821D01*
X168466071Y-62384821D01*
X166823214Y-63384821D02*
X166823214Y-62384821D01*
X166823214Y-62670535D02*
X166751785Y-62527678D01*
X166680357Y-62456250D01*
X166537499Y-62384821D01*
X166394642Y-62384821D01*
X165323214Y-63313392D02*
X165466071Y-63384821D01*
X165751785Y-63384821D01*
X165894642Y-63313392D01*
X165966071Y-63170535D01*
X165966071Y-62599107D01*
X165894642Y-62456250D01*
X165751785Y-62384821D01*
X165466071Y-62384821D01*
X165323214Y-62456250D01*
X165251785Y-62599107D01*
X165251785Y-62741964D01*
X165966071Y-62884821D01*
X164751785Y-62384821D02*
X164394642Y-63384821D01*
X164037499Y-62384821D01*
X162894642Y-63313392D02*
X163037499Y-63384821D01*
X163323214Y-63384821D01*
X163466071Y-63313392D01*
X163537499Y-63170535D01*
X163537499Y-62599107D01*
X163466071Y-62456250D01*
X163323214Y-62384821D01*
X163037499Y-62384821D01*
X162894642Y-62456250D01*
X162823214Y-62599107D01*
X162823214Y-62741964D01*
X163537499Y-62884821D01*
X162180357Y-63384821D02*
X162180357Y-62384821D01*
X162180357Y-62670535D02*
X162108928Y-62527678D01*
X162037499Y-62456250D01*
X161894642Y-62384821D01*
X161751785Y-62384821D01*
X161323214Y-63313392D02*
X161180357Y-63384821D01*
X160894642Y-63384821D01*
X160751785Y-63313392D01*
X160680357Y-63170535D01*
X160680357Y-63099107D01*
X160751785Y-62956250D01*
X160894642Y-62884821D01*
X161108928Y-62884821D01*
X161251785Y-62813392D01*
X161323214Y-62670535D01*
X161323214Y-62599107D01*
X161251785Y-62456250D01*
X161108928Y-62384821D01*
X160894642Y-62384821D01*
X160751785Y-62456250D01*
X159466071Y-63313392D02*
X159608928Y-63384821D01*
X159894642Y-63384821D01*
X160037499Y-63313392D01*
X160108928Y-63170535D01*
X160108928Y-62599107D01*
X160037499Y-62456250D01*
X159894642Y-62384821D01*
X159608928Y-62384821D01*
X159466071Y-62456250D01*
X159394642Y-62599107D01*
X159394642Y-62741964D01*
X160108928Y-62884821D01*
X157037499Y-63313392D02*
X157180357Y-63384821D01*
X157466071Y-63384821D01*
X157608928Y-63313392D01*
X157680357Y-63170535D01*
X157680357Y-62599107D01*
X157608928Y-62456250D01*
X157466071Y-62384821D01*
X157180357Y-62384821D01*
X157037499Y-62456250D01*
X156966071Y-62599107D01*
X156966071Y-62741964D01*
X157680357Y-62884821D01*
X156323214Y-62384821D02*
X156323214Y-63384821D01*
X156323214Y-62527678D02*
X156251785Y-62456250D01*
X156108928Y-62384821D01*
X155894642Y-62384821D01*
X155751785Y-62456250D01*
X155680357Y-62599107D01*
X155680357Y-63384821D01*
X154323214Y-62384821D02*
X154323214Y-63599107D01*
X154394642Y-63741964D01*
X154466071Y-63813392D01*
X154608928Y-63884821D01*
X154823214Y-63884821D01*
X154966071Y-63813392D01*
X154323214Y-63313392D02*
X154466071Y-63384821D01*
X154751785Y-63384821D01*
X154894642Y-63313392D01*
X154966071Y-63241964D01*
X155037499Y-63099107D01*
X155037499Y-62670535D01*
X154966071Y-62527678D01*
X154894642Y-62456250D01*
X154751785Y-62384821D01*
X154466071Y-62384821D01*
X154323214Y-62456250D01*
X153608928Y-63384821D02*
X153608928Y-62384821D01*
X153608928Y-61884821D02*
X153680357Y-61956250D01*
X153608928Y-62027678D01*
X153537499Y-61956250D01*
X153608928Y-61884821D01*
X153608928Y-62027678D01*
X152894642Y-62384821D02*
X152894642Y-63384821D01*
X152894642Y-62527678D02*
X152823214Y-62456250D01*
X152680357Y-62384821D01*
X152466071Y-62384821D01*
X152323214Y-62456250D01*
X152251785Y-62599107D01*
X152251785Y-63384821D01*
X150966071Y-63313392D02*
X151108928Y-63384821D01*
X151394642Y-63384821D01*
X151537499Y-63313392D01*
X151608928Y-63170535D01*
X151608928Y-62599107D01*
X151537499Y-62456250D01*
X151394642Y-62384821D01*
X151108928Y-62384821D01*
X150966071Y-62456250D01*
X150894642Y-62599107D01*
X150894642Y-62741964D01*
X151608928Y-62884821D01*
X149680357Y-63313392D02*
X149823214Y-63384821D01*
X150108928Y-63384821D01*
X150251785Y-63313392D01*
X150323214Y-63170535D01*
X150323214Y-62599107D01*
X150251785Y-62456250D01*
X150108928Y-62384821D01*
X149823214Y-62384821D01*
X149680357Y-62456250D01*
X149608928Y-62599107D01*
X149608928Y-62741964D01*
X150323214Y-62884821D01*
X148966071Y-63384821D02*
X148966071Y-62384821D01*
X148966071Y-62670535D02*
X148894642Y-62527678D01*
X148823214Y-62456250D01*
X148680357Y-62384821D01*
X148537499Y-62384821D01*
X148037499Y-63384821D02*
X148037499Y-62384821D01*
X148037499Y-61884821D02*
X148108928Y-61956250D01*
X148037499Y-62027678D01*
X147966071Y-61956250D01*
X148037499Y-61884821D01*
X148037499Y-62027678D01*
X147323214Y-62384821D02*
X147323214Y-63384821D01*
X147323214Y-62527678D02*
X147251785Y-62456250D01*
X147108928Y-62384821D01*
X146894642Y-62384821D01*
X146751785Y-62456250D01*
X146680357Y-62599107D01*
X146680357Y-63384821D01*
X145323214Y-62384821D02*
X145323214Y-63599107D01*
X145394642Y-63741964D01*
X145466071Y-63813392D01*
X145608928Y-63884821D01*
X145823214Y-63884821D01*
X145966071Y-63813392D01*
X145323214Y-63313392D02*
X145466071Y-63384821D01*
X145751785Y-63384821D01*
X145894642Y-63313392D01*
X145966071Y-63241964D01*
X146037499Y-63099107D01*
X146037499Y-62670535D01*
X145966071Y-62527678D01*
X145894642Y-62456250D01*
X145751785Y-62384821D01*
X145466071Y-62384821D01*
X145323214Y-62456250D01*
D11*
G04 #@! TO.C,G\002A\002A\002A*
G36*
X73628250Y-61626750D02*
X74033062Y-61626750D01*
X74033062Y-61221938D01*
X73628250Y-61221938D01*
X73628250Y-61626750D01*
X73628250Y-61626750D01*
G37*
X73628250Y-61626750D02*
X74033062Y-61626750D01*
X74033062Y-61221938D01*
X73628250Y-61221938D01*
X73628250Y-61626750D01*
G36*
X73223437Y-62412563D02*
X73628250Y-62412563D01*
X73628250Y-62031563D01*
X73223437Y-62031563D01*
X73223437Y-62412563D01*
X73223437Y-62412563D01*
G37*
X73223437Y-62412563D02*
X73628250Y-62412563D01*
X73628250Y-62031563D01*
X73223437Y-62031563D01*
X73223437Y-62412563D01*
G36*
X74033062Y-62412563D02*
X74414062Y-62412563D01*
X74414062Y-62031563D01*
X74033062Y-62031563D01*
X74033062Y-62412563D01*
X74033062Y-62412563D01*
G37*
X74033062Y-62412563D02*
X74414062Y-62412563D01*
X74414062Y-62031563D01*
X74033062Y-62031563D01*
X74033062Y-62412563D01*
G36*
X72842437Y-63222188D02*
X73223437Y-63222188D01*
X73223437Y-62817375D01*
X72842437Y-62817375D01*
X72842437Y-63222188D01*
X72842437Y-63222188D01*
G37*
X72842437Y-63222188D02*
X73223437Y-63222188D01*
X73223437Y-62817375D01*
X72842437Y-62817375D01*
X72842437Y-63222188D01*
G36*
X73628250Y-63222188D02*
X74033062Y-63222188D01*
X74033062Y-62817375D01*
X73628250Y-62817375D01*
X73628250Y-63222188D01*
X73628250Y-63222188D01*
G37*
X73628250Y-63222188D02*
X74033062Y-63222188D01*
X74033062Y-62817375D01*
X73628250Y-62817375D01*
X73628250Y-63222188D01*
G36*
X74414062Y-63222188D02*
X74818875Y-63222188D01*
X74818875Y-62817375D01*
X74414062Y-62817375D01*
X74414062Y-63222188D01*
X74414062Y-63222188D01*
G37*
X74414062Y-63222188D02*
X74818875Y-63222188D01*
X74818875Y-62817375D01*
X74414062Y-62817375D01*
X74414062Y-63222188D01*
G36*
X72437625Y-64008000D02*
X72842437Y-64008000D01*
X72842437Y-63603188D01*
X72437625Y-63603188D01*
X72437625Y-64008000D01*
X72437625Y-64008000D01*
G37*
X72437625Y-64008000D02*
X72842437Y-64008000D01*
X72842437Y-63603188D01*
X72437625Y-63603188D01*
X72437625Y-64008000D01*
G36*
X74818875Y-64008000D02*
X75223687Y-64008000D01*
X75223687Y-63603188D01*
X74818875Y-63603188D01*
X74818875Y-64008000D01*
X74818875Y-64008000D01*
G37*
X74818875Y-64008000D02*
X75223687Y-64008000D01*
X75223687Y-63603188D01*
X74818875Y-63603188D01*
X74818875Y-64008000D01*
G36*
X73814781Y-59734295D02*
X73690663Y-59735665D01*
X73578951Y-59739822D01*
X73476358Y-59747169D01*
X73379594Y-59758110D01*
X73285372Y-59773048D01*
X73190403Y-59792387D01*
X73091399Y-59816531D01*
X73046120Y-59828668D01*
X72837573Y-59893906D01*
X72635485Y-59973242D01*
X72440622Y-60066278D01*
X72253751Y-60172618D01*
X72075636Y-60291866D01*
X71923490Y-60409867D01*
X71765822Y-60550592D01*
X71618485Y-60702037D01*
X71482164Y-60863135D01*
X71357542Y-61032817D01*
X71245303Y-61210016D01*
X71146130Y-61393666D01*
X71060708Y-61582697D01*
X70989720Y-61776043D01*
X70940966Y-61944053D01*
X70907895Y-62084039D01*
X70882535Y-62215975D01*
X70864143Y-62345247D01*
X70851975Y-62477243D01*
X70845289Y-62617350D01*
X70844636Y-62642750D01*
X70847355Y-62861047D01*
X70865550Y-63075830D01*
X70899215Y-63287071D01*
X70948344Y-63494739D01*
X71012931Y-63698805D01*
X71077128Y-63862737D01*
X71105211Y-63928002D01*
X71129273Y-63982160D01*
X71151142Y-64028863D01*
X71172643Y-64071763D01*
X71195604Y-64114513D01*
X71221850Y-64160765D01*
X71250975Y-64210406D01*
X71370194Y-64396677D01*
X71500298Y-64571403D01*
X71641421Y-64734715D01*
X71793695Y-64886746D01*
X71957253Y-65027630D01*
X72132226Y-65157498D01*
X72314594Y-65274025D01*
X72367423Y-65304994D01*
X72413336Y-65330971D01*
X72455985Y-65353781D01*
X72499022Y-65375251D01*
X72546099Y-65397207D01*
X72600869Y-65421475D01*
X72662263Y-65447872D01*
X72758496Y-65487419D01*
X72847214Y-65520458D01*
X72934328Y-65548945D01*
X73025752Y-65574839D01*
X73108344Y-65595572D01*
X73272860Y-65631126D01*
X73429955Y-65656803D01*
X73584183Y-65673143D01*
X73740101Y-65680686D01*
X73830656Y-65681263D01*
X73881875Y-65680748D01*
X73929996Y-65680043D01*
X73971876Y-65679210D01*
X74004372Y-65678313D01*
X74024340Y-65677415D01*
X74025125Y-65677359D01*
X74241299Y-65653407D01*
X74454056Y-65614420D01*
X74662537Y-65560717D01*
X74865882Y-65492613D01*
X75063234Y-65410426D01*
X75253732Y-65314475D01*
X75436518Y-65205076D01*
X75587474Y-65100046D01*
X75760401Y-64961699D01*
X75921085Y-64813338D01*
X76069299Y-64655289D01*
X76204821Y-64487882D01*
X76327426Y-64311444D01*
X76436889Y-64126302D01*
X76532987Y-63932785D01*
X76615494Y-63731221D01*
X76684187Y-63521938D01*
X76696332Y-63478880D01*
X76722698Y-63377085D01*
X76744083Y-63280761D01*
X76760891Y-63186617D01*
X76773525Y-63091367D01*
X76782390Y-62991720D01*
X76787888Y-62884390D01*
X76790424Y-62766086D01*
X76790705Y-62710219D01*
X76790030Y-62654858D01*
X76257956Y-62654858D01*
X76257853Y-62734996D01*
X76256187Y-62814660D01*
X76252991Y-62889787D01*
X76248294Y-62956310D01*
X76244574Y-62992000D01*
X76212700Y-63189298D01*
X76166049Y-63380913D01*
X76104799Y-63566472D01*
X76029131Y-63745599D01*
X75939223Y-63917919D01*
X75835256Y-64083059D01*
X75717409Y-64240643D01*
X75585862Y-64390297D01*
X75563526Y-64413510D01*
X75429292Y-64540584D01*
X75283590Y-64658520D01*
X75129119Y-64765340D01*
X74968581Y-64859066D01*
X74922792Y-64882754D01*
X74848384Y-64919403D01*
X74783143Y-64949622D01*
X74722646Y-64975190D01*
X74662472Y-64997884D01*
X74598199Y-65019483D01*
X74533125Y-65039477D01*
X74343912Y-65088890D01*
X74158161Y-65123341D01*
X73974423Y-65142964D01*
X73791247Y-65147892D01*
X73607186Y-65138261D01*
X73540644Y-65131281D01*
X73353312Y-65102337D01*
X73173731Y-65060528D01*
X72999393Y-65005104D01*
X72827791Y-64935314D01*
X72730834Y-64889116D01*
X72560202Y-64795697D01*
X72400786Y-64691962D01*
X72251828Y-64577224D01*
X72112571Y-64450800D01*
X71982256Y-64312004D01*
X71860126Y-64160153D01*
X71751858Y-64004509D01*
X71726732Y-63963318D01*
X71697409Y-63911190D01*
X71665709Y-63851746D01*
X71633451Y-63788606D01*
X71602457Y-63725390D01*
X71574544Y-63665717D01*
X71551535Y-63613207D01*
X71538097Y-63579375D01*
X71475230Y-63387834D01*
X71427834Y-63195095D01*
X71395950Y-63001700D01*
X71379620Y-62808190D01*
X71378882Y-62615107D01*
X71393778Y-62422992D01*
X71424348Y-62232386D01*
X71434151Y-62186344D01*
X71467800Y-62050051D01*
X71506108Y-61923868D01*
X71551046Y-61802257D01*
X71604587Y-61679682D01*
X71642246Y-61602208D01*
X71735951Y-61433360D01*
X71842776Y-61272923D01*
X71961952Y-61121618D01*
X72092713Y-60980164D01*
X72234290Y-60849281D01*
X72385916Y-60729690D01*
X72546823Y-60622110D01*
X72716243Y-60527261D01*
X72860425Y-60459730D01*
X73032053Y-60393335D01*
X73204607Y-60341337D01*
X73380094Y-60303328D01*
X73560524Y-60278901D01*
X73747905Y-60267647D01*
X73810812Y-60266757D01*
X74008907Y-60273127D01*
X74200535Y-60293772D01*
X74386469Y-60328923D01*
X74567485Y-60378817D01*
X74744356Y-60443685D01*
X74917856Y-60523763D01*
X75088759Y-60619285D01*
X75189456Y-60683494D01*
X75328889Y-60785022D01*
X75463087Y-60899528D01*
X75590409Y-61025089D01*
X75709215Y-61159781D01*
X75817864Y-61301681D01*
X75914715Y-61448865D01*
X75998128Y-61599411D01*
X76032924Y-61672330D01*
X76094327Y-61817189D01*
X76144558Y-61956428D01*
X76184815Y-62094376D01*
X76216294Y-62235364D01*
X76240194Y-62383721D01*
X76248595Y-62452250D01*
X76253358Y-62509420D01*
X76256468Y-62578311D01*
X76257956Y-62654858D01*
X76790030Y-62654858D01*
X76788960Y-62567223D01*
X76783086Y-62436356D01*
X76772512Y-62314275D01*
X76756665Y-62197635D01*
X76734973Y-62083094D01*
X76706863Y-61967309D01*
X76671764Y-61846937D01*
X76629103Y-61718634D01*
X76613409Y-61674375D01*
X76535024Y-61479656D01*
X76442184Y-61291322D01*
X76335078Y-61109635D01*
X76213898Y-60934858D01*
X76078833Y-60767253D01*
X75930076Y-60607083D01*
X75767817Y-60454610D01*
X75660979Y-60364429D01*
X75575150Y-60298936D01*
X75477611Y-60231610D01*
X75372002Y-60164662D01*
X75261964Y-60100305D01*
X75151137Y-60040750D01*
X75043161Y-59988208D01*
X75037156Y-59985465D01*
X74967196Y-59955592D01*
X74886015Y-59924206D01*
X74797983Y-59892786D01*
X74707471Y-59862812D01*
X74618849Y-59835761D01*
X74536486Y-59813114D01*
X74504600Y-59805221D01*
X74411375Y-59784453D01*
X74322401Y-59767793D01*
X74234397Y-59754902D01*
X74144081Y-59745445D01*
X74048172Y-59739082D01*
X73943390Y-59735478D01*
X73826455Y-59734294D01*
X73814781Y-59734295D01*
X73814781Y-59734295D01*
G37*
X73814781Y-59734295D02*
X73690663Y-59735665D01*
X73578951Y-59739822D01*
X73476358Y-59747169D01*
X73379594Y-59758110D01*
X73285372Y-59773048D01*
X73190403Y-59792387D01*
X73091399Y-59816531D01*
X73046120Y-59828668D01*
X72837573Y-59893906D01*
X72635485Y-59973242D01*
X72440622Y-60066278D01*
X72253751Y-60172618D01*
X72075636Y-60291866D01*
X71923490Y-60409867D01*
X71765822Y-60550592D01*
X71618485Y-60702037D01*
X71482164Y-60863135D01*
X71357542Y-61032817D01*
X71245303Y-61210016D01*
X71146130Y-61393666D01*
X71060708Y-61582697D01*
X70989720Y-61776043D01*
X70940966Y-61944053D01*
X70907895Y-62084039D01*
X70882535Y-62215975D01*
X70864143Y-62345247D01*
X70851975Y-62477243D01*
X70845289Y-62617350D01*
X70844636Y-62642750D01*
X70847355Y-62861047D01*
X70865550Y-63075830D01*
X70899215Y-63287071D01*
X70948344Y-63494739D01*
X71012931Y-63698805D01*
X71077128Y-63862737D01*
X71105211Y-63928002D01*
X71129273Y-63982160D01*
X71151142Y-64028863D01*
X71172643Y-64071763D01*
X71195604Y-64114513D01*
X71221850Y-64160765D01*
X71250975Y-64210406D01*
X71370194Y-64396677D01*
X71500298Y-64571403D01*
X71641421Y-64734715D01*
X71793695Y-64886746D01*
X71957253Y-65027630D01*
X72132226Y-65157498D01*
X72314594Y-65274025D01*
X72367423Y-65304994D01*
X72413336Y-65330971D01*
X72455985Y-65353781D01*
X72499022Y-65375251D01*
X72546099Y-65397207D01*
X72600869Y-65421475D01*
X72662263Y-65447872D01*
X72758496Y-65487419D01*
X72847214Y-65520458D01*
X72934328Y-65548945D01*
X73025752Y-65574839D01*
X73108344Y-65595572D01*
X73272860Y-65631126D01*
X73429955Y-65656803D01*
X73584183Y-65673143D01*
X73740101Y-65680686D01*
X73830656Y-65681263D01*
X73881875Y-65680748D01*
X73929996Y-65680043D01*
X73971876Y-65679210D01*
X74004372Y-65678313D01*
X74024340Y-65677415D01*
X74025125Y-65677359D01*
X74241299Y-65653407D01*
X74454056Y-65614420D01*
X74662537Y-65560717D01*
X74865882Y-65492613D01*
X75063234Y-65410426D01*
X75253732Y-65314475D01*
X75436518Y-65205076D01*
X75587474Y-65100046D01*
X75760401Y-64961699D01*
X75921085Y-64813338D01*
X76069299Y-64655289D01*
X76204821Y-64487882D01*
X76327426Y-64311444D01*
X76436889Y-64126302D01*
X76532987Y-63932785D01*
X76615494Y-63731221D01*
X76684187Y-63521938D01*
X76696332Y-63478880D01*
X76722698Y-63377085D01*
X76744083Y-63280761D01*
X76760891Y-63186617D01*
X76773525Y-63091367D01*
X76782390Y-62991720D01*
X76787888Y-62884390D01*
X76790424Y-62766086D01*
X76790705Y-62710219D01*
X76790030Y-62654858D01*
X76257956Y-62654858D01*
X76257853Y-62734996D01*
X76256187Y-62814660D01*
X76252991Y-62889787D01*
X76248294Y-62956310D01*
X76244574Y-62992000D01*
X76212700Y-63189298D01*
X76166049Y-63380913D01*
X76104799Y-63566472D01*
X76029131Y-63745599D01*
X75939223Y-63917919D01*
X75835256Y-64083059D01*
X75717409Y-64240643D01*
X75585862Y-64390297D01*
X75563526Y-64413510D01*
X75429292Y-64540584D01*
X75283590Y-64658520D01*
X75129119Y-64765340D01*
X74968581Y-64859066D01*
X74922792Y-64882754D01*
X74848384Y-64919403D01*
X74783143Y-64949622D01*
X74722646Y-64975190D01*
X74662472Y-64997884D01*
X74598199Y-65019483D01*
X74533125Y-65039477D01*
X74343912Y-65088890D01*
X74158161Y-65123341D01*
X73974423Y-65142964D01*
X73791247Y-65147892D01*
X73607186Y-65138261D01*
X73540644Y-65131281D01*
X73353312Y-65102337D01*
X73173731Y-65060528D01*
X72999393Y-65005104D01*
X72827791Y-64935314D01*
X72730834Y-64889116D01*
X72560202Y-64795697D01*
X72400786Y-64691962D01*
X72251828Y-64577224D01*
X72112571Y-64450800D01*
X71982256Y-64312004D01*
X71860126Y-64160153D01*
X71751858Y-64004509D01*
X71726732Y-63963318D01*
X71697409Y-63911190D01*
X71665709Y-63851746D01*
X71633451Y-63788606D01*
X71602457Y-63725390D01*
X71574544Y-63665717D01*
X71551535Y-63613207D01*
X71538097Y-63579375D01*
X71475230Y-63387834D01*
X71427834Y-63195095D01*
X71395950Y-63001700D01*
X71379620Y-62808190D01*
X71378882Y-62615107D01*
X71393778Y-62422992D01*
X71424348Y-62232386D01*
X71434151Y-62186344D01*
X71467800Y-62050051D01*
X71506108Y-61923868D01*
X71551046Y-61802257D01*
X71604587Y-61679682D01*
X71642246Y-61602208D01*
X71735951Y-61433360D01*
X71842776Y-61272923D01*
X71961952Y-61121618D01*
X72092713Y-60980164D01*
X72234290Y-60849281D01*
X72385916Y-60729690D01*
X72546823Y-60622110D01*
X72716243Y-60527261D01*
X72860425Y-60459730D01*
X73032053Y-60393335D01*
X73204607Y-60341337D01*
X73380094Y-60303328D01*
X73560524Y-60278901D01*
X73747905Y-60267647D01*
X73810812Y-60266757D01*
X74008907Y-60273127D01*
X74200535Y-60293772D01*
X74386469Y-60328923D01*
X74567485Y-60378817D01*
X74744356Y-60443685D01*
X74917856Y-60523763D01*
X75088759Y-60619285D01*
X75189456Y-60683494D01*
X75328889Y-60785022D01*
X75463087Y-60899528D01*
X75590409Y-61025089D01*
X75709215Y-61159781D01*
X75817864Y-61301681D01*
X75914715Y-61448865D01*
X75998128Y-61599411D01*
X76032924Y-61672330D01*
X76094327Y-61817189D01*
X76144558Y-61956428D01*
X76184815Y-62094376D01*
X76216294Y-62235364D01*
X76240194Y-62383721D01*
X76248595Y-62452250D01*
X76253358Y-62509420D01*
X76256468Y-62578311D01*
X76257956Y-62654858D01*
X76790030Y-62654858D01*
X76788960Y-62567223D01*
X76783086Y-62436356D01*
X76772512Y-62314275D01*
X76756665Y-62197635D01*
X76734973Y-62083094D01*
X76706863Y-61967309D01*
X76671764Y-61846937D01*
X76629103Y-61718634D01*
X76613409Y-61674375D01*
X76535024Y-61479656D01*
X76442184Y-61291322D01*
X76335078Y-61109635D01*
X76213898Y-60934858D01*
X76078833Y-60767253D01*
X75930076Y-60607083D01*
X75767817Y-60454610D01*
X75660979Y-60364429D01*
X75575150Y-60298936D01*
X75477611Y-60231610D01*
X75372002Y-60164662D01*
X75261964Y-60100305D01*
X75151137Y-60040750D01*
X75043161Y-59988208D01*
X75037156Y-59985465D01*
X74967196Y-59955592D01*
X74886015Y-59924206D01*
X74797983Y-59892786D01*
X74707471Y-59862812D01*
X74618849Y-59835761D01*
X74536486Y-59813114D01*
X74504600Y-59805221D01*
X74411375Y-59784453D01*
X74322401Y-59767793D01*
X74234397Y-59754902D01*
X74144081Y-59745445D01*
X74048172Y-59739082D01*
X73943390Y-59735478D01*
X73826455Y-59734294D01*
X73814781Y-59734295D01*
G04 #@! TD*
D12*
G04 #@! TO.P,C2,1*
G04 #@! TO.N,GND*
X299097000Y-80454500D03*
G04 #@! TO.P,C2,2*
G04 #@! TO.N,+5V*
X300597000Y-80454500D03*
G04 #@! TD*
D13*
G04 #@! TO.P,C3,2*
G04 #@! TO.N,+5V*
X297434000Y-94222000D03*
G04 #@! TO.P,C3,1*
G04 #@! TO.N,GND*
X297434000Y-92722000D03*
G04 #@! TD*
D12*
G04 #@! TO.P,C4,1*
G04 #@! TO.N,GND*
X311011000Y-97663000D03*
G04 #@! TO.P,C4,2*
G04 #@! TO.N,+5V*
X309511000Y-97663000D03*
G04 #@! TD*
G04 #@! TO.P,C5,2*
G04 #@! TO.N,+5V*
X313321000Y-82804000D03*
G04 #@! TO.P,C5,1*
G04 #@! TO.N,GND*
X314821000Y-82804000D03*
G04 #@! TD*
G04 #@! TO.P,C6,2*
G04 #@! TO.N,GND*
X305193000Y-80264000D03*
G04 #@! TO.P,C6,1*
G04 #@! TO.N,Net-(C6-Pad1)*
X306693000Y-80264000D03*
G04 #@! TD*
G04 #@! TO.P,C7,1*
G04 #@! TO.N,Net-(C7-Pad1)*
X316813500Y-92710000D03*
G04 #@! TO.P,C7,2*
G04 #@! TO.N,GND*
X318313500Y-92710000D03*
G04 #@! TD*
G04 #@! TO.P,C8,1*
G04 #@! TO.N,Net-(C8-Pad1)*
X318313500Y-84899500D03*
G04 #@! TO.P,C8,2*
G04 #@! TO.N,GND*
X316813500Y-84899500D03*
G04 #@! TD*
D14*
G04 #@! TO.P,D1,1*
G04 #@! TO.N,ROW1*
X41275000Y-34193750D03*
G04 #@! TO.P,D1,2*
G04 #@! TO.N,Net-(D1-Pad2)*
X41275000Y-30893750D03*
G04 #@! TD*
G04 #@! TO.P,D2,2*
G04 #@! TO.N,Net-(D2-Pad2)*
X60325000Y-30893750D03*
G04 #@! TO.P,D2,1*
G04 #@! TO.N,ROW1*
X60325000Y-34193750D03*
G04 #@! TD*
G04 #@! TO.P,D3,2*
G04 #@! TO.N,Net-(D3-Pad2)*
X79375000Y-30893750D03*
G04 #@! TO.P,D3,1*
G04 #@! TO.N,ROW1*
X79375000Y-34193750D03*
G04 #@! TD*
G04 #@! TO.P,D4,1*
G04 #@! TO.N,ROW1*
X98425000Y-34193750D03*
G04 #@! TO.P,D4,2*
G04 #@! TO.N,Net-(D4-Pad2)*
X98425000Y-30893750D03*
G04 #@! TD*
G04 #@! TO.P,D5,1*
G04 #@! TO.N,ROW1*
X117475000Y-34193750D03*
G04 #@! TO.P,D5,2*
G04 #@! TO.N,Net-(D5-Pad2)*
X117475000Y-30893750D03*
G04 #@! TD*
G04 #@! TO.P,D6,1*
G04 #@! TO.N,ROW1*
X136525000Y-34193750D03*
G04 #@! TO.P,D6,2*
G04 #@! TO.N,Net-(D6-Pad2)*
X136525000Y-30893750D03*
G04 #@! TD*
G04 #@! TO.P,D7,1*
G04 #@! TO.N,ROW1*
X155575000Y-34193750D03*
G04 #@! TO.P,D7,2*
G04 #@! TO.N,Net-(D7-Pad2)*
X155575000Y-30893750D03*
G04 #@! TD*
G04 #@! TO.P,D8,2*
G04 #@! TO.N,Net-(D8-Pad2)*
X174625000Y-30893750D03*
G04 #@! TO.P,D8,1*
G04 #@! TO.N,ROW1*
X174625000Y-34193750D03*
G04 #@! TD*
G04 #@! TO.P,D9,2*
G04 #@! TO.N,Net-(D9-Pad2)*
X193675000Y-30893750D03*
G04 #@! TO.P,D9,1*
G04 #@! TO.N,ROW1*
X193675000Y-34193750D03*
G04 #@! TD*
G04 #@! TO.P,D10,1*
G04 #@! TO.N,ROW1*
X212725000Y-34193750D03*
G04 #@! TO.P,D10,2*
G04 #@! TO.N,Net-(D10-Pad2)*
X212725000Y-30893750D03*
G04 #@! TD*
G04 #@! TO.P,D11,2*
G04 #@! TO.N,Net-(D11-Pad2)*
X231775000Y-30893750D03*
G04 #@! TO.P,D11,1*
G04 #@! TO.N,ROW1*
X231775000Y-34193750D03*
G04 #@! TD*
G04 #@! TO.P,D12,1*
G04 #@! TO.N,ROW1*
X250825000Y-34193750D03*
G04 #@! TO.P,D12,2*
G04 #@! TO.N,Net-(D12-Pad2)*
X250825000Y-30893750D03*
G04 #@! TD*
G04 #@! TO.P,D13,1*
G04 #@! TO.N,ROW1*
X268287500Y-34193750D03*
G04 #@! TO.P,D13,2*
G04 #@! TO.N,Net-(D13-Pad2)*
X268287500Y-30893750D03*
G04 #@! TD*
G04 #@! TO.P,D14,1*
G04 #@! TO.N,ROW1*
X271462500Y-34193750D03*
G04 #@! TO.P,D14,2*
G04 #@! TO.N,Net-(D14-Pad2)*
X271462500Y-30893750D03*
G04 #@! TD*
G04 #@! TO.P,D16,1*
G04 #@! TO.N,ROW2*
X46037500Y-53243750D03*
G04 #@! TO.P,D16,2*
G04 #@! TO.N,Net-(D16-Pad2)*
X46037500Y-49943750D03*
G04 #@! TD*
G04 #@! TO.P,D17,2*
G04 #@! TO.N,Net-(D17-Pad2)*
X69850000Y-49943750D03*
G04 #@! TO.P,D17,1*
G04 #@! TO.N,ROW2*
X69850000Y-53243750D03*
G04 #@! TD*
G04 #@! TO.P,D18,1*
G04 #@! TO.N,ROW2*
X88900000Y-53243750D03*
G04 #@! TO.P,D18,2*
G04 #@! TO.N,Net-(D18-Pad2)*
X88900000Y-49943750D03*
G04 #@! TD*
G04 #@! TO.P,D19,2*
G04 #@! TO.N,Net-(D19-Pad2)*
X107950000Y-49943750D03*
G04 #@! TO.P,D19,1*
G04 #@! TO.N,ROW2*
X107950000Y-53243750D03*
G04 #@! TD*
G04 #@! TO.P,D20,1*
G04 #@! TO.N,ROW2*
X127000000Y-53243750D03*
G04 #@! TO.P,D20,2*
G04 #@! TO.N,Net-(D20-Pad2)*
X127000000Y-49943750D03*
G04 #@! TD*
G04 #@! TO.P,D21,2*
G04 #@! TO.N,Net-(D21-Pad2)*
X146050000Y-49943750D03*
G04 #@! TO.P,D21,1*
G04 #@! TO.N,ROW2*
X146050000Y-53243750D03*
G04 #@! TD*
G04 #@! TO.P,D22,2*
G04 #@! TO.N,Net-(D22-Pad2)*
X165100000Y-49943750D03*
G04 #@! TO.P,D22,1*
G04 #@! TO.N,ROW2*
X165100000Y-53243750D03*
G04 #@! TD*
G04 #@! TO.P,D23,1*
G04 #@! TO.N,ROW2*
X184150000Y-53243750D03*
G04 #@! TO.P,D23,2*
G04 #@! TO.N,Net-(D23-Pad2)*
X184150000Y-49943750D03*
G04 #@! TD*
G04 #@! TO.P,D24,1*
G04 #@! TO.N,ROW2*
X203200000Y-53243750D03*
G04 #@! TO.P,D24,2*
G04 #@! TO.N,Net-(D24-Pad2)*
X203200000Y-49943750D03*
G04 #@! TD*
G04 #@! TO.P,D25,2*
G04 #@! TO.N,Net-(D25-Pad2)*
X222250000Y-49943750D03*
G04 #@! TO.P,D25,1*
G04 #@! TO.N,ROW2*
X222250000Y-53243750D03*
G04 #@! TD*
G04 #@! TO.P,D26,1*
G04 #@! TO.N,ROW2*
X241300000Y-53243750D03*
G04 #@! TO.P,D26,2*
G04 #@! TO.N,Net-(D26-Pad2)*
X241300000Y-49943750D03*
G04 #@! TD*
G04 #@! TO.P,D27,1*
G04 #@! TO.N,ROW2*
X260350000Y-53243750D03*
G04 #@! TO.P,D27,2*
G04 #@! TO.N,Net-(D27-Pad2)*
X260350000Y-49943750D03*
G04 #@! TD*
G04 #@! TO.P,D28,2*
G04 #@! TO.N,Net-(D28-Pad2)*
X279400000Y-49943750D03*
G04 #@! TO.P,D28,1*
G04 #@! TO.N,ROW2*
X279400000Y-53243750D03*
G04 #@! TD*
G04 #@! TO.P,D29,1*
G04 #@! TO.N,ROW2*
X282575000Y-53243750D03*
G04 #@! TO.P,D29,2*
G04 #@! TO.N,Net-(D29-Pad2)*
X282575000Y-49943750D03*
G04 #@! TD*
G04 #@! TO.P,D31,2*
G04 #@! TO.N,Net-(D31-Pad2)*
X48418750Y-68993750D03*
G04 #@! TO.P,D31,1*
G04 #@! TO.N,ROW3*
X48418750Y-72293750D03*
G04 #@! TD*
G04 #@! TO.P,D32,2*
G04 #@! TO.N,Net-(D32-Pad2)*
X74612500Y-68993750D03*
G04 #@! TO.P,D32,1*
G04 #@! TO.N,ROW3*
X74612500Y-72293750D03*
G04 #@! TD*
G04 #@! TO.P,D33,2*
G04 #@! TO.N,Net-(D33-Pad2)*
X93662500Y-68993750D03*
G04 #@! TO.P,D33,1*
G04 #@! TO.N,ROW3*
X93662500Y-72293750D03*
G04 #@! TD*
G04 #@! TO.P,D34,1*
G04 #@! TO.N,ROW3*
X112712500Y-72293750D03*
G04 #@! TO.P,D34,2*
G04 #@! TO.N,Net-(D34-Pad2)*
X112712500Y-68993750D03*
G04 #@! TD*
G04 #@! TO.P,D35,2*
G04 #@! TO.N,Net-(D35-Pad2)*
X131762500Y-68993750D03*
G04 #@! TO.P,D35,1*
G04 #@! TO.N,ROW3*
X131762500Y-72293750D03*
G04 #@! TD*
G04 #@! TO.P,D36,2*
G04 #@! TO.N,Net-(D36-Pad2)*
X150812500Y-68993750D03*
G04 #@! TO.P,D36,1*
G04 #@! TO.N,ROW3*
X150812500Y-72293750D03*
G04 #@! TD*
G04 #@! TO.P,D37,1*
G04 #@! TO.N,ROW3*
X169862500Y-72293750D03*
G04 #@! TO.P,D37,2*
G04 #@! TO.N,Net-(D37-Pad2)*
X169862500Y-68993750D03*
G04 #@! TD*
G04 #@! TO.P,D38,1*
G04 #@! TO.N,ROW3*
X188912500Y-72293750D03*
G04 #@! TO.P,D38,2*
G04 #@! TO.N,Net-(D38-Pad2)*
X188912500Y-68993750D03*
G04 #@! TD*
G04 #@! TO.P,D39,2*
G04 #@! TO.N,Net-(D39-Pad2)*
X207962500Y-68993750D03*
G04 #@! TO.P,D39,1*
G04 #@! TO.N,ROW3*
X207962500Y-72293750D03*
G04 #@! TD*
G04 #@! TO.P,D40,2*
G04 #@! TO.N,Net-(D40-Pad2)*
X227012500Y-68993750D03*
G04 #@! TO.P,D40,1*
G04 #@! TO.N,ROW3*
X227012500Y-72293750D03*
G04 #@! TD*
G04 #@! TO.P,D41,1*
G04 #@! TO.N,ROW3*
X246062500Y-72293750D03*
G04 #@! TO.P,D41,2*
G04 #@! TO.N,Net-(D41-Pad2)*
X246062500Y-68993750D03*
G04 #@! TD*
G04 #@! TO.P,D42,2*
G04 #@! TO.N,Net-(D42-Pad2)*
X265112500Y-68993750D03*
G04 #@! TO.P,D42,1*
G04 #@! TO.N,ROW3*
X265112500Y-72293750D03*
G04 #@! TD*
G04 #@! TO.P,D43,2*
G04 #@! TO.N,Net-(D43-Pad2)*
X277018750Y-68993750D03*
G04 #@! TO.P,D43,1*
G04 #@! TO.N,ROW3*
X277018750Y-72293750D03*
G04 #@! TD*
G04 #@! TO.P,D45,2*
G04 #@! TO.N,Net-(D45-Pad2)*
X53181250Y-88043750D03*
G04 #@! TO.P,D45,1*
G04 #@! TO.N,ROW4*
X53181250Y-91343750D03*
G04 #@! TD*
G04 #@! TO.P,D46,1*
G04 #@! TO.N,ROW4*
X84137500Y-91343750D03*
G04 #@! TO.P,D46,2*
G04 #@! TO.N,Net-(D46-Pad2)*
X84137500Y-88043750D03*
G04 #@! TD*
G04 #@! TO.P,D47,1*
G04 #@! TO.N,ROW4*
X103187500Y-91343750D03*
G04 #@! TO.P,D47,2*
G04 #@! TO.N,Net-(D47-Pad2)*
X103187500Y-88043750D03*
G04 #@! TD*
G04 #@! TO.P,D48,2*
G04 #@! TO.N,Net-(D48-Pad2)*
X122237500Y-88043750D03*
G04 #@! TO.P,D48,1*
G04 #@! TO.N,ROW4*
X122237500Y-91343750D03*
G04 #@! TD*
G04 #@! TO.P,D49,2*
G04 #@! TO.N,Net-(D49-Pad2)*
X141287500Y-88043750D03*
G04 #@! TO.P,D49,1*
G04 #@! TO.N,ROW4*
X141287500Y-91343750D03*
G04 #@! TD*
G04 #@! TO.P,D50,1*
G04 #@! TO.N,ROW4*
X160337500Y-91343750D03*
G04 #@! TO.P,D50,2*
G04 #@! TO.N,Net-(D50-Pad2)*
X160337500Y-88043750D03*
G04 #@! TD*
G04 #@! TO.P,D51,2*
G04 #@! TO.N,Net-(D51-Pad2)*
X179387500Y-88043750D03*
G04 #@! TO.P,D51,1*
G04 #@! TO.N,ROW4*
X179387500Y-91343750D03*
G04 #@! TD*
G04 #@! TO.P,D52,1*
G04 #@! TO.N,ROW4*
X198437500Y-91343750D03*
G04 #@! TO.P,D52,2*
G04 #@! TO.N,Net-(D52-Pad2)*
X198437500Y-88043750D03*
G04 #@! TD*
G04 #@! TO.P,D53,1*
G04 #@! TO.N,ROW4*
X217487500Y-91343750D03*
G04 #@! TO.P,D53,2*
G04 #@! TO.N,Net-(D53-Pad2)*
X217487500Y-88043750D03*
G04 #@! TD*
G04 #@! TO.P,D54,2*
G04 #@! TO.N,Net-(D54-Pad2)*
X236537500Y-88043750D03*
G04 #@! TO.P,D54,1*
G04 #@! TO.N,ROW4*
X236537500Y-91343750D03*
G04 #@! TD*
G04 #@! TO.P,D55,2*
G04 #@! TO.N,Net-(D55-Pad2)*
X255587500Y-88043750D03*
G04 #@! TO.P,D55,1*
G04 #@! TO.N,ROW4*
X255587500Y-91343750D03*
G04 #@! TD*
G04 #@! TO.P,D56,1*
G04 #@! TO.N,ROW4*
X268287500Y-91343750D03*
G04 #@! TO.P,D56,2*
G04 #@! TO.N,Net-(D56-Pad2)*
X268287500Y-88043750D03*
G04 #@! TD*
G04 #@! TO.P,D59,2*
G04 #@! TO.N,Net-(D59-Pad2)*
X26987500Y-107093750D03*
G04 #@! TO.P,D59,1*
G04 #@! TO.N,ROW5*
X26987500Y-110393750D03*
G04 #@! TD*
G04 #@! TO.P,D61,1*
G04 #@! TO.N,ROW5*
X174625000Y-110393750D03*
G04 #@! TO.P,D61,2*
G04 #@! TO.N,Net-(D61-Pad2)*
X174625000Y-107093750D03*
G04 #@! TD*
G04 #@! TO.P,D64,2*
G04 #@! TO.N,Net-(D64-Pad2)*
X236537500Y-107093750D03*
G04 #@! TO.P,D64,1*
G04 #@! TO.N,ROW5*
X236537500Y-110393750D03*
G04 #@! TD*
G04 #@! TO.P,D65,1*
G04 #@! TO.N,ROW5*
X303212500Y-110393750D03*
G04 #@! TO.P,D65,2*
G04 #@! TO.N,Net-(D65-Pad2)*
X303212500Y-107093750D03*
G04 #@! TD*
G04 #@! TO.P,D67,2*
G04 #@! TO.N,Net-(D67-Pad2)*
X93662500Y-107093750D03*
G04 #@! TO.P,D67,1*
G04 #@! TO.N,ROW5*
X93662500Y-110393750D03*
G04 #@! TD*
G04 #@! TO.P,D68,2*
G04 #@! TO.N,Net-(D68-Pad2)*
X272256250Y-88043750D03*
G04 #@! TO.P,D68,1*
G04 #@! TO.N,ROW4*
X272256250Y-91343750D03*
G04 #@! TD*
D15*
G04 #@! TO.P,F1,2*
G04 #@! TO.N,VCC*
X307213000Y-12579500D03*
G04 #@! TO.P,F1,1*
G04 #@! TO.N,+5V*
X307213000Y-14979500D03*
G04 #@! TD*
D16*
G04 #@! TO.P,K_.1,2*
G04 #@! TO.N,Net-(D54-Pad2)*
X230312500Y-93980000D03*
X230312500Y-88260000D03*
G04 #@! TO.P,K_.1,1*
G04 #@! TO.N,COL10*
X223712500Y-93980000D03*
X223712500Y-88260000D03*
G04 #@! TD*
G04 #@! TO.P,K_\002C1,2*
G04 #@! TO.N,Net-(D53-Pad2)*
X211262500Y-93980000D03*
X211262500Y-88260000D03*
G04 #@! TO.P,K_\002C1,1*
G04 #@! TO.N,COL9*
X204662500Y-93980000D03*
X204662500Y-88260000D03*
G04 #@! TD*
G04 #@! TO.P,K_#1,2*
G04 #@! TO.N,Net-(D2-Pad2)*
X54100000Y-36830000D03*
X54100000Y-31110000D03*
G04 #@! TO.P,K_#1,1*
G04 #@! TO.N,COL1*
X47500000Y-36830000D03*
X47500000Y-31110000D03*
G04 #@! TD*
G04 #@! TO.P,K_#2,1*
G04 #@! TO.N,COL2*
X66550000Y-31110000D03*
X66550000Y-36830000D03*
G04 #@! TO.P,K_#2,2*
G04 #@! TO.N,Net-(D3-Pad2)*
X73150000Y-31110000D03*
X73150000Y-36830000D03*
G04 #@! TD*
G04 #@! TO.P,K_#3,2*
G04 #@! TO.N,Net-(D4-Pad2)*
X92200000Y-36830000D03*
X92200000Y-31110000D03*
G04 #@! TO.P,K_#3,1*
G04 #@! TO.N,COL3*
X85600000Y-36830000D03*
X85600000Y-31110000D03*
G04 #@! TD*
G04 #@! TO.P,K_#4,1*
G04 #@! TO.N,COL4*
X104650000Y-31110000D03*
X104650000Y-36830000D03*
G04 #@! TO.P,K_#4,2*
G04 #@! TO.N,Net-(D5-Pad2)*
X111250000Y-31110000D03*
X111250000Y-36830000D03*
G04 #@! TD*
G04 #@! TO.P,K_#5,1*
G04 #@! TO.N,COL5*
X123700000Y-31110000D03*
X123700000Y-36830000D03*
G04 #@! TO.P,K_#5,2*
G04 #@! TO.N,Net-(D6-Pad2)*
X130300000Y-31110000D03*
X130300000Y-36830000D03*
G04 #@! TD*
G04 #@! TO.P,K_#6,1*
G04 #@! TO.N,COL6*
X142750000Y-31110000D03*
X142750000Y-36830000D03*
G04 #@! TO.P,K_#6,2*
G04 #@! TO.N,Net-(D7-Pad2)*
X149350000Y-31110000D03*
X149350000Y-36830000D03*
G04 #@! TD*
G04 #@! TO.P,K_#7,1*
G04 #@! TO.N,COL7*
X161800000Y-31110000D03*
X161800000Y-36830000D03*
G04 #@! TO.P,K_#7,2*
G04 #@! TO.N,Net-(D8-Pad2)*
X168400000Y-31110000D03*
X168400000Y-36830000D03*
G04 #@! TD*
G04 #@! TO.P,K_#8,1*
G04 #@! TO.N,COL8*
X180850000Y-31110000D03*
X180850000Y-36830000D03*
G04 #@! TO.P,K_#8,2*
G04 #@! TO.N,Net-(D9-Pad2)*
X187450000Y-31110000D03*
X187450000Y-36830000D03*
G04 #@! TD*
G04 #@! TO.P,K_#9,1*
G04 #@! TO.N,COL9*
X199900000Y-31110000D03*
X199900000Y-36830000D03*
G04 #@! TO.P,K_#9,2*
G04 #@! TO.N,Net-(D10-Pad2)*
X206500000Y-31110000D03*
X206500000Y-36830000D03*
G04 #@! TD*
G04 #@! TO.P,K_#10,2*
G04 #@! TO.N,Net-(D11-Pad2)*
X225550000Y-36830000D03*
X225550000Y-31110000D03*
G04 #@! TO.P,K_#10,1*
G04 #@! TO.N,COL10*
X218950000Y-36830000D03*
X218950000Y-31110000D03*
G04 #@! TD*
G04 #@! TO.P,K_'1,1*
G04 #@! TO.N,COL11*
X252287500Y-69210000D03*
X252287500Y-74930000D03*
G04 #@! TO.P,K_'1,2*
G04 #@! TO.N,Net-(D42-Pad2)*
X258887500Y-69210000D03*
X258887500Y-74930000D03*
G04 #@! TD*
G04 #@! TO.P,K_-1,2*
G04 #@! TO.N,Net-(D12-Pad2)*
X244600000Y-36830000D03*
X244600000Y-31110000D03*
G04 #@! TO.P,K_-1,1*
G04 #@! TO.N,COL11*
X238000000Y-36830000D03*
X238000000Y-31110000D03*
G04 #@! TD*
G04 #@! TO.P,K_/1,1*
G04 #@! TO.N,COL11*
X242762500Y-88260000D03*
X242762500Y-93980000D03*
G04 #@! TO.P,K_/1,2*
G04 #@! TO.N,Net-(D55-Pad2)*
X249362500Y-88260000D03*
X249362500Y-93980000D03*
G04 #@! TD*
G04 #@! TO.P,K_;1,1*
G04 #@! TO.N,COL10*
X233237500Y-69210000D03*
X233237500Y-74930000D03*
G04 #@! TO.P,K_;1,2*
G04 #@! TO.N,Net-(D41-Pad2)*
X239837500Y-69210000D03*
X239837500Y-74930000D03*
G04 #@! TD*
G04 #@! TO.P,K_=1,1*
G04 #@! TO.N,COL12*
X257050000Y-31110000D03*
X257050000Y-36830000D03*
G04 #@! TO.P,K_=1,2*
G04 #@! TO.N,Net-(D13-Pad2)*
X263650000Y-31110000D03*
X263650000Y-36830000D03*
G04 #@! TD*
G04 #@! TO.P,K_[1,1*
G04 #@! TO.N,COL11*
X247525000Y-50160000D03*
X247525000Y-55880000D03*
G04 #@! TO.P,K_[1,2*
G04 #@! TO.N,Net-(D27-Pad2)*
X254125000Y-50160000D03*
X254125000Y-55880000D03*
G04 #@! TD*
G04 #@! TO.P,K_\005C1,1*
G04 #@! TO.N,COL13*
X290387500Y-50160000D03*
X290387500Y-55880000D03*
G04 #@! TO.P,K_\005C1,2*
G04 #@! TO.N,Net-(D29-Pad2)*
X296987500Y-50160000D03*
X296987500Y-55880000D03*
G04 #@! TD*
G04 #@! TO.P,K_]1,1*
G04 #@! TO.N,COL12*
X266575000Y-50160000D03*
X266575000Y-55880000D03*
G04 #@! TO.P,K_]1,2*
G04 #@! TO.N,Net-(D28-Pad2)*
X273175000Y-50160000D03*
X273175000Y-55880000D03*
G04 #@! TD*
G04 #@! TO.P,K_A1,2*
G04 #@! TO.N,Net-(D32-Pad2)*
X68387500Y-74930000D03*
X68387500Y-69210000D03*
G04 #@! TO.P,K_A1,1*
G04 #@! TO.N,COL1*
X61787500Y-74930000D03*
X61787500Y-69210000D03*
G04 #@! TD*
G04 #@! TO.P,K_ALT1,2*
G04 #@! TO.N,Net-(D67-Pad2)*
X77912500Y-113030000D03*
X77912500Y-107310000D03*
G04 #@! TO.P,K_ALT1,1*
G04 #@! TO.N,COL2*
X71312500Y-113030000D03*
X71312500Y-107310000D03*
G04 #@! TD*
G04 #@! TO.P,K_ALT2,2*
G04 #@! TO.N,COL2*
X87437500Y-113030000D03*
X87437500Y-107310000D03*
G04 #@! TO.P,K_ALT2,1*
G04 #@! TO.N,Net-(D67-Pad2)*
X80837500Y-113030000D03*
X80837500Y-107310000D03*
G04 #@! TD*
G04 #@! TO.P,K_B1,2*
G04 #@! TO.N,Net-(D50-Pad2)*
X154112500Y-93980000D03*
X154112500Y-88260000D03*
G04 #@! TO.P,K_B1,1*
G04 #@! TO.N,COL6*
X147512500Y-93980000D03*
X147512500Y-88260000D03*
G04 #@! TD*
G04 #@! TO.P,K_C1,2*
G04 #@! TO.N,Net-(D48-Pad2)*
X116012500Y-93980000D03*
X116012500Y-88260000D03*
G04 #@! TO.P,K_C1,1*
G04 #@! TO.N,COL4*
X109412500Y-93980000D03*
X109412500Y-88260000D03*
G04 #@! TD*
G04 #@! TO.P,K_CAPS1,1*
G04 #@! TO.N,COL0*
X35593750Y-69210000D03*
X35593750Y-74930000D03*
G04 #@! TO.P,K_CAPS1,2*
G04 #@! TO.N,Net-(D31-Pad2)*
X42193750Y-69210000D03*
X42193750Y-74930000D03*
G04 #@! TD*
G04 #@! TO.P,K_CTRL2,2*
G04 #@! TO.N,COL0*
X39812500Y-113030000D03*
X39812500Y-107310000D03*
G04 #@! TO.P,K_CTRL2,1*
G04 #@! TO.N,Net-(D59-Pad2)*
X33212500Y-113030000D03*
X33212500Y-107310000D03*
G04 #@! TD*
G04 #@! TO.P,K_D1,2*
G04 #@! TO.N,Net-(D34-Pad2)*
X106487500Y-74930000D03*
X106487500Y-69210000D03*
G04 #@! TO.P,K_D1,1*
G04 #@! TO.N,COL3*
X99887500Y-74930000D03*
X99887500Y-69210000D03*
G04 #@! TD*
G04 #@! TO.P,K_E1,2*
G04 #@! TO.N,Net-(D19-Pad2)*
X101725000Y-55880000D03*
X101725000Y-50160000D03*
G04 #@! TO.P,K_E1,1*
G04 #@! TO.N,COL3*
X95125000Y-55880000D03*
X95125000Y-50160000D03*
G04 #@! TD*
G04 #@! TO.P,K_ENTER1,1*
G04 #@! TO.N,COL13*
X283243750Y-69210000D03*
X283243750Y-74930000D03*
G04 #@! TO.P,K_ENTER1,2*
G04 #@! TO.N,Net-(D43-Pad2)*
X289843750Y-69210000D03*
X289843750Y-74930000D03*
G04 #@! TD*
G04 #@! TO.P,K_ESC1,1*
G04 #@! TO.N,COL0*
X28450000Y-7297500D03*
X28450000Y-13017500D03*
G04 #@! TO.P,K_ESC1,2*
G04 #@! TO.N,Net-(D15-Pad2)*
X35050000Y-7297500D03*
X35050000Y-13017500D03*
G04 #@! TD*
G04 #@! TO.P,K_F1,1*
G04 #@! TO.N,COL4*
X118937500Y-69210000D03*
X118937500Y-74930000D03*
G04 #@! TO.P,K_F1,2*
G04 #@! TO.N,Net-(D35-Pad2)*
X125537500Y-69210000D03*
X125537500Y-74930000D03*
G04 #@! TD*
G04 #@! TO.P,K_G1,2*
G04 #@! TO.N,Net-(D36-Pad2)*
X144587500Y-74930000D03*
X144587500Y-69210000D03*
G04 #@! TO.P,K_G1,1*
G04 #@! TO.N,COL5*
X137987500Y-74930000D03*
X137987500Y-69210000D03*
G04 #@! TD*
G04 #@! TO.P,K_H1,1*
G04 #@! TO.N,COL6*
X157037500Y-69210000D03*
X157037500Y-74930000D03*
G04 #@! TO.P,K_H1,2*
G04 #@! TO.N,Net-(D37-Pad2)*
X163637500Y-69210000D03*
X163637500Y-74930000D03*
G04 #@! TD*
G04 #@! TO.P,K_I1,1*
G04 #@! TO.N,COL8*
X190375000Y-50160000D03*
X190375000Y-55880000D03*
G04 #@! TO.P,K_I1,2*
G04 #@! TO.N,Net-(D24-Pad2)*
X196975000Y-50160000D03*
X196975000Y-55880000D03*
G04 #@! TD*
G04 #@! TO.P,K_J1,2*
G04 #@! TO.N,Net-(D38-Pad2)*
X182687500Y-74930000D03*
X182687500Y-69210000D03*
G04 #@! TO.P,K_J1,1*
G04 #@! TO.N,COL7*
X176087500Y-74930000D03*
X176087500Y-69210000D03*
G04 #@! TD*
G04 #@! TO.P,K_K1,2*
G04 #@! TO.N,Net-(D39-Pad2)*
X201737500Y-74930000D03*
X201737500Y-69210000D03*
G04 #@! TO.P,K_K1,1*
G04 #@! TO.N,COL8*
X195137500Y-74930000D03*
X195137500Y-69210000D03*
G04 #@! TD*
G04 #@! TO.P,K_L1,2*
G04 #@! TO.N,Net-(D40-Pad2)*
X220787500Y-74930000D03*
X220787500Y-69210000D03*
G04 #@! TO.P,K_L1,1*
G04 #@! TO.N,COL9*
X214187500Y-74930000D03*
X214187500Y-69210000D03*
G04 #@! TD*
G04 #@! TO.P,K_M1,2*
G04 #@! TO.N,Net-(D52-Pad2)*
X192212500Y-93980000D03*
X192212500Y-88260000D03*
G04 #@! TO.P,K_M1,1*
G04 #@! TO.N,COL8*
X185612500Y-93980000D03*
X185612500Y-88260000D03*
G04 #@! TD*
G04 #@! TO.P,K_N1,1*
G04 #@! TO.N,COL7*
X166562500Y-88260000D03*
X166562500Y-93980000D03*
G04 #@! TO.P,K_N1,2*
G04 #@! TO.N,Net-(D51-Pad2)*
X173162500Y-88260000D03*
X173162500Y-93980000D03*
G04 #@! TD*
G04 #@! TO.P,K_O1,1*
G04 #@! TO.N,COL9*
X209425000Y-50160000D03*
X209425000Y-55880000D03*
G04 #@! TO.P,K_O1,2*
G04 #@! TO.N,Net-(D25-Pad2)*
X216025000Y-50160000D03*
X216025000Y-55880000D03*
G04 #@! TD*
G04 #@! TO.P,K_P1,2*
G04 #@! TO.N,Net-(D26-Pad2)*
X235075000Y-55880000D03*
X235075000Y-50160000D03*
G04 #@! TO.P,K_P1,1*
G04 #@! TO.N,COL10*
X228475000Y-55880000D03*
X228475000Y-50160000D03*
G04 #@! TD*
G04 #@! TO.P,K_Q1,2*
G04 #@! TO.N,Net-(D17-Pad2)*
X63625000Y-55880000D03*
X63625000Y-50160000D03*
G04 #@! TO.P,K_Q1,1*
G04 #@! TO.N,COL1*
X57025000Y-55880000D03*
X57025000Y-50160000D03*
G04 #@! TD*
G04 #@! TO.P,K_R1,1*
G04 #@! TO.N,COL4*
X114175000Y-50160000D03*
X114175000Y-55880000D03*
G04 #@! TO.P,K_R1,2*
G04 #@! TO.N,Net-(D20-Pad2)*
X120775000Y-50160000D03*
X120775000Y-55880000D03*
G04 #@! TD*
G04 #@! TO.P,K_RSHIFT1,1*
G04 #@! TO.N,COL12*
X278481250Y-88260000D03*
X278481250Y-93980000D03*
G04 #@! TO.P,K_RSHIFT1,2*
G04 #@! TO.N,Net-(D56-Pad2)*
X285081250Y-88260000D03*
X285081250Y-93980000D03*
G04 #@! TD*
G04 #@! TO.P,K_S1,1*
G04 #@! TO.N,COL2*
X80837500Y-69210000D03*
X80837500Y-74930000D03*
G04 #@! TO.P,K_S1,2*
G04 #@! TO.N,Net-(D33-Pad2)*
X87437500Y-69210000D03*
X87437500Y-74930000D03*
G04 #@! TD*
G04 #@! TO.P,K_SBACK1,2*
G04 #@! TO.N,Net-(D14-Pad2)*
X301750000Y-36830000D03*
X301750000Y-31110000D03*
G04 #@! TO.P,K_SBACK1,1*
G04 #@! TO.N,COL13*
X295150000Y-36830000D03*
X295150000Y-31110000D03*
G04 #@! TD*
G04 #@! TO.P,K_SHIFT1,2*
G04 #@! TO.N,Net-(D45-Pad2)*
X46956250Y-93980000D03*
X46956250Y-88260000D03*
G04 #@! TO.P,K_SHIFT1,1*
G04 #@! TO.N,COL0*
X40356250Y-93980000D03*
X40356250Y-88260000D03*
G04 #@! TD*
G04 #@! TO.P,K_SPACE1,1*
G04 #@! TO.N,COL7*
X161800000Y-107310000D03*
X161800000Y-113030000D03*
G04 #@! TO.P,K_SPACE1,2*
G04 #@! TO.N,Net-(D61-Pad2)*
X168400000Y-107310000D03*
X168400000Y-113030000D03*
G04 #@! TD*
G04 #@! TO.P,K_T1,2*
G04 #@! TO.N,Net-(D21-Pad2)*
X139825000Y-55880000D03*
X139825000Y-50160000D03*
G04 #@! TO.P,K_T1,1*
G04 #@! TO.N,COL5*
X133225000Y-55880000D03*
X133225000Y-50160000D03*
G04 #@! TD*
G04 #@! TO.P,K_TAB1,1*
G04 #@! TO.N,COL0*
X33212500Y-50160000D03*
X33212500Y-55880000D03*
G04 #@! TO.P,K_TAB1,2*
G04 #@! TO.N,Net-(D16-Pad2)*
X39812500Y-50160000D03*
X39812500Y-55880000D03*
G04 #@! TD*
G04 #@! TO.P,K_U1,2*
G04 #@! TO.N,Net-(D23-Pad2)*
X177925000Y-55880000D03*
X177925000Y-50160000D03*
G04 #@! TO.P,K_U1,1*
G04 #@! TO.N,COL7*
X171325000Y-55880000D03*
X171325000Y-50160000D03*
G04 #@! TD*
G04 #@! TO.P,K_V1,1*
G04 #@! TO.N,COL5*
X128462500Y-88260000D03*
X128462500Y-93980000D03*
G04 #@! TO.P,K_V1,2*
G04 #@! TO.N,Net-(D49-Pad2)*
X135062500Y-88260000D03*
X135062500Y-93980000D03*
G04 #@! TD*
G04 #@! TO.P,K_W1,2*
G04 #@! TO.N,Net-(D18-Pad2)*
X82675000Y-55880000D03*
X82675000Y-50160000D03*
G04 #@! TO.P,K_W1,1*
G04 #@! TO.N,COL2*
X76075000Y-55880000D03*
X76075000Y-50160000D03*
G04 #@! TD*
G04 #@! TO.P,K_X1,1*
G04 #@! TO.N,COL3*
X90362500Y-88260000D03*
X90362500Y-93980000D03*
G04 #@! TO.P,K_X1,2*
G04 #@! TO.N,Net-(D47-Pad2)*
X96962500Y-88260000D03*
X96962500Y-93980000D03*
G04 #@! TD*
G04 #@! TO.P,K_Y1,1*
G04 #@! TO.N,COL6*
X152275000Y-50160000D03*
X152275000Y-55880000D03*
G04 #@! TO.P,K_Y1,2*
G04 #@! TO.N,Net-(D22-Pad2)*
X158875000Y-50160000D03*
X158875000Y-55880000D03*
G04 #@! TD*
G04 #@! TO.P,K_Z1,2*
G04 #@! TO.N,Net-(D46-Pad2)*
X77912500Y-93980000D03*
X77912500Y-88260000D03*
G04 #@! TO.P,K_Z1,1*
G04 #@! TO.N,COL2*
X71312500Y-93980000D03*
X71312500Y-88260000D03*
G04 #@! TD*
D17*
G04 #@! TO.P,R67,1*
G04 #@! TO.N,D-*
X302387000Y-77912000D03*
G04 #@! TO.P,R67,2*
G04 #@! TO.N,Net-(R67-Pad2)*
X302387000Y-76012000D03*
G04 #@! TD*
G04 #@! TO.P,R68,2*
G04 #@! TO.N,Net-(R68-Pad2)*
X305435000Y-76012000D03*
G04 #@! TO.P,R68,1*
G04 #@! TO.N,D+*
X305435000Y-77912000D03*
G04 #@! TD*
D18*
G04 #@! TO.P,R70,2*
G04 #@! TO.N,Net-(R70-Pad2)*
X313248000Y-79883000D03*
G04 #@! TO.P,R70,1*
G04 #@! TO.N,+5V*
X315148000Y-79883000D03*
G04 #@! TD*
G04 #@! TO.P,R71,2*
G04 #@! TO.N,Net-(R71-Pad2)*
X299273000Y-97282000D03*
G04 #@! TO.P,R71,1*
G04 #@! TO.N,GND*
X297373000Y-97282000D03*
G04 #@! TD*
G04 #@! TO.P,R73,1*
G04 #@! TO.N,GND*
X300675000Y-2381250D03*
G04 #@! TO.P,R73,2*
G04 #@! TO.N,Net-(R73-Pad2)*
X302575000Y-2381250D03*
G04 #@! TD*
G04 #@! TO.P,R74,2*
G04 #@! TO.N,Net-(R74-Pad2)*
X317343750Y-2381250D03*
G04 #@! TO.P,R74,1*
G04 #@! TO.N,GND*
X319243750Y-2381250D03*
G04 #@! TD*
D19*
G04 #@! TO.P,SW1,1*
G04 #@! TO.N,GND*
X329510000Y-91873000D03*
G04 #@! TO.P,SW1,2*
G04 #@! TO.N,Net-(R70-Pad2)*
X325810000Y-85673000D03*
G04 #@! TO.P,SW1,3*
G04 #@! TO.N,N/C*
X325810000Y-91873000D03*
G04 #@! TO.P,SW1,4*
X329510000Y-85673000D03*
G04 #@! TD*
D20*
G04 #@! TO.P,U2,3*
G04 #@! TO.N,Net-(R67-Pad2)*
X309134000Y-10316250D03*
G04 #@! TO.P,U2,2*
G04 #@! TO.N,Net-(R68-Pad2)*
X311134000Y-10316250D03*
G04 #@! TO.P,U2,4*
G04 #@! TO.N,VCC*
X309134000Y-8416250D03*
D21*
G04 #@! TO.P,U2,1*
G04 #@! TO.N,GND*
X311134000Y-8616250D03*
G04 #@! TD*
D22*
G04 #@! TO.P,USB1,13*
G04 #@! TO.N,GND*
X314454000Y98750D03*
X305814000Y98750D03*
D23*
X314454000Y-4081250D03*
X305814000Y-4081250D03*
D24*
G04 #@! TO.P,USB1,6*
G04 #@! TO.N,Net-(R68-Pad2)*
X309884000Y-4996250D03*
G04 #@! TO.P,USB1,7*
G04 #@! TO.N,Net-(R67-Pad2)*
X310384000Y-4996250D03*
G04 #@! TO.P,USB1,8*
G04 #@! TO.N,Net-(R68-Pad2)*
X310884000Y-4996250D03*
G04 #@! TO.P,USB1,5*
G04 #@! TO.N,Net-(R67-Pad2)*
X309384000Y-4996250D03*
G04 #@! TO.P,USB1,9*
G04 #@! TO.N,Net-(USB1-Pad9)*
X311384000Y-4996250D03*
G04 #@! TO.P,USB1,4*
G04 #@! TO.N,Net-(R73-Pad2)*
X308884000Y-4996250D03*
G04 #@! TO.P,USB1,10*
G04 #@! TO.N,Net-(R74-Pad2)*
X311884000Y-4996250D03*
G04 #@! TO.P,USB1,3*
G04 #@! TO.N,Net-(USB1-Pad3)*
X308384000Y-4996250D03*
D25*
G04 #@! TO.P,USB1,2*
G04 #@! TO.N,VCC*
X307684000Y-4996250D03*
G04 #@! TO.P,USB1,11*
X312584000Y-4996250D03*
G04 #@! TO.P,USB1,1*
G04 #@! TO.N,GND*
X306909000Y-4996250D03*
G04 #@! TO.P,USB1,12*
X313359000Y-4996250D03*
G04 #@! TD*
D26*
G04 #@! TO.P,Y1,4*
G04 #@! TO.N,GND*
X318413500Y-89873000D03*
G04 #@! TO.P,Y1,3*
G04 #@! TO.N,Net-(C8-Pad1)*
X318413500Y-87673000D03*
G04 #@! TO.P,Y1,2*
G04 #@! TO.N,GND*
X316713500Y-87673000D03*
G04 #@! TO.P,Y1,1*
G04 #@! TO.N,Net-(C7-Pad1)*
X316713500Y-89873000D03*
G04 #@! TD*
D16*
G04 #@! TO.P,K_CTRL1,1*
G04 #@! TO.N,COL0*
X37975000Y-107310000D03*
X37975000Y-113030000D03*
G04 #@! TO.P,K_CTRL1,2*
G04 #@! TO.N,Net-(D59-Pad2)*
X44575000Y-107310000D03*
X44575000Y-113030000D03*
G04 #@! TD*
G04 #@! TO.P,K_RALT1,1*
G04 #@! TO.N,COL11*
X252287500Y-107310000D03*
X252287500Y-113030000D03*
G04 #@! TO.P,K_RALT1,2*
G04 #@! TO.N,Net-(D64-Pad2)*
X258887500Y-107310000D03*
X258887500Y-113030000D03*
G04 #@! TD*
G04 #@! TO.P,K_RALT2,2*
G04 #@! TO.N,COL11*
X249362500Y-113030000D03*
X249362500Y-107310000D03*
G04 #@! TO.P,K_RALT2,1*
G04 #@! TO.N,Net-(D64-Pad2)*
X242762500Y-113030000D03*
X242762500Y-107310000D03*
G04 #@! TD*
G04 #@! TO.P,K_RCTRL1,1*
G04 #@! TO.N,COL13*
X285625000Y-107310000D03*
X285625000Y-113030000D03*
G04 #@! TO.P,K_RCTRL1,2*
G04 #@! TO.N,Net-(D65-Pad2)*
X292225000Y-107310000D03*
X292225000Y-113030000D03*
G04 #@! TD*
G04 #@! TO.P,K_RCTRL2,1*
G04 #@! TO.N,Net-(D65-Pad2)*
X290387500Y-107310000D03*
X290387500Y-113030000D03*
G04 #@! TO.P,K_RCTRL2,2*
G04 #@! TO.N,COL13*
X296987500Y-107310000D03*
X296987500Y-113030000D03*
G04 #@! TD*
D14*
G04 #@! TO.P,D15,2*
G04 #@! TO.N,Net-(D15-Pad2)*
X41275000Y-7081250D03*
G04 #@! TO.P,D15,1*
G04 #@! TO.N,ROW0*
X41275000Y-10381250D03*
G04 #@! TD*
G04 #@! TO.P,D30,1*
G04 #@! TO.N,ROW0*
X79375000Y-10381250D03*
G04 #@! TO.P,D30,2*
G04 #@! TO.N,Net-(D30-Pad2)*
X79375000Y-7081250D03*
G04 #@! TD*
G04 #@! TO.P,D58,2*
G04 #@! TO.N,Net-(D58-Pad2)*
X98425000Y-7081250D03*
G04 #@! TO.P,D58,1*
G04 #@! TO.N,ROW0*
X98425000Y-10381250D03*
G04 #@! TD*
G04 #@! TO.P,D60,1*
G04 #@! TO.N,ROW0*
X117475000Y-10381250D03*
G04 #@! TO.P,D60,2*
G04 #@! TO.N,Net-(D60-Pad2)*
X117475000Y-7081250D03*
G04 #@! TD*
G04 #@! TO.P,D62,2*
G04 #@! TO.N,Net-(D62-Pad2)*
X136525000Y-7081250D03*
G04 #@! TO.P,D62,1*
G04 #@! TO.N,ROW0*
X136525000Y-10381250D03*
G04 #@! TD*
G04 #@! TO.P,D63,2*
G04 #@! TO.N,Net-(D63-Pad2)*
X165100000Y-7081250D03*
G04 #@! TO.P,D63,1*
G04 #@! TO.N,ROW0*
X165100000Y-10381250D03*
G04 #@! TD*
G04 #@! TO.P,D66,1*
G04 #@! TO.N,ROW0*
X184150000Y-10381250D03*
G04 #@! TO.P,D66,2*
G04 #@! TO.N,Net-(D66-Pad2)*
X184150000Y-7081250D03*
G04 #@! TD*
G04 #@! TO.P,D69,2*
G04 #@! TO.N,Net-(D69-Pad2)*
X203200000Y-7081250D03*
G04 #@! TO.P,D69,1*
G04 #@! TO.N,ROW0*
X203200000Y-10381250D03*
G04 #@! TD*
G04 #@! TO.P,D70,1*
G04 #@! TO.N,ROW0*
X222250000Y-10381250D03*
G04 #@! TO.P,D70,2*
G04 #@! TO.N,Net-(D70-Pad2)*
X222250000Y-7081250D03*
G04 #@! TD*
G04 #@! TO.P,D71,2*
G04 #@! TO.N,Net-(D71-Pad2)*
X231775000Y-7081250D03*
G04 #@! TO.P,D71,1*
G04 #@! TO.N,ROW0*
X231775000Y-10381250D03*
G04 #@! TD*
G04 #@! TO.P,D72,1*
G04 #@! TO.N,ROW0*
X250825000Y-10381250D03*
G04 #@! TO.P,D72,2*
G04 #@! TO.N,Net-(D72-Pad2)*
X250825000Y-7081250D03*
G04 #@! TD*
G04 #@! TO.P,D73,2*
G04 #@! TO.N,Net-(D73-Pad2)*
X269875000Y-7081250D03*
G04 #@! TO.P,D73,1*
G04 #@! TO.N,ROW0*
X269875000Y-10381250D03*
G04 #@! TD*
G04 #@! TO.P,D74,2*
G04 #@! TO.N,Net-(D74-Pad2)*
X288925000Y-7081250D03*
G04 #@! TO.P,D74,1*
G04 #@! TO.N,ROW0*
X288925000Y-10381250D03*
G04 #@! TD*
D16*
G04 #@! TO.P,K_`1,1*
G04 #@! TO.N,COL0*
X28450000Y-31110000D03*
X28450000Y-36830000D03*
G04 #@! TO.P,K_`1,2*
G04 #@! TO.N,Net-(D1-Pad2)*
X35050000Y-31110000D03*
X35050000Y-36830000D03*
G04 #@! TD*
G04 #@! TO.P,K_FN1,1*
G04 #@! TO.N,COL2*
X66550000Y-7297500D03*
X66550000Y-13017500D03*
G04 #@! TO.P,K_FN1,2*
G04 #@! TO.N,Net-(D30-Pad2)*
X73150000Y-7297500D03*
X73150000Y-13017500D03*
G04 #@! TD*
G04 #@! TO.P,K_FN2,2*
G04 #@! TO.N,Net-(D58-Pad2)*
X92200000Y-13017500D03*
X92200000Y-7297500D03*
G04 #@! TO.P,K_FN2,1*
G04 #@! TO.N,COL3*
X85600000Y-13017500D03*
X85600000Y-7297500D03*
G04 #@! TD*
G04 #@! TO.P,K_FN3,2*
G04 #@! TO.N,Net-(D60-Pad2)*
X111250000Y-13017500D03*
X111250000Y-7297500D03*
G04 #@! TO.P,K_FN3,1*
G04 #@! TO.N,COL4*
X104650000Y-13017500D03*
X104650000Y-7297500D03*
G04 #@! TD*
G04 #@! TO.P,K_FN4,1*
G04 #@! TO.N,COL5*
X123700000Y-7297500D03*
X123700000Y-13017500D03*
G04 #@! TO.P,K_FN4,2*
G04 #@! TO.N,Net-(D62-Pad2)*
X130300000Y-7297500D03*
X130300000Y-13017500D03*
G04 #@! TD*
G04 #@! TO.P,K_FN5,2*
G04 #@! TO.N,Net-(D63-Pad2)*
X158875000Y-13017500D03*
X158875000Y-7297500D03*
G04 #@! TO.P,K_FN5,1*
G04 #@! TO.N,COL6*
X152275000Y-13017500D03*
X152275000Y-7297500D03*
G04 #@! TD*
G04 #@! TO.P,K_FN6,1*
G04 #@! TO.N,COL7*
X171325000Y-7297500D03*
X171325000Y-13017500D03*
G04 #@! TO.P,K_FN6,2*
G04 #@! TO.N,Net-(D66-Pad2)*
X177925000Y-7297500D03*
X177925000Y-13017500D03*
G04 #@! TD*
G04 #@! TO.P,K_FN7,2*
G04 #@! TO.N,Net-(D69-Pad2)*
X196975000Y-13017500D03*
X196975000Y-7297500D03*
G04 #@! TO.P,K_FN7,1*
G04 #@! TO.N,COL8*
X190375000Y-13017500D03*
X190375000Y-7297500D03*
G04 #@! TD*
G04 #@! TO.P,K_FN8,1*
G04 #@! TO.N,COL9*
X209425000Y-7297500D03*
X209425000Y-13017500D03*
G04 #@! TO.P,K_FN8,2*
G04 #@! TO.N,Net-(D70-Pad2)*
X216025000Y-7297500D03*
X216025000Y-13017500D03*
G04 #@! TD*
G04 #@! TO.P,K_FN9,2*
G04 #@! TO.N,Net-(D71-Pad2)*
X244600000Y-13017500D03*
X244600000Y-7297500D03*
G04 #@! TO.P,K_FN9,1*
G04 #@! TO.N,COL10*
X238000000Y-13017500D03*
X238000000Y-7297500D03*
G04 #@! TD*
G04 #@! TO.P,K_FN10,1*
G04 #@! TO.N,COL11*
X257050000Y-7297500D03*
X257050000Y-13017500D03*
G04 #@! TO.P,K_FN10,2*
G04 #@! TO.N,Net-(D72-Pad2)*
X263650000Y-7297500D03*
X263650000Y-13017500D03*
G04 #@! TD*
G04 #@! TO.P,K_FN11,2*
G04 #@! TO.N,Net-(D73-Pad2)*
X282700000Y-13017500D03*
X282700000Y-7297500D03*
G04 #@! TO.P,K_FN11,1*
G04 #@! TO.N,COL12*
X276100000Y-13017500D03*
X276100000Y-7297500D03*
G04 #@! TD*
G04 #@! TO.P,K_FN12,1*
G04 #@! TO.N,COL13*
X295150000Y-7297500D03*
X295150000Y-13017500D03*
G04 #@! TO.P,K_FN12,2*
G04 #@! TO.N,Net-(D74-Pad2)*
X301750000Y-7297500D03*
X301750000Y-13017500D03*
G04 #@! TD*
D14*
G04 #@! TO.P,D75,1*
G04 #@! TO.N,ROW5*
X50800000Y-110393750D03*
G04 #@! TO.P,D75,2*
G04 #@! TO.N,Net-(D75-Pad2)*
X50800000Y-107093750D03*
G04 #@! TD*
G04 #@! TO.P,D76,2*
G04 #@! TO.N,Net-(D76-Pad2)*
X279400000Y-107093750D03*
G04 #@! TO.P,D76,1*
G04 #@! TO.N,ROW5*
X279400000Y-110393750D03*
G04 #@! TD*
D16*
G04 #@! TO.P,K_RWIN1,1*
G04 #@! TO.N,COL12*
X266575000Y-107310000D03*
X266575000Y-113030000D03*
G04 #@! TO.P,K_RWIN1,2*
G04 #@! TO.N,Net-(D76-Pad2)*
X273175000Y-107310000D03*
X273175000Y-113030000D03*
G04 #@! TD*
G04 #@! TO.P,K_WIN1,2*
G04 #@! TO.N,Net-(D75-Pad2)*
X63625000Y-113030000D03*
X63625000Y-107310000D03*
G04 #@! TO.P,K_WIN1,1*
G04 #@! TO.N,COL1*
X57025000Y-113030000D03*
X57025000Y-107310000D03*
G04 #@! TD*
D14*
G04 #@! TO.P,D77,1*
G04 #@! TO.N,ROW0*
X331787500Y-10381250D03*
G04 #@! TO.P,D77,2*
G04 #@! TO.N,Net-(D77-Pad2)*
X331787500Y-7081250D03*
G04 #@! TD*
G04 #@! TO.P,D78,2*
G04 #@! TO.N,Net-(D78-Pad2)*
X350837500Y-7081250D03*
G04 #@! TO.P,D78,1*
G04 #@! TO.N,ROW0*
X350837500Y-10381250D03*
G04 #@! TD*
G04 #@! TO.P,D79,1*
G04 #@! TO.N,ROW0*
X360362500Y-21493750D03*
G04 #@! TO.P,D79,2*
G04 #@! TO.N,Net-(D79-Pad2)*
X360362500Y-18193750D03*
G04 #@! TD*
G04 #@! TO.P,D80,1*
G04 #@! TO.N,ROW1*
X331787500Y-34193750D03*
G04 #@! TO.P,D80,2*
G04 #@! TO.N,Net-(D80-Pad2)*
X331787500Y-30893750D03*
G04 #@! TD*
G04 #@! TO.P,D81,2*
G04 #@! TO.N,Net-(D81-Pad2)*
X350837500Y-30893750D03*
G04 #@! TO.P,D81,1*
G04 #@! TO.N,ROW1*
X350837500Y-34193750D03*
G04 #@! TD*
G04 #@! TO.P,D82,1*
G04 #@! TO.N,ROW1*
X350837500Y-43718750D03*
G04 #@! TO.P,D82,2*
G04 #@! TO.N,Net-(D82-Pad2)*
X350837500Y-40418750D03*
G04 #@! TD*
G04 #@! TO.P,D83,2*
G04 #@! TO.N,Net-(D83-Pad2)*
X331787500Y-49943750D03*
G04 #@! TO.P,D83,1*
G04 #@! TO.N,ROW2*
X331787500Y-53243750D03*
G04 #@! TD*
G04 #@! TO.P,D84,2*
G04 #@! TO.N,Net-(D84-Pad2)*
X350837500Y-49943750D03*
G04 #@! TO.P,D84,1*
G04 #@! TO.N,ROW2*
X350837500Y-53243750D03*
G04 #@! TD*
G04 #@! TO.P,D85,2*
G04 #@! TO.N,Net-(D85-Pad2)*
X360362500Y-42006250D03*
G04 #@! TO.P,D85,1*
G04 #@! TO.N,ROW2*
X360362500Y-45306250D03*
G04 #@! TD*
G04 #@! TO.P,D86,2*
G04 #@! TO.N,Net-(D86-Pad2)*
X350837500Y-88043750D03*
G04 #@! TO.P,D86,1*
G04 #@! TO.N,ROW4*
X350837500Y-91343750D03*
G04 #@! TD*
G04 #@! TO.P,D87,1*
G04 #@! TO.N,ROW5*
X312737500Y-110393750D03*
G04 #@! TO.P,D87,2*
G04 #@! TO.N,Net-(D87-Pad2)*
X312737500Y-107093750D03*
G04 #@! TD*
G04 #@! TO.P,D88,2*
G04 #@! TO.N,Net-(D88-Pad2)*
X331787500Y-107093750D03*
G04 #@! TO.P,D88,1*
G04 #@! TO.N,ROW5*
X331787500Y-110393750D03*
G04 #@! TD*
G04 #@! TO.P,D89,1*
G04 #@! TO.N,ROW5*
X350837500Y-110393750D03*
G04 #@! TO.P,D89,2*
G04 #@! TO.N,Net-(D89-Pad2)*
X350837500Y-107093750D03*
G04 #@! TD*
D16*
G04 #@! TO.P,K_DEL1,2*
G04 #@! TO.N,Net-(D83-Pad2)*
X325562500Y-55880000D03*
X325562500Y-50160000D03*
G04 #@! TO.P,K_DEL1,1*
G04 #@! TO.N,COL14*
X318962500Y-55880000D03*
X318962500Y-50160000D03*
G04 #@! TD*
G04 #@! TO.P,K_DOWN1,1*
G04 #@! TO.N,COL15*
X338012500Y-107310000D03*
X338012500Y-113030000D03*
G04 #@! TO.P,K_DOWN1,2*
G04 #@! TO.N,Net-(D88-Pad2)*
X344612500Y-107310000D03*
X344612500Y-113030000D03*
G04 #@! TD*
G04 #@! TO.P,K_END1,2*
G04 #@! TO.N,Net-(D84-Pad2)*
X344612500Y-55880000D03*
X344612500Y-50160000D03*
G04 #@! TO.P,K_END1,1*
G04 #@! TO.N,COL15*
X338012500Y-55880000D03*
X338012500Y-50160000D03*
G04 #@! TD*
G04 #@! TO.P,K_HOME1,1*
G04 #@! TO.N,COL15*
X338012500Y-31110000D03*
X338012500Y-36830000D03*
G04 #@! TO.P,K_HOME1,2*
G04 #@! TO.N,Net-(D81-Pad2)*
X344612500Y-31110000D03*
X344612500Y-36830000D03*
G04 #@! TD*
G04 #@! TO.P,K_INS1,2*
G04 #@! TO.N,Net-(D80-Pad2)*
X325562500Y-36830000D03*
X325562500Y-31110000D03*
G04 #@! TO.P,K_INS1,1*
G04 #@! TO.N,COL14*
X318962500Y-36830000D03*
X318962500Y-31110000D03*
G04 #@! TD*
G04 #@! TO.P,K_LEFT1,1*
G04 #@! TO.N,COL14*
X318962500Y-107310000D03*
X318962500Y-113030000D03*
G04 #@! TO.P,K_LEFT1,2*
G04 #@! TO.N,Net-(D87-Pad2)*
X325562500Y-107310000D03*
X325562500Y-113030000D03*
G04 #@! TD*
G04 #@! TO.P,K_PAUSE1,1*
G04 #@! TO.N,COL16*
X357062500Y-7297500D03*
X357062500Y-13017500D03*
G04 #@! TO.P,K_PAUSE1,2*
G04 #@! TO.N,Net-(D79-Pad2)*
X363662500Y-7297500D03*
X363662500Y-13017500D03*
G04 #@! TD*
G04 #@! TO.P,K_PGDN1,2*
G04 #@! TO.N,Net-(D85-Pad2)*
X363662500Y-55880000D03*
X363662500Y-50160000D03*
G04 #@! TO.P,K_PGDN1,1*
G04 #@! TO.N,COL16*
X357062500Y-55880000D03*
X357062500Y-50160000D03*
G04 #@! TD*
G04 #@! TO.P,K_PGUP1,1*
G04 #@! TO.N,COL16*
X357062500Y-31110000D03*
X357062500Y-36830000D03*
G04 #@! TO.P,K_PGUP1,2*
G04 #@! TO.N,Net-(D82-Pad2)*
X363662500Y-31110000D03*
X363662500Y-36830000D03*
G04 #@! TD*
G04 #@! TO.P,K_PRTSC1,1*
G04 #@! TO.N,COL14*
X318962500Y-7297500D03*
X318962500Y-13017500D03*
G04 #@! TO.P,K_PRTSC1,2*
G04 #@! TO.N,Net-(D77-Pad2)*
X325562500Y-7297500D03*
X325562500Y-13017500D03*
G04 #@! TD*
G04 #@! TO.P,K_RIGHT1,2*
G04 #@! TO.N,Net-(D89-Pad2)*
X363662500Y-113030000D03*
X363662500Y-107310000D03*
G04 #@! TO.P,K_RIGHT1,1*
G04 #@! TO.N,COL16*
X357062500Y-113030000D03*
X357062500Y-107310000D03*
G04 #@! TD*
G04 #@! TO.P,K_SLCK1,2*
G04 #@! TO.N,Net-(D78-Pad2)*
X344612500Y-13017500D03*
X344612500Y-7297500D03*
G04 #@! TO.P,K_SLCK1,1*
G04 #@! TO.N,COL15*
X338012500Y-13017500D03*
X338012500Y-7297500D03*
G04 #@! TD*
G04 #@! TO.P,K_UP1,1*
G04 #@! TO.N,COL15*
X338012500Y-88260000D03*
X338012500Y-93980000D03*
G04 #@! TO.P,K_UP1,2*
G04 #@! TO.N,Net-(D86-Pad2)*
X344612500Y-88260000D03*
X344612500Y-93980000D03*
G04 #@! TD*
D27*
G04 #@! TO.P,U1,44*
G04 #@! TO.N,+5V*
X300243000Y-85154000D03*
G04 #@! TO.P,U1,43*
G04 #@! TO.N,GND*
X300243000Y-85954000D03*
G04 #@! TO.P,U1,42*
G04 #@! TO.N,Net-(U1-Pad42)*
X300243000Y-86754000D03*
G04 #@! TO.P,U1,41*
G04 #@! TO.N,COL12*
X300243000Y-87554000D03*
G04 #@! TO.P,U1,40*
G04 #@! TO.N,COL11*
X300243000Y-88354000D03*
G04 #@! TO.P,U1,39*
G04 #@! TO.N,COL10*
X300243000Y-89154000D03*
G04 #@! TO.P,U1,38*
G04 #@! TO.N,COL9*
X300243000Y-89954000D03*
G04 #@! TO.P,U1,37*
G04 #@! TO.N,COL8*
X300243000Y-90754000D03*
G04 #@! TO.P,U1,36*
G04 #@! TO.N,COL7*
X300243000Y-91554000D03*
G04 #@! TO.P,U1,35*
G04 #@! TO.N,GND*
X300243000Y-92354000D03*
G04 #@! TO.P,U1,34*
G04 #@! TO.N,+5V*
X300243000Y-93154000D03*
D28*
G04 #@! TO.P,U1,33*
G04 #@! TO.N,Net-(R71-Pad2)*
X301943000Y-94854000D03*
G04 #@! TO.P,U1,32*
G04 #@! TO.N,COL6*
X302743000Y-94854000D03*
G04 #@! TO.P,U1,31*
G04 #@! TO.N,COL5*
X303543000Y-94854000D03*
G04 #@! TO.P,U1,30*
G04 #@! TO.N,COL4*
X304343000Y-94854000D03*
G04 #@! TO.P,U1,29*
G04 #@! TO.N,COL3*
X305143000Y-94854000D03*
G04 #@! TO.P,U1,28*
G04 #@! TO.N,COL2*
X305943000Y-94854000D03*
G04 #@! TO.P,U1,27*
G04 #@! TO.N,COL1*
X306743000Y-94854000D03*
G04 #@! TO.P,U1,26*
G04 #@! TO.N,COL0*
X307543000Y-94854000D03*
G04 #@! TO.P,U1,25*
G04 #@! TO.N,COL13*
X308343000Y-94854000D03*
G04 #@! TO.P,U1,24*
G04 #@! TO.N,+5V*
X309143000Y-94854000D03*
G04 #@! TO.P,U1,23*
G04 #@! TO.N,GND*
X309943000Y-94854000D03*
D27*
G04 #@! TO.P,U1,22*
G04 #@! TO.N,COL14*
X311643000Y-93154000D03*
G04 #@! TO.P,U1,21*
G04 #@! TO.N,COL15*
X311643000Y-92354000D03*
G04 #@! TO.P,U1,20*
G04 #@! TO.N,COL16*
X311643000Y-91554000D03*
G04 #@! TO.P,U1,19*
G04 #@! TO.N,ROW5*
X311643000Y-90754000D03*
G04 #@! TO.P,U1,18*
G04 #@! TO.N,ROW4*
X311643000Y-89954000D03*
G04 #@! TO.P,U1,17*
G04 #@! TO.N,Net-(C7-Pad1)*
X311643000Y-89154000D03*
G04 #@! TO.P,U1,16*
G04 #@! TO.N,Net-(C8-Pad1)*
X311643000Y-88354000D03*
G04 #@! TO.P,U1,15*
G04 #@! TO.N,GND*
X311643000Y-87554000D03*
G04 #@! TO.P,U1,14*
G04 #@! TO.N,+5V*
X311643000Y-86754000D03*
G04 #@! TO.P,U1,13*
G04 #@! TO.N,Net-(R70-Pad2)*
X311643000Y-85954000D03*
G04 #@! TO.P,U1,12*
G04 #@! TO.N,ROW3*
X311643000Y-85154000D03*
D28*
G04 #@! TO.P,U1,11*
G04 #@! TO.N,ROW2*
X309943000Y-83454000D03*
G04 #@! TO.P,U1,10*
G04 #@! TO.N,ROW1*
X309143000Y-83454000D03*
G04 #@! TO.P,U1,9*
G04 #@! TO.N,ROW0*
X308343000Y-83454000D03*
G04 #@! TO.P,U1,8*
G04 #@! TO.N,Net-(U1-Pad8)*
X307543000Y-83454000D03*
G04 #@! TO.P,U1,7*
G04 #@! TO.N,+5V*
X306743000Y-83454000D03*
G04 #@! TO.P,U1,6*
G04 #@! TO.N,Net-(C6-Pad1)*
X305943000Y-83454000D03*
G04 #@! TO.P,U1,5*
G04 #@! TO.N,GND*
X305143000Y-83454000D03*
G04 #@! TO.P,U1,4*
G04 #@! TO.N,D+*
X304343000Y-83454000D03*
G04 #@! TO.P,U1,3*
G04 #@! TO.N,D-*
X303543000Y-83454000D03*
G04 #@! TO.P,U1,2*
G04 #@! TO.N,+5V*
X302743000Y-83454000D03*
G04 #@! TO.P,U1,1*
G04 #@! TO.N,Net-(U1-Pad1)*
X301943000Y-83454000D03*
G04 #@! TD*
D16*
G04 #@! TO.P,K_ENTER2,1*
G04 #@! TO.N,Net-(K_ENTER1-Pad4)*
X294005000Y-63625000D03*
X288285000Y-63625000D03*
G04 #@! TO.P,K_ENTER2,2*
G04 #@! TO.N,COL13*
X288285000Y-57025000D03*
G04 #@! TD*
G04 #@! TO.P,K_BACK1,1*
G04 #@! TO.N,Net-(D14-Pad2)*
X285625000Y-36830000D03*
G04 #@! TO.P,K_BACK1,2*
G04 #@! TO.N,COL13*
X292225000Y-31110000D03*
X292225000Y-36830000D03*
G04 #@! TD*
G04 #@! TO.P,K_SBACK2,1*
G04 #@! TO.N,COL13*
X276100000Y-31110000D03*
X276100000Y-36830000D03*
G04 #@! TO.P,K_SBACK2,2*
G04 #@! TO.N,Net-(D68-Pad2)*
X282700000Y-31110000D03*
G04 #@! TD*
D29*
G04 #@! TO.N,GND*
X297688000Y-80391000D03*
X296037000Y-92710000D03*
X311023000Y-99060000D03*
X325247000Y-99060000D03*
G04 #@! TO.N,VCC*
X312293000Y-7588250D03*
X307594000Y-7588250D03*
G04 #@! TO.N,+5V*
X314833000Y-81534000D03*
X307086000Y-81661000D03*
X302768000Y-81661000D03*
X300228000Y-83820000D03*
X297434000Y-95631000D03*
X309499000Y-99060000D03*
G04 #@! TO.N,ROW0*
X329438000Y-54737000D03*
X331851000Y-11811000D03*
X304800000Y-10414000D03*
X316262750Y-10381250D03*
G04 #@! TO.N,ROW1*
X330581000Y-54737000D03*
X331724000Y-35687000D03*
X316230000Y-34163000D03*
X304800000Y-34163000D03*
G04 #@! TO.N,ROW2*
X316230000Y-53213000D03*
X304800000Y-53213000D03*
G04 #@! TO.N,ROW3*
X298323000Y-72263000D03*
X317500000Y-72263000D03*
G04 #@! TO.N,ROW4*
X318135000Y-100457000D03*
X290957000Y-91313000D03*
G04 #@! TO.N,Net-(D68-Pad2)*
X273812000Y-88138000D03*
G04 #@! TO.N,COL1*
X57404000Y-101600000D03*
G04 #@! TO.N,COL12*
X266446000Y-96012000D03*
G04 #@! TO.N,Net-(R73-Pad2)*
X308610000Y-6699250D03*
X303879250Y-2381250D03*
G04 #@! TO.N,Net-(R74-Pad2)*
X311531000Y-6699250D03*
X315976000Y-2413000D03*
G04 #@! TO.N,ROW5*
X352425000Y-101473000D03*
X352425000Y-110363000D03*
G04 #@! TD*
D30*
G04 #@! TO.N,GND*
X314274000Y-4081250D02*
X313359000Y-4996250D01*
X314454000Y-4081250D02*
X314274000Y-4081250D01*
X305994000Y-4081250D02*
X306909000Y-4996250D01*
X305814000Y-4081250D02*
X305994000Y-4081250D01*
X305814000Y-4081250D02*
X305814000Y98750D01*
X305814000Y98750D02*
X314454000Y98750D01*
X314454000Y98750D02*
X314454000Y-4081250D01*
X318313500Y-89973000D02*
X318413500Y-89873000D01*
X318313500Y-92710000D02*
X318313500Y-89973000D01*
X316713500Y-87673000D02*
X316713500Y-87923000D01*
X318413500Y-89623000D02*
X318413500Y-89873000D01*
D31*
X316713500Y-87923000D02*
X318413500Y-89623000D01*
D30*
X319321000Y-89873000D02*
X318413500Y-89873000D01*
X316813500Y-84899500D02*
X316813500Y-84125500D01*
X316813500Y-84125500D02*
X317119000Y-83820000D01*
X317119000Y-83820000D02*
X319151000Y-83820000D01*
X319151000Y-83820000D02*
X319786000Y-84455000D01*
X319786000Y-84455000D02*
X319786000Y-89408000D01*
X319786000Y-89408000D02*
X319321000Y-89873000D01*
X311643000Y-87554000D02*
X313004000Y-87554000D01*
X313004000Y-87554000D02*
X314198000Y-86360000D01*
X314198000Y-86360000D02*
X314198000Y-84328000D01*
X314821000Y-83705000D02*
X314821000Y-82804000D01*
X314198000Y-84328000D02*
X314821000Y-83705000D01*
X315658500Y-84899500D02*
X314198000Y-86360000D01*
X316813500Y-84899500D02*
X315658500Y-84899500D01*
X300243000Y-92354000D02*
X298933000Y-92354000D01*
X298565000Y-92722000D02*
X297434000Y-92722000D01*
X298933000Y-92354000D02*
X298565000Y-92722000D01*
X309943000Y-94854000D02*
X309943000Y-95948000D01*
X311011000Y-97016000D02*
X311011000Y-97663000D01*
X309943000Y-95948000D02*
X311011000Y-97016000D01*
X300243000Y-92354000D02*
X301981000Y-92354000D01*
X305143000Y-80314000D02*
X305193000Y-80264000D01*
X305143000Y-83454000D02*
X305143000Y-80314000D01*
X305193000Y-80264000D02*
X305193000Y-79617000D01*
X305193000Y-79617000D02*
X305562000Y-79248000D01*
X299097000Y-80454500D02*
X297751500Y-80454500D01*
X297751500Y-80454500D02*
X297688000Y-80391000D01*
X297422000Y-92710000D02*
X297434000Y-92722000D01*
X296037000Y-92710000D02*
X297422000Y-92710000D01*
X297373000Y-97282000D02*
X296672000Y-97282000D01*
X296037000Y-96647000D02*
X296037000Y-92710000D01*
X296672000Y-97282000D02*
X296037000Y-96647000D01*
D32*
X313055000Y-71374000D02*
X307975000Y-76454000D01*
X313055000Y-12065000D02*
X313055000Y-71374000D01*
X307975000Y-76454000D02*
X307975000Y-77724000D01*
D33*
X305689000Y-79121000D02*
X305562000Y-79248000D01*
X306578000Y-79121000D02*
X305689000Y-79121000D01*
X306578000Y-79121000D02*
X307467000Y-78232000D01*
D32*
X307467000Y-78232000D02*
X307975000Y-77724000D01*
D30*
X311011000Y-97663000D02*
X311011000Y-99048000D01*
X311011000Y-99048000D02*
X311023000Y-99060000D01*
X329510000Y-94797000D02*
X329510000Y-91873000D01*
X325247000Y-99060000D02*
X329510000Y-94797000D01*
D32*
X313055000Y-14446250D02*
X313055000Y-11779250D01*
X313055000Y-10191750D02*
X313055000Y-8794750D01*
X313055000Y-8794750D02*
X313690000Y-8159750D01*
X313690000Y-8159750D02*
X313690000Y-6762750D01*
D30*
X313359000Y-6431750D02*
X313690000Y-6762750D01*
X313359000Y-4996250D02*
X313359000Y-6431750D01*
X312876500Y-8616250D02*
X313055000Y-8794750D01*
D33*
X311134000Y-8616250D02*
X312876500Y-8616250D01*
D30*
X301981000Y-92354000D02*
X301981000Y-86437000D01*
X305143000Y-84328000D02*
X305143000Y-84493000D01*
X305143000Y-83454000D02*
X305143000Y-84328000D01*
X304673000Y-84963000D02*
X302489000Y-84963000D01*
X305143000Y-84925000D02*
X305181000Y-84963000D01*
X305143000Y-84493000D02*
X305143000Y-84925000D01*
X304673000Y-84963000D02*
X305181000Y-84963000D01*
X301981000Y-85471000D02*
X302489000Y-84963000D01*
X301956000Y-85954000D02*
X301981000Y-85979000D01*
X300243000Y-85954000D02*
X301956000Y-85954000D01*
X301981000Y-86437000D02*
X301981000Y-85979000D01*
X301981000Y-85979000D02*
X301981000Y-85471000D01*
X309943000Y-93853000D02*
X309943000Y-94854000D01*
X309943000Y-93662000D02*
X309943000Y-93853000D01*
X309626000Y-93345000D02*
X309943000Y-93662000D01*
X302972000Y-93345000D02*
X309626000Y-93345000D01*
X301981000Y-92354000D02*
X302972000Y-93345000D01*
X305613000Y-84963000D02*
X305181000Y-84963000D01*
X309626000Y-84963000D02*
X305613000Y-84963000D01*
X310134000Y-85471000D02*
X309626000Y-84963000D01*
X310134000Y-87249000D02*
X310134000Y-85471000D01*
X310439000Y-87554000D02*
X310134000Y-87249000D01*
X311643000Y-87554000D02*
X310439000Y-87554000D01*
X300675000Y-2381250D02*
X300675000Y-3368000D01*
X301388250Y-4081250D02*
X305814000Y-4081250D01*
X300675000Y-3368000D02*
X301388250Y-4081250D01*
X319243750Y-2381250D02*
X319243750Y-3336250D01*
X318498750Y-4081250D02*
X314454000Y-4081250D01*
X319243750Y-3336250D02*
X318498750Y-4081250D01*
D32*
X313055000Y-11779250D02*
X313055000Y-10191750D01*
D30*
G04 #@! TO.N,+5V*
X313321000Y-82804000D02*
X313321000Y-84086000D01*
X313321000Y-84086000D02*
X313563000Y-84328000D01*
X313563000Y-84328000D02*
X313563000Y-85979000D01*
X312788000Y-86754000D02*
X311643000Y-86754000D01*
X313563000Y-85979000D02*
X312788000Y-86754000D01*
X315148000Y-79883000D02*
X315148000Y-80457000D01*
X313321000Y-82284000D02*
X313321000Y-82804000D01*
D34*
G04 #@! TO.N,Net-(C7-Pad1)*
X316813500Y-89973000D02*
X316713500Y-89873000D01*
X316813500Y-92710000D02*
X316813500Y-89973000D01*
G04 #@! TO.N,Net-(C8-Pad1)*
X318413500Y-87146500D02*
X318413500Y-87673000D01*
X317627000Y-86360000D02*
X318413500Y-87146500D01*
X315722000Y-86360000D02*
X317627000Y-86360000D01*
X311643000Y-88354000D02*
X313728000Y-88354000D01*
X313728000Y-88354000D02*
X315722000Y-86360000D01*
X318313500Y-87573000D02*
X318413500Y-87673000D01*
X318313500Y-84899500D02*
X318313500Y-87573000D01*
D30*
G04 #@! TO.N,VCC*
X307684000Y-4996250D02*
X307684000Y-7050760D01*
X309049490Y-8416250D02*
X309134000Y-8416250D01*
X312584000Y-7297250D02*
X312293000Y-7588250D01*
X312584000Y-4996250D02*
X312584000Y-7297250D01*
X307982510Y-7588250D02*
X308102000Y-7468760D01*
X307594000Y-7588250D02*
X307982510Y-7588250D01*
X307684000Y-7050760D02*
X308102000Y-7468760D01*
X308221490Y-7588250D02*
X308229000Y-7595760D01*
X307594000Y-7588250D02*
X308221490Y-7588250D01*
X308102000Y-7468760D02*
X308229000Y-7595760D01*
X308229000Y-7595760D02*
X309049490Y-8416250D01*
G04 #@! TO.N,+5V*
X314071000Y-81534000D02*
X314833000Y-81534000D01*
X314071000Y-81534000D02*
X313321000Y-82284000D01*
X315148000Y-80457000D02*
X314071000Y-81534000D01*
X300597000Y-80454500D02*
X300597000Y-79248000D01*
X306743000Y-83454000D02*
X306743000Y-82004000D01*
X306743000Y-82004000D02*
X307086000Y-81661000D01*
X302743000Y-81686000D02*
X302768000Y-81661000D01*
X302743000Y-83454000D02*
X302743000Y-81686000D01*
X300597000Y-80454500D02*
X301561500Y-80454500D01*
X300243000Y-83835000D02*
X300243000Y-85154000D01*
X300228000Y-83820000D02*
X300243000Y-83835000D01*
X297434000Y-94222000D02*
X298081000Y-94222000D01*
X299149000Y-93154000D02*
X300243000Y-93154000D01*
X298081000Y-94222000D02*
X299149000Y-93154000D01*
X297434000Y-94222000D02*
X297434000Y-95631000D01*
X309511000Y-96774000D02*
X309511000Y-97663000D01*
X309143000Y-96406000D02*
X309511000Y-96774000D01*
X309143000Y-94854000D02*
X309143000Y-96406000D01*
X309511000Y-97663000D02*
X309511000Y-99048000D01*
X309511000Y-99048000D02*
X309499000Y-99060000D01*
D33*
X302768000Y-81661000D02*
X301752000Y-80645000D01*
D30*
X301561500Y-80454500D02*
X301752000Y-80645000D01*
D32*
X300597000Y-74942000D02*
X307213000Y-68326000D01*
X300597000Y-79248000D02*
X300597000Y-74942000D01*
X307213000Y-68326000D02*
X307213000Y-19050000D01*
D30*
X307213000Y-14979500D02*
X307213000Y-16383000D01*
D32*
X307213000Y-16383000D02*
X307213000Y-19050000D01*
D34*
G04 #@! TO.N,Net-(C6-Pad1)*
X305943000Y-83454000D02*
X305943000Y-81661000D01*
X306693000Y-80911000D02*
X306693000Y-80264000D01*
X305943000Y-81661000D02*
X306693000Y-80911000D01*
G04 #@! TO.N,Net-(C7-Pad1)*
X313690000Y-89154000D02*
X311643000Y-89154000D01*
X314409000Y-89873000D02*
X313690000Y-89154000D01*
X316713500Y-89873000D02*
X314409000Y-89873000D01*
G04 #@! TO.N,ROW0*
X331787500Y-10381250D02*
X350837500Y-10381250D01*
X360362500Y-21493750D02*
X359440750Y-21493750D01*
X350837500Y-12890500D02*
X350837500Y-10381250D01*
X359440750Y-21493750D02*
X350837500Y-12890500D01*
X331787500Y-11747500D02*
X331787500Y-10381250D01*
X331851000Y-11811000D02*
X331787500Y-11747500D01*
X331787500Y-10381250D02*
X316262750Y-10381250D01*
X288957750Y-10414000D02*
X288925000Y-10381250D01*
X304800000Y-10414000D02*
X288957750Y-10414000D01*
X329438000Y-55626000D02*
X329438000Y-54737000D01*
X326898000Y-58166000D02*
X329438000Y-55626000D01*
X308343000Y-82436000D02*
X310769000Y-80010000D01*
X321564000Y-58166000D02*
X326898000Y-58166000D01*
X308343000Y-83454000D02*
X308343000Y-82436000D01*
X310769000Y-80010000D02*
X310769000Y-78105000D01*
X310769000Y-78105000D02*
X315722000Y-73152000D01*
X315722000Y-73152000D02*
X315722000Y-64008000D01*
X315722000Y-64008000D02*
X321564000Y-58166000D01*
X66278125Y-10381250D02*
X66072750Y-10381250D01*
X66278125Y-10381250D02*
X288925000Y-10381250D01*
X41275000Y-10381250D02*
X66278125Y-10381250D01*
G04 #@! TO.N,Net-(D1-Pad2)*
X35266250Y-30893750D02*
X35050000Y-31110000D01*
X41275000Y-30893750D02*
X35266250Y-30893750D01*
G04 #@! TO.N,Net-(D2-Pad2)*
X54316250Y-30893750D02*
X54100000Y-31110000D01*
X60325000Y-30893750D02*
X54316250Y-30893750D01*
G04 #@! TO.N,Net-(D3-Pad2)*
X73366250Y-30893750D02*
X73150000Y-31110000D01*
X79375000Y-30893750D02*
X73366250Y-30893750D01*
G04 #@! TO.N,Net-(D4-Pad2)*
X92416250Y-30893750D02*
X92200000Y-31110000D01*
X98425000Y-30893750D02*
X92416250Y-30893750D01*
G04 #@! TO.N,Net-(D5-Pad2)*
X111466250Y-30893750D02*
X111250000Y-31110000D01*
X117475000Y-30893750D02*
X111466250Y-30893750D01*
G04 #@! TO.N,Net-(D6-Pad2)*
X130516250Y-30893750D02*
X130300000Y-31110000D01*
X136525000Y-30893750D02*
X130516250Y-30893750D01*
G04 #@! TO.N,Net-(D7-Pad2)*
X149566250Y-30893750D02*
X149350000Y-31110000D01*
X155575000Y-30893750D02*
X149566250Y-30893750D01*
G04 #@! TO.N,Net-(D8-Pad2)*
X168616250Y-30893750D02*
X168400000Y-31110000D01*
X174625000Y-30893750D02*
X168616250Y-30893750D01*
G04 #@! TO.N,Net-(D9-Pad2)*
X187666250Y-30893750D02*
X187450000Y-31110000D01*
X193675000Y-30893750D02*
X187666250Y-30893750D01*
G04 #@! TO.N,Net-(D10-Pad2)*
X206716250Y-30893750D02*
X206500000Y-31110000D01*
X212725000Y-30893750D02*
X206716250Y-30893750D01*
G04 #@! TO.N,Net-(D11-Pad2)*
X225766250Y-30893750D02*
X225550000Y-31110000D01*
X231775000Y-30893750D02*
X225766250Y-30893750D01*
G04 #@! TO.N,Net-(D12-Pad2)*
X244816250Y-30893750D02*
X244600000Y-31110000D01*
X250825000Y-30893750D02*
X244816250Y-30893750D01*
G04 #@! TO.N,Net-(D13-Pad2)*
X263866250Y-30893750D02*
X263650000Y-31110000D01*
X268287500Y-30893750D02*
X263866250Y-30893750D01*
G04 #@! TO.N,Net-(D14-Pad2)*
X301750000Y-36830000D02*
X301750000Y-36828000D01*
X301750000Y-36828000D02*
X299593000Y-34671000D01*
X287784000Y-34671000D02*
X285625000Y-36830000D01*
X299593000Y-34671000D02*
X287784000Y-34671000D01*
X285625000Y-36830000D02*
X285623000Y-36830000D01*
X301750000Y-31110000D02*
X301747000Y-31110000D01*
X301747000Y-31110000D02*
X299466000Y-28829000D01*
X273527250Y-28829000D02*
X271462500Y-30893750D01*
X299466000Y-28829000D02*
X273527250Y-28829000D01*
G04 #@! TO.N,ROW1*
X349631000Y-34193750D02*
X350837500Y-34193750D01*
X331787500Y-34193750D02*
X349631000Y-34193750D01*
X350837500Y-43718750D02*
X349915750Y-43718750D01*
X349915750Y-43718750D02*
X349504000Y-43307000D01*
X349504000Y-35527250D02*
X350837500Y-34193750D01*
X349504000Y-43307000D02*
X349504000Y-35527250D01*
X331787500Y-35623500D02*
X331787500Y-34193750D01*
X331724000Y-35687000D02*
X331787500Y-35623500D01*
X331787500Y-34193750D02*
X316260750Y-34193750D01*
X316260750Y-34193750D02*
X316230000Y-34163000D01*
X271493250Y-34163000D02*
X271462500Y-34193750D01*
X304800000Y-34163000D02*
X271493250Y-34163000D01*
X58958750Y-34193750D02*
X271462500Y-34193750D01*
X58420000Y-33655000D02*
X58958750Y-34193750D01*
X52705000Y-33655000D02*
X58420000Y-33655000D01*
X52166250Y-34193750D02*
X52705000Y-33655000D01*
X41275000Y-34193750D02*
X52166250Y-34193750D01*
X330581000Y-55245000D02*
X330581000Y-54737000D01*
X327152000Y-58674000D02*
X330581000Y-55245000D01*
X321818000Y-58674000D02*
X327152000Y-58674000D01*
X311277000Y-80264000D02*
X311277000Y-78359000D01*
X309143000Y-83454000D02*
X309143000Y-82398000D01*
X311277000Y-78359000D02*
X316230000Y-73406000D01*
X316230000Y-73406000D02*
X316230000Y-64262000D01*
X309143000Y-82398000D02*
X311277000Y-80264000D01*
X316230000Y-64262000D02*
X321818000Y-58674000D01*
G04 #@! TO.N,Net-(D16-Pad2)*
X40028750Y-49943750D02*
X39812500Y-50160000D01*
X46037500Y-49943750D02*
X40028750Y-49943750D01*
G04 #@! TO.N,Net-(D17-Pad2)*
X63841250Y-49943750D02*
X63625000Y-50160000D01*
X69850000Y-49943750D02*
X63841250Y-49943750D01*
G04 #@! TO.N,Net-(D18-Pad2)*
X82891250Y-49943750D02*
X82675000Y-50160000D01*
X88900000Y-49943750D02*
X82891250Y-49943750D01*
G04 #@! TO.N,Net-(D19-Pad2)*
X101941250Y-49943750D02*
X101725000Y-50160000D01*
X107950000Y-49943750D02*
X101941250Y-49943750D01*
G04 #@! TO.N,Net-(D20-Pad2)*
X120991250Y-49943750D02*
X120775000Y-50160000D01*
X127000000Y-49943750D02*
X120991250Y-49943750D01*
G04 #@! TO.N,Net-(D21-Pad2)*
X140041250Y-49943750D02*
X139825000Y-50160000D01*
X146050000Y-49943750D02*
X140041250Y-49943750D01*
G04 #@! TO.N,Net-(D22-Pad2)*
X159091250Y-49943750D02*
X158875000Y-50160000D01*
X165100000Y-49943750D02*
X159091250Y-49943750D01*
G04 #@! TO.N,Net-(D23-Pad2)*
X178141250Y-49943750D02*
X177925000Y-50160000D01*
X184150000Y-49943750D02*
X178141250Y-49943750D01*
G04 #@! TO.N,Net-(D24-Pad2)*
X197191250Y-49943750D02*
X196975000Y-50160000D01*
X203200000Y-49943750D02*
X197191250Y-49943750D01*
G04 #@! TO.N,Net-(D25-Pad2)*
X216241250Y-49943750D02*
X216025000Y-50160000D01*
X222250000Y-49943750D02*
X216241250Y-49943750D01*
G04 #@! TO.N,Net-(D26-Pad2)*
X235291250Y-49943750D02*
X235075000Y-50160000D01*
X241300000Y-49943750D02*
X235291250Y-49943750D01*
G04 #@! TO.N,Net-(D27-Pad2)*
X254341250Y-49943750D02*
X254125000Y-50160000D01*
X260350000Y-49943750D02*
X254341250Y-49943750D01*
G04 #@! TO.N,Net-(D28-Pad2)*
X273391250Y-49943750D02*
X273175000Y-50160000D01*
X279400000Y-49943750D02*
X273391250Y-49943750D01*
G04 #@! TO.N,Net-(D29-Pad2)*
X282575000Y-49943750D02*
X283496750Y-49943750D01*
X283496750Y-49943750D02*
X286258000Y-52705000D01*
X294442500Y-52705000D02*
X296987500Y-50160000D01*
X286258000Y-52705000D02*
X294442500Y-52705000D01*
G04 #@! TO.N,Net-(D31-Pad2)*
X42410000Y-68993750D02*
X42193750Y-69210000D01*
X48418750Y-68993750D02*
X42410000Y-68993750D01*
G04 #@! TO.N,ROW2*
X282575000Y-53243750D02*
X46037500Y-53243750D01*
X350837500Y-53243750D02*
X350870250Y-53243750D01*
X358807750Y-45306250D02*
X360362500Y-45306250D01*
X350870250Y-53243750D02*
X358807750Y-45306250D01*
X350837500Y-53243750D02*
X331787500Y-53243750D01*
X331787500Y-53243750D02*
X332709250Y-53243750D01*
X331787500Y-53243750D02*
X316260750Y-53243750D01*
X316260750Y-53243750D02*
X316230000Y-53213000D01*
X282605750Y-53213000D02*
X282575000Y-53243750D01*
X304800000Y-53213000D02*
X282605750Y-53213000D01*
X331787500Y-54229000D02*
X331787500Y-53243750D01*
X331787500Y-54800500D02*
X331787500Y-54229000D01*
X322072000Y-59182000D02*
X327406000Y-59182000D01*
X309943000Y-82360000D02*
X311785000Y-80518000D01*
X309943000Y-83454000D02*
X309943000Y-82360000D01*
X311785000Y-80518000D02*
X311785000Y-78613000D01*
X327406000Y-59182000D02*
X331787500Y-54800500D01*
X311785000Y-78613000D02*
X316738000Y-73660000D01*
X316738000Y-73660000D02*
X316738000Y-64516000D01*
X316738000Y-64516000D02*
X322072000Y-59182000D01*
G04 #@! TO.N,Net-(D32-Pad2)*
X68603750Y-68993750D02*
X68387500Y-69210000D01*
X74612500Y-68993750D02*
X68603750Y-68993750D01*
G04 #@! TO.N,Net-(D33-Pad2)*
X87653750Y-68993750D02*
X87437500Y-69210000D01*
X93662500Y-68993750D02*
X87653750Y-68993750D01*
G04 #@! TO.N,Net-(D34-Pad2)*
X106703750Y-68993750D02*
X106487500Y-69210000D01*
X112712500Y-68993750D02*
X106703750Y-68993750D01*
G04 #@! TO.N,Net-(D35-Pad2)*
X125753750Y-68993750D02*
X125537500Y-69210000D01*
X131762500Y-68993750D02*
X125753750Y-68993750D01*
G04 #@! TO.N,Net-(D36-Pad2)*
X144803750Y-68993750D02*
X144587500Y-69210000D01*
X150812500Y-68993750D02*
X144803750Y-68993750D01*
G04 #@! TO.N,Net-(D37-Pad2)*
X163853750Y-68993750D02*
X163637500Y-69210000D01*
X169862500Y-68993750D02*
X163853750Y-68993750D01*
G04 #@! TO.N,Net-(D38-Pad2)*
X182903750Y-68993750D02*
X182687500Y-69210000D01*
X188912500Y-68993750D02*
X182903750Y-68993750D01*
G04 #@! TO.N,Net-(D39-Pad2)*
X201953750Y-68993750D02*
X201737500Y-69210000D01*
X207962500Y-68993750D02*
X201953750Y-68993750D01*
G04 #@! TO.N,Net-(D40-Pad2)*
X221003750Y-68993750D02*
X220787500Y-69210000D01*
X227012500Y-68993750D02*
X221003750Y-68993750D01*
G04 #@! TO.N,Net-(D41-Pad2)*
X240053750Y-68993750D02*
X239837500Y-69210000D01*
X246062500Y-68993750D02*
X240053750Y-68993750D01*
G04 #@! TO.N,Net-(D42-Pad2)*
X259103750Y-68993750D02*
X258887500Y-69210000D01*
X265112500Y-68993750D02*
X259103750Y-68993750D01*
G04 #@! TO.N,Net-(D43-Pad2)*
X277018750Y-68993750D02*
X277908750Y-68993750D01*
X277908750Y-68993750D02*
X280670000Y-71755000D01*
X287298750Y-71755000D02*
X289843750Y-69210000D01*
X280670000Y-71755000D02*
X287298750Y-71755000D01*
G04 #@! TO.N,ROW3*
X277018750Y-72293750D02*
X265112500Y-72293750D01*
X277018750Y-72293750D02*
X298292250Y-72293750D01*
X298292250Y-72293750D02*
X298323000Y-72263000D01*
X311643000Y-84582000D02*
X311643000Y-85154000D01*
X312293000Y-78867000D02*
X312293000Y-80772000D01*
X312293000Y-80772000D02*
X311785000Y-81280000D01*
X311785000Y-81280000D02*
X311785000Y-84440000D01*
X311785000Y-84440000D02*
X311643000Y-84582000D01*
X60167250Y-72293750D02*
X48418750Y-72293750D01*
X265112500Y-72293750D02*
X60167250Y-72293750D01*
X317246000Y-73914000D02*
X312293000Y-78867000D01*
X317246000Y-73914000D02*
X317246000Y-72517000D01*
X317246000Y-72517000D02*
X317500000Y-72263000D01*
G04 #@! TO.N,Net-(D45-Pad2)*
X47172500Y-88043750D02*
X46956250Y-88260000D01*
X53181250Y-88043750D02*
X47172500Y-88043750D01*
G04 #@! TO.N,Net-(D46-Pad2)*
X78128750Y-88043750D02*
X77912500Y-88260000D01*
X84137500Y-88043750D02*
X78128750Y-88043750D01*
G04 #@! TO.N,Net-(D47-Pad2)*
X97178750Y-88043750D02*
X96962500Y-88260000D01*
X103187500Y-88043750D02*
X97178750Y-88043750D01*
G04 #@! TO.N,Net-(D48-Pad2)*
X116228750Y-88043750D02*
X116012500Y-88260000D01*
X122237500Y-88043750D02*
X116228750Y-88043750D01*
G04 #@! TO.N,Net-(D49-Pad2)*
X135278750Y-88043750D02*
X135062500Y-88260000D01*
X141287500Y-88043750D02*
X135278750Y-88043750D01*
G04 #@! TO.N,Net-(D50-Pad2)*
X154328750Y-88043750D02*
X154112500Y-88260000D01*
X160337500Y-88043750D02*
X154328750Y-88043750D01*
G04 #@! TO.N,Net-(D51-Pad2)*
X173378750Y-88043750D02*
X173162500Y-88260000D01*
X179387500Y-88043750D02*
X173378750Y-88043750D01*
G04 #@! TO.N,Net-(D52-Pad2)*
X192428750Y-88043750D02*
X192212500Y-88260000D01*
X198437500Y-88043750D02*
X192428750Y-88043750D01*
G04 #@! TO.N,Net-(D53-Pad2)*
X211478750Y-88043750D02*
X211262500Y-88260000D01*
X217487500Y-88043750D02*
X211478750Y-88043750D01*
G04 #@! TO.N,Net-(D54-Pad2)*
X230528750Y-88043750D02*
X230312500Y-88260000D01*
X236537500Y-88043750D02*
X230528750Y-88043750D01*
G04 #@! TO.N,Net-(D55-Pad2)*
X249578750Y-88043750D02*
X249362500Y-88260000D01*
X255587500Y-88043750D02*
X249578750Y-88043750D01*
G04 #@! TO.N,Net-(D56-Pad2)*
X282800250Y-85979000D02*
X285081250Y-88260000D01*
X271272000Y-85979000D02*
X282800250Y-85979000D01*
X269207250Y-88043750D02*
X271272000Y-85979000D01*
X268287500Y-88043750D02*
X269207250Y-88043750D01*
G04 #@! TO.N,Net-(D59-Pad2)*
X44575000Y-107310000D02*
X44575000Y-107317000D01*
X44575000Y-107317000D02*
X42037000Y-109855000D01*
X35757500Y-109855000D02*
X33212500Y-107310000D01*
X42037000Y-109855000D02*
X35757500Y-109855000D01*
X32996250Y-107093750D02*
X33212500Y-107310000D01*
X26987500Y-107093750D02*
X32996250Y-107093750D01*
G04 #@! TO.N,ROW4*
X53181250Y-91343750D02*
X272256250Y-91343750D01*
X341216250Y-100965000D02*
X350837500Y-91343750D01*
X317881000Y-100965000D02*
X341216250Y-100965000D01*
X314452000Y-97536000D02*
X317881000Y-100965000D01*
X314452000Y-91821000D02*
X314452000Y-97536000D01*
X311643000Y-89954000D02*
X312585000Y-89954000D01*
X312585000Y-89954000D02*
X314452000Y-91821000D01*
X318135000Y-100711000D02*
X317881000Y-100965000D01*
X318135000Y-100457000D02*
X318135000Y-100711000D01*
X290926250Y-91343750D02*
X290957000Y-91313000D01*
X272256250Y-91343750D02*
X290926250Y-91343750D01*
G04 #@! TO.N,Net-(D61-Pad2)*
X168616250Y-107093750D02*
X168400000Y-107310000D01*
X174625000Y-107093750D02*
X168616250Y-107093750D01*
G04 #@! TO.N,Net-(D64-Pad2)*
X258887500Y-107310000D02*
X258831000Y-107310000D01*
X258831000Y-107310000D02*
X256286000Y-109855000D01*
X245307500Y-109855000D02*
X242762500Y-107310000D01*
X256286000Y-109855000D02*
X245307500Y-109855000D01*
X242546250Y-107093750D02*
X242762500Y-107310000D01*
X236537500Y-107093750D02*
X242546250Y-107093750D01*
G04 #@! TO.N,Net-(D65-Pad2)*
X292225000Y-107310000D02*
X290387500Y-107310000D01*
X292225000Y-113030000D02*
X290387500Y-113030000D01*
X303212500Y-107093750D02*
X302354250Y-107093750D01*
X302354250Y-107093750D02*
X299593000Y-109855000D01*
X294770000Y-109855000D02*
X292225000Y-107310000D01*
X299593000Y-109855000D02*
X294770000Y-109855000D01*
G04 #@! TO.N,Net-(D67-Pad2)*
X80837500Y-107310000D02*
X77912500Y-107310000D01*
X77912500Y-113030000D02*
X80837500Y-113030000D01*
X80837500Y-107310000D02*
X80894000Y-107310000D01*
X80894000Y-107310000D02*
X83439000Y-109855000D01*
X92804250Y-107093750D02*
X90043000Y-109855000D01*
X93662500Y-107093750D02*
X92804250Y-107093750D01*
X83439000Y-109855000D02*
X90043000Y-109855000D01*
G04 #@! TO.N,Net-(D68-Pad2)*
X273717750Y-88043750D02*
X273812000Y-88138000D01*
X272256250Y-88043750D02*
X273717750Y-88043750D01*
D30*
G04 #@! TO.N,VCC*
X308374500Y-9175750D02*
X309134000Y-8416250D01*
D33*
X307612500Y-9937750D02*
X308374500Y-9175750D01*
D32*
X307213000Y-10337250D02*
X307612500Y-9937750D01*
D30*
X307213000Y-12579500D02*
X307213000Y-11176000D01*
D32*
X307213000Y-11176000D02*
X307213000Y-10337250D01*
D34*
G04 #@! TO.N,COL10*
X227014500Y-97282000D02*
X223712500Y-93980000D01*
X287909000Y-97282000D02*
X227014500Y-97282000D01*
X233237500Y-74930000D02*
X233237500Y-74995500D01*
X233237500Y-74995500D02*
X235458000Y-77216000D01*
X235458000Y-77216000D02*
X265303000Y-77216000D01*
X265303000Y-77216000D02*
X266446000Y-78359000D01*
X266446000Y-78359000D02*
X266446000Y-80391000D01*
X266446000Y-80391000D02*
X265303000Y-81534000D01*
X230438500Y-81534000D02*
X223712500Y-88260000D01*
X265303000Y-81534000D02*
X230438500Y-81534000D01*
X218950000Y-36830000D02*
X218950000Y-36832000D01*
X218950000Y-36832000D02*
X221742000Y-39624000D01*
X221742000Y-39624000D02*
X279527000Y-39624000D01*
X279527000Y-39624000D02*
X280289000Y-40386000D01*
X280289000Y-40386000D02*
X280289000Y-42164000D01*
X280289000Y-42164000D02*
X279527000Y-42926000D01*
X235709000Y-42926000D02*
X228475000Y-50160000D01*
X279527000Y-42926000D02*
X235709000Y-42926000D01*
X298323000Y-90043000D02*
X299212000Y-89154000D01*
X295148000Y-90043000D02*
X298323000Y-90043000D01*
X300243000Y-89154000D02*
X299212000Y-89154000D01*
X295148000Y-90043000D02*
X287909000Y-97282000D01*
G04 #@! TO.N,COL9*
X208472500Y-97790000D02*
X204662500Y-93980000D01*
X288163000Y-97790000D02*
X208472500Y-97790000D01*
X214187500Y-74930000D02*
X214249000Y-74930000D01*
X214249000Y-74930000D02*
X217043000Y-77724000D01*
X217043000Y-77724000D02*
X265049000Y-77724000D01*
X265049000Y-77724000D02*
X265938000Y-78613000D01*
X265938000Y-78613000D02*
X265938000Y-80137000D01*
X265938000Y-80137000D02*
X265049000Y-81026000D01*
X211896500Y-81026000D02*
X204662500Y-88260000D01*
X265049000Y-81026000D02*
X211896500Y-81026000D01*
X298615000Y-90551000D02*
X299212000Y-89954000D01*
X295402000Y-90551000D02*
X298615000Y-90551000D01*
X300243000Y-89954000D02*
X299212000Y-89954000D01*
X295402000Y-90551000D02*
X288163000Y-97790000D01*
G04 #@! TO.N,COL1*
X306743000Y-94854000D02*
X306743000Y-95847000D01*
X306743000Y-95847000D02*
X300736000Y-101854000D01*
X300736000Y-101854000D02*
X62103000Y-101854000D01*
G04 #@! TO.N,COL2*
X305943000Y-94854000D02*
X305943000Y-95885000D01*
X305943000Y-95885000D02*
X300482000Y-101346000D01*
X78678500Y-101346000D02*
X71312500Y-93980000D01*
X300482000Y-101346000D02*
X78678500Y-101346000D01*
G04 #@! TO.N,COL4*
X304343000Y-95961000D02*
X304343000Y-94854000D01*
X299974000Y-100330000D02*
X304343000Y-95961000D01*
X109412500Y-93980000D02*
X115762500Y-100330000D01*
X115762500Y-100330000D02*
X299974000Y-100330000D01*
G04 #@! TO.N,COL5*
X303543000Y-95999000D02*
X303543000Y-94854000D01*
X299720000Y-99822000D02*
X303543000Y-95999000D01*
X128462500Y-93980000D02*
X134304500Y-99822000D01*
X134304500Y-99822000D02*
X299720000Y-99822000D01*
G04 #@! TO.N,COL6*
X302743000Y-96037000D02*
X302743000Y-94854000D01*
X299466000Y-99314000D02*
X302743000Y-96037000D01*
X147512500Y-93980000D02*
X152846500Y-99314000D01*
X152846500Y-99314000D02*
X299466000Y-99314000D01*
G04 #@! TO.N,COL7*
X295923000Y-91554000D02*
X300243000Y-91554000D01*
X288671000Y-98806000D02*
X295923000Y-91554000D01*
X171388500Y-98806000D02*
X288671000Y-98806000D01*
X166562500Y-93980000D02*
X171388500Y-98806000D01*
G04 #@! TO.N,COL8*
X189930500Y-98298000D02*
X185612500Y-93980000D01*
X288417000Y-98298000D02*
X189930500Y-98298000D01*
G04 #@! TO.N,COL11*
X245556500Y-96774000D02*
X242762500Y-93980000D01*
X287655000Y-96774000D02*
X245556500Y-96774000D01*
G04 #@! TO.N,COL1*
X57658000Y-101854000D02*
X57404000Y-101600000D01*
X58674000Y-101854000D02*
X57658000Y-101854000D01*
X62103000Y-101854000D02*
X58674000Y-101854000D01*
G04 #@! TO.N,COL2*
X79059500Y-76708000D02*
X80837500Y-74930000D01*
X69342000Y-72771000D02*
X73279000Y-76708000D01*
X60833000Y-72771000D02*
X69342000Y-72771000D01*
X56896000Y-76708000D02*
X60833000Y-72771000D01*
X65221500Y-82169000D02*
X55118000Y-82169000D01*
X73279000Y-76708000D02*
X79059500Y-76708000D01*
X71312500Y-88260000D02*
X65221500Y-82169000D01*
X55118000Y-82169000D02*
X53594000Y-80645000D01*
X53594000Y-80645000D02*
X53594000Y-78105000D01*
X53594000Y-78105000D02*
X54991000Y-76708000D01*
X54991000Y-76708000D02*
X56896000Y-76708000D01*
X66550000Y-36830000D02*
X66548000Y-36830000D01*
X66548000Y-36830000D02*
X64897000Y-35179000D01*
X64897000Y-35179000D02*
X62230000Y-35179000D01*
X62230000Y-35179000D02*
X61595000Y-35814000D01*
X61595000Y-35814000D02*
X59055000Y-35814000D01*
X59055000Y-35814000D02*
X57912000Y-34671000D01*
X57912000Y-34671000D02*
X53213000Y-34671000D01*
X48895000Y-42545000D02*
X50292000Y-43942000D01*
X51816000Y-37084000D02*
X48895000Y-40005000D01*
X51816000Y-36068000D02*
X51816000Y-37084000D01*
X48895000Y-40005000D02*
X48895000Y-42545000D01*
X53213000Y-34671000D02*
X51816000Y-36068000D01*
X73655000Y-50160000D02*
X67437000Y-43942000D01*
X76075000Y-50160000D02*
X73655000Y-50160000D01*
X50292000Y-43942000D02*
X67437000Y-43942000D01*
G04 #@! TO.N,COL4*
X118937500Y-74930000D02*
X118937500Y-74991500D01*
X118937500Y-74991500D02*
X116205000Y-77724000D01*
X116205000Y-77724000D02*
X55499000Y-77724000D01*
X55499000Y-77724000D02*
X54610000Y-78613000D01*
X54610000Y-78613000D02*
X54610000Y-80137000D01*
X54610000Y-80137000D02*
X55499000Y-81026000D01*
X102178500Y-81026000D02*
X109412500Y-88260000D01*
X55499000Y-81026000D02*
X102178500Y-81026000D01*
X104650000Y-36830000D02*
X104648000Y-36830000D01*
X104648000Y-36830000D02*
X102362000Y-39116000D01*
X102362000Y-39116000D02*
X50546000Y-39116000D01*
X50546000Y-39116000D02*
X49403000Y-40259000D01*
X49403000Y-40259000D02*
X49403000Y-42291000D01*
X49403000Y-42291000D02*
X50546000Y-43434000D01*
X107449000Y-43434000D02*
X114175000Y-50160000D01*
X50546000Y-43434000D02*
X107449000Y-43434000D01*
G04 #@! TO.N,COL5*
X125991000Y-42926000D02*
X133225000Y-50160000D01*
X123700000Y-36830000D02*
X123698000Y-36830000D01*
X50800000Y-42926000D02*
X125991000Y-42926000D01*
X123698000Y-36830000D02*
X120904000Y-39624000D01*
X120904000Y-39624000D02*
X50800000Y-39624000D01*
X50800000Y-39624000D02*
X49911000Y-40513000D01*
X49911000Y-40513000D02*
X49911000Y-42037000D01*
X49911000Y-42037000D02*
X50800000Y-42926000D01*
G04 #@! TO.N,COL8*
X298907000Y-91059000D02*
X299212000Y-90754000D01*
X295656000Y-91059000D02*
X298907000Y-91059000D01*
X300243000Y-90754000D02*
X299212000Y-90754000D01*
X295656000Y-91059000D02*
X288417000Y-98298000D01*
G04 #@! TO.N,COL11*
X252287500Y-107310000D02*
X249362500Y-107310000D01*
X249362500Y-113030000D02*
X252287500Y-113030000D01*
X252287500Y-74930000D02*
X252349000Y-74930000D01*
X252349000Y-74930000D02*
X254508000Y-72771000D01*
X254508000Y-72771000D02*
X259842000Y-72771000D01*
X259842000Y-72771000D02*
X263779000Y-76708000D01*
X263779000Y-76708000D02*
X265557000Y-76708000D01*
X265557000Y-76708000D02*
X266954000Y-78105000D01*
X266954000Y-78105000D02*
X266954000Y-80645000D01*
X266954000Y-80645000D02*
X265557000Y-82042000D01*
X248980500Y-82042000D02*
X242762500Y-88260000D01*
X265557000Y-82042000D02*
X248980500Y-82042000D01*
X238000000Y-36832000D02*
X238000000Y-36830000D01*
X240284000Y-39116000D02*
X238000000Y-36832000D01*
X247525000Y-50160000D02*
X254251000Y-43434000D01*
X254251000Y-43434000D02*
X279781000Y-43434000D01*
X279781000Y-43434000D02*
X280797000Y-42418000D01*
X280797000Y-42418000D02*
X280797000Y-40132000D01*
X280797000Y-40132000D02*
X279781000Y-39116000D01*
X279781000Y-39116000D02*
X240284000Y-39116000D01*
X298031000Y-89535000D02*
X299212000Y-88354000D01*
X294894000Y-89535000D02*
X298031000Y-89535000D01*
X300243000Y-88354000D02*
X299212000Y-88354000D01*
X294894000Y-89535000D02*
X287655000Y-96774000D01*
G04 #@! TO.N,COL12*
X272793000Y-43942000D02*
X266575000Y-50160000D01*
X280035000Y-43942000D02*
X272793000Y-43942000D01*
X281305000Y-39878000D02*
X281305000Y-42672000D01*
X281305000Y-42672000D02*
X280035000Y-43942000D01*
X278384000Y-36957000D02*
X281305000Y-39878000D01*
X278384000Y-35941000D02*
X278384000Y-36957000D01*
X277114000Y-34671000D02*
X278384000Y-35941000D01*
X273177000Y-34671000D02*
X277114000Y-34671000D01*
X257050000Y-36828000D02*
X259207000Y-34671000D01*
X257050000Y-36830000D02*
X257050000Y-36828000D01*
X259207000Y-34671000D02*
X266573000Y-34671000D01*
X266573000Y-34671000D02*
X267208000Y-35306000D01*
X267208000Y-35306000D02*
X272542000Y-35306000D01*
X272542000Y-35306000D02*
X273177000Y-34671000D01*
X299263000Y-87554000D02*
X300243000Y-87554000D01*
X297790000Y-89027000D02*
X299263000Y-87554000D01*
X294640000Y-89027000D02*
X297790000Y-89027000D01*
X287401000Y-96266000D02*
X294640000Y-89027000D01*
X266700000Y-96266000D02*
X287401000Y-96266000D01*
X266446000Y-96012000D02*
X266700000Y-96266000D01*
G04 #@! TO.N,COL13*
X292225000Y-36830000D02*
X292225000Y-36828000D01*
X292225000Y-31110000D02*
X292225000Y-31117000D01*
X292225000Y-31117000D02*
X289687000Y-33655000D01*
X278645000Y-33655000D02*
X276100000Y-31110000D01*
X289687000Y-33655000D02*
X278645000Y-33655000D01*
X308343000Y-94854000D02*
X308343000Y-95771000D01*
X296987500Y-107126500D02*
X296987500Y-107310000D01*
X308343000Y-95771000D02*
X296987500Y-107126500D01*
X285625000Y-113030000D02*
X285625000Y-113028000D01*
X285625000Y-113028000D02*
X287782000Y-110871000D01*
X294828500Y-110871000D02*
X296987500Y-113030000D01*
X287782000Y-110871000D02*
X294828500Y-110871000D01*
G04 #@! TO.N,COL0*
X307543000Y-94854000D02*
X307543000Y-95809000D01*
X307543000Y-95809000D02*
X300990000Y-102362000D01*
X48738250Y-102362000D02*
X40356250Y-93980000D01*
X300990000Y-102362000D02*
X48738250Y-102362000D01*
G04 #@! TO.N,COL3*
X97220500Y-100838000D02*
X90362500Y-93980000D01*
X300228000Y-100838000D02*
X97220500Y-100838000D01*
X305143000Y-94854000D02*
X305143000Y-95923000D01*
X305143000Y-95923000D02*
X300228000Y-100838000D01*
X83636500Y-81534000D02*
X90362500Y-88260000D01*
X99887500Y-74930000D02*
X99887500Y-74991500D01*
X97663000Y-77216000D02*
X55245000Y-77216000D01*
X55245000Y-77216000D02*
X54102000Y-78359000D01*
X99887500Y-74991500D02*
X97663000Y-77216000D01*
X54102000Y-78359000D02*
X54102000Y-80391000D01*
X55245000Y-81534000D02*
X83636500Y-81534000D01*
X54102000Y-80391000D02*
X55245000Y-81534000D01*
X92844000Y-47879000D02*
X95125000Y-50160000D01*
X81534000Y-47879000D02*
X92844000Y-47879000D01*
X76962000Y-52451000D02*
X81534000Y-47879000D01*
X75184000Y-52451000D02*
X76962000Y-52451000D01*
X61976000Y-34671000D02*
X61341000Y-35306000D01*
X74168000Y-34671000D02*
X61976000Y-34671000D01*
X78105000Y-38608000D02*
X74168000Y-34671000D01*
X83820000Y-38608000D02*
X78105000Y-38608000D01*
X85600000Y-36830000D02*
X85598000Y-36830000D01*
X85598000Y-36830000D02*
X83820000Y-38608000D01*
X61341000Y-35306000D02*
X59309000Y-35306000D01*
X48387000Y-42799000D02*
X50038000Y-44450000D01*
X59309000Y-35306000D02*
X58166000Y-34163000D01*
X58166000Y-34163000D02*
X52959000Y-34163000D01*
X52959000Y-34163000D02*
X51308000Y-35814000D01*
X51308000Y-35814000D02*
X51308000Y-36830000D01*
X51308000Y-36830000D02*
X48387000Y-39751000D01*
X48387000Y-39751000D02*
X48387000Y-42799000D01*
X50038000Y-44450000D02*
X67183000Y-44450000D01*
X67183000Y-44450000D02*
X75184000Y-52451000D01*
D35*
G04 #@! TO.N,D-*
X303543000Y-82423000D02*
X303543000Y-83454000D01*
X303657000Y-80645000D02*
X303657000Y-82309000D01*
X303657000Y-82309000D02*
X303543000Y-82423000D01*
D34*
X303657000Y-79182000D02*
X302387000Y-77912000D01*
X303657000Y-80645000D02*
X303657000Y-79182000D01*
D35*
G04 #@! TO.N,Net-(R67-Pad2)*
X310384000Y-4996250D02*
X310384000Y-4028250D01*
X310384000Y-4028250D02*
X310070500Y-3714750D01*
X310070500Y-3714750D02*
X309689500Y-3714750D01*
X309384000Y-4020250D02*
X309384000Y-4996250D01*
X309689500Y-3714750D02*
X309384000Y-4020250D01*
X309880000Y-9570250D02*
X309134000Y-10316250D01*
X309880000Y-6826250D02*
X309880000Y-9570250D01*
X309384000Y-6330250D02*
X309880000Y-6826250D01*
X309384000Y-4996250D02*
X309384000Y-6330250D01*
X309880000Y-11062250D02*
X309134000Y-10316250D01*
X309880000Y-13305750D02*
X309880000Y-12649750D01*
D34*
X303464000Y-76012000D02*
X309880000Y-69596000D01*
X302387000Y-76012000D02*
X303464000Y-76012000D01*
X309880000Y-54483000D02*
X309880000Y-69596000D01*
D35*
X309880000Y-11811000D02*
X309880000Y-54483000D01*
X309880000Y-11176000D02*
X309880000Y-11811000D01*
D34*
X309880000Y-11176000D02*
X309880000Y-11062250D01*
D35*
G04 #@! TO.N,Net-(R68-Pad2)*
X309884000Y-4996250D02*
X309884000Y-6068250D01*
X309884000Y-6068250D02*
X310388000Y-6572250D01*
X310388000Y-9570250D02*
X311134000Y-10316250D01*
X310388000Y-6572250D02*
X310388000Y-9570250D01*
X310884000Y-6076250D02*
X310388000Y-6572250D01*
X310884000Y-4996250D02*
X310884000Y-6076250D01*
X310388000Y-13305750D02*
X310388000Y-12649750D01*
X310388000Y-11062250D02*
X311134000Y-10316250D01*
D34*
X310134000Y-70104000D02*
X310388000Y-69850000D01*
X305435000Y-74803000D02*
X310134000Y-70104000D01*
X305435000Y-76012000D02*
X305435000Y-74803000D01*
X310388000Y-11684000D02*
X310388000Y-11062250D01*
X310388000Y-11684000D02*
X310388000Y-69850000D01*
D35*
G04 #@! TO.N,D+*
X304165000Y-82245000D02*
X304343000Y-82423000D01*
X304165000Y-80391000D02*
X304165000Y-82245000D01*
X304343000Y-83454000D02*
X304343000Y-82423000D01*
D34*
X304165000Y-79182000D02*
X305435000Y-77912000D01*
X304165000Y-80391000D02*
X304165000Y-79182000D01*
G04 #@! TO.N,Net-(R70-Pad2)*
X313248000Y-79883000D02*
X313248000Y-79055000D01*
X313248000Y-79055000D02*
X313817000Y-78486000D01*
X313817000Y-78486000D02*
X323723000Y-78486000D01*
X325810000Y-80573000D02*
X325810000Y-85673000D01*
X323723000Y-78486000D02*
X325810000Y-80573000D01*
X313248000Y-80645000D02*
X313248000Y-79883000D01*
X311643000Y-85954000D02*
X312699000Y-85954000D01*
X312928000Y-84582000D02*
X312293000Y-83947000D01*
X312699000Y-85954000D02*
X312928000Y-85725000D01*
X312293000Y-83947000D02*
X312293000Y-81600000D01*
X312928000Y-85725000D02*
X312928000Y-84582000D01*
X312293000Y-81600000D02*
X313248000Y-80645000D01*
G04 #@! TO.N,Net-(R71-Pad2)*
X299273000Y-97282000D02*
X299273000Y-96332000D01*
X300751000Y-94854000D02*
X301943000Y-94854000D01*
X299273000Y-96332000D02*
X300751000Y-94854000D01*
D35*
G04 #@! TO.N,Net-(R73-Pad2)*
X308884000Y-4996250D02*
X308884000Y-6425250D01*
X308884000Y-6425250D02*
X308610000Y-6699250D01*
D34*
X302575000Y-2381250D02*
X303879250Y-2381250D01*
D35*
G04 #@! TO.N,Net-(R74-Pad2)*
X311884000Y-4996250D02*
X311884000Y-6346250D01*
X311884000Y-6346250D02*
X311531000Y-6699250D01*
D34*
X317343750Y-2381250D02*
X316007750Y-2381250D01*
X316007750Y-2381250D02*
X315976000Y-2413000D01*
G04 #@! TO.N,Net-(D15-Pad2)*
X41275000Y-7081250D02*
X35266250Y-7081250D01*
X35266250Y-7081250D02*
X35050000Y-7297500D01*
G04 #@! TO.N,Net-(D30-Pad2)*
X73366250Y-7081250D02*
X73150000Y-7297500D01*
X79375000Y-7081250D02*
X73366250Y-7081250D01*
G04 #@! TO.N,Net-(D58-Pad2)*
X92416250Y-7081250D02*
X92200000Y-7297500D01*
X98425000Y-7081250D02*
X92416250Y-7081250D01*
G04 #@! TO.N,ROW5*
X350837500Y-110393750D02*
X26987500Y-110393750D01*
X319405000Y-101473000D02*
X317627000Y-101473000D01*
X313944000Y-92075000D02*
X312623000Y-90754000D01*
X317627000Y-101473000D02*
X313944000Y-97790000D01*
X312623000Y-90754000D02*
X311643000Y-90754000D01*
X313944000Y-97790000D02*
X313944000Y-92075000D01*
X319405000Y-101473000D02*
X332994000Y-101473000D01*
X332994000Y-101473000D02*
X341884000Y-101473000D01*
X341884000Y-101473000D02*
X352425000Y-101473000D01*
X350868250Y-110363000D02*
X350837500Y-110393750D01*
X352425000Y-110363000D02*
X350868250Y-110363000D01*
G04 #@! TO.N,Net-(D60-Pad2)*
X111466250Y-7081250D02*
X111250000Y-7297500D01*
X117475000Y-7081250D02*
X111466250Y-7081250D01*
G04 #@! TO.N,Net-(D62-Pad2)*
X130516250Y-7081250D02*
X130300000Y-7297500D01*
X136525000Y-7081250D02*
X130516250Y-7081250D01*
G04 #@! TO.N,Net-(D63-Pad2)*
X159091250Y-7081250D02*
X158875000Y-7297500D01*
X165100000Y-7081250D02*
X159091250Y-7081250D01*
G04 #@! TO.N,Net-(D66-Pad2)*
X178141250Y-7081250D02*
X177925000Y-7297500D01*
X184150000Y-7081250D02*
X178141250Y-7081250D01*
G04 #@! TO.N,Net-(D69-Pad2)*
X197191250Y-7081250D02*
X196975000Y-7297500D01*
X203200000Y-7081250D02*
X197191250Y-7081250D01*
G04 #@! TO.N,Net-(D70-Pad2)*
X216241250Y-7081250D02*
X216025000Y-7297500D01*
X222250000Y-7081250D02*
X216241250Y-7081250D01*
G04 #@! TO.N,Net-(D71-Pad2)*
X231775000Y-7081250D02*
X232633250Y-7081250D01*
X232633250Y-7081250D02*
X235458000Y-9906000D01*
X241991500Y-9906000D02*
X244600000Y-7297500D01*
X235458000Y-9906000D02*
X241991500Y-9906000D01*
G04 #@! TO.N,Net-(D72-Pad2)*
X250825000Y-7081250D02*
X251683250Y-7081250D01*
X251683250Y-7081250D02*
X254508000Y-9906000D01*
X261041500Y-9906000D02*
X263650000Y-7297500D01*
X254508000Y-9906000D02*
X261041500Y-9906000D01*
G04 #@! TO.N,Net-(D73-Pad2)*
X269875000Y-7081250D02*
X270733250Y-7081250D01*
X270733250Y-7081250D02*
X273558000Y-9906000D01*
X280091500Y-9906000D02*
X282700000Y-7297500D01*
X273558000Y-9906000D02*
X280091500Y-9906000D01*
G04 #@! TO.N,Net-(D74-Pad2)*
X288925000Y-7081250D02*
X289783250Y-7081250D01*
X289783250Y-7081250D02*
X292608000Y-9906000D01*
X299141500Y-9906000D02*
X301750000Y-7297500D01*
X292608000Y-9906000D02*
X299141500Y-9906000D01*
G04 #@! TO.N,Net-(D75-Pad2)*
X61080000Y-109855000D02*
X63625000Y-107310000D01*
X51721750Y-107093750D02*
X54483000Y-109855000D01*
X50800000Y-107093750D02*
X51721750Y-107093750D01*
X54483000Y-109855000D02*
X61080000Y-109855000D01*
G04 #@! TO.N,Net-(D76-Pad2)*
X273391250Y-107093750D02*
X273175000Y-107310000D01*
X279400000Y-107093750D02*
X273391250Y-107093750D01*
G04 #@! TO.N,Net-(D77-Pad2)*
X325778750Y-7081250D02*
X325562500Y-7297500D01*
X331787500Y-7081250D02*
X325778750Y-7081250D01*
G04 #@! TO.N,Net-(D78-Pad2)*
X344828750Y-7081250D02*
X344612500Y-7297500D01*
X350837500Y-7081250D02*
X344828750Y-7081250D01*
G04 #@! TO.N,Net-(D79-Pad2)*
X360362500Y-16317500D02*
X363662500Y-13017500D01*
X360362500Y-18193750D02*
X360362500Y-16317500D01*
G04 #@! TO.N,Net-(D80-Pad2)*
X325778750Y-30893750D02*
X325562500Y-31110000D01*
X331787500Y-30893750D02*
X325778750Y-30893750D01*
G04 #@! TO.N,Net-(D81-Pad2)*
X344828750Y-30893750D02*
X344612500Y-31110000D01*
X350837500Y-30893750D02*
X344828750Y-30893750D01*
G04 #@! TO.N,Net-(D82-Pad2)*
X360073750Y-40418750D02*
X363662500Y-36830000D01*
X350837500Y-40418750D02*
X360073750Y-40418750D01*
G04 #@! TO.N,Net-(D83-Pad2)*
X325778750Y-49943750D02*
X325562500Y-50160000D01*
X331787500Y-49943750D02*
X325778750Y-49943750D01*
G04 #@! TO.N,Net-(D84-Pad2)*
X344828750Y-49943750D02*
X344612500Y-50160000D01*
X350837500Y-49943750D02*
X344828750Y-49943750D01*
G04 #@! TO.N,Net-(D85-Pad2)*
X360362500Y-42006250D02*
X361284250Y-42006250D01*
X363662500Y-44384500D02*
X363662500Y-50160000D01*
X361284250Y-42006250D02*
X363662500Y-44384500D01*
G04 #@! TO.N,Net-(D86-Pad2)*
X344828750Y-88043750D02*
X344612500Y-88260000D01*
X350837500Y-88043750D02*
X344828750Y-88043750D01*
G04 #@! TO.N,Net-(D87-Pad2)*
X323017500Y-109855000D02*
X325562500Y-107310000D01*
X313595750Y-107093750D02*
X316357000Y-109855000D01*
X312737500Y-107093750D02*
X313595750Y-107093750D01*
X316357000Y-109855000D02*
X323017500Y-109855000D01*
G04 #@! TO.N,Net-(D88-Pad2)*
X342067500Y-109855000D02*
X344612500Y-107310000D01*
X332645750Y-107093750D02*
X335407000Y-109855000D01*
X331787500Y-107093750D02*
X332645750Y-107093750D01*
X335407000Y-109855000D02*
X342067500Y-109855000D01*
G04 #@! TO.N,Net-(D89-Pad2)*
X363662500Y-107310000D02*
X363662500Y-107380500D01*
X363662500Y-107380500D02*
X361569000Y-109474000D01*
X351695750Y-107093750D02*
X354076000Y-109474000D01*
X350837500Y-107093750D02*
X351695750Y-107093750D01*
X361569000Y-109474000D02*
X354076000Y-109474000D01*
G04 #@! TO.N,COL14*
X311643000Y-93154000D02*
X311643000Y-93457000D01*
X311643000Y-93457000D02*
X312420000Y-94234000D01*
X318962500Y-105094500D02*
X312420000Y-98552000D01*
X318962500Y-107310000D02*
X318962500Y-105094500D01*
X312420000Y-94234000D02*
X312420000Y-98552000D01*
G04 #@! TO.N,COL15*
X311643000Y-92354000D02*
X312699000Y-92354000D01*
X312699000Y-92354000D02*
X312928000Y-92583000D01*
X312928000Y-92583000D02*
X312928000Y-98298000D01*
X333191500Y-102489000D02*
X338012500Y-107310000D01*
X317119000Y-102489000D02*
X333191500Y-102489000D01*
X312928000Y-98298000D02*
X317119000Y-102489000D01*
G04 #@! TO.N,COL16*
X311643000Y-91554000D02*
X312661000Y-91554000D01*
X312661000Y-91554000D02*
X313436000Y-92329000D01*
X313436000Y-92329000D02*
X313436000Y-98044000D01*
X351733500Y-101981000D02*
X357062500Y-107310000D01*
X317373000Y-101981000D02*
X351733500Y-101981000D01*
X313436000Y-98044000D02*
X317373000Y-101981000D01*
G04 #@! TD*
G04 #@! TO.N,GND*
G36*
X305216815Y-84655185D02*
X305313506Y-84734537D01*
X305336667Y-84746917D01*
X305428750Y-84839000D01*
X305480542Y-84839000D01*
X305536870Y-84827795D01*
X305543518Y-84829812D01*
X305668000Y-84842072D01*
X306218000Y-84842072D01*
X306342482Y-84829812D01*
X306343000Y-84829655D01*
X306343518Y-84829812D01*
X306468000Y-84842072D01*
X307018000Y-84842072D01*
X307142482Y-84829812D01*
X307143000Y-84829655D01*
X307143518Y-84829812D01*
X307268000Y-84842072D01*
X307818000Y-84842072D01*
X307942482Y-84829812D01*
X307943000Y-84829655D01*
X307943518Y-84829812D01*
X308068000Y-84842072D01*
X308618000Y-84842072D01*
X308742482Y-84829812D01*
X308743000Y-84829655D01*
X308743518Y-84829812D01*
X308868000Y-84842072D01*
X309418000Y-84842072D01*
X309542482Y-84829812D01*
X309543000Y-84829655D01*
X309543518Y-84829812D01*
X309668000Y-84842072D01*
X310218000Y-84842072D01*
X310258962Y-84838038D01*
X310254928Y-84879000D01*
X310254928Y-85429000D01*
X310267188Y-85553482D01*
X310267345Y-85554000D01*
X310267188Y-85554518D01*
X310254928Y-85679000D01*
X310254928Y-86229000D01*
X310267188Y-86353482D01*
X310267345Y-86354000D01*
X310267188Y-86354518D01*
X310254928Y-86479000D01*
X310254928Y-87029000D01*
X310267188Y-87153482D01*
X310269205Y-87160130D01*
X310258000Y-87216458D01*
X310258000Y-87268250D01*
X310350083Y-87360333D01*
X310362463Y-87383494D01*
X310441815Y-87480185D01*
X310531759Y-87554000D01*
X310441815Y-87627815D01*
X310362463Y-87724506D01*
X310350083Y-87747667D01*
X310258000Y-87839750D01*
X310258000Y-87891542D01*
X310269205Y-87947870D01*
X310267188Y-87954518D01*
X310254928Y-88079000D01*
X310254928Y-88629000D01*
X310267188Y-88753482D01*
X310267345Y-88754000D01*
X310267188Y-88754518D01*
X310254928Y-88879000D01*
X310254928Y-89429000D01*
X310267188Y-89553482D01*
X310267345Y-89554000D01*
X310267188Y-89554518D01*
X310254928Y-89679000D01*
X310254928Y-90229000D01*
X310267188Y-90353482D01*
X310267345Y-90354000D01*
X310267188Y-90354518D01*
X310254928Y-90479000D01*
X310254928Y-91029000D01*
X310267188Y-91153482D01*
X310267345Y-91154000D01*
X310267188Y-91154518D01*
X310254928Y-91279000D01*
X310254928Y-91829000D01*
X310267188Y-91953482D01*
X310267345Y-91954000D01*
X310267188Y-91954518D01*
X310254928Y-92079000D01*
X310254928Y-92629000D01*
X310267188Y-92753482D01*
X310267345Y-92754000D01*
X310267188Y-92754518D01*
X310254928Y-92879000D01*
X310254928Y-93429000D01*
X310258868Y-93469000D01*
X310228750Y-93469000D01*
X310070000Y-93627750D01*
X310070000Y-94329250D01*
X310056072Y-94329250D01*
X310056072Y-94104000D01*
X310043812Y-93979518D01*
X310007502Y-93859820D01*
X309948537Y-93749506D01*
X309869185Y-93652815D01*
X309772494Y-93573463D01*
X309749333Y-93561083D01*
X309657250Y-93469000D01*
X309605458Y-93469000D01*
X309549130Y-93480205D01*
X309542482Y-93478188D01*
X309418000Y-93465928D01*
X308868000Y-93465928D01*
X308743518Y-93478188D01*
X308743000Y-93478345D01*
X308742482Y-93478188D01*
X308618000Y-93465928D01*
X308068000Y-93465928D01*
X307943518Y-93478188D01*
X307943000Y-93478345D01*
X307942482Y-93478188D01*
X307818000Y-93465928D01*
X307268000Y-93465928D01*
X307143518Y-93478188D01*
X307143000Y-93478345D01*
X307142482Y-93478188D01*
X307018000Y-93465928D01*
X306468000Y-93465928D01*
X306343518Y-93478188D01*
X306343000Y-93478345D01*
X306342482Y-93478188D01*
X306218000Y-93465928D01*
X305668000Y-93465928D01*
X305543518Y-93478188D01*
X305543000Y-93478345D01*
X305542482Y-93478188D01*
X305418000Y-93465928D01*
X304868000Y-93465928D01*
X304743518Y-93478188D01*
X304743000Y-93478345D01*
X304742482Y-93478188D01*
X304618000Y-93465928D01*
X304068000Y-93465928D01*
X303943518Y-93478188D01*
X303943000Y-93478345D01*
X303942482Y-93478188D01*
X303818000Y-93465928D01*
X303268000Y-93465928D01*
X303143518Y-93478188D01*
X303143000Y-93478345D01*
X303142482Y-93478188D01*
X303018000Y-93465928D01*
X302468000Y-93465928D01*
X302343518Y-93478188D01*
X302343000Y-93478345D01*
X302342482Y-93478188D01*
X302218000Y-93465928D01*
X301668000Y-93465928D01*
X301627038Y-93469962D01*
X301631072Y-93429000D01*
X301631072Y-92879000D01*
X301618812Y-92754518D01*
X301616795Y-92747870D01*
X301628000Y-92691542D01*
X301628000Y-92639750D01*
X301535917Y-92547667D01*
X301523537Y-92524506D01*
X301444185Y-92427815D01*
X301354241Y-92354000D01*
X301444185Y-92280185D01*
X301523537Y-92183494D01*
X301535917Y-92160333D01*
X301628000Y-92068250D01*
X301628000Y-92016458D01*
X301616795Y-91960130D01*
X301618812Y-91953482D01*
X301631072Y-91829000D01*
X301631072Y-91279000D01*
X301618812Y-91154518D01*
X301618655Y-91154000D01*
X301618812Y-91153482D01*
X301631072Y-91029000D01*
X301631072Y-90479000D01*
X301618812Y-90354518D01*
X301618655Y-90354000D01*
X301618812Y-90353482D01*
X301631072Y-90229000D01*
X301631072Y-89679000D01*
X301618812Y-89554518D01*
X301618655Y-89554000D01*
X301618812Y-89553482D01*
X301631072Y-89429000D01*
X301631072Y-88879000D01*
X301618812Y-88754518D01*
X301618655Y-88754000D01*
X301618812Y-88753482D01*
X301631072Y-88629000D01*
X301631072Y-88079000D01*
X301618812Y-87954518D01*
X301618655Y-87954000D01*
X301618812Y-87953482D01*
X301631072Y-87829000D01*
X301631072Y-87279000D01*
X301618812Y-87154518D01*
X301618655Y-87154000D01*
X301618812Y-87153482D01*
X301631072Y-87029000D01*
X301631072Y-86479000D01*
X301618812Y-86354518D01*
X301616795Y-86347870D01*
X301628000Y-86291542D01*
X301628000Y-86239750D01*
X301535917Y-86147667D01*
X301523537Y-86124506D01*
X301444185Y-86027815D01*
X301354241Y-85954000D01*
X301444185Y-85880185D01*
X301523537Y-85783494D01*
X301535917Y-85760333D01*
X301628000Y-85668250D01*
X301628000Y-85616458D01*
X301616795Y-85560130D01*
X301618812Y-85553482D01*
X301631072Y-85429000D01*
X301631072Y-84879000D01*
X301627038Y-84838038D01*
X301668000Y-84842072D01*
X302218000Y-84842072D01*
X302342482Y-84829812D01*
X302343000Y-84829655D01*
X302343518Y-84829812D01*
X302468000Y-84842072D01*
X303018000Y-84842072D01*
X303142482Y-84829812D01*
X303143000Y-84829655D01*
X303143518Y-84829812D01*
X303268000Y-84842072D01*
X303818000Y-84842072D01*
X303942482Y-84829812D01*
X303943000Y-84829655D01*
X303943518Y-84829812D01*
X304068000Y-84842072D01*
X304618000Y-84842072D01*
X304742482Y-84829812D01*
X304749130Y-84827795D01*
X304805458Y-84839000D01*
X304857250Y-84839000D01*
X304949333Y-84746917D01*
X304972494Y-84734537D01*
X305069185Y-84655185D01*
X305143000Y-84565241D01*
X305216815Y-84655185D01*
X305216815Y-84655185D01*
G37*
X305216815Y-84655185D02*
X305313506Y-84734537D01*
X305336667Y-84746917D01*
X305428750Y-84839000D01*
X305480542Y-84839000D01*
X305536870Y-84827795D01*
X305543518Y-84829812D01*
X305668000Y-84842072D01*
X306218000Y-84842072D01*
X306342482Y-84829812D01*
X306343000Y-84829655D01*
X306343518Y-84829812D01*
X306468000Y-84842072D01*
X307018000Y-84842072D01*
X307142482Y-84829812D01*
X307143000Y-84829655D01*
X307143518Y-84829812D01*
X307268000Y-84842072D01*
X307818000Y-84842072D01*
X307942482Y-84829812D01*
X307943000Y-84829655D01*
X307943518Y-84829812D01*
X308068000Y-84842072D01*
X308618000Y-84842072D01*
X308742482Y-84829812D01*
X308743000Y-84829655D01*
X308743518Y-84829812D01*
X308868000Y-84842072D01*
X309418000Y-84842072D01*
X309542482Y-84829812D01*
X309543000Y-84829655D01*
X309543518Y-84829812D01*
X309668000Y-84842072D01*
X310218000Y-84842072D01*
X310258962Y-84838038D01*
X310254928Y-84879000D01*
X310254928Y-85429000D01*
X310267188Y-85553482D01*
X310267345Y-85554000D01*
X310267188Y-85554518D01*
X310254928Y-85679000D01*
X310254928Y-86229000D01*
X310267188Y-86353482D01*
X310267345Y-86354000D01*
X310267188Y-86354518D01*
X310254928Y-86479000D01*
X310254928Y-87029000D01*
X310267188Y-87153482D01*
X310269205Y-87160130D01*
X310258000Y-87216458D01*
X310258000Y-87268250D01*
X310350083Y-87360333D01*
X310362463Y-87383494D01*
X310441815Y-87480185D01*
X310531759Y-87554000D01*
X310441815Y-87627815D01*
X310362463Y-87724506D01*
X310350083Y-87747667D01*
X310258000Y-87839750D01*
X310258000Y-87891542D01*
X310269205Y-87947870D01*
X310267188Y-87954518D01*
X310254928Y-88079000D01*
X310254928Y-88629000D01*
X310267188Y-88753482D01*
X310267345Y-88754000D01*
X310267188Y-88754518D01*
X310254928Y-88879000D01*
X310254928Y-89429000D01*
X310267188Y-89553482D01*
X310267345Y-89554000D01*
X310267188Y-89554518D01*
X310254928Y-89679000D01*
X310254928Y-90229000D01*
X310267188Y-90353482D01*
X310267345Y-90354000D01*
X310267188Y-90354518D01*
X310254928Y-90479000D01*
X310254928Y-91029000D01*
X310267188Y-91153482D01*
X310267345Y-91154000D01*
X310267188Y-91154518D01*
X310254928Y-91279000D01*
X310254928Y-91829000D01*
X310267188Y-91953482D01*
X310267345Y-91954000D01*
X310267188Y-91954518D01*
X310254928Y-92079000D01*
X310254928Y-92629000D01*
X310267188Y-92753482D01*
X310267345Y-92754000D01*
X310267188Y-92754518D01*
X310254928Y-92879000D01*
X310254928Y-93429000D01*
X310258868Y-93469000D01*
X310228750Y-93469000D01*
X310070000Y-93627750D01*
X310070000Y-94329250D01*
X310056072Y-94329250D01*
X310056072Y-94104000D01*
X310043812Y-93979518D01*
X310007502Y-93859820D01*
X309948537Y-93749506D01*
X309869185Y-93652815D01*
X309772494Y-93573463D01*
X309749333Y-93561083D01*
X309657250Y-93469000D01*
X309605458Y-93469000D01*
X309549130Y-93480205D01*
X309542482Y-93478188D01*
X309418000Y-93465928D01*
X308868000Y-93465928D01*
X308743518Y-93478188D01*
X308743000Y-93478345D01*
X308742482Y-93478188D01*
X308618000Y-93465928D01*
X308068000Y-93465928D01*
X307943518Y-93478188D01*
X307943000Y-93478345D01*
X307942482Y-93478188D01*
X307818000Y-93465928D01*
X307268000Y-93465928D01*
X307143518Y-93478188D01*
X307143000Y-93478345D01*
X307142482Y-93478188D01*
X307018000Y-93465928D01*
X306468000Y-93465928D01*
X306343518Y-93478188D01*
X306343000Y-93478345D01*
X306342482Y-93478188D01*
X306218000Y-93465928D01*
X305668000Y-93465928D01*
X305543518Y-93478188D01*
X305543000Y-93478345D01*
X305542482Y-93478188D01*
X305418000Y-93465928D01*
X304868000Y-93465928D01*
X304743518Y-93478188D01*
X304743000Y-93478345D01*
X304742482Y-93478188D01*
X304618000Y-93465928D01*
X304068000Y-93465928D01*
X303943518Y-93478188D01*
X303943000Y-93478345D01*
X303942482Y-93478188D01*
X303818000Y-93465928D01*
X303268000Y-93465928D01*
X303143518Y-93478188D01*
X303143000Y-93478345D01*
X303142482Y-93478188D01*
X303018000Y-93465928D01*
X302468000Y-93465928D01*
X302343518Y-93478188D01*
X302343000Y-93478345D01*
X302342482Y-93478188D01*
X302218000Y-93465928D01*
X301668000Y-93465928D01*
X301627038Y-93469962D01*
X301631072Y-93429000D01*
X301631072Y-92879000D01*
X301618812Y-92754518D01*
X301616795Y-92747870D01*
X301628000Y-92691542D01*
X301628000Y-92639750D01*
X301535917Y-92547667D01*
X301523537Y-92524506D01*
X301444185Y-92427815D01*
X301354241Y-92354000D01*
X301444185Y-92280185D01*
X301523537Y-92183494D01*
X301535917Y-92160333D01*
X301628000Y-92068250D01*
X301628000Y-92016458D01*
X301616795Y-91960130D01*
X301618812Y-91953482D01*
X301631072Y-91829000D01*
X301631072Y-91279000D01*
X301618812Y-91154518D01*
X301618655Y-91154000D01*
X301618812Y-91153482D01*
X301631072Y-91029000D01*
X301631072Y-90479000D01*
X301618812Y-90354518D01*
X301618655Y-90354000D01*
X301618812Y-90353482D01*
X301631072Y-90229000D01*
X301631072Y-89679000D01*
X301618812Y-89554518D01*
X301618655Y-89554000D01*
X301618812Y-89553482D01*
X301631072Y-89429000D01*
X301631072Y-88879000D01*
X301618812Y-88754518D01*
X301618655Y-88754000D01*
X301618812Y-88753482D01*
X301631072Y-88629000D01*
X301631072Y-88079000D01*
X301618812Y-87954518D01*
X301618655Y-87954000D01*
X301618812Y-87953482D01*
X301631072Y-87829000D01*
X301631072Y-87279000D01*
X301618812Y-87154518D01*
X301618655Y-87154000D01*
X301618812Y-87153482D01*
X301631072Y-87029000D01*
X301631072Y-86479000D01*
X301618812Y-86354518D01*
X301616795Y-86347870D01*
X301628000Y-86291542D01*
X301628000Y-86239750D01*
X301535917Y-86147667D01*
X301523537Y-86124506D01*
X301444185Y-86027815D01*
X301354241Y-85954000D01*
X301444185Y-85880185D01*
X301523537Y-85783494D01*
X301535917Y-85760333D01*
X301628000Y-85668250D01*
X301628000Y-85616458D01*
X301616795Y-85560130D01*
X301618812Y-85553482D01*
X301631072Y-85429000D01*
X301631072Y-84879000D01*
X301627038Y-84838038D01*
X301668000Y-84842072D01*
X302218000Y-84842072D01*
X302342482Y-84829812D01*
X302343000Y-84829655D01*
X302343518Y-84829812D01*
X302468000Y-84842072D01*
X303018000Y-84842072D01*
X303142482Y-84829812D01*
X303143000Y-84829655D01*
X303143518Y-84829812D01*
X303268000Y-84842072D01*
X303818000Y-84842072D01*
X303942482Y-84829812D01*
X303943000Y-84829655D01*
X303943518Y-84829812D01*
X304068000Y-84842072D01*
X304618000Y-84842072D01*
X304742482Y-84829812D01*
X304749130Y-84827795D01*
X304805458Y-84839000D01*
X304857250Y-84839000D01*
X304949333Y-84746917D01*
X304972494Y-84734537D01*
X305069185Y-84655185D01*
X305143000Y-84565241D01*
X305216815Y-84655185D01*
G36*
X313319000Y525750D02*
X313319000Y225750D01*
X314327000Y225750D01*
X314327000Y245750D01*
X314547859Y245750D01*
X314555156Y176328D01*
X314565776Y124591D01*
X314575682Y72663D01*
X314578035Y64870D01*
X314594875Y10470D01*
X314594875Y-28250D01*
X314581000Y-28250D01*
X314581000Y-1169204D01*
X314594875Y-1179214D01*
X314594875Y-2553286D01*
X314581000Y-2563296D01*
X314581000Y-3954250D01*
X314594875Y-3954250D01*
X314594875Y-4208250D01*
X314581000Y-4208250D01*
X314581000Y-4228250D01*
X314327000Y-4228250D01*
X314327000Y-4208250D01*
X314307000Y-4208250D01*
X314307000Y-3954250D01*
X314327000Y-3954250D01*
X314327000Y-2563296D01*
X314152126Y-2437131D01*
X313929024Y-2516974D01*
X313741236Y-2638881D01*
X313580839Y-2795081D01*
X313521294Y-2881690D01*
X313418574Y-2813055D01*
X313266977Y-2750261D01*
X313106043Y-2718250D01*
X312941957Y-2718250D01*
X312781023Y-2750261D01*
X312629426Y-2813055D01*
X312492993Y-2904216D01*
X312376966Y-3020243D01*
X312285805Y-3156676D01*
X312223011Y-3308273D01*
X312191000Y-3469207D01*
X312191000Y-3633293D01*
X312217660Y-3767327D01*
X312184415Y-3770601D01*
X312159000Y-3778311D01*
X312133585Y-3770601D01*
X312034000Y-3760793D01*
X311734000Y-3760793D01*
X311634415Y-3770601D01*
X311634000Y-3770727D01*
X311633585Y-3770601D01*
X311534000Y-3760793D01*
X311234000Y-3760793D01*
X311134415Y-3770601D01*
X311134000Y-3770727D01*
X311133585Y-3770601D01*
X311034000Y-3760793D01*
X310958792Y-3760793D01*
X310912866Y-3674873D01*
X310833764Y-3578486D01*
X310809613Y-3558666D01*
X310540084Y-3289137D01*
X310520264Y-3264986D01*
X310423877Y-3185884D01*
X310313910Y-3127105D01*
X310194590Y-3090910D01*
X310101588Y-3081750D01*
X310070500Y-3078688D01*
X310039412Y-3081750D01*
X309720585Y-3081750D01*
X309689499Y-3078688D01*
X309658413Y-3081750D01*
X309658412Y-3081750D01*
X309565410Y-3090910D01*
X309446090Y-3127105D01*
X309336123Y-3185884D01*
X309239736Y-3264986D01*
X309219912Y-3289142D01*
X308958388Y-3550665D01*
X308934236Y-3570486D01*
X308855134Y-3666874D01*
X308804933Y-3760793D01*
X308734000Y-3760793D01*
X308634415Y-3770601D01*
X308634000Y-3770727D01*
X308633585Y-3770601D01*
X308534000Y-3760793D01*
X308234000Y-3760793D01*
X308134415Y-3770601D01*
X308109000Y-3778311D01*
X308083585Y-3770601D01*
X308050340Y-3767327D01*
X308077000Y-3633293D01*
X308077000Y-3469207D01*
X308044989Y-3308273D01*
X307982195Y-3156676D01*
X307891034Y-3020243D01*
X307775007Y-2904216D01*
X307638574Y-2813055D01*
X307486977Y-2750261D01*
X307326043Y-2718250D01*
X307161957Y-2718250D01*
X307001023Y-2750261D01*
X306849426Y-2813055D01*
X306746706Y-2881690D01*
X306687161Y-2795081D01*
X306526764Y-2638881D01*
X306338976Y-2516974D01*
X306115874Y-2437131D01*
X305941000Y-2563296D01*
X305941000Y-3954250D01*
X305961000Y-3954250D01*
X305961000Y-4208250D01*
X305941000Y-4208250D01*
X305941000Y-4228250D01*
X305720750Y-4228250D01*
X305720750Y-28250D01*
X305941000Y-28250D01*
X305941000Y-1169204D01*
X306115874Y-1295369D01*
X306338976Y-1215526D01*
X306526764Y-1093619D01*
X306687161Y-937419D01*
X306814003Y-752928D01*
X306902415Y-547237D01*
X306949000Y-328250D01*
X306949000Y-28250D01*
X313319000Y-28250D01*
X313319000Y-328250D01*
X313365585Y-547237D01*
X313453997Y-752928D01*
X313580839Y-937419D01*
X313741236Y-1093619D01*
X313929024Y-1215526D01*
X314152126Y-1295369D01*
X314327000Y-1169204D01*
X314327000Y-28250D01*
X313319000Y-28250D01*
X306949000Y-28250D01*
X305941000Y-28250D01*
X305720750Y-28250D01*
X305720750Y10850D01*
X305739875Y74195D01*
X305750144Y126054D01*
X305761124Y177714D01*
X305761976Y185810D01*
X305767853Y245750D01*
X305941000Y245750D01*
X305941000Y225750D01*
X306949000Y225750D01*
X306949000Y525750D01*
X306931583Y607625D01*
X313336417Y607625D01*
X313319000Y525750D01*
X313319000Y525750D01*
G37*
X313319000Y525750D02*
X313319000Y225750D01*
X314327000Y225750D01*
X314327000Y245750D01*
X314547859Y245750D01*
X314555156Y176328D01*
X314565776Y124591D01*
X314575682Y72663D01*
X314578035Y64870D01*
X314594875Y10470D01*
X314594875Y-28250D01*
X314581000Y-28250D01*
X314581000Y-1169204D01*
X314594875Y-1179214D01*
X314594875Y-2553286D01*
X314581000Y-2563296D01*
X314581000Y-3954250D01*
X314594875Y-3954250D01*
X314594875Y-4208250D01*
X314581000Y-4208250D01*
X314581000Y-4228250D01*
X314327000Y-4228250D01*
X314327000Y-4208250D01*
X314307000Y-4208250D01*
X314307000Y-3954250D01*
X314327000Y-3954250D01*
X314327000Y-2563296D01*
X314152126Y-2437131D01*
X313929024Y-2516974D01*
X313741236Y-2638881D01*
X313580839Y-2795081D01*
X313521294Y-2881690D01*
X313418574Y-2813055D01*
X313266977Y-2750261D01*
X313106043Y-2718250D01*
X312941957Y-2718250D01*
X312781023Y-2750261D01*
X312629426Y-2813055D01*
X312492993Y-2904216D01*
X312376966Y-3020243D01*
X312285805Y-3156676D01*
X312223011Y-3308273D01*
X312191000Y-3469207D01*
X312191000Y-3633293D01*
X312217660Y-3767327D01*
X312184415Y-3770601D01*
X312159000Y-3778311D01*
X312133585Y-3770601D01*
X312034000Y-3760793D01*
X311734000Y-3760793D01*
X311634415Y-3770601D01*
X311634000Y-3770727D01*
X311633585Y-3770601D01*
X311534000Y-3760793D01*
X311234000Y-3760793D01*
X311134415Y-3770601D01*
X311134000Y-3770727D01*
X311133585Y-3770601D01*
X311034000Y-3760793D01*
X310958792Y-3760793D01*
X310912866Y-3674873D01*
X310833764Y-3578486D01*
X310809613Y-3558666D01*
X310540084Y-3289137D01*
X310520264Y-3264986D01*
X310423877Y-3185884D01*
X310313910Y-3127105D01*
X310194590Y-3090910D01*
X310101588Y-3081750D01*
X310070500Y-3078688D01*
X310039412Y-3081750D01*
X309720585Y-3081750D01*
X309689499Y-3078688D01*
X309658413Y-3081750D01*
X309658412Y-3081750D01*
X309565410Y-3090910D01*
X309446090Y-3127105D01*
X309336123Y-3185884D01*
X309239736Y-3264986D01*
X309219912Y-3289142D01*
X308958388Y-3550665D01*
X308934236Y-3570486D01*
X308855134Y-3666874D01*
X308804933Y-3760793D01*
X308734000Y-3760793D01*
X308634415Y-3770601D01*
X308634000Y-3770727D01*
X308633585Y-3770601D01*
X308534000Y-3760793D01*
X308234000Y-3760793D01*
X308134415Y-3770601D01*
X308109000Y-3778311D01*
X308083585Y-3770601D01*
X308050340Y-3767327D01*
X308077000Y-3633293D01*
X308077000Y-3469207D01*
X308044989Y-3308273D01*
X307982195Y-3156676D01*
X307891034Y-3020243D01*
X307775007Y-2904216D01*
X307638574Y-2813055D01*
X307486977Y-2750261D01*
X307326043Y-2718250D01*
X307161957Y-2718250D01*
X307001023Y-2750261D01*
X306849426Y-2813055D01*
X306746706Y-2881690D01*
X306687161Y-2795081D01*
X306526764Y-2638881D01*
X306338976Y-2516974D01*
X306115874Y-2437131D01*
X305941000Y-2563296D01*
X305941000Y-3954250D01*
X305961000Y-3954250D01*
X305961000Y-4208250D01*
X305941000Y-4208250D01*
X305941000Y-4228250D01*
X305720750Y-4228250D01*
X305720750Y-28250D01*
X305941000Y-28250D01*
X305941000Y-1169204D01*
X306115874Y-1295369D01*
X306338976Y-1215526D01*
X306526764Y-1093619D01*
X306687161Y-937419D01*
X306814003Y-752928D01*
X306902415Y-547237D01*
X306949000Y-328250D01*
X306949000Y-28250D01*
X313319000Y-28250D01*
X313319000Y-328250D01*
X313365585Y-547237D01*
X313453997Y-752928D01*
X313580839Y-937419D01*
X313741236Y-1093619D01*
X313929024Y-1215526D01*
X314152126Y-1295369D01*
X314327000Y-1169204D01*
X314327000Y-28250D01*
X313319000Y-28250D01*
X306949000Y-28250D01*
X305941000Y-28250D01*
X305720750Y-28250D01*
X305720750Y10850D01*
X305739875Y74195D01*
X305750144Y126054D01*
X305761124Y177714D01*
X305761976Y185810D01*
X305767853Y245750D01*
X305941000Y245750D01*
X305941000Y225750D01*
X306949000Y225750D01*
X306949000Y525750D01*
X306931583Y607625D01*
X313336417Y607625D01*
X313319000Y525750D01*
G36*
X321341750Y-95916750D02*
X315087000Y-95916750D01*
X315087000Y-91852189D01*
X315090072Y-91821000D01*
X315087000Y-91789808D01*
X315077812Y-91696518D01*
X315041502Y-91576820D01*
X315021531Y-91539457D01*
X314982538Y-91466506D01*
X314923069Y-91394043D01*
X314923065Y-91394039D01*
X314903185Y-91369815D01*
X314878962Y-91349936D01*
X313318024Y-89789000D01*
X313426975Y-89789000D01*
X313937934Y-90299960D01*
X313957815Y-90324185D01*
X313982039Y-90344065D01*
X313982043Y-90344069D01*
X314054506Y-90403538D01*
X314164820Y-90462502D01*
X314284518Y-90498812D01*
X314377808Y-90508000D01*
X314377811Y-90508000D01*
X314409000Y-90511072D01*
X314440189Y-90508000D01*
X315603043Y-90508000D01*
X315603043Y-90573000D01*
X315612851Y-90672585D01*
X315641899Y-90768343D01*
X315689071Y-90856595D01*
X315752552Y-90933948D01*
X315829905Y-90997429D01*
X315918157Y-91044601D01*
X316013915Y-91073649D01*
X316113500Y-91083457D01*
X316178501Y-91083457D01*
X316178500Y-91884596D01*
X316129905Y-91910571D01*
X316052552Y-91974052D01*
X315989071Y-92051405D01*
X315941899Y-92139657D01*
X315912851Y-92235415D01*
X315903043Y-92335000D01*
X315903043Y-93085000D01*
X315912851Y-93184585D01*
X315941899Y-93280343D01*
X315989071Y-93368595D01*
X316052552Y-93445948D01*
X316129905Y-93509429D01*
X316218157Y-93556601D01*
X316313915Y-93585649D01*
X316413500Y-93595457D01*
X317213500Y-93595457D01*
X317313085Y-93585649D01*
X317408843Y-93556601D01*
X317459825Y-93529351D01*
X317508711Y-93578237D01*
X317612715Y-93647730D01*
X317728277Y-93695597D01*
X317850958Y-93720000D01*
X318027750Y-93720000D01*
X318186500Y-93561250D01*
X318186500Y-92837000D01*
X318440500Y-92837000D01*
X318440500Y-93561250D01*
X318599250Y-93720000D01*
X318776042Y-93720000D01*
X318898723Y-93695597D01*
X319014285Y-93647730D01*
X319118289Y-93578237D01*
X319206737Y-93489789D01*
X319276230Y-93385785D01*
X319324097Y-93270223D01*
X319348500Y-93147542D01*
X319348500Y-92995750D01*
X319189750Y-92837000D01*
X318440500Y-92837000D01*
X318186500Y-92837000D01*
X318166500Y-92837000D01*
X318166500Y-92583000D01*
X318186500Y-92583000D01*
X318186500Y-91858750D01*
X318440500Y-91858750D01*
X318440500Y-92583000D01*
X319189750Y-92583000D01*
X319348500Y-92424250D01*
X319348500Y-92272458D01*
X319324097Y-92149777D01*
X319276230Y-92034215D01*
X319206737Y-91930211D01*
X319118289Y-91841763D01*
X319014285Y-91772270D01*
X318898723Y-91724403D01*
X318776042Y-91700000D01*
X318599250Y-91700000D01*
X318440500Y-91858750D01*
X318186500Y-91858750D01*
X318027750Y-91700000D01*
X317850958Y-91700000D01*
X317728277Y-91724403D01*
X317612715Y-91772270D01*
X317508711Y-91841763D01*
X317459825Y-91890649D01*
X317448500Y-91884596D01*
X317448500Y-91092823D01*
X317512715Y-91135730D01*
X317628277Y-91183597D01*
X317750958Y-91208000D01*
X318127750Y-91208000D01*
X318286500Y-91049250D01*
X318286500Y-90000000D01*
X318540500Y-90000000D01*
X318540500Y-91049250D01*
X318699250Y-91208000D01*
X319076042Y-91208000D01*
X319198723Y-91183597D01*
X319314285Y-91135730D01*
X319418289Y-91066237D01*
X319506737Y-90977789D01*
X319576230Y-90873785D01*
X319624097Y-90758223D01*
X319648500Y-90635542D01*
X319648500Y-90158750D01*
X319489750Y-90000000D01*
X318540500Y-90000000D01*
X318286500Y-90000000D01*
X318266500Y-90000000D01*
X318266500Y-89746000D01*
X318286500Y-89746000D01*
X318286500Y-89726000D01*
X318540500Y-89726000D01*
X318540500Y-89746000D01*
X319489750Y-89746000D01*
X319648500Y-89587250D01*
X319648500Y-89110458D01*
X319624097Y-88987777D01*
X319576230Y-88872215D01*
X319506737Y-88768211D01*
X319418633Y-88680107D01*
X319437929Y-88656595D01*
X319485101Y-88568343D01*
X319514149Y-88472585D01*
X319523957Y-88373000D01*
X319523957Y-86973000D01*
X319514149Y-86873415D01*
X319485101Y-86777657D01*
X319437929Y-86689405D01*
X319374448Y-86612052D01*
X319297095Y-86548571D01*
X319208843Y-86501399D01*
X319113085Y-86472351D01*
X319013500Y-86462543D01*
X318948500Y-86462543D01*
X318948500Y-85724904D01*
X318997095Y-85698929D01*
X319074448Y-85635448D01*
X319137929Y-85558095D01*
X319185101Y-85469843D01*
X319214149Y-85374085D01*
X319223957Y-85274500D01*
X319223957Y-84524500D01*
X319214149Y-84424915D01*
X319185101Y-84329157D01*
X319137929Y-84240905D01*
X319074448Y-84163552D01*
X318997095Y-84100071D01*
X318908843Y-84052899D01*
X318813085Y-84023851D01*
X318713500Y-84014043D01*
X317913500Y-84014043D01*
X317813915Y-84023851D01*
X317718157Y-84052899D01*
X317667175Y-84080149D01*
X317618289Y-84031263D01*
X317514285Y-83961770D01*
X317398723Y-83913903D01*
X317276042Y-83889500D01*
X317099250Y-83889500D01*
X316940500Y-84048250D01*
X316940500Y-84772500D01*
X316960500Y-84772500D01*
X316960500Y-85026500D01*
X316940500Y-85026500D01*
X316940500Y-85046500D01*
X316686500Y-85046500D01*
X316686500Y-85026500D01*
X315937250Y-85026500D01*
X315778500Y-85185250D01*
X315778500Y-85337042D01*
X315802903Y-85459723D01*
X315850770Y-85575285D01*
X315920263Y-85679289D01*
X315965974Y-85725000D01*
X315753189Y-85725000D01*
X315722000Y-85721928D01*
X315690811Y-85725000D01*
X315690808Y-85725000D01*
X315597518Y-85734188D01*
X315486922Y-85767737D01*
X315477820Y-85770498D01*
X315367506Y-85829462D01*
X315338303Y-85853429D01*
X315270815Y-85908815D01*
X315250930Y-85933045D01*
X313464976Y-87719000D01*
X312907250Y-87719000D01*
X312869250Y-87681000D01*
X312864500Y-87681000D01*
X312864500Y-87448345D01*
X312924930Y-87442393D01*
X313056597Y-87402452D01*
X313177943Y-87337591D01*
X313284303Y-87250303D01*
X313306175Y-87223652D01*
X314032657Y-86497171D01*
X314059303Y-86475303D01*
X314081171Y-86448657D01*
X314081174Y-86448654D01*
X314146591Y-86368943D01*
X314178902Y-86308493D01*
X314211452Y-86247597D01*
X314251393Y-86115930D01*
X314261500Y-86013309D01*
X314261500Y-86013298D01*
X314264878Y-85979000D01*
X314261500Y-85944702D01*
X314261500Y-84461958D01*
X315778500Y-84461958D01*
X315778500Y-84613750D01*
X315937250Y-84772500D01*
X316686500Y-84772500D01*
X316686500Y-84048250D01*
X316527750Y-83889500D01*
X316350958Y-83889500D01*
X316228277Y-83913903D01*
X316112715Y-83961770D01*
X316008711Y-84031263D01*
X315920263Y-84119711D01*
X315850770Y-84223715D01*
X315802903Y-84339277D01*
X315778500Y-84461958D01*
X314261500Y-84461958D01*
X314261500Y-84362298D01*
X314264878Y-84328000D01*
X314261500Y-84293702D01*
X314261500Y-84293691D01*
X314251393Y-84191070D01*
X314211452Y-84059403D01*
X314146591Y-83938057D01*
X314106741Y-83889500D01*
X314081174Y-83858347D01*
X314081171Y-83858344D01*
X314059302Y-83831697D01*
X314032656Y-83809829D01*
X314019500Y-83796673D01*
X314019500Y-83674435D01*
X314120215Y-83741730D01*
X314235777Y-83789597D01*
X314358458Y-83814000D01*
X314535250Y-83814000D01*
X314694000Y-83655250D01*
X314694000Y-82931000D01*
X314948000Y-82931000D01*
X314948000Y-83655250D01*
X315106750Y-83814000D01*
X315283542Y-83814000D01*
X315406223Y-83789597D01*
X315521785Y-83741730D01*
X315625789Y-83672237D01*
X315714237Y-83583789D01*
X315783730Y-83479785D01*
X315831597Y-83364223D01*
X315856000Y-83241542D01*
X315856000Y-83089750D01*
X315697250Y-82931000D01*
X314948000Y-82931000D01*
X314694000Y-82931000D01*
X314674000Y-82931000D01*
X314674000Y-82677000D01*
X314694000Y-82677000D01*
X314694000Y-82657000D01*
X314948000Y-82657000D01*
X314948000Y-82677000D01*
X315697250Y-82677000D01*
X315856000Y-82518250D01*
X315856000Y-82366458D01*
X315831597Y-82243777D01*
X315783730Y-82128215D01*
X315714237Y-82024211D01*
X315642482Y-81952456D01*
X315671148Y-81883250D01*
X321341750Y-81883250D01*
X321341750Y-95916750D01*
X321341750Y-95916750D01*
G37*
X321341750Y-95916750D02*
X315087000Y-95916750D01*
X315087000Y-91852189D01*
X315090072Y-91821000D01*
X315087000Y-91789808D01*
X315077812Y-91696518D01*
X315041502Y-91576820D01*
X315021531Y-91539457D01*
X314982538Y-91466506D01*
X314923069Y-91394043D01*
X314923065Y-91394039D01*
X314903185Y-91369815D01*
X314878962Y-91349936D01*
X313318024Y-89789000D01*
X313426975Y-89789000D01*
X313937934Y-90299960D01*
X313957815Y-90324185D01*
X313982039Y-90344065D01*
X313982043Y-90344069D01*
X314054506Y-90403538D01*
X314164820Y-90462502D01*
X314284518Y-90498812D01*
X314377808Y-90508000D01*
X314377811Y-90508000D01*
X314409000Y-90511072D01*
X314440189Y-90508000D01*
X315603043Y-90508000D01*
X315603043Y-90573000D01*
X315612851Y-90672585D01*
X315641899Y-90768343D01*
X315689071Y-90856595D01*
X315752552Y-90933948D01*
X315829905Y-90997429D01*
X315918157Y-91044601D01*
X316013915Y-91073649D01*
X316113500Y-91083457D01*
X316178501Y-91083457D01*
X316178500Y-91884596D01*
X316129905Y-91910571D01*
X316052552Y-91974052D01*
X315989071Y-92051405D01*
X315941899Y-92139657D01*
X315912851Y-92235415D01*
X315903043Y-92335000D01*
X315903043Y-93085000D01*
X315912851Y-93184585D01*
X315941899Y-93280343D01*
X315989071Y-93368595D01*
X316052552Y-93445948D01*
X316129905Y-93509429D01*
X316218157Y-93556601D01*
X316313915Y-93585649D01*
X316413500Y-93595457D01*
X317213500Y-93595457D01*
X317313085Y-93585649D01*
X317408843Y-93556601D01*
X317459825Y-93529351D01*
X317508711Y-93578237D01*
X317612715Y-93647730D01*
X317728277Y-93695597D01*
X317850958Y-93720000D01*
X318027750Y-93720000D01*
X318186500Y-93561250D01*
X318186500Y-92837000D01*
X318440500Y-92837000D01*
X318440500Y-93561250D01*
X318599250Y-93720000D01*
X318776042Y-93720000D01*
X318898723Y-93695597D01*
X319014285Y-93647730D01*
X319118289Y-93578237D01*
X319206737Y-93489789D01*
X319276230Y-93385785D01*
X319324097Y-93270223D01*
X319348500Y-93147542D01*
X319348500Y-92995750D01*
X319189750Y-92837000D01*
X318440500Y-92837000D01*
X318186500Y-92837000D01*
X318166500Y-92837000D01*
X318166500Y-92583000D01*
X318186500Y-92583000D01*
X318186500Y-91858750D01*
X318440500Y-91858750D01*
X318440500Y-92583000D01*
X319189750Y-92583000D01*
X319348500Y-92424250D01*
X319348500Y-92272458D01*
X319324097Y-92149777D01*
X319276230Y-92034215D01*
X319206737Y-91930211D01*
X319118289Y-91841763D01*
X319014285Y-91772270D01*
X318898723Y-91724403D01*
X318776042Y-91700000D01*
X318599250Y-91700000D01*
X318440500Y-91858750D01*
X318186500Y-91858750D01*
X318027750Y-91700000D01*
X317850958Y-91700000D01*
X317728277Y-91724403D01*
X317612715Y-91772270D01*
X317508711Y-91841763D01*
X317459825Y-91890649D01*
X317448500Y-91884596D01*
X317448500Y-91092823D01*
X317512715Y-91135730D01*
X317628277Y-91183597D01*
X317750958Y-91208000D01*
X318127750Y-91208000D01*
X318286500Y-91049250D01*
X318286500Y-90000000D01*
X318540500Y-90000000D01*
X318540500Y-91049250D01*
X318699250Y-91208000D01*
X319076042Y-91208000D01*
X319198723Y-91183597D01*
X319314285Y-91135730D01*
X319418289Y-91066237D01*
X319506737Y-90977789D01*
X319576230Y-90873785D01*
X319624097Y-90758223D01*
X319648500Y-90635542D01*
X319648500Y-90158750D01*
X319489750Y-90000000D01*
X318540500Y-90000000D01*
X318286500Y-90000000D01*
X318266500Y-90000000D01*
X318266500Y-89746000D01*
X318286500Y-89746000D01*
X318286500Y-89726000D01*
X318540500Y-89726000D01*
X318540500Y-89746000D01*
X319489750Y-89746000D01*
X319648500Y-89587250D01*
X319648500Y-89110458D01*
X319624097Y-88987777D01*
X319576230Y-88872215D01*
X319506737Y-88768211D01*
X319418633Y-88680107D01*
X319437929Y-88656595D01*
X319485101Y-88568343D01*
X319514149Y-88472585D01*
X319523957Y-88373000D01*
X319523957Y-86973000D01*
X319514149Y-86873415D01*
X319485101Y-86777657D01*
X319437929Y-86689405D01*
X319374448Y-86612052D01*
X319297095Y-86548571D01*
X319208843Y-86501399D01*
X319113085Y-86472351D01*
X319013500Y-86462543D01*
X318948500Y-86462543D01*
X318948500Y-85724904D01*
X318997095Y-85698929D01*
X319074448Y-85635448D01*
X319137929Y-85558095D01*
X319185101Y-85469843D01*
X319214149Y-85374085D01*
X319223957Y-85274500D01*
X319223957Y-84524500D01*
X319214149Y-84424915D01*
X319185101Y-84329157D01*
X319137929Y-84240905D01*
X319074448Y-84163552D01*
X318997095Y-84100071D01*
X318908843Y-84052899D01*
X318813085Y-84023851D01*
X318713500Y-84014043D01*
X317913500Y-84014043D01*
X317813915Y-84023851D01*
X317718157Y-84052899D01*
X317667175Y-84080149D01*
X317618289Y-84031263D01*
X317514285Y-83961770D01*
X317398723Y-83913903D01*
X317276042Y-83889500D01*
X317099250Y-83889500D01*
X316940500Y-84048250D01*
X316940500Y-84772500D01*
X316960500Y-84772500D01*
X316960500Y-85026500D01*
X316940500Y-85026500D01*
X316940500Y-85046500D01*
X316686500Y-85046500D01*
X316686500Y-85026500D01*
X315937250Y-85026500D01*
X315778500Y-85185250D01*
X315778500Y-85337042D01*
X315802903Y-85459723D01*
X315850770Y-85575285D01*
X315920263Y-85679289D01*
X315965974Y-85725000D01*
X315753189Y-85725000D01*
X315722000Y-85721928D01*
X315690811Y-85725000D01*
X315690808Y-85725000D01*
X315597518Y-85734188D01*
X315486922Y-85767737D01*
X315477820Y-85770498D01*
X315367506Y-85829462D01*
X315338303Y-85853429D01*
X315270815Y-85908815D01*
X315250930Y-85933045D01*
X313464976Y-87719000D01*
X312907250Y-87719000D01*
X312869250Y-87681000D01*
X312864500Y-87681000D01*
X312864500Y-87448345D01*
X312924930Y-87442393D01*
X313056597Y-87402452D01*
X313177943Y-87337591D01*
X313284303Y-87250303D01*
X313306175Y-87223652D01*
X314032657Y-86497171D01*
X314059303Y-86475303D01*
X314081171Y-86448657D01*
X314081174Y-86448654D01*
X314146591Y-86368943D01*
X314178902Y-86308493D01*
X314211452Y-86247597D01*
X314251393Y-86115930D01*
X314261500Y-86013309D01*
X314261500Y-86013298D01*
X314264878Y-85979000D01*
X314261500Y-85944702D01*
X314261500Y-84461958D01*
X315778500Y-84461958D01*
X315778500Y-84613750D01*
X315937250Y-84772500D01*
X316686500Y-84772500D01*
X316686500Y-84048250D01*
X316527750Y-83889500D01*
X316350958Y-83889500D01*
X316228277Y-83913903D01*
X316112715Y-83961770D01*
X316008711Y-84031263D01*
X315920263Y-84119711D01*
X315850770Y-84223715D01*
X315802903Y-84339277D01*
X315778500Y-84461958D01*
X314261500Y-84461958D01*
X314261500Y-84362298D01*
X314264878Y-84328000D01*
X314261500Y-84293702D01*
X314261500Y-84293691D01*
X314251393Y-84191070D01*
X314211452Y-84059403D01*
X314146591Y-83938057D01*
X314106741Y-83889500D01*
X314081174Y-83858347D01*
X314081171Y-83858344D01*
X314059302Y-83831697D01*
X314032656Y-83809829D01*
X314019500Y-83796673D01*
X314019500Y-83674435D01*
X314120215Y-83741730D01*
X314235777Y-83789597D01*
X314358458Y-83814000D01*
X314535250Y-83814000D01*
X314694000Y-83655250D01*
X314694000Y-82931000D01*
X314948000Y-82931000D01*
X314948000Y-83655250D01*
X315106750Y-83814000D01*
X315283542Y-83814000D01*
X315406223Y-83789597D01*
X315521785Y-83741730D01*
X315625789Y-83672237D01*
X315714237Y-83583789D01*
X315783730Y-83479785D01*
X315831597Y-83364223D01*
X315856000Y-83241542D01*
X315856000Y-83089750D01*
X315697250Y-82931000D01*
X314948000Y-82931000D01*
X314694000Y-82931000D01*
X314674000Y-82931000D01*
X314674000Y-82677000D01*
X314694000Y-82677000D01*
X314694000Y-82657000D01*
X314948000Y-82657000D01*
X314948000Y-82677000D01*
X315697250Y-82677000D01*
X315856000Y-82518250D01*
X315856000Y-82366458D01*
X315831597Y-82243777D01*
X315783730Y-82128215D01*
X315714237Y-82024211D01*
X315642482Y-81952456D01*
X315671148Y-81883250D01*
X321341750Y-81883250D01*
X321341750Y-95916750D01*
G36*
X315637250Y-87546000D02*
X316586500Y-87546000D01*
X316586500Y-87526000D01*
X316840500Y-87526000D01*
X316840500Y-87546000D01*
X316860500Y-87546000D01*
X316860500Y-87800000D01*
X316840500Y-87800000D01*
X316840500Y-87820000D01*
X316586500Y-87820000D01*
X316586500Y-87800000D01*
X315637250Y-87800000D01*
X315478500Y-87958750D01*
X315478500Y-88435542D01*
X315502903Y-88558223D01*
X315550770Y-88673785D01*
X315620263Y-88777789D01*
X315708367Y-88865893D01*
X315689071Y-88889405D01*
X315641899Y-88977657D01*
X315612851Y-89073415D01*
X315603043Y-89173000D01*
X315603043Y-89238000D01*
X314672025Y-89238000D01*
X314207024Y-88773000D01*
X315535637Y-87444387D01*
X315637250Y-87546000D01*
X315637250Y-87546000D01*
G37*
X315637250Y-87546000D02*
X316586500Y-87546000D01*
X316586500Y-87526000D01*
X316840500Y-87526000D01*
X316840500Y-87546000D01*
X316860500Y-87546000D01*
X316860500Y-87800000D01*
X316840500Y-87800000D01*
X316840500Y-87820000D01*
X316586500Y-87820000D01*
X316586500Y-87800000D01*
X315637250Y-87800000D01*
X315478500Y-87958750D01*
X315478500Y-88435542D01*
X315502903Y-88558223D01*
X315550770Y-88673785D01*
X315620263Y-88777789D01*
X315708367Y-88865893D01*
X315689071Y-88889405D01*
X315641899Y-88977657D01*
X315612851Y-89073415D01*
X315603043Y-89173000D01*
X315603043Y-89238000D01*
X314672025Y-89238000D01*
X314207024Y-88773000D01*
X315535637Y-87444387D01*
X315637250Y-87546000D01*
G04 #@! TD*
M02*
