G04 #@! TF.GenerationSoftware,KiCad,Pcbnew,(5.0.0)*
G04 #@! TF.CreationDate,2019-01-11T00:29:23-08:00*
G04 #@! TF.ProjectId,Celestine,43656C657374696E652E6B696361645F,rev?*
G04 #@! TF.SameCoordinates,Original*
G04 #@! TF.FileFunction,Soldermask,Top*
G04 #@! TF.FilePolarity,Negative*
%FSLAX46Y46*%
G04 Gerber Fmt 4.6, Leading zero omitted, Abs format (unit mm)*
G04 Created by KiCad (PCBNEW (5.0.0)) date 01/11/19 00:29:23*
%MOMM*%
%LPD*%
G01*
G04 APERTURE LIST*
%ADD10C,0.010000*%
%ADD11O,1.400000X2.000000*%
%ADD12O,1.400000X2.500000*%
%ADD13C,1.050000*%
%ADD14C,1.800000*%
G04 APERTURE END LIST*
D10*
G04 #@! TO.C,G\002A\002A\002A*
G36*
X44640500Y-100520500D02*
X44235688Y-100520500D01*
X44235688Y-100115688D01*
X44640500Y-100115688D01*
X44640500Y-100520500D01*
X44640500Y-100520500D01*
G37*
X44640500Y-100520500D02*
X44235688Y-100520500D01*
X44235688Y-100115688D01*
X44640500Y-100115688D01*
X44640500Y-100520500D01*
G36*
X45045313Y-101306313D02*
X44640500Y-101306313D01*
X44640500Y-100925313D01*
X45045313Y-100925313D01*
X45045313Y-101306313D01*
X45045313Y-101306313D01*
G37*
X45045313Y-101306313D02*
X44640500Y-101306313D01*
X44640500Y-100925313D01*
X45045313Y-100925313D01*
X45045313Y-101306313D01*
G36*
X44235688Y-101306313D02*
X43854688Y-101306313D01*
X43854688Y-100925313D01*
X44235688Y-100925313D01*
X44235688Y-101306313D01*
X44235688Y-101306313D01*
G37*
X44235688Y-101306313D02*
X43854688Y-101306313D01*
X43854688Y-100925313D01*
X44235688Y-100925313D01*
X44235688Y-101306313D01*
G36*
X45426313Y-102115938D02*
X45045313Y-102115938D01*
X45045313Y-101711125D01*
X45426313Y-101711125D01*
X45426313Y-102115938D01*
X45426313Y-102115938D01*
G37*
X45426313Y-102115938D02*
X45045313Y-102115938D01*
X45045313Y-101711125D01*
X45426313Y-101711125D01*
X45426313Y-102115938D01*
G36*
X44640500Y-102115938D02*
X44235688Y-102115938D01*
X44235688Y-101711125D01*
X44640500Y-101711125D01*
X44640500Y-102115938D01*
X44640500Y-102115938D01*
G37*
X44640500Y-102115938D02*
X44235688Y-102115938D01*
X44235688Y-101711125D01*
X44640500Y-101711125D01*
X44640500Y-102115938D01*
G36*
X43854688Y-102115938D02*
X43449875Y-102115938D01*
X43449875Y-101711125D01*
X43854688Y-101711125D01*
X43854688Y-102115938D01*
X43854688Y-102115938D01*
G37*
X43854688Y-102115938D02*
X43449875Y-102115938D01*
X43449875Y-101711125D01*
X43854688Y-101711125D01*
X43854688Y-102115938D01*
G36*
X45831125Y-102901750D02*
X45426313Y-102901750D01*
X45426313Y-102496938D01*
X45831125Y-102496938D01*
X45831125Y-102901750D01*
X45831125Y-102901750D01*
G37*
X45831125Y-102901750D02*
X45426313Y-102901750D01*
X45426313Y-102496938D01*
X45831125Y-102496938D01*
X45831125Y-102901750D01*
G36*
X43449875Y-102901750D02*
X43045063Y-102901750D01*
X43045063Y-102496938D01*
X43449875Y-102496938D01*
X43449875Y-102901750D01*
X43449875Y-102901750D01*
G37*
X43449875Y-102901750D02*
X43045063Y-102901750D01*
X43045063Y-102496938D01*
X43449875Y-102496938D01*
X43449875Y-102901750D01*
G36*
X44453969Y-98628045D02*
X44578087Y-98629415D01*
X44689799Y-98633572D01*
X44792392Y-98640919D01*
X44889156Y-98651860D01*
X44983378Y-98666798D01*
X45078347Y-98686137D01*
X45177351Y-98710281D01*
X45222630Y-98722418D01*
X45431177Y-98787656D01*
X45633265Y-98866992D01*
X45828128Y-98960028D01*
X46014999Y-99066368D01*
X46193114Y-99185616D01*
X46345260Y-99303617D01*
X46502928Y-99444342D01*
X46650265Y-99595787D01*
X46786586Y-99756885D01*
X46911208Y-99926567D01*
X47023447Y-100103766D01*
X47122620Y-100287416D01*
X47208042Y-100476447D01*
X47279030Y-100669793D01*
X47327784Y-100837803D01*
X47360855Y-100977789D01*
X47386215Y-101109725D01*
X47404607Y-101238997D01*
X47416775Y-101370993D01*
X47423461Y-101511100D01*
X47424114Y-101536500D01*
X47421395Y-101754797D01*
X47403200Y-101969580D01*
X47369535Y-102180821D01*
X47320406Y-102388489D01*
X47255819Y-102592555D01*
X47191622Y-102756487D01*
X47163539Y-102821752D01*
X47139477Y-102875910D01*
X47117608Y-102922613D01*
X47096107Y-102965513D01*
X47073146Y-103008263D01*
X47046900Y-103054515D01*
X47017775Y-103104156D01*
X46898556Y-103290427D01*
X46768452Y-103465153D01*
X46627329Y-103628465D01*
X46475055Y-103780496D01*
X46311497Y-103921380D01*
X46136524Y-104051248D01*
X45954156Y-104167775D01*
X45901327Y-104198744D01*
X45855414Y-104224721D01*
X45812765Y-104247531D01*
X45769728Y-104269001D01*
X45722651Y-104290957D01*
X45667881Y-104315225D01*
X45606487Y-104341622D01*
X45510254Y-104381169D01*
X45421536Y-104414208D01*
X45334422Y-104442695D01*
X45242998Y-104468589D01*
X45160406Y-104489322D01*
X44995890Y-104524876D01*
X44838795Y-104550553D01*
X44684567Y-104566893D01*
X44528649Y-104574436D01*
X44438094Y-104575013D01*
X44386875Y-104574498D01*
X44338754Y-104573793D01*
X44296874Y-104572960D01*
X44264378Y-104572063D01*
X44244410Y-104571165D01*
X44243625Y-104571109D01*
X44027451Y-104547157D01*
X43814694Y-104508170D01*
X43606213Y-104454467D01*
X43402868Y-104386363D01*
X43205516Y-104304176D01*
X43015018Y-104208225D01*
X42832232Y-104098826D01*
X42681276Y-103993796D01*
X42508349Y-103855449D01*
X42347665Y-103707088D01*
X42199451Y-103549039D01*
X42063929Y-103381632D01*
X41941324Y-103205194D01*
X41831861Y-103020052D01*
X41735763Y-102826535D01*
X41653256Y-102624971D01*
X41584563Y-102415688D01*
X41572418Y-102372630D01*
X41546052Y-102270835D01*
X41524667Y-102174511D01*
X41507859Y-102080367D01*
X41495225Y-101985117D01*
X41486360Y-101885470D01*
X41480862Y-101778140D01*
X41478326Y-101659836D01*
X41478045Y-101603969D01*
X41478720Y-101548608D01*
X42010794Y-101548608D01*
X42010897Y-101628746D01*
X42012563Y-101708410D01*
X42015759Y-101783537D01*
X42020456Y-101850060D01*
X42024176Y-101885750D01*
X42056050Y-102083048D01*
X42102701Y-102274663D01*
X42163951Y-102460222D01*
X42239619Y-102639349D01*
X42329527Y-102811669D01*
X42433494Y-102976809D01*
X42551341Y-103134393D01*
X42682888Y-103284047D01*
X42705224Y-103307260D01*
X42839458Y-103434334D01*
X42985160Y-103552270D01*
X43139631Y-103659090D01*
X43300169Y-103752816D01*
X43345958Y-103776504D01*
X43420366Y-103813153D01*
X43485607Y-103843372D01*
X43546104Y-103868940D01*
X43606278Y-103891634D01*
X43670551Y-103913233D01*
X43735625Y-103933227D01*
X43924838Y-103982640D01*
X44110589Y-104017091D01*
X44294327Y-104036714D01*
X44477503Y-104041642D01*
X44661564Y-104032011D01*
X44728106Y-104025031D01*
X44915438Y-103996087D01*
X45095019Y-103954278D01*
X45269357Y-103898854D01*
X45440959Y-103829064D01*
X45537916Y-103782866D01*
X45708548Y-103689447D01*
X45867964Y-103585712D01*
X46016922Y-103470974D01*
X46156179Y-103344550D01*
X46286494Y-103205754D01*
X46408624Y-103053903D01*
X46516892Y-102898259D01*
X46542018Y-102857068D01*
X46571341Y-102804940D01*
X46603041Y-102745496D01*
X46635299Y-102682356D01*
X46666293Y-102619140D01*
X46694206Y-102559467D01*
X46717215Y-102506957D01*
X46730653Y-102473125D01*
X46793520Y-102281584D01*
X46840916Y-102088845D01*
X46872800Y-101895450D01*
X46889130Y-101701940D01*
X46889868Y-101508857D01*
X46874972Y-101316742D01*
X46844402Y-101126136D01*
X46834599Y-101080094D01*
X46800950Y-100943801D01*
X46762642Y-100817618D01*
X46717704Y-100696007D01*
X46664163Y-100573432D01*
X46626504Y-100495958D01*
X46532799Y-100327110D01*
X46425974Y-100166673D01*
X46306798Y-100015368D01*
X46176037Y-99873914D01*
X46034460Y-99743031D01*
X45882834Y-99623440D01*
X45721927Y-99515860D01*
X45552507Y-99421011D01*
X45408325Y-99353480D01*
X45236697Y-99287085D01*
X45064143Y-99235087D01*
X44888656Y-99197078D01*
X44708226Y-99172651D01*
X44520845Y-99161397D01*
X44457938Y-99160507D01*
X44259843Y-99166877D01*
X44068215Y-99187522D01*
X43882281Y-99222673D01*
X43701265Y-99272567D01*
X43524394Y-99337435D01*
X43350894Y-99417513D01*
X43179991Y-99513035D01*
X43079294Y-99577244D01*
X42939861Y-99678772D01*
X42805663Y-99793278D01*
X42678341Y-99918839D01*
X42559535Y-100053531D01*
X42450886Y-100195431D01*
X42354035Y-100342615D01*
X42270622Y-100493161D01*
X42235826Y-100566080D01*
X42174423Y-100710939D01*
X42124192Y-100850178D01*
X42083935Y-100988126D01*
X42052456Y-101129114D01*
X42028556Y-101277471D01*
X42020155Y-101346000D01*
X42015392Y-101403170D01*
X42012282Y-101472061D01*
X42010794Y-101548608D01*
X41478720Y-101548608D01*
X41479790Y-101460973D01*
X41485664Y-101330106D01*
X41496238Y-101208025D01*
X41512085Y-101091385D01*
X41533777Y-100976844D01*
X41561887Y-100861059D01*
X41596986Y-100740687D01*
X41639647Y-100612384D01*
X41655341Y-100568125D01*
X41733726Y-100373406D01*
X41826566Y-100185072D01*
X41933672Y-100003385D01*
X42054852Y-99828608D01*
X42189917Y-99661003D01*
X42338674Y-99500833D01*
X42500933Y-99348360D01*
X42607771Y-99258179D01*
X42693600Y-99192686D01*
X42791139Y-99125360D01*
X42896748Y-99058412D01*
X43006786Y-98994055D01*
X43117613Y-98934500D01*
X43225589Y-98881958D01*
X43231594Y-98879215D01*
X43301554Y-98849342D01*
X43382735Y-98817956D01*
X43470767Y-98786536D01*
X43561279Y-98756562D01*
X43649901Y-98729511D01*
X43732264Y-98706864D01*
X43764150Y-98698971D01*
X43857375Y-98678203D01*
X43946349Y-98661543D01*
X44034353Y-98648652D01*
X44124669Y-98639195D01*
X44220578Y-98632832D01*
X44325360Y-98629228D01*
X44442295Y-98628044D01*
X44453969Y-98628045D01*
X44453969Y-98628045D01*
G37*
X44453969Y-98628045D02*
X44578087Y-98629415D01*
X44689799Y-98633572D01*
X44792392Y-98640919D01*
X44889156Y-98651860D01*
X44983378Y-98666798D01*
X45078347Y-98686137D01*
X45177351Y-98710281D01*
X45222630Y-98722418D01*
X45431177Y-98787656D01*
X45633265Y-98866992D01*
X45828128Y-98960028D01*
X46014999Y-99066368D01*
X46193114Y-99185616D01*
X46345260Y-99303617D01*
X46502928Y-99444342D01*
X46650265Y-99595787D01*
X46786586Y-99756885D01*
X46911208Y-99926567D01*
X47023447Y-100103766D01*
X47122620Y-100287416D01*
X47208042Y-100476447D01*
X47279030Y-100669793D01*
X47327784Y-100837803D01*
X47360855Y-100977789D01*
X47386215Y-101109725D01*
X47404607Y-101238997D01*
X47416775Y-101370993D01*
X47423461Y-101511100D01*
X47424114Y-101536500D01*
X47421395Y-101754797D01*
X47403200Y-101969580D01*
X47369535Y-102180821D01*
X47320406Y-102388489D01*
X47255819Y-102592555D01*
X47191622Y-102756487D01*
X47163539Y-102821752D01*
X47139477Y-102875910D01*
X47117608Y-102922613D01*
X47096107Y-102965513D01*
X47073146Y-103008263D01*
X47046900Y-103054515D01*
X47017775Y-103104156D01*
X46898556Y-103290427D01*
X46768452Y-103465153D01*
X46627329Y-103628465D01*
X46475055Y-103780496D01*
X46311497Y-103921380D01*
X46136524Y-104051248D01*
X45954156Y-104167775D01*
X45901327Y-104198744D01*
X45855414Y-104224721D01*
X45812765Y-104247531D01*
X45769728Y-104269001D01*
X45722651Y-104290957D01*
X45667881Y-104315225D01*
X45606487Y-104341622D01*
X45510254Y-104381169D01*
X45421536Y-104414208D01*
X45334422Y-104442695D01*
X45242998Y-104468589D01*
X45160406Y-104489322D01*
X44995890Y-104524876D01*
X44838795Y-104550553D01*
X44684567Y-104566893D01*
X44528649Y-104574436D01*
X44438094Y-104575013D01*
X44386875Y-104574498D01*
X44338754Y-104573793D01*
X44296874Y-104572960D01*
X44264378Y-104572063D01*
X44244410Y-104571165D01*
X44243625Y-104571109D01*
X44027451Y-104547157D01*
X43814694Y-104508170D01*
X43606213Y-104454467D01*
X43402868Y-104386363D01*
X43205516Y-104304176D01*
X43015018Y-104208225D01*
X42832232Y-104098826D01*
X42681276Y-103993796D01*
X42508349Y-103855449D01*
X42347665Y-103707088D01*
X42199451Y-103549039D01*
X42063929Y-103381632D01*
X41941324Y-103205194D01*
X41831861Y-103020052D01*
X41735763Y-102826535D01*
X41653256Y-102624971D01*
X41584563Y-102415688D01*
X41572418Y-102372630D01*
X41546052Y-102270835D01*
X41524667Y-102174511D01*
X41507859Y-102080367D01*
X41495225Y-101985117D01*
X41486360Y-101885470D01*
X41480862Y-101778140D01*
X41478326Y-101659836D01*
X41478045Y-101603969D01*
X41478720Y-101548608D01*
X42010794Y-101548608D01*
X42010897Y-101628746D01*
X42012563Y-101708410D01*
X42015759Y-101783537D01*
X42020456Y-101850060D01*
X42024176Y-101885750D01*
X42056050Y-102083048D01*
X42102701Y-102274663D01*
X42163951Y-102460222D01*
X42239619Y-102639349D01*
X42329527Y-102811669D01*
X42433494Y-102976809D01*
X42551341Y-103134393D01*
X42682888Y-103284047D01*
X42705224Y-103307260D01*
X42839458Y-103434334D01*
X42985160Y-103552270D01*
X43139631Y-103659090D01*
X43300169Y-103752816D01*
X43345958Y-103776504D01*
X43420366Y-103813153D01*
X43485607Y-103843372D01*
X43546104Y-103868940D01*
X43606278Y-103891634D01*
X43670551Y-103913233D01*
X43735625Y-103933227D01*
X43924838Y-103982640D01*
X44110589Y-104017091D01*
X44294327Y-104036714D01*
X44477503Y-104041642D01*
X44661564Y-104032011D01*
X44728106Y-104025031D01*
X44915438Y-103996087D01*
X45095019Y-103954278D01*
X45269357Y-103898854D01*
X45440959Y-103829064D01*
X45537916Y-103782866D01*
X45708548Y-103689447D01*
X45867964Y-103585712D01*
X46016922Y-103470974D01*
X46156179Y-103344550D01*
X46286494Y-103205754D01*
X46408624Y-103053903D01*
X46516892Y-102898259D01*
X46542018Y-102857068D01*
X46571341Y-102804940D01*
X46603041Y-102745496D01*
X46635299Y-102682356D01*
X46666293Y-102619140D01*
X46694206Y-102559467D01*
X46717215Y-102506957D01*
X46730653Y-102473125D01*
X46793520Y-102281584D01*
X46840916Y-102088845D01*
X46872800Y-101895450D01*
X46889130Y-101701940D01*
X46889868Y-101508857D01*
X46874972Y-101316742D01*
X46844402Y-101126136D01*
X46834599Y-101080094D01*
X46800950Y-100943801D01*
X46762642Y-100817618D01*
X46717704Y-100696007D01*
X46664163Y-100573432D01*
X46626504Y-100495958D01*
X46532799Y-100327110D01*
X46425974Y-100166673D01*
X46306798Y-100015368D01*
X46176037Y-99873914D01*
X46034460Y-99743031D01*
X45882834Y-99623440D01*
X45721927Y-99515860D01*
X45552507Y-99421011D01*
X45408325Y-99353480D01*
X45236697Y-99287085D01*
X45064143Y-99235087D01*
X44888656Y-99197078D01*
X44708226Y-99172651D01*
X44520845Y-99161397D01*
X44457938Y-99160507D01*
X44259843Y-99166877D01*
X44068215Y-99187522D01*
X43882281Y-99222673D01*
X43701265Y-99272567D01*
X43524394Y-99337435D01*
X43350894Y-99417513D01*
X43179991Y-99513035D01*
X43079294Y-99577244D01*
X42939861Y-99678772D01*
X42805663Y-99793278D01*
X42678341Y-99918839D01*
X42559535Y-100053531D01*
X42450886Y-100195431D01*
X42354035Y-100342615D01*
X42270622Y-100493161D01*
X42235826Y-100566080D01*
X42174423Y-100710939D01*
X42124192Y-100850178D01*
X42083935Y-100988126D01*
X42052456Y-101129114D01*
X42028556Y-101277471D01*
X42020155Y-101346000D01*
X42015392Y-101403170D01*
X42012282Y-101472061D01*
X42010794Y-101548608D01*
X41478720Y-101548608D01*
X41479790Y-101460973D01*
X41485664Y-101330106D01*
X41496238Y-101208025D01*
X41512085Y-101091385D01*
X41533777Y-100976844D01*
X41561887Y-100861059D01*
X41596986Y-100740687D01*
X41639647Y-100612384D01*
X41655341Y-100568125D01*
X41733726Y-100373406D01*
X41826566Y-100185072D01*
X41933672Y-100003385D01*
X42054852Y-99828608D01*
X42189917Y-99661003D01*
X42338674Y-99500833D01*
X42500933Y-99348360D01*
X42607771Y-99258179D01*
X42693600Y-99192686D01*
X42791139Y-99125360D01*
X42896748Y-99058412D01*
X43006786Y-98994055D01*
X43117613Y-98934500D01*
X43225589Y-98881958D01*
X43231594Y-98879215D01*
X43301554Y-98849342D01*
X43382735Y-98817956D01*
X43470767Y-98786536D01*
X43561279Y-98756562D01*
X43649901Y-98729511D01*
X43732264Y-98706864D01*
X43764150Y-98698971D01*
X43857375Y-98678203D01*
X43946349Y-98661543D01*
X44034353Y-98648652D01*
X44124669Y-98639195D01*
X44220578Y-98632832D01*
X44325360Y-98629228D01*
X44442295Y-98628044D01*
X44453969Y-98628045D01*
G04 #@! TD*
D11*
G04 #@! TO.C,USB1*
X314454000Y98750D03*
X305814000Y98750D03*
D12*
X314454000Y-4081250D03*
X305814000Y-4081250D03*
D13*
X307244000Y-3551250D03*
X313024000Y-3551250D03*
G04 #@! TD*
D14*
G04 #@! TO.C,K_ENTER2*
X294005000Y-57025000D03*
G04 #@! TD*
G04 #@! TO.C,K_BACK1*
X285625000Y-31110000D03*
G04 #@! TD*
G04 #@! TO.C,K_SBACK2*
X282700000Y-36830000D03*
G04 #@! TD*
M02*
