G04 #@! TF.GenerationSoftware,KiCad,Pcbnew,(5.0.0)*
G04 #@! TF.CreationDate,2019-01-11T00:29:23-08:00*
G04 #@! TF.ProjectId,Celestine,43656C657374696E652E6B696361645F,rev?*
G04 #@! TF.SameCoordinates,Original*
G04 #@! TF.FileFunction,Legend,Top*
G04 #@! TF.FilePolarity,Positive*
%FSLAX46Y46*%
G04 Gerber Fmt 4.6, Leading zero omitted, Abs format (unit mm)*
G04 Created by KiCad (PCBNEW (5.0.0)) date 01/11/19 00:29:23*
%MOMM*%
%LPD*%
G01*
G04 APERTURE LIST*
%ADD10C,0.300000*%
%ADD11C,0.010000*%
%ADD12O,1.400000X2.000000*%
%ADD13O,1.400000X2.500000*%
%ADD14C,1.050000*%
%ADD15C,1.800000*%
G04 APERTURE END LIST*
D10*
X172347619Y-70068452D02*
X173776190Y-70068452D01*
X173061904Y-72568452D02*
X173061904Y-70068452D01*
X174609523Y-72568452D02*
X174609523Y-70068452D01*
X176038095Y-72568452D02*
X174966666Y-71139880D01*
X176038095Y-70068452D02*
X174609523Y-71497023D01*
X178299999Y-72568452D02*
X177109523Y-72568452D01*
X177109523Y-70068452D01*
X181038095Y-72568452D02*
X181038095Y-70068452D01*
X181990476Y-70068452D01*
X182228571Y-70187500D01*
X182347619Y-70306547D01*
X182466666Y-70544642D01*
X182466666Y-70901785D01*
X182347619Y-71139880D01*
X182228571Y-71258928D01*
X181990476Y-71377976D01*
X181038095Y-71377976D01*
X184966666Y-72330357D02*
X184847619Y-72449404D01*
X184490476Y-72568452D01*
X184252380Y-72568452D01*
X183895238Y-72449404D01*
X183657142Y-72211309D01*
X183538095Y-71973214D01*
X183419047Y-71497023D01*
X183419047Y-71139880D01*
X183538095Y-70663690D01*
X183657142Y-70425595D01*
X183895238Y-70187500D01*
X184252380Y-70068452D01*
X184490476Y-70068452D01*
X184847619Y-70187500D01*
X184966666Y-70306547D01*
X186871428Y-71258928D02*
X187228571Y-71377976D01*
X187347619Y-71497023D01*
X187466666Y-71735119D01*
X187466666Y-72092261D01*
X187347619Y-72330357D01*
X187228571Y-72449404D01*
X186990476Y-72568452D01*
X186038095Y-72568452D01*
X186038095Y-70068452D01*
X186871428Y-70068452D01*
X187109523Y-70187500D01*
X187228571Y-70306547D01*
X187347619Y-70544642D01*
X187347619Y-70782738D01*
X187228571Y-71020833D01*
X187109523Y-71139880D01*
X186871428Y-71258928D01*
X186038095Y-71258928D01*
X190085714Y-70901785D02*
X191038095Y-70901785D01*
X190442857Y-72568452D02*
X190442857Y-70425595D01*
X190561904Y-70187500D01*
X190799999Y-70068452D01*
X191038095Y-70068452D01*
X192228571Y-72568452D02*
X191990476Y-72449404D01*
X191871428Y-72330357D01*
X191752380Y-72092261D01*
X191752380Y-71377976D01*
X191871428Y-71139880D01*
X191990476Y-71020833D01*
X192228571Y-70901785D01*
X192585714Y-70901785D01*
X192823809Y-71020833D01*
X192942857Y-71139880D01*
X193061904Y-71377976D01*
X193061904Y-72092261D01*
X192942857Y-72330357D01*
X192823809Y-72449404D01*
X192585714Y-72568452D01*
X192228571Y-72568452D01*
X194133333Y-72568452D02*
X194133333Y-70901785D01*
X194133333Y-71377976D02*
X194252380Y-71139880D01*
X194371428Y-71020833D01*
X194609523Y-70901785D01*
X194847619Y-70901785D01*
X197585714Y-72568452D02*
X197585714Y-70068452D01*
X199014285Y-72568452D01*
X199014285Y-70068452D01*
X200204761Y-72568452D02*
X200204761Y-70068452D01*
X201038095Y-71854166D01*
X201871428Y-70068452D01*
X201871428Y-72568452D01*
X203895238Y-71258928D02*
X204252380Y-71377976D01*
X204371428Y-71497023D01*
X204490476Y-71735119D01*
X204490476Y-72092261D01*
X204371428Y-72330357D01*
X204252380Y-72449404D01*
X204014285Y-72568452D01*
X203061904Y-72568452D01*
X203061904Y-70068452D01*
X203895238Y-70068452D01*
X204133333Y-70187500D01*
X204252380Y-70306547D01*
X204371428Y-70544642D01*
X204371428Y-70782738D01*
X204252380Y-71020833D01*
X204133333Y-71139880D01*
X203895238Y-71258928D01*
X203061904Y-71258928D01*
X207466666Y-72568452D02*
X207466666Y-70068452D01*
X207466666Y-71258928D02*
X208895238Y-71258928D01*
X208895238Y-72568452D02*
X208895238Y-70068452D01*
X210085714Y-72568452D02*
X210085714Y-70901785D01*
X210085714Y-70068452D02*
X209966666Y-70187500D01*
X210085714Y-70306547D01*
X210204761Y-70187500D01*
X210085714Y-70068452D01*
X210085714Y-70306547D01*
X211276190Y-71616071D02*
X213180952Y-71616071D01*
X214014285Y-70068452D02*
X215442857Y-70068452D01*
X214728571Y-72568452D02*
X214728571Y-70068452D01*
X217228571Y-72449404D02*
X216990476Y-72568452D01*
X216514285Y-72568452D01*
X216276190Y-72449404D01*
X216157142Y-72211309D01*
X216157142Y-71258928D01*
X216276190Y-71020833D01*
X216514285Y-70901785D01*
X216990476Y-70901785D01*
X217228571Y-71020833D01*
X217347619Y-71258928D01*
X217347619Y-71497023D01*
X216157142Y-71735119D01*
X218419047Y-72568452D02*
X218419047Y-70068452D01*
X218657142Y-71616071D02*
X219371428Y-72568452D01*
X219371428Y-70901785D02*
X218419047Y-71854166D01*
X222109523Y-70068452D02*
X223776190Y-70068452D01*
X222704761Y-72568452D01*
X224609523Y-70306547D02*
X224728571Y-70187500D01*
X224966666Y-70068452D01*
X225561904Y-70068452D01*
X225799999Y-70187500D01*
X225919047Y-70306547D01*
X226038095Y-70544642D01*
X226038095Y-70782738D01*
X225919047Y-71139880D01*
X224490476Y-72568452D01*
X226038095Y-72568452D01*
X228299999Y-70068452D02*
X227109523Y-70068452D01*
X226990476Y-71258928D01*
X227109523Y-71139880D01*
X227347619Y-71020833D01*
X227942857Y-71020833D01*
X228180952Y-71139880D01*
X228299999Y-71258928D01*
X228419047Y-71497023D01*
X228419047Y-72092261D01*
X228299999Y-72330357D01*
X228180952Y-72449404D01*
X227942857Y-72568452D01*
X227347619Y-72568452D01*
X227109523Y-72449404D01*
X226990476Y-72330357D01*
X231276190Y-72449404D02*
X231633333Y-72568452D01*
X232228571Y-72568452D01*
X232466666Y-72449404D01*
X232585714Y-72330357D01*
X232704761Y-72092261D01*
X232704761Y-71854166D01*
X232585714Y-71616071D01*
X232466666Y-71497023D01*
X232228571Y-71377976D01*
X231752380Y-71258928D01*
X231514285Y-71139880D01*
X231395238Y-71020833D01*
X231276190Y-70782738D01*
X231276190Y-70544642D01*
X231395238Y-70306547D01*
X231514285Y-70187500D01*
X231752380Y-70068452D01*
X232347619Y-70068452D01*
X232704761Y-70187500D01*
X233538095Y-70901785D02*
X234014285Y-72568452D01*
X234490476Y-71377976D01*
X234966666Y-72568452D01*
X235442857Y-70901785D01*
X236395238Y-72568452D02*
X236395238Y-70901785D01*
X236395238Y-70068452D02*
X236276190Y-70187500D01*
X236395238Y-70306547D01*
X236514285Y-70187500D01*
X236395238Y-70068452D01*
X236395238Y-70306547D01*
X237228571Y-70901785D02*
X238180952Y-70901785D01*
X237585714Y-70068452D02*
X237585714Y-72211309D01*
X237704761Y-72449404D01*
X237942857Y-72568452D01*
X238180952Y-72568452D01*
X240085714Y-72449404D02*
X239847619Y-72568452D01*
X239371428Y-72568452D01*
X239133333Y-72449404D01*
X239014285Y-72330357D01*
X238895238Y-72092261D01*
X238895238Y-71377976D01*
X239014285Y-71139880D01*
X239133333Y-71020833D01*
X239371428Y-70901785D01*
X239847619Y-70901785D01*
X240085714Y-71020833D01*
X241157142Y-72568452D02*
X241157142Y-70068452D01*
X242228571Y-72568452D02*
X242228571Y-71258928D01*
X242109523Y-71020833D01*
X241871428Y-70901785D01*
X241514285Y-70901785D01*
X241276190Y-71020833D01*
X241157142Y-71139880D01*
X244371428Y-72449404D02*
X244133333Y-72568452D01*
X243657142Y-72568452D01*
X243419047Y-72449404D01*
X243299999Y-72211309D01*
X243299999Y-71258928D01*
X243419047Y-71020833D01*
X243657142Y-70901785D01*
X244133333Y-70901785D01*
X244371428Y-71020833D01*
X244490476Y-71258928D01*
X244490476Y-71497023D01*
X243299999Y-71735119D01*
X245442857Y-72449404D02*
X245680952Y-72568452D01*
X246157142Y-72568452D01*
X246395238Y-72449404D01*
X246514285Y-72211309D01*
X246514285Y-72092261D01*
X246395238Y-71854166D01*
X246157142Y-71735119D01*
X245799999Y-71735119D01*
X245561904Y-71616071D01*
X245442857Y-71377976D01*
X245442857Y-71258928D01*
X245561904Y-71020833D01*
X245799999Y-70901785D01*
X246157142Y-70901785D01*
X246395238Y-71020833D01*
D11*
G04 #@! TO.C,G\002A\002A\002A*
G36*
X165676440Y-57327119D02*
X166383260Y-57328070D01*
X166968806Y-57330149D01*
X167445013Y-57333763D01*
X167823816Y-57339316D01*
X168117149Y-57347214D01*
X168336947Y-57357862D01*
X168495145Y-57371665D01*
X168603677Y-57389029D01*
X168674477Y-57410359D01*
X168719481Y-57436060D01*
X168744538Y-57459607D01*
X168848855Y-57666188D01*
X168843002Y-57893129D01*
X168731928Y-58077645D01*
X168690443Y-58105321D01*
X168624290Y-58128434D01*
X168521171Y-58147388D01*
X168368787Y-58162587D01*
X168154841Y-58174434D01*
X167867033Y-58183333D01*
X167493066Y-58189688D01*
X167020641Y-58193902D01*
X166437459Y-58196379D01*
X165731221Y-58197523D01*
X165073007Y-58197750D01*
X164368306Y-58198633D01*
X163705884Y-58201168D01*
X163100291Y-58205176D01*
X162566077Y-58210483D01*
X162117791Y-58216912D01*
X161769982Y-58224287D01*
X161537201Y-58232433D01*
X161433997Y-58241172D01*
X161432007Y-58241800D01*
X161402313Y-58265973D01*
X161378153Y-58322434D01*
X161358971Y-58424679D01*
X161344211Y-58586207D01*
X161333317Y-58820511D01*
X161325732Y-59141090D01*
X161320901Y-59561440D01*
X161318268Y-60095057D01*
X161317276Y-60755437D01*
X161317214Y-61028035D01*
X161317749Y-61737573D01*
X161319725Y-62315467D01*
X161323697Y-62775214D01*
X161330221Y-63130310D01*
X161339855Y-63394252D01*
X161353153Y-63580536D01*
X161370672Y-63702659D01*
X161392968Y-63774117D01*
X161420596Y-63808407D01*
X161432007Y-63814271D01*
X161526243Y-63823298D01*
X161750606Y-63831703D01*
X162090077Y-63839293D01*
X162529641Y-63845876D01*
X163054280Y-63851259D01*
X163648979Y-63855252D01*
X164298720Y-63857662D01*
X164873966Y-63858321D01*
X165683585Y-63858360D01*
X166360015Y-63859424D01*
X166915208Y-63862933D01*
X167361117Y-63870310D01*
X167709694Y-63882973D01*
X167972893Y-63902345D01*
X168162665Y-63929845D01*
X168290965Y-63966895D01*
X168369744Y-64014916D01*
X168410955Y-64075328D01*
X168426552Y-64149551D01*
X168428486Y-64239008D01*
X168428103Y-64280790D01*
X168428744Y-64373765D01*
X168423914Y-64451613D01*
X168401752Y-64515809D01*
X168350396Y-64567828D01*
X168257986Y-64609145D01*
X168112660Y-64641233D01*
X167902558Y-64665568D01*
X167615816Y-64683624D01*
X167240576Y-64696876D01*
X166764975Y-64706798D01*
X166177151Y-64714866D01*
X165465245Y-64722553D01*
X164821469Y-64729178D01*
X161353500Y-64765464D01*
X161334646Y-68194464D01*
X161315793Y-71623464D01*
X164831494Y-71623464D01*
X165680237Y-71624110D01*
X166395709Y-71626527D01*
X166989773Y-71631433D01*
X167474298Y-71639544D01*
X167861150Y-71651579D01*
X168162194Y-71668254D01*
X168389297Y-71690287D01*
X168554325Y-71718396D01*
X168669145Y-71753297D01*
X168745623Y-71795709D01*
X168795626Y-71846349D01*
X168807626Y-71863861D01*
X168862353Y-72063175D01*
X168829791Y-72287448D01*
X168731928Y-72446788D01*
X168691552Y-72473733D01*
X168627079Y-72496336D01*
X168526570Y-72514960D01*
X168378088Y-72529966D01*
X168169695Y-72541716D01*
X167889451Y-72550573D01*
X167525421Y-72556900D01*
X167065664Y-72561057D01*
X166498244Y-72563409D01*
X165811221Y-72564316D01*
X164992659Y-72564142D01*
X164867500Y-72564052D01*
X163991737Y-72562634D01*
X163250476Y-72559645D01*
X162633081Y-72554816D01*
X162128916Y-72547881D01*
X161727348Y-72538573D01*
X161417739Y-72526625D01*
X161189455Y-72511770D01*
X161031860Y-72493741D01*
X160934319Y-72472271D01*
X160914474Y-72464814D01*
X160653560Y-72291766D01*
X160429431Y-72038802D01*
X160286095Y-71759385D01*
X160264948Y-71675756D01*
X160259042Y-71570247D01*
X160253833Y-71330192D01*
X160249351Y-70966189D01*
X160245630Y-70488833D01*
X160242701Y-69908722D01*
X160240597Y-69236452D01*
X160239350Y-68482619D01*
X160238992Y-67657819D01*
X160239556Y-66772649D01*
X160241072Y-65837706D01*
X160243575Y-64863585D01*
X160243917Y-64752620D01*
X160247526Y-63616785D01*
X160250920Y-62617096D01*
X160254324Y-61744554D01*
X160257966Y-60990163D01*
X160262069Y-60344926D01*
X160266861Y-59799845D01*
X160272565Y-59345924D01*
X160279408Y-58974165D01*
X160287615Y-58675572D01*
X160297412Y-58441147D01*
X160309025Y-58261893D01*
X160322678Y-58128813D01*
X160338598Y-58032910D01*
X160357010Y-57965186D01*
X160378139Y-57916645D01*
X160402211Y-57878290D01*
X160416744Y-57858335D01*
X160584182Y-57675380D01*
X160789034Y-57503727D01*
X160808476Y-57490178D01*
X161048393Y-57326892D01*
X164836413Y-57326892D01*
X165676440Y-57327119D01*
X165676440Y-57327119D01*
G37*
X165676440Y-57327119D02*
X166383260Y-57328070D01*
X166968806Y-57330149D01*
X167445013Y-57333763D01*
X167823816Y-57339316D01*
X168117149Y-57347214D01*
X168336947Y-57357862D01*
X168495145Y-57371665D01*
X168603677Y-57389029D01*
X168674477Y-57410359D01*
X168719481Y-57436060D01*
X168744538Y-57459607D01*
X168848855Y-57666188D01*
X168843002Y-57893129D01*
X168731928Y-58077645D01*
X168690443Y-58105321D01*
X168624290Y-58128434D01*
X168521171Y-58147388D01*
X168368787Y-58162587D01*
X168154841Y-58174434D01*
X167867033Y-58183333D01*
X167493066Y-58189688D01*
X167020641Y-58193902D01*
X166437459Y-58196379D01*
X165731221Y-58197523D01*
X165073007Y-58197750D01*
X164368306Y-58198633D01*
X163705884Y-58201168D01*
X163100291Y-58205176D01*
X162566077Y-58210483D01*
X162117791Y-58216912D01*
X161769982Y-58224287D01*
X161537201Y-58232433D01*
X161433997Y-58241172D01*
X161432007Y-58241800D01*
X161402313Y-58265973D01*
X161378153Y-58322434D01*
X161358971Y-58424679D01*
X161344211Y-58586207D01*
X161333317Y-58820511D01*
X161325732Y-59141090D01*
X161320901Y-59561440D01*
X161318268Y-60095057D01*
X161317276Y-60755437D01*
X161317214Y-61028035D01*
X161317749Y-61737573D01*
X161319725Y-62315467D01*
X161323697Y-62775214D01*
X161330221Y-63130310D01*
X161339855Y-63394252D01*
X161353153Y-63580536D01*
X161370672Y-63702659D01*
X161392968Y-63774117D01*
X161420596Y-63808407D01*
X161432007Y-63814271D01*
X161526243Y-63823298D01*
X161750606Y-63831703D01*
X162090077Y-63839293D01*
X162529641Y-63845876D01*
X163054280Y-63851259D01*
X163648979Y-63855252D01*
X164298720Y-63857662D01*
X164873966Y-63858321D01*
X165683585Y-63858360D01*
X166360015Y-63859424D01*
X166915208Y-63862933D01*
X167361117Y-63870310D01*
X167709694Y-63882973D01*
X167972893Y-63902345D01*
X168162665Y-63929845D01*
X168290965Y-63966895D01*
X168369744Y-64014916D01*
X168410955Y-64075328D01*
X168426552Y-64149551D01*
X168428486Y-64239008D01*
X168428103Y-64280790D01*
X168428744Y-64373765D01*
X168423914Y-64451613D01*
X168401752Y-64515809D01*
X168350396Y-64567828D01*
X168257986Y-64609145D01*
X168112660Y-64641233D01*
X167902558Y-64665568D01*
X167615816Y-64683624D01*
X167240576Y-64696876D01*
X166764975Y-64706798D01*
X166177151Y-64714866D01*
X165465245Y-64722553D01*
X164821469Y-64729178D01*
X161353500Y-64765464D01*
X161334646Y-68194464D01*
X161315793Y-71623464D01*
X164831494Y-71623464D01*
X165680237Y-71624110D01*
X166395709Y-71626527D01*
X166989773Y-71631433D01*
X167474298Y-71639544D01*
X167861150Y-71651579D01*
X168162194Y-71668254D01*
X168389297Y-71690287D01*
X168554325Y-71718396D01*
X168669145Y-71753297D01*
X168745623Y-71795709D01*
X168795626Y-71846349D01*
X168807626Y-71863861D01*
X168862353Y-72063175D01*
X168829791Y-72287448D01*
X168731928Y-72446788D01*
X168691552Y-72473733D01*
X168627079Y-72496336D01*
X168526570Y-72514960D01*
X168378088Y-72529966D01*
X168169695Y-72541716D01*
X167889451Y-72550573D01*
X167525421Y-72556900D01*
X167065664Y-72561057D01*
X166498244Y-72563409D01*
X165811221Y-72564316D01*
X164992659Y-72564142D01*
X164867500Y-72564052D01*
X163991737Y-72562634D01*
X163250476Y-72559645D01*
X162633081Y-72554816D01*
X162128916Y-72547881D01*
X161727348Y-72538573D01*
X161417739Y-72526625D01*
X161189455Y-72511770D01*
X161031860Y-72493741D01*
X160934319Y-72472271D01*
X160914474Y-72464814D01*
X160653560Y-72291766D01*
X160429431Y-72038802D01*
X160286095Y-71759385D01*
X160264948Y-71675756D01*
X160259042Y-71570247D01*
X160253833Y-71330192D01*
X160249351Y-70966189D01*
X160245630Y-70488833D01*
X160242701Y-69908722D01*
X160240597Y-69236452D01*
X160239350Y-68482619D01*
X160238992Y-67657819D01*
X160239556Y-66772649D01*
X160241072Y-65837706D01*
X160243575Y-64863585D01*
X160243917Y-64752620D01*
X160247526Y-63616785D01*
X160250920Y-62617096D01*
X160254324Y-61744554D01*
X160257966Y-60990163D01*
X160262069Y-60344926D01*
X160266861Y-59799845D01*
X160272565Y-59345924D01*
X160279408Y-58974165D01*
X160287615Y-58675572D01*
X160297412Y-58441147D01*
X160309025Y-58261893D01*
X160322678Y-58128813D01*
X160338598Y-58032910D01*
X160357010Y-57965186D01*
X160378139Y-57916645D01*
X160402211Y-57878290D01*
X160416744Y-57858335D01*
X160584182Y-57675380D01*
X160789034Y-57503727D01*
X160808476Y-57490178D01*
X161048393Y-57326892D01*
X164836413Y-57326892D01*
X165676440Y-57327119D01*
G36*
X146556236Y-57388540D02*
X146817437Y-57535880D01*
X146875162Y-57589030D01*
X146941235Y-57677646D01*
X147079911Y-57880464D01*
X147285845Y-58189253D01*
X147553692Y-58595780D01*
X147878106Y-59091813D01*
X148253743Y-59669120D01*
X148675256Y-60319468D01*
X149137300Y-61034624D01*
X149634531Y-61806357D01*
X150161602Y-62626434D01*
X150713169Y-63486622D01*
X151283887Y-64378689D01*
X151295277Y-64396513D01*
X155511500Y-70994420D01*
X155511500Y-64319483D01*
X155511546Y-63184891D01*
X155511815Y-62186495D01*
X155512499Y-61315347D01*
X155513793Y-60562500D01*
X155515891Y-59919007D01*
X155518985Y-59375919D01*
X155523270Y-58924291D01*
X155528939Y-58555174D01*
X155536187Y-58259621D01*
X155545207Y-58028685D01*
X155556192Y-57853419D01*
X155569337Y-57724875D01*
X155584835Y-57634106D01*
X155602880Y-57572164D01*
X155623666Y-57530103D01*
X155647386Y-57498975D01*
X155659470Y-57485720D01*
X155857408Y-57361541D01*
X156096597Y-57328682D01*
X156317857Y-57389208D01*
X156407395Y-57459607D01*
X156427031Y-57489954D01*
X156444420Y-57540612D01*
X156459695Y-57619972D01*
X156472994Y-57736428D01*
X156484450Y-57898371D01*
X156494198Y-58114194D01*
X156502375Y-58392289D01*
X156509114Y-58741049D01*
X156514551Y-59168865D01*
X156518821Y-59684129D01*
X156522059Y-60295235D01*
X156524401Y-61010574D01*
X156525980Y-61838538D01*
X156526933Y-62787521D01*
X156527394Y-63865913D01*
X156527500Y-64921814D01*
X156527500Y-72251306D01*
X156359537Y-72409099D01*
X156119593Y-72539514D01*
X155817342Y-72555591D01*
X155481503Y-72456046D01*
X155466547Y-72449059D01*
X155426463Y-72431683D01*
X155391034Y-72416848D01*
X155355949Y-72398065D01*
X155316895Y-72368848D01*
X155269560Y-72322708D01*
X155209629Y-72253158D01*
X155132791Y-72153711D01*
X155034734Y-72017878D01*
X154911143Y-71839172D01*
X154757707Y-71611105D01*
X154570113Y-71327190D01*
X154344048Y-70980939D01*
X154075199Y-70565865D01*
X153759254Y-70075479D01*
X153391900Y-69503295D01*
X152968824Y-68842824D01*
X152485713Y-68087579D01*
X151938256Y-67231072D01*
X151322138Y-66266816D01*
X150633048Y-65188323D01*
X150463065Y-64922307D01*
X146621500Y-58910579D01*
X146602975Y-65571180D01*
X146584450Y-72231780D01*
X146427039Y-72399336D01*
X146211520Y-72537074D01*
X145968048Y-72554348D01*
X145744727Y-72449645D01*
X145714357Y-72421750D01*
X145690727Y-72395743D01*
X145669812Y-72362132D01*
X145651446Y-72312404D01*
X145635462Y-72238049D01*
X145621696Y-72130552D01*
X145609983Y-71981403D01*
X145600155Y-71782089D01*
X145592049Y-71524098D01*
X145585498Y-71198919D01*
X145580337Y-70798038D01*
X145576400Y-70312944D01*
X145573521Y-69735125D01*
X145571536Y-69056069D01*
X145570278Y-68267263D01*
X145569583Y-67360196D01*
X145569283Y-66326355D01*
X145569215Y-65157229D01*
X145569214Y-64959543D01*
X145569214Y-57642479D01*
X145747343Y-57475135D01*
X145973985Y-57353401D01*
X146259351Y-57326125D01*
X146556236Y-57388540D01*
X146556236Y-57388540D01*
G37*
X146556236Y-57388540D02*
X146817437Y-57535880D01*
X146875162Y-57589030D01*
X146941235Y-57677646D01*
X147079911Y-57880464D01*
X147285845Y-58189253D01*
X147553692Y-58595780D01*
X147878106Y-59091813D01*
X148253743Y-59669120D01*
X148675256Y-60319468D01*
X149137300Y-61034624D01*
X149634531Y-61806357D01*
X150161602Y-62626434D01*
X150713169Y-63486622D01*
X151283887Y-64378689D01*
X151295277Y-64396513D01*
X155511500Y-70994420D01*
X155511500Y-64319483D01*
X155511546Y-63184891D01*
X155511815Y-62186495D01*
X155512499Y-61315347D01*
X155513793Y-60562500D01*
X155515891Y-59919007D01*
X155518985Y-59375919D01*
X155523270Y-58924291D01*
X155528939Y-58555174D01*
X155536187Y-58259621D01*
X155545207Y-58028685D01*
X155556192Y-57853419D01*
X155569337Y-57724875D01*
X155584835Y-57634106D01*
X155602880Y-57572164D01*
X155623666Y-57530103D01*
X155647386Y-57498975D01*
X155659470Y-57485720D01*
X155857408Y-57361541D01*
X156096597Y-57328682D01*
X156317857Y-57389208D01*
X156407395Y-57459607D01*
X156427031Y-57489954D01*
X156444420Y-57540612D01*
X156459695Y-57619972D01*
X156472994Y-57736428D01*
X156484450Y-57898371D01*
X156494198Y-58114194D01*
X156502375Y-58392289D01*
X156509114Y-58741049D01*
X156514551Y-59168865D01*
X156518821Y-59684129D01*
X156522059Y-60295235D01*
X156524401Y-61010574D01*
X156525980Y-61838538D01*
X156526933Y-62787521D01*
X156527394Y-63865913D01*
X156527500Y-64921814D01*
X156527500Y-72251306D01*
X156359537Y-72409099D01*
X156119593Y-72539514D01*
X155817342Y-72555591D01*
X155481503Y-72456046D01*
X155466547Y-72449059D01*
X155426463Y-72431683D01*
X155391034Y-72416848D01*
X155355949Y-72398065D01*
X155316895Y-72368848D01*
X155269560Y-72322708D01*
X155209629Y-72253158D01*
X155132791Y-72153711D01*
X155034734Y-72017878D01*
X154911143Y-71839172D01*
X154757707Y-71611105D01*
X154570113Y-71327190D01*
X154344048Y-70980939D01*
X154075199Y-70565865D01*
X153759254Y-70075479D01*
X153391900Y-69503295D01*
X152968824Y-68842824D01*
X152485713Y-68087579D01*
X151938256Y-67231072D01*
X151322138Y-66266816D01*
X150633048Y-65188323D01*
X150463065Y-64922307D01*
X146621500Y-58910579D01*
X146602975Y-65571180D01*
X146584450Y-72231780D01*
X146427039Y-72399336D01*
X146211520Y-72537074D01*
X145968048Y-72554348D01*
X145744727Y-72449645D01*
X145714357Y-72421750D01*
X145690727Y-72395743D01*
X145669812Y-72362132D01*
X145651446Y-72312404D01*
X145635462Y-72238049D01*
X145621696Y-72130552D01*
X145609983Y-71981403D01*
X145600155Y-71782089D01*
X145592049Y-71524098D01*
X145585498Y-71198919D01*
X145580337Y-70798038D01*
X145576400Y-70312944D01*
X145573521Y-69735125D01*
X145571536Y-69056069D01*
X145570278Y-68267263D01*
X145569583Y-67360196D01*
X145569283Y-66326355D01*
X145569215Y-65157229D01*
X145569214Y-64959543D01*
X145569214Y-57642479D01*
X145747343Y-57475135D01*
X145973985Y-57353401D01*
X146259351Y-57326125D01*
X146556236Y-57388540D01*
G36*
X140904461Y-57423806D02*
X140984564Y-57494856D01*
X141142357Y-57662819D01*
X141142357Y-72266072D01*
X140951142Y-72416482D01*
X140702479Y-72540139D01*
X140444736Y-72550368D01*
X140256210Y-72467956D01*
X140137577Y-72329921D01*
X140056639Y-72175254D01*
X140043477Y-72068516D01*
X140031522Y-71828875D01*
X140020769Y-71468564D01*
X140011215Y-70999817D01*
X140002855Y-70434868D01*
X139995685Y-69785952D01*
X139989701Y-69065301D01*
X139984899Y-68285151D01*
X139981276Y-67457736D01*
X139978827Y-66595288D01*
X139977547Y-65710043D01*
X139977434Y-64814234D01*
X139978483Y-63920096D01*
X139980689Y-63039861D01*
X139984050Y-62185765D01*
X139988560Y-61370042D01*
X139994216Y-60604924D01*
X140001014Y-59902647D01*
X140008950Y-59275444D01*
X140018019Y-58735550D01*
X140028218Y-58295198D01*
X140039543Y-57966622D01*
X140051989Y-57762057D01*
X140061419Y-57699047D01*
X140205880Y-57471750D01*
X140421314Y-57344189D01*
X140667561Y-57325246D01*
X140904461Y-57423806D01*
X140904461Y-57423806D01*
G37*
X140904461Y-57423806D02*
X140984564Y-57494856D01*
X141142357Y-57662819D01*
X141142357Y-72266072D01*
X140951142Y-72416482D01*
X140702479Y-72540139D01*
X140444736Y-72550368D01*
X140256210Y-72467956D01*
X140137577Y-72329921D01*
X140056639Y-72175254D01*
X140043477Y-72068516D01*
X140031522Y-71828875D01*
X140020769Y-71468564D01*
X140011215Y-70999817D01*
X140002855Y-70434868D01*
X139995685Y-69785952D01*
X139989701Y-69065301D01*
X139984899Y-68285151D01*
X139981276Y-67457736D01*
X139978827Y-66595288D01*
X139977547Y-65710043D01*
X139977434Y-64814234D01*
X139978483Y-63920096D01*
X139980689Y-63039861D01*
X139984050Y-62185765D01*
X139988560Y-61370042D01*
X139994216Y-60604924D01*
X140001014Y-59902647D01*
X140008950Y-59275444D01*
X140018019Y-58735550D01*
X140028218Y-58295198D01*
X140039543Y-57966622D01*
X140051989Y-57762057D01*
X140061419Y-57699047D01*
X140205880Y-57471750D01*
X140421314Y-57344189D01*
X140667561Y-57325246D01*
X140904461Y-57423806D01*
G36*
X132524511Y-57328339D02*
X133262891Y-57329470D01*
X133886345Y-57331574D01*
X134404943Y-57334899D01*
X134828758Y-57339691D01*
X135167862Y-57346198D01*
X135432327Y-57354670D01*
X135632224Y-57365352D01*
X135777625Y-57378492D01*
X135878602Y-57394339D01*
X135945228Y-57413140D01*
X135987574Y-57435142D01*
X136014824Y-57459607D01*
X136124966Y-57675300D01*
X136105058Y-57904744D01*
X135959506Y-58107027D01*
X135943713Y-58119911D01*
X135884947Y-58161905D01*
X135816396Y-58195262D01*
X135721791Y-58220975D01*
X135584862Y-58240036D01*
X135389340Y-58253438D01*
X135118956Y-58262173D01*
X134757440Y-58267232D01*
X134288523Y-58269609D01*
X133695935Y-58270296D01*
X133477696Y-58270321D01*
X131202895Y-58270321D01*
X131183340Y-65279891D01*
X131163786Y-72289462D01*
X130992460Y-72428177D01*
X130746199Y-72549273D01*
X130493713Y-72540291D01*
X130272904Y-72402744D01*
X130269660Y-72399320D01*
X130112233Y-72231747D01*
X130093724Y-65269177D01*
X130075214Y-58306607D01*
X127752928Y-58270321D01*
X127183577Y-58259608D01*
X126658896Y-58246259D01*
X126197011Y-58231007D01*
X125816047Y-58214585D01*
X125534129Y-58197727D01*
X125369383Y-58181164D01*
X125335452Y-58172557D01*
X125197829Y-58007150D01*
X125154046Y-57785434D01*
X125203064Y-57560936D01*
X125343844Y-57387186D01*
X125350793Y-57382432D01*
X125434795Y-57373669D01*
X125652264Y-57365325D01*
X125991522Y-57357518D01*
X126440892Y-57350370D01*
X126988697Y-57343999D01*
X127623261Y-57338525D01*
X128332908Y-57334067D01*
X129105960Y-57330747D01*
X129930741Y-57328682D01*
X130662681Y-57328004D01*
X131661131Y-57327933D01*
X132524511Y-57328339D01*
X132524511Y-57328339D01*
G37*
X132524511Y-57328339D02*
X133262891Y-57329470D01*
X133886345Y-57331574D01*
X134404943Y-57334899D01*
X134828758Y-57339691D01*
X135167862Y-57346198D01*
X135432327Y-57354670D01*
X135632224Y-57365352D01*
X135777625Y-57378492D01*
X135878602Y-57394339D01*
X135945228Y-57413140D01*
X135987574Y-57435142D01*
X136014824Y-57459607D01*
X136124966Y-57675300D01*
X136105058Y-57904744D01*
X135959506Y-58107027D01*
X135943713Y-58119911D01*
X135884947Y-58161905D01*
X135816396Y-58195262D01*
X135721791Y-58220975D01*
X135584862Y-58240036D01*
X135389340Y-58253438D01*
X135118956Y-58262173D01*
X134757440Y-58267232D01*
X134288523Y-58269609D01*
X133695935Y-58270296D01*
X133477696Y-58270321D01*
X131202895Y-58270321D01*
X131183340Y-65279891D01*
X131163786Y-72289462D01*
X130992460Y-72428177D01*
X130746199Y-72549273D01*
X130493713Y-72540291D01*
X130272904Y-72402744D01*
X130269660Y-72399320D01*
X130112233Y-72231747D01*
X130093724Y-65269177D01*
X130075214Y-58306607D01*
X127752928Y-58270321D01*
X127183577Y-58259608D01*
X126658896Y-58246259D01*
X126197011Y-58231007D01*
X125816047Y-58214585D01*
X125534129Y-58197727D01*
X125369383Y-58181164D01*
X125335452Y-58172557D01*
X125197829Y-58007150D01*
X125154046Y-57785434D01*
X125203064Y-57560936D01*
X125343844Y-57387186D01*
X125350793Y-57382432D01*
X125434795Y-57373669D01*
X125652264Y-57365325D01*
X125991522Y-57357518D01*
X126440892Y-57350370D01*
X126988697Y-57343999D01*
X127623261Y-57338525D01*
X128332908Y-57334067D01*
X129105960Y-57330747D01*
X129930741Y-57328682D01*
X130662681Y-57328004D01*
X131661131Y-57327933D01*
X132524511Y-57328339D01*
G36*
X108750928Y-57327221D02*
X109359612Y-57329621D01*
X109856856Y-57335282D01*
X110253894Y-57345529D01*
X110561960Y-57361690D01*
X110792287Y-57385092D01*
X110956109Y-57417061D01*
X111064659Y-57458925D01*
X111129173Y-57512010D01*
X111160882Y-57577642D01*
X111171022Y-57657149D01*
X111170825Y-57751858D01*
X111170357Y-57801237D01*
X111129844Y-58019872D01*
X111029985Y-58122625D01*
X110918942Y-58142123D01*
X110665985Y-58158809D01*
X110274318Y-58172616D01*
X109747146Y-58183480D01*
X109087672Y-58191334D01*
X108299100Y-58196112D01*
X107384632Y-58197749D01*
X107371063Y-58197750D01*
X106667138Y-58198635D01*
X106005499Y-58201175D01*
X105400713Y-58205192D01*
X104867348Y-58210509D01*
X104419969Y-58216950D01*
X104073144Y-58224338D01*
X103841439Y-58232498D01*
X103739423Y-58241251D01*
X103737721Y-58241800D01*
X103708027Y-58265973D01*
X103683867Y-58322434D01*
X103664685Y-58424679D01*
X103649925Y-58586207D01*
X103639031Y-58820511D01*
X103631446Y-59141090D01*
X103626616Y-59561440D01*
X103623982Y-60095057D01*
X103622991Y-60755437D01*
X103622929Y-61028035D01*
X103623463Y-61737573D01*
X103625439Y-62315467D01*
X103629411Y-62775214D01*
X103635936Y-63130310D01*
X103645569Y-63394252D01*
X103658867Y-63580536D01*
X103676386Y-63702659D01*
X103698682Y-63774117D01*
X103726311Y-63808407D01*
X103737721Y-63814271D01*
X103831837Y-63823249D01*
X104056170Y-63831613D01*
X104395794Y-63839173D01*
X104835784Y-63845740D01*
X105361213Y-63851127D01*
X105957157Y-63855143D01*
X106608690Y-63857599D01*
X107217035Y-63858321D01*
X110581555Y-63858321D01*
X110694528Y-64019612D01*
X110797556Y-64250292D01*
X110759691Y-64457765D01*
X110662357Y-64584035D01*
X110624107Y-64617990D01*
X110574795Y-64646199D01*
X110501558Y-64669199D01*
X110391535Y-64687528D01*
X110231863Y-64701722D01*
X110009680Y-64712318D01*
X109712122Y-64719855D01*
X109326327Y-64724870D01*
X108839433Y-64727899D01*
X108238577Y-64729479D01*
X107510897Y-64730149D01*
X107160786Y-64730289D01*
X106474489Y-64731737D01*
X105831474Y-64735446D01*
X105246550Y-64741161D01*
X104734528Y-64748629D01*
X104310218Y-64757596D01*
X103988429Y-64767806D01*
X103783972Y-64779007D01*
X103712909Y-64789454D01*
X103690771Y-64832710D01*
X103672682Y-64938664D01*
X103658422Y-65117760D01*
X103647770Y-65380439D01*
X103640503Y-65737142D01*
X103636403Y-66198312D01*
X103635246Y-66774390D01*
X103636813Y-67475819D01*
X103640338Y-68217343D01*
X103659214Y-71587178D01*
X107303395Y-71623464D01*
X108131401Y-71632081D01*
X108826275Y-71640373D01*
X109400025Y-71648839D01*
X109864659Y-71657979D01*
X110232185Y-71668294D01*
X110514613Y-71680283D01*
X110723950Y-71694447D01*
X110872204Y-71711286D01*
X110971384Y-71731301D01*
X111033498Y-71754991D01*
X111068038Y-71780270D01*
X111171634Y-71976265D01*
X111169319Y-72210104D01*
X111061913Y-72421267D01*
X111059324Y-72424154D01*
X111026304Y-72455913D01*
X110981559Y-72482577D01*
X110913019Y-72504588D01*
X110808613Y-72522392D01*
X110656270Y-72536433D01*
X110443921Y-72547154D01*
X110159495Y-72554998D01*
X109790920Y-72560412D01*
X109326128Y-72563837D01*
X108753047Y-72565718D01*
X108059607Y-72566499D01*
X107233737Y-72566624D01*
X107185824Y-72566621D01*
X106349774Y-72566312D01*
X105646521Y-72565234D01*
X105063718Y-72562969D01*
X104589021Y-72559095D01*
X104210083Y-72553193D01*
X103914558Y-72544843D01*
X103690102Y-72533625D01*
X103524367Y-72519118D01*
X103405008Y-72500903D01*
X103319679Y-72478559D01*
X103256035Y-72451666D01*
X103220693Y-72431697D01*
X102898830Y-72169204D01*
X102672346Y-71845918D01*
X102571541Y-71532405D01*
X102565252Y-71415289D01*
X102559705Y-71163928D01*
X102554937Y-70789216D01*
X102550983Y-70302049D01*
X102547880Y-69713321D01*
X102545662Y-69033929D01*
X102544366Y-68274766D01*
X102544027Y-67446730D01*
X102544683Y-66560714D01*
X102546368Y-65627614D01*
X102549003Y-64692893D01*
X102552574Y-63544221D01*
X102555661Y-62531694D01*
X102558950Y-61646320D01*
X102563125Y-60879107D01*
X102568872Y-60221060D01*
X102576876Y-59663188D01*
X102587823Y-59196497D01*
X102602397Y-58811995D01*
X102621283Y-58500689D01*
X102645168Y-58253587D01*
X102674736Y-58061696D01*
X102710672Y-57916022D01*
X102753661Y-57807573D01*
X102804389Y-57727357D01*
X102863541Y-57666381D01*
X102931803Y-57615651D01*
X103009858Y-57566176D01*
X103096277Y-57510402D01*
X103366335Y-57326892D01*
X107154305Y-57326892D01*
X108019570Y-57326753D01*
X108750928Y-57327221D01*
X108750928Y-57327221D01*
G37*
X108750928Y-57327221D02*
X109359612Y-57329621D01*
X109856856Y-57335282D01*
X110253894Y-57345529D01*
X110561960Y-57361690D01*
X110792287Y-57385092D01*
X110956109Y-57417061D01*
X111064659Y-57458925D01*
X111129173Y-57512010D01*
X111160882Y-57577642D01*
X111171022Y-57657149D01*
X111170825Y-57751858D01*
X111170357Y-57801237D01*
X111129844Y-58019872D01*
X111029985Y-58122625D01*
X110918942Y-58142123D01*
X110665985Y-58158809D01*
X110274318Y-58172616D01*
X109747146Y-58183480D01*
X109087672Y-58191334D01*
X108299100Y-58196112D01*
X107384632Y-58197749D01*
X107371063Y-58197750D01*
X106667138Y-58198635D01*
X106005499Y-58201175D01*
X105400713Y-58205192D01*
X104867348Y-58210509D01*
X104419969Y-58216950D01*
X104073144Y-58224338D01*
X103841439Y-58232498D01*
X103739423Y-58241251D01*
X103737721Y-58241800D01*
X103708027Y-58265973D01*
X103683867Y-58322434D01*
X103664685Y-58424679D01*
X103649925Y-58586207D01*
X103639031Y-58820511D01*
X103631446Y-59141090D01*
X103626616Y-59561440D01*
X103623982Y-60095057D01*
X103622991Y-60755437D01*
X103622929Y-61028035D01*
X103623463Y-61737573D01*
X103625439Y-62315467D01*
X103629411Y-62775214D01*
X103635936Y-63130310D01*
X103645569Y-63394252D01*
X103658867Y-63580536D01*
X103676386Y-63702659D01*
X103698682Y-63774117D01*
X103726311Y-63808407D01*
X103737721Y-63814271D01*
X103831837Y-63823249D01*
X104056170Y-63831613D01*
X104395794Y-63839173D01*
X104835784Y-63845740D01*
X105361213Y-63851127D01*
X105957157Y-63855143D01*
X106608690Y-63857599D01*
X107217035Y-63858321D01*
X110581555Y-63858321D01*
X110694528Y-64019612D01*
X110797556Y-64250292D01*
X110759691Y-64457765D01*
X110662357Y-64584035D01*
X110624107Y-64617990D01*
X110574795Y-64646199D01*
X110501558Y-64669199D01*
X110391535Y-64687528D01*
X110231863Y-64701722D01*
X110009680Y-64712318D01*
X109712122Y-64719855D01*
X109326327Y-64724870D01*
X108839433Y-64727899D01*
X108238577Y-64729479D01*
X107510897Y-64730149D01*
X107160786Y-64730289D01*
X106474489Y-64731737D01*
X105831474Y-64735446D01*
X105246550Y-64741161D01*
X104734528Y-64748629D01*
X104310218Y-64757596D01*
X103988429Y-64767806D01*
X103783972Y-64779007D01*
X103712909Y-64789454D01*
X103690771Y-64832710D01*
X103672682Y-64938664D01*
X103658422Y-65117760D01*
X103647770Y-65380439D01*
X103640503Y-65737142D01*
X103636403Y-66198312D01*
X103635246Y-66774390D01*
X103636813Y-67475819D01*
X103640338Y-68217343D01*
X103659214Y-71587178D01*
X107303395Y-71623464D01*
X108131401Y-71632081D01*
X108826275Y-71640373D01*
X109400025Y-71648839D01*
X109864659Y-71657979D01*
X110232185Y-71668294D01*
X110514613Y-71680283D01*
X110723950Y-71694447D01*
X110872204Y-71711286D01*
X110971384Y-71731301D01*
X111033498Y-71754991D01*
X111068038Y-71780270D01*
X111171634Y-71976265D01*
X111169319Y-72210104D01*
X111061913Y-72421267D01*
X111059324Y-72424154D01*
X111026304Y-72455913D01*
X110981559Y-72482577D01*
X110913019Y-72504588D01*
X110808613Y-72522392D01*
X110656270Y-72536433D01*
X110443921Y-72547154D01*
X110159495Y-72554998D01*
X109790920Y-72560412D01*
X109326128Y-72563837D01*
X108753047Y-72565718D01*
X108059607Y-72566499D01*
X107233737Y-72566624D01*
X107185824Y-72566621D01*
X106349774Y-72566312D01*
X105646521Y-72565234D01*
X105063718Y-72562969D01*
X104589021Y-72559095D01*
X104210083Y-72553193D01*
X103914558Y-72544843D01*
X103690102Y-72533625D01*
X103524367Y-72519118D01*
X103405008Y-72500903D01*
X103319679Y-72478559D01*
X103256035Y-72451666D01*
X103220693Y-72431697D01*
X102898830Y-72169204D01*
X102672346Y-71845918D01*
X102571541Y-71532405D01*
X102565252Y-71415289D01*
X102559705Y-71163928D01*
X102554937Y-70789216D01*
X102550983Y-70302049D01*
X102547880Y-69713321D01*
X102545662Y-69033929D01*
X102544366Y-68274766D01*
X102544027Y-67446730D01*
X102544683Y-66560714D01*
X102546368Y-65627614D01*
X102549003Y-64692893D01*
X102552574Y-63544221D01*
X102555661Y-62531694D01*
X102558950Y-61646320D01*
X102563125Y-60879107D01*
X102568872Y-60221060D01*
X102576876Y-59663188D01*
X102587823Y-59196497D01*
X102602397Y-58811995D01*
X102621283Y-58500689D01*
X102645168Y-58253587D01*
X102674736Y-58061696D01*
X102710672Y-57916022D01*
X102753661Y-57807573D01*
X102804389Y-57727357D01*
X102863541Y-57666381D01*
X102931803Y-57615651D01*
X103009858Y-57566176D01*
X103096277Y-57510402D01*
X103366335Y-57326892D01*
X107154305Y-57326892D01*
X108019570Y-57326753D01*
X108750928Y-57327221D01*
G36*
X91282170Y-57437137D02*
X91345707Y-57494856D01*
X91503500Y-57662819D01*
X91503500Y-64528349D01*
X91503957Y-65515935D01*
X91505283Y-66463369D01*
X91507416Y-67360439D01*
X91510290Y-68196932D01*
X91513841Y-68962634D01*
X91518005Y-69647332D01*
X91522716Y-70240814D01*
X91527911Y-70732866D01*
X91533526Y-71113275D01*
X91539494Y-71371828D01*
X91545754Y-71498312D01*
X91547550Y-71508671D01*
X91569084Y-71534372D01*
X91619980Y-71555974D01*
X91711761Y-71573827D01*
X91855947Y-71588279D01*
X92064059Y-71599678D01*
X92347621Y-71608372D01*
X92718151Y-71614710D01*
X93187173Y-71619040D01*
X93766207Y-71621710D01*
X94466776Y-71623068D01*
X95300399Y-71623463D01*
X95344900Y-71623464D01*
X99098199Y-71623464D01*
X99255993Y-71791427D01*
X99391858Y-72016417D01*
X99386685Y-72241071D01*
X99268643Y-72421750D01*
X99233179Y-72453433D01*
X99187516Y-72480130D01*
X99119792Y-72502261D01*
X99018147Y-72520246D01*
X98870719Y-72534507D01*
X98665649Y-72545463D01*
X98391076Y-72553536D01*
X98035139Y-72559145D01*
X97585976Y-72562713D01*
X97031729Y-72564659D01*
X96360535Y-72565404D01*
X95560534Y-72565369D01*
X95222786Y-72565240D01*
X94360191Y-72564495D01*
X93630791Y-72562820D01*
X93022641Y-72559867D01*
X92523794Y-72555289D01*
X92122304Y-72548739D01*
X91806224Y-72539869D01*
X91563609Y-72528333D01*
X91382511Y-72513782D01*
X91250986Y-72495871D01*
X91157086Y-72474250D01*
X91088865Y-72448574D01*
X91081107Y-72444845D01*
X90878770Y-72307122D01*
X90682174Y-72116151D01*
X90645679Y-72071166D01*
X90451214Y-71816230D01*
X90432009Y-64740655D01*
X90412805Y-57665079D01*
X90571660Y-57495986D01*
X90793478Y-57353960D01*
X91045925Y-57334321D01*
X91282170Y-57437137D01*
X91282170Y-57437137D01*
G37*
X91282170Y-57437137D02*
X91345707Y-57494856D01*
X91503500Y-57662819D01*
X91503500Y-64528349D01*
X91503957Y-65515935D01*
X91505283Y-66463369D01*
X91507416Y-67360439D01*
X91510290Y-68196932D01*
X91513841Y-68962634D01*
X91518005Y-69647332D01*
X91522716Y-70240814D01*
X91527911Y-70732866D01*
X91533526Y-71113275D01*
X91539494Y-71371828D01*
X91545754Y-71498312D01*
X91547550Y-71508671D01*
X91569084Y-71534372D01*
X91619980Y-71555974D01*
X91711761Y-71573827D01*
X91855947Y-71588279D01*
X92064059Y-71599678D01*
X92347621Y-71608372D01*
X92718151Y-71614710D01*
X93187173Y-71619040D01*
X93766207Y-71621710D01*
X94466776Y-71623068D01*
X95300399Y-71623463D01*
X95344900Y-71623464D01*
X99098199Y-71623464D01*
X99255993Y-71791427D01*
X99391858Y-72016417D01*
X99386685Y-72241071D01*
X99268643Y-72421750D01*
X99233179Y-72453433D01*
X99187516Y-72480130D01*
X99119792Y-72502261D01*
X99018147Y-72520246D01*
X98870719Y-72534507D01*
X98665649Y-72545463D01*
X98391076Y-72553536D01*
X98035139Y-72559145D01*
X97585976Y-72562713D01*
X97031729Y-72564659D01*
X96360535Y-72565404D01*
X95560534Y-72565369D01*
X95222786Y-72565240D01*
X94360191Y-72564495D01*
X93630791Y-72562820D01*
X93022641Y-72559867D01*
X92523794Y-72555289D01*
X92122304Y-72548739D01*
X91806224Y-72539869D01*
X91563609Y-72528333D01*
X91382511Y-72513782D01*
X91250986Y-72495871D01*
X91157086Y-72474250D01*
X91088865Y-72448574D01*
X91081107Y-72444845D01*
X90878770Y-72307122D01*
X90682174Y-72116151D01*
X90645679Y-72071166D01*
X90451214Y-71816230D01*
X90432009Y-64740655D01*
X90412805Y-57665079D01*
X90571660Y-57495986D01*
X90793478Y-57353960D01*
X91045925Y-57334321D01*
X91282170Y-57437137D01*
G36*
X84506747Y-57327445D02*
X85115831Y-57329959D01*
X85613480Y-57335588D01*
X86010932Y-57345548D01*
X86319421Y-57361055D01*
X86550185Y-57383325D01*
X86714458Y-57413575D01*
X86823477Y-57453021D01*
X86888477Y-57502879D01*
X86920696Y-57564367D01*
X86931368Y-57638699D01*
X86931730Y-57727094D01*
X86931500Y-57762321D01*
X86931765Y-57858817D01*
X86924823Y-57939901D01*
X86899069Y-58006914D01*
X86842897Y-58061195D01*
X86744702Y-58104082D01*
X86592878Y-58136916D01*
X86375820Y-58161035D01*
X86081923Y-58177779D01*
X85699581Y-58188488D01*
X85217188Y-58194500D01*
X84623140Y-58197156D01*
X83905830Y-58197794D01*
X83158537Y-58197750D01*
X82451949Y-58198629D01*
X81787622Y-58201150D01*
X81180065Y-58205139D01*
X80643785Y-58210420D01*
X80193291Y-58216820D01*
X79843091Y-58224163D01*
X79607692Y-58232275D01*
X79501604Y-58240981D01*
X79498864Y-58241800D01*
X79469170Y-58265973D01*
X79445010Y-58322434D01*
X79425828Y-58424679D01*
X79411068Y-58586207D01*
X79400174Y-58820511D01*
X79392589Y-59141090D01*
X79387758Y-59561440D01*
X79385125Y-60095057D01*
X79384134Y-60755437D01*
X79384071Y-61028035D01*
X79384606Y-61737573D01*
X79386582Y-62315467D01*
X79390554Y-62775214D01*
X79397078Y-63130310D01*
X79406712Y-63394252D01*
X79420010Y-63580536D01*
X79437529Y-63702659D01*
X79459825Y-63774117D01*
X79487454Y-63808407D01*
X79498864Y-63814271D01*
X79593129Y-63823310D01*
X79817498Y-63831724D01*
X80156933Y-63839321D01*
X80596397Y-63845907D01*
X81120850Y-63851291D01*
X81715256Y-63855278D01*
X82364576Y-63857676D01*
X82932136Y-63858321D01*
X83742092Y-63859056D01*
X84418440Y-63861481D01*
X84972708Y-63865924D01*
X85416425Y-63872715D01*
X85761118Y-63882183D01*
X86018317Y-63894657D01*
X86199549Y-63910466D01*
X86316343Y-63929939D01*
X86380227Y-63953405D01*
X86385439Y-63956906D01*
X86484491Y-64105972D01*
X86519737Y-64316868D01*
X86486077Y-64518686D01*
X86432020Y-64604597D01*
X86370633Y-64626887D01*
X86228057Y-64646529D01*
X85995562Y-64663832D01*
X85664422Y-64679101D01*
X85225908Y-64692642D01*
X84671293Y-64704762D01*
X83991850Y-64715767D01*
X83178851Y-64725963D01*
X82882067Y-64729178D01*
X79420357Y-64765464D01*
X79401504Y-68194464D01*
X79382650Y-71623464D01*
X82957504Y-71624534D01*
X83825787Y-71625691D01*
X84558753Y-71628761D01*
X85166219Y-71633987D01*
X85658002Y-71641608D01*
X86043918Y-71651866D01*
X86333783Y-71665004D01*
X86537415Y-71681262D01*
X86664629Y-71700881D01*
X86713786Y-71716903D01*
X86862085Y-71863703D01*
X86924835Y-72077032D01*
X86893921Y-72300655D01*
X86816499Y-72428538D01*
X86783447Y-72459340D01*
X86736742Y-72485199D01*
X86664336Y-72506543D01*
X86554181Y-72523800D01*
X86394227Y-72537400D01*
X86172427Y-72547771D01*
X85876732Y-72555341D01*
X85495093Y-72560540D01*
X85015463Y-72563795D01*
X84425792Y-72565537D01*
X83714033Y-72566192D01*
X82946967Y-72566206D01*
X79202643Y-72565519D01*
X78900516Y-72384422D01*
X78593260Y-72119145D01*
X78446945Y-71890482D01*
X78421135Y-71835078D01*
X78398437Y-71776087D01*
X78378652Y-71704329D01*
X78361580Y-71610625D01*
X78347021Y-71485795D01*
X78334774Y-71320661D01*
X78324640Y-71106042D01*
X78316418Y-70832761D01*
X78309910Y-70491637D01*
X78304913Y-70073491D01*
X78301230Y-69569145D01*
X78298660Y-68969418D01*
X78297002Y-68265133D01*
X78296057Y-67447109D01*
X78295624Y-66506167D01*
X78295505Y-65433128D01*
X78295500Y-64939357D01*
X78295500Y-58301075D01*
X78458786Y-57977855D01*
X78610835Y-57745287D01*
X78799248Y-57544232D01*
X78868661Y-57490764D01*
X79115250Y-57326892D01*
X82909334Y-57326892D01*
X83774993Y-57326828D01*
X84506747Y-57327445D01*
X84506747Y-57327445D01*
G37*
X84506747Y-57327445D02*
X85115831Y-57329959D01*
X85613480Y-57335588D01*
X86010932Y-57345548D01*
X86319421Y-57361055D01*
X86550185Y-57383325D01*
X86714458Y-57413575D01*
X86823477Y-57453021D01*
X86888477Y-57502879D01*
X86920696Y-57564367D01*
X86931368Y-57638699D01*
X86931730Y-57727094D01*
X86931500Y-57762321D01*
X86931765Y-57858817D01*
X86924823Y-57939901D01*
X86899069Y-58006914D01*
X86842897Y-58061195D01*
X86744702Y-58104082D01*
X86592878Y-58136916D01*
X86375820Y-58161035D01*
X86081923Y-58177779D01*
X85699581Y-58188488D01*
X85217188Y-58194500D01*
X84623140Y-58197156D01*
X83905830Y-58197794D01*
X83158537Y-58197750D01*
X82451949Y-58198629D01*
X81787622Y-58201150D01*
X81180065Y-58205139D01*
X80643785Y-58210420D01*
X80193291Y-58216820D01*
X79843091Y-58224163D01*
X79607692Y-58232275D01*
X79501604Y-58240981D01*
X79498864Y-58241800D01*
X79469170Y-58265973D01*
X79445010Y-58322434D01*
X79425828Y-58424679D01*
X79411068Y-58586207D01*
X79400174Y-58820511D01*
X79392589Y-59141090D01*
X79387758Y-59561440D01*
X79385125Y-60095057D01*
X79384134Y-60755437D01*
X79384071Y-61028035D01*
X79384606Y-61737573D01*
X79386582Y-62315467D01*
X79390554Y-62775214D01*
X79397078Y-63130310D01*
X79406712Y-63394252D01*
X79420010Y-63580536D01*
X79437529Y-63702659D01*
X79459825Y-63774117D01*
X79487454Y-63808407D01*
X79498864Y-63814271D01*
X79593129Y-63823310D01*
X79817498Y-63831724D01*
X80156933Y-63839321D01*
X80596397Y-63845907D01*
X81120850Y-63851291D01*
X81715256Y-63855278D01*
X82364576Y-63857676D01*
X82932136Y-63858321D01*
X83742092Y-63859056D01*
X84418440Y-63861481D01*
X84972708Y-63865924D01*
X85416425Y-63872715D01*
X85761118Y-63882183D01*
X86018317Y-63894657D01*
X86199549Y-63910466D01*
X86316343Y-63929939D01*
X86380227Y-63953405D01*
X86385439Y-63956906D01*
X86484491Y-64105972D01*
X86519737Y-64316868D01*
X86486077Y-64518686D01*
X86432020Y-64604597D01*
X86370633Y-64626887D01*
X86228057Y-64646529D01*
X85995562Y-64663832D01*
X85664422Y-64679101D01*
X85225908Y-64692642D01*
X84671293Y-64704762D01*
X83991850Y-64715767D01*
X83178851Y-64725963D01*
X82882067Y-64729178D01*
X79420357Y-64765464D01*
X79401504Y-68194464D01*
X79382650Y-71623464D01*
X82957504Y-71624534D01*
X83825787Y-71625691D01*
X84558753Y-71628761D01*
X85166219Y-71633987D01*
X85658002Y-71641608D01*
X86043918Y-71651866D01*
X86333783Y-71665004D01*
X86537415Y-71681262D01*
X86664629Y-71700881D01*
X86713786Y-71716903D01*
X86862085Y-71863703D01*
X86924835Y-72077032D01*
X86893921Y-72300655D01*
X86816499Y-72428538D01*
X86783447Y-72459340D01*
X86736742Y-72485199D01*
X86664336Y-72506543D01*
X86554181Y-72523800D01*
X86394227Y-72537400D01*
X86172427Y-72547771D01*
X85876732Y-72555341D01*
X85495093Y-72560540D01*
X85015463Y-72563795D01*
X84425792Y-72565537D01*
X83714033Y-72566192D01*
X82946967Y-72566206D01*
X79202643Y-72565519D01*
X78900516Y-72384422D01*
X78593260Y-72119145D01*
X78446945Y-71890482D01*
X78421135Y-71835078D01*
X78398437Y-71776087D01*
X78378652Y-71704329D01*
X78361580Y-71610625D01*
X78347021Y-71485795D01*
X78334774Y-71320661D01*
X78324640Y-71106042D01*
X78316418Y-70832761D01*
X78309910Y-70491637D01*
X78304913Y-70073491D01*
X78301230Y-69569145D01*
X78298660Y-68969418D01*
X78297002Y-68265133D01*
X78296057Y-67447109D01*
X78295624Y-66506167D01*
X78295505Y-65433128D01*
X78295500Y-64939357D01*
X78295500Y-58301075D01*
X78458786Y-57977855D01*
X78610835Y-57745287D01*
X78799248Y-57544232D01*
X78868661Y-57490764D01*
X79115250Y-57326892D01*
X82909334Y-57326892D01*
X83774993Y-57326828D01*
X84506747Y-57327445D01*
G36*
X119233298Y-57148167D02*
X120317124Y-57291609D01*
X121329494Y-57557392D01*
X121965322Y-57803536D01*
X122231649Y-57930541D01*
X122389115Y-58040381D01*
X122465711Y-58164239D01*
X122489429Y-58333295D01*
X122490389Y-58388435D01*
X122467860Y-58581329D01*
X122388482Y-58704036D01*
X122237920Y-58757706D01*
X122001839Y-58743494D01*
X121665907Y-58662551D01*
X121215787Y-58516031D01*
X121157689Y-58495607D01*
X120306456Y-58247417D01*
X119427766Y-58100465D01*
X118479066Y-58047860D01*
X118391214Y-58047517D01*
X117579361Y-58091481D01*
X116880571Y-58224370D01*
X116292238Y-58447439D01*
X115811754Y-58761938D01*
X115436513Y-59169122D01*
X115202621Y-59579485D01*
X115092844Y-59853472D01*
X115031445Y-60102995D01*
X115005998Y-60392624D01*
X115002824Y-60617853D01*
X115033850Y-61143043D01*
X115137042Y-61582464D01*
X115329618Y-61976495D01*
X115628796Y-62365514D01*
X115844328Y-62591281D01*
X116144795Y-62868666D01*
X116456460Y-63108076D01*
X116804231Y-63322957D01*
X117213011Y-63526756D01*
X117707705Y-63732921D01*
X118313219Y-63954899D01*
X118471744Y-64009936D01*
X119414928Y-64359405D01*
X120222552Y-64714734D01*
X120904184Y-65083998D01*
X121469392Y-65475275D01*
X121927741Y-65896641D01*
X122288798Y-66356174D01*
X122562132Y-66861950D01*
X122757308Y-67422045D01*
X122819314Y-67680310D01*
X122908350Y-68354129D01*
X122909149Y-69069112D01*
X122821781Y-69751240D01*
X122817279Y-69772892D01*
X122601328Y-70477757D01*
X122270851Y-71094343D01*
X121828653Y-71619815D01*
X121277535Y-72051338D01*
X120620300Y-72386077D01*
X120046855Y-72575250D01*
X119622746Y-72658928D01*
X119100355Y-72718624D01*
X118524791Y-72752829D01*
X117941165Y-72760037D01*
X117394587Y-72738740D01*
X116930166Y-72687433D01*
X116890529Y-72680691D01*
X116442617Y-72582701D01*
X115964029Y-72445868D01*
X115482558Y-72281378D01*
X115025997Y-72100414D01*
X114622140Y-71914161D01*
X114298779Y-71733804D01*
X114083707Y-71570527D01*
X114055071Y-71539656D01*
X113943591Y-71323143D01*
X113937325Y-71097905D01*
X114022810Y-70903134D01*
X114186583Y-70778022D01*
X114325426Y-70752607D01*
X114474173Y-70787442D01*
X114696208Y-70878407D01*
X114923972Y-70995246D01*
X115794997Y-71405076D01*
X116719536Y-71680093D01*
X117697866Y-71820367D01*
X118261155Y-71840106D01*
X119067465Y-71792574D01*
X119767534Y-71650904D01*
X120367392Y-71412943D01*
X120873072Y-71076539D01*
X121149570Y-70809136D01*
X121461750Y-70380553D01*
X121673214Y-69891509D01*
X121793141Y-69317169D01*
X121821635Y-68990439D01*
X121812169Y-68254306D01*
X121694699Y-67609385D01*
X121463916Y-67044320D01*
X121114513Y-66547756D01*
X120641180Y-66108336D01*
X120390436Y-65928939D01*
X120143631Y-65770262D01*
X119908100Y-65633720D01*
X119657899Y-65507825D01*
X119367084Y-65381093D01*
X119009710Y-65242038D01*
X118559834Y-65079174D01*
X118137214Y-64931406D01*
X117289811Y-64615847D01*
X116571092Y-64298707D01*
X115964796Y-63970769D01*
X115454666Y-63622817D01*
X115024442Y-63245637D01*
X114862922Y-63075461D01*
X114445698Y-62512942D01*
X114149831Y-61901259D01*
X113975132Y-61259096D01*
X113921410Y-60605137D01*
X113988475Y-59958067D01*
X114176138Y-59336569D01*
X114484208Y-58759328D01*
X114912066Y-58245446D01*
X115366850Y-57864077D01*
X115869434Y-57569724D01*
X116439959Y-57355291D01*
X117098569Y-57213680D01*
X117865406Y-57137794D01*
X118083437Y-57128009D01*
X119233298Y-57148167D01*
X119233298Y-57148167D01*
G37*
X119233298Y-57148167D02*
X120317124Y-57291609D01*
X121329494Y-57557392D01*
X121965322Y-57803536D01*
X122231649Y-57930541D01*
X122389115Y-58040381D01*
X122465711Y-58164239D01*
X122489429Y-58333295D01*
X122490389Y-58388435D01*
X122467860Y-58581329D01*
X122388482Y-58704036D01*
X122237920Y-58757706D01*
X122001839Y-58743494D01*
X121665907Y-58662551D01*
X121215787Y-58516031D01*
X121157689Y-58495607D01*
X120306456Y-58247417D01*
X119427766Y-58100465D01*
X118479066Y-58047860D01*
X118391214Y-58047517D01*
X117579361Y-58091481D01*
X116880571Y-58224370D01*
X116292238Y-58447439D01*
X115811754Y-58761938D01*
X115436513Y-59169122D01*
X115202621Y-59579485D01*
X115092844Y-59853472D01*
X115031445Y-60102995D01*
X115005998Y-60392624D01*
X115002824Y-60617853D01*
X115033850Y-61143043D01*
X115137042Y-61582464D01*
X115329618Y-61976495D01*
X115628796Y-62365514D01*
X115844328Y-62591281D01*
X116144795Y-62868666D01*
X116456460Y-63108076D01*
X116804231Y-63322957D01*
X117213011Y-63526756D01*
X117707705Y-63732921D01*
X118313219Y-63954899D01*
X118471744Y-64009936D01*
X119414928Y-64359405D01*
X120222552Y-64714734D01*
X120904184Y-65083998D01*
X121469392Y-65475275D01*
X121927741Y-65896641D01*
X122288798Y-66356174D01*
X122562132Y-66861950D01*
X122757308Y-67422045D01*
X122819314Y-67680310D01*
X122908350Y-68354129D01*
X122909149Y-69069112D01*
X122821781Y-69751240D01*
X122817279Y-69772892D01*
X122601328Y-70477757D01*
X122270851Y-71094343D01*
X121828653Y-71619815D01*
X121277535Y-72051338D01*
X120620300Y-72386077D01*
X120046855Y-72575250D01*
X119622746Y-72658928D01*
X119100355Y-72718624D01*
X118524791Y-72752829D01*
X117941165Y-72760037D01*
X117394587Y-72738740D01*
X116930166Y-72687433D01*
X116890529Y-72680691D01*
X116442617Y-72582701D01*
X115964029Y-72445868D01*
X115482558Y-72281378D01*
X115025997Y-72100414D01*
X114622140Y-71914161D01*
X114298779Y-71733804D01*
X114083707Y-71570527D01*
X114055071Y-71539656D01*
X113943591Y-71323143D01*
X113937325Y-71097905D01*
X114022810Y-70903134D01*
X114186583Y-70778022D01*
X114325426Y-70752607D01*
X114474173Y-70787442D01*
X114696208Y-70878407D01*
X114923972Y-70995246D01*
X115794997Y-71405076D01*
X116719536Y-71680093D01*
X117697866Y-71820367D01*
X118261155Y-71840106D01*
X119067465Y-71792574D01*
X119767534Y-71650904D01*
X120367392Y-71412943D01*
X120873072Y-71076539D01*
X121149570Y-70809136D01*
X121461750Y-70380553D01*
X121673214Y-69891509D01*
X121793141Y-69317169D01*
X121821635Y-68990439D01*
X121812169Y-68254306D01*
X121694699Y-67609385D01*
X121463916Y-67044320D01*
X121114513Y-66547756D01*
X120641180Y-66108336D01*
X120390436Y-65928939D01*
X120143631Y-65770262D01*
X119908100Y-65633720D01*
X119657899Y-65507825D01*
X119367084Y-65381093D01*
X119009710Y-65242038D01*
X118559834Y-65079174D01*
X118137214Y-64931406D01*
X117289811Y-64615847D01*
X116571092Y-64298707D01*
X115964796Y-63970769D01*
X115454666Y-63622817D01*
X115024442Y-63245637D01*
X114862922Y-63075461D01*
X114445698Y-62512942D01*
X114149831Y-61901259D01*
X113975132Y-61259096D01*
X113921410Y-60605137D01*
X113988475Y-59958067D01*
X114176138Y-59336569D01*
X114484208Y-58759328D01*
X114912066Y-58245446D01*
X115366850Y-57864077D01*
X115869434Y-57569724D01*
X116439959Y-57355291D01*
X117098569Y-57213680D01*
X117865406Y-57137794D01*
X118083437Y-57128009D01*
X119233298Y-57148167D01*
G36*
X71122282Y-57129683D02*
X72015704Y-57211372D01*
X72851353Y-57380962D01*
X73662472Y-57644905D01*
X74357388Y-57948220D01*
X74715426Y-58134456D01*
X74948649Y-58293244D01*
X75070451Y-58441461D01*
X75094225Y-58595986D01*
X75033364Y-58773700D01*
X75025092Y-58789705D01*
X74920156Y-58952584D01*
X74799416Y-59041904D01*
X74638431Y-59057498D01*
X74412759Y-58999200D01*
X74097956Y-58866842D01*
X73918786Y-58782151D01*
X72961498Y-58399045D01*
X71963616Y-58153558D01*
X70921413Y-58045030D01*
X69892109Y-58067766D01*
X68942833Y-58208696D01*
X68051023Y-58473825D01*
X67228956Y-58858459D01*
X66488910Y-59357905D01*
X66462853Y-59378857D01*
X65847056Y-59968839D01*
X65321940Y-60662631D01*
X64891096Y-61447934D01*
X64558112Y-62312447D01*
X64326577Y-63243873D01*
X64200081Y-64229912D01*
X64182212Y-65258265D01*
X64276561Y-66316632D01*
X64333744Y-66674963D01*
X64570484Y-67623791D01*
X64931491Y-68498050D01*
X65418046Y-69300248D01*
X66031428Y-70032892D01*
X66067214Y-70069538D01*
X66740002Y-70663685D01*
X67469650Y-71133111D01*
X68263318Y-71480353D01*
X69128164Y-71707952D01*
X70071348Y-71818444D01*
X71002071Y-71819442D01*
X71854994Y-71739676D01*
X72632345Y-71577662D01*
X73385856Y-71320868D01*
X73787645Y-71144682D01*
X74205544Y-70960880D01*
X74519020Y-70856668D01*
X74745604Y-70832934D01*
X74902823Y-70890563D01*
X75008209Y-71030443D01*
X75068838Y-71209508D01*
X75081400Y-71368264D01*
X75020416Y-71508937D01*
X74868626Y-71649043D01*
X74608765Y-71806097D01*
X74353308Y-71935502D01*
X73421099Y-72312778D01*
X72415934Y-72581437D01*
X71365287Y-72737649D01*
X70296633Y-72777581D01*
X69237447Y-72697405D01*
X69066990Y-72672599D01*
X68081210Y-72448938D01*
X67160904Y-72099418D01*
X66314233Y-71631528D01*
X65549356Y-71052756D01*
X64874432Y-70370590D01*
X64297622Y-69592518D01*
X63827084Y-68726030D01*
X63470980Y-67778613D01*
X63381287Y-67454687D01*
X63191081Y-66484045D01*
X63096385Y-65472493D01*
X63095134Y-64448267D01*
X63185268Y-63439605D01*
X63364723Y-62474743D01*
X63631439Y-61581918D01*
X63848432Y-61058250D01*
X64224865Y-60346920D01*
X64650857Y-59730079D01*
X65161282Y-59157820D01*
X65210595Y-59108730D01*
X65912740Y-58495758D01*
X66660811Y-58002819D01*
X67468321Y-57624484D01*
X68348787Y-57355323D01*
X69315724Y-57189909D01*
X70137841Y-57129444D01*
X71122282Y-57129683D01*
X71122282Y-57129683D01*
G37*
X71122282Y-57129683D02*
X72015704Y-57211372D01*
X72851353Y-57380962D01*
X73662472Y-57644905D01*
X74357388Y-57948220D01*
X74715426Y-58134456D01*
X74948649Y-58293244D01*
X75070451Y-58441461D01*
X75094225Y-58595986D01*
X75033364Y-58773700D01*
X75025092Y-58789705D01*
X74920156Y-58952584D01*
X74799416Y-59041904D01*
X74638431Y-59057498D01*
X74412759Y-58999200D01*
X74097956Y-58866842D01*
X73918786Y-58782151D01*
X72961498Y-58399045D01*
X71963616Y-58153558D01*
X70921413Y-58045030D01*
X69892109Y-58067766D01*
X68942833Y-58208696D01*
X68051023Y-58473825D01*
X67228956Y-58858459D01*
X66488910Y-59357905D01*
X66462853Y-59378857D01*
X65847056Y-59968839D01*
X65321940Y-60662631D01*
X64891096Y-61447934D01*
X64558112Y-62312447D01*
X64326577Y-63243873D01*
X64200081Y-64229912D01*
X64182212Y-65258265D01*
X64276561Y-66316632D01*
X64333744Y-66674963D01*
X64570484Y-67623791D01*
X64931491Y-68498050D01*
X65418046Y-69300248D01*
X66031428Y-70032892D01*
X66067214Y-70069538D01*
X66740002Y-70663685D01*
X67469650Y-71133111D01*
X68263318Y-71480353D01*
X69128164Y-71707952D01*
X70071348Y-71818444D01*
X71002071Y-71819442D01*
X71854994Y-71739676D01*
X72632345Y-71577662D01*
X73385856Y-71320868D01*
X73787645Y-71144682D01*
X74205544Y-70960880D01*
X74519020Y-70856668D01*
X74745604Y-70832934D01*
X74902823Y-70890563D01*
X75008209Y-71030443D01*
X75068838Y-71209508D01*
X75081400Y-71368264D01*
X75020416Y-71508937D01*
X74868626Y-71649043D01*
X74608765Y-71806097D01*
X74353308Y-71935502D01*
X73421099Y-72312778D01*
X72415934Y-72581437D01*
X71365287Y-72737649D01*
X70296633Y-72777581D01*
X69237447Y-72697405D01*
X69066990Y-72672599D01*
X68081210Y-72448938D01*
X67160904Y-72099418D01*
X66314233Y-71631528D01*
X65549356Y-71052756D01*
X64874432Y-70370590D01*
X64297622Y-69592518D01*
X63827084Y-68726030D01*
X63470980Y-67778613D01*
X63381287Y-67454687D01*
X63191081Y-66484045D01*
X63096385Y-65472493D01*
X63095134Y-64448267D01*
X63185268Y-63439605D01*
X63364723Y-62474743D01*
X63631439Y-61581918D01*
X63848432Y-61058250D01*
X64224865Y-60346920D01*
X64650857Y-59730079D01*
X65161282Y-59157820D01*
X65210595Y-59108730D01*
X65912740Y-58495758D01*
X66660811Y-58002819D01*
X67468321Y-57624484D01*
X68348787Y-57355323D01*
X69315724Y-57189909D01*
X70137841Y-57129444D01*
X71122282Y-57129683D01*
G04 #@! TD*
%LPC*%
G04 #@! TO.C,G\002A\002A\002A*
G36*
X44640500Y-100520500D02*
X44235688Y-100520500D01*
X44235688Y-100115688D01*
X44640500Y-100115688D01*
X44640500Y-100520500D01*
X44640500Y-100520500D01*
G37*
X44640500Y-100520500D02*
X44235688Y-100520500D01*
X44235688Y-100115688D01*
X44640500Y-100115688D01*
X44640500Y-100520500D01*
G36*
X45045313Y-101306313D02*
X44640500Y-101306313D01*
X44640500Y-100925313D01*
X45045313Y-100925313D01*
X45045313Y-101306313D01*
X45045313Y-101306313D01*
G37*
X45045313Y-101306313D02*
X44640500Y-101306313D01*
X44640500Y-100925313D01*
X45045313Y-100925313D01*
X45045313Y-101306313D01*
G36*
X44235688Y-101306313D02*
X43854688Y-101306313D01*
X43854688Y-100925313D01*
X44235688Y-100925313D01*
X44235688Y-101306313D01*
X44235688Y-101306313D01*
G37*
X44235688Y-101306313D02*
X43854688Y-101306313D01*
X43854688Y-100925313D01*
X44235688Y-100925313D01*
X44235688Y-101306313D01*
G36*
X45426313Y-102115938D02*
X45045313Y-102115938D01*
X45045313Y-101711125D01*
X45426313Y-101711125D01*
X45426313Y-102115938D01*
X45426313Y-102115938D01*
G37*
X45426313Y-102115938D02*
X45045313Y-102115938D01*
X45045313Y-101711125D01*
X45426313Y-101711125D01*
X45426313Y-102115938D01*
G36*
X44640500Y-102115938D02*
X44235688Y-102115938D01*
X44235688Y-101711125D01*
X44640500Y-101711125D01*
X44640500Y-102115938D01*
X44640500Y-102115938D01*
G37*
X44640500Y-102115938D02*
X44235688Y-102115938D01*
X44235688Y-101711125D01*
X44640500Y-101711125D01*
X44640500Y-102115938D01*
G36*
X43854688Y-102115938D02*
X43449875Y-102115938D01*
X43449875Y-101711125D01*
X43854688Y-101711125D01*
X43854688Y-102115938D01*
X43854688Y-102115938D01*
G37*
X43854688Y-102115938D02*
X43449875Y-102115938D01*
X43449875Y-101711125D01*
X43854688Y-101711125D01*
X43854688Y-102115938D01*
G36*
X45831125Y-102901750D02*
X45426313Y-102901750D01*
X45426313Y-102496938D01*
X45831125Y-102496938D01*
X45831125Y-102901750D01*
X45831125Y-102901750D01*
G37*
X45831125Y-102901750D02*
X45426313Y-102901750D01*
X45426313Y-102496938D01*
X45831125Y-102496938D01*
X45831125Y-102901750D01*
G36*
X43449875Y-102901750D02*
X43045063Y-102901750D01*
X43045063Y-102496938D01*
X43449875Y-102496938D01*
X43449875Y-102901750D01*
X43449875Y-102901750D01*
G37*
X43449875Y-102901750D02*
X43045063Y-102901750D01*
X43045063Y-102496938D01*
X43449875Y-102496938D01*
X43449875Y-102901750D01*
G36*
X44453969Y-98628045D02*
X44578087Y-98629415D01*
X44689799Y-98633572D01*
X44792392Y-98640919D01*
X44889156Y-98651860D01*
X44983378Y-98666798D01*
X45078347Y-98686137D01*
X45177351Y-98710281D01*
X45222630Y-98722418D01*
X45431177Y-98787656D01*
X45633265Y-98866992D01*
X45828128Y-98960028D01*
X46014999Y-99066368D01*
X46193114Y-99185616D01*
X46345260Y-99303617D01*
X46502928Y-99444342D01*
X46650265Y-99595787D01*
X46786586Y-99756885D01*
X46911208Y-99926567D01*
X47023447Y-100103766D01*
X47122620Y-100287416D01*
X47208042Y-100476447D01*
X47279030Y-100669793D01*
X47327784Y-100837803D01*
X47360855Y-100977789D01*
X47386215Y-101109725D01*
X47404607Y-101238997D01*
X47416775Y-101370993D01*
X47423461Y-101511100D01*
X47424114Y-101536500D01*
X47421395Y-101754797D01*
X47403200Y-101969580D01*
X47369535Y-102180821D01*
X47320406Y-102388489D01*
X47255819Y-102592555D01*
X47191622Y-102756487D01*
X47163539Y-102821752D01*
X47139477Y-102875910D01*
X47117608Y-102922613D01*
X47096107Y-102965513D01*
X47073146Y-103008263D01*
X47046900Y-103054515D01*
X47017775Y-103104156D01*
X46898556Y-103290427D01*
X46768452Y-103465153D01*
X46627329Y-103628465D01*
X46475055Y-103780496D01*
X46311497Y-103921380D01*
X46136524Y-104051248D01*
X45954156Y-104167775D01*
X45901327Y-104198744D01*
X45855414Y-104224721D01*
X45812765Y-104247531D01*
X45769728Y-104269001D01*
X45722651Y-104290957D01*
X45667881Y-104315225D01*
X45606487Y-104341622D01*
X45510254Y-104381169D01*
X45421536Y-104414208D01*
X45334422Y-104442695D01*
X45242998Y-104468589D01*
X45160406Y-104489322D01*
X44995890Y-104524876D01*
X44838795Y-104550553D01*
X44684567Y-104566893D01*
X44528649Y-104574436D01*
X44438094Y-104575013D01*
X44386875Y-104574498D01*
X44338754Y-104573793D01*
X44296874Y-104572960D01*
X44264378Y-104572063D01*
X44244410Y-104571165D01*
X44243625Y-104571109D01*
X44027451Y-104547157D01*
X43814694Y-104508170D01*
X43606213Y-104454467D01*
X43402868Y-104386363D01*
X43205516Y-104304176D01*
X43015018Y-104208225D01*
X42832232Y-104098826D01*
X42681276Y-103993796D01*
X42508349Y-103855449D01*
X42347665Y-103707088D01*
X42199451Y-103549039D01*
X42063929Y-103381632D01*
X41941324Y-103205194D01*
X41831861Y-103020052D01*
X41735763Y-102826535D01*
X41653256Y-102624971D01*
X41584563Y-102415688D01*
X41572418Y-102372630D01*
X41546052Y-102270835D01*
X41524667Y-102174511D01*
X41507859Y-102080367D01*
X41495225Y-101985117D01*
X41486360Y-101885470D01*
X41480862Y-101778140D01*
X41478326Y-101659836D01*
X41478045Y-101603969D01*
X41478720Y-101548608D01*
X42010794Y-101548608D01*
X42010897Y-101628746D01*
X42012563Y-101708410D01*
X42015759Y-101783537D01*
X42020456Y-101850060D01*
X42024176Y-101885750D01*
X42056050Y-102083048D01*
X42102701Y-102274663D01*
X42163951Y-102460222D01*
X42239619Y-102639349D01*
X42329527Y-102811669D01*
X42433494Y-102976809D01*
X42551341Y-103134393D01*
X42682888Y-103284047D01*
X42705224Y-103307260D01*
X42839458Y-103434334D01*
X42985160Y-103552270D01*
X43139631Y-103659090D01*
X43300169Y-103752816D01*
X43345958Y-103776504D01*
X43420366Y-103813153D01*
X43485607Y-103843372D01*
X43546104Y-103868940D01*
X43606278Y-103891634D01*
X43670551Y-103913233D01*
X43735625Y-103933227D01*
X43924838Y-103982640D01*
X44110589Y-104017091D01*
X44294327Y-104036714D01*
X44477503Y-104041642D01*
X44661564Y-104032011D01*
X44728106Y-104025031D01*
X44915438Y-103996087D01*
X45095019Y-103954278D01*
X45269357Y-103898854D01*
X45440959Y-103829064D01*
X45537916Y-103782866D01*
X45708548Y-103689447D01*
X45867964Y-103585712D01*
X46016922Y-103470974D01*
X46156179Y-103344550D01*
X46286494Y-103205754D01*
X46408624Y-103053903D01*
X46516892Y-102898259D01*
X46542018Y-102857068D01*
X46571341Y-102804940D01*
X46603041Y-102745496D01*
X46635299Y-102682356D01*
X46666293Y-102619140D01*
X46694206Y-102559467D01*
X46717215Y-102506957D01*
X46730653Y-102473125D01*
X46793520Y-102281584D01*
X46840916Y-102088845D01*
X46872800Y-101895450D01*
X46889130Y-101701940D01*
X46889868Y-101508857D01*
X46874972Y-101316742D01*
X46844402Y-101126136D01*
X46834599Y-101080094D01*
X46800950Y-100943801D01*
X46762642Y-100817618D01*
X46717704Y-100696007D01*
X46664163Y-100573432D01*
X46626504Y-100495958D01*
X46532799Y-100327110D01*
X46425974Y-100166673D01*
X46306798Y-100015368D01*
X46176037Y-99873914D01*
X46034460Y-99743031D01*
X45882834Y-99623440D01*
X45721927Y-99515860D01*
X45552507Y-99421011D01*
X45408325Y-99353480D01*
X45236697Y-99287085D01*
X45064143Y-99235087D01*
X44888656Y-99197078D01*
X44708226Y-99172651D01*
X44520845Y-99161397D01*
X44457938Y-99160507D01*
X44259843Y-99166877D01*
X44068215Y-99187522D01*
X43882281Y-99222673D01*
X43701265Y-99272567D01*
X43524394Y-99337435D01*
X43350894Y-99417513D01*
X43179991Y-99513035D01*
X43079294Y-99577244D01*
X42939861Y-99678772D01*
X42805663Y-99793278D01*
X42678341Y-99918839D01*
X42559535Y-100053531D01*
X42450886Y-100195431D01*
X42354035Y-100342615D01*
X42270622Y-100493161D01*
X42235826Y-100566080D01*
X42174423Y-100710939D01*
X42124192Y-100850178D01*
X42083935Y-100988126D01*
X42052456Y-101129114D01*
X42028556Y-101277471D01*
X42020155Y-101346000D01*
X42015392Y-101403170D01*
X42012282Y-101472061D01*
X42010794Y-101548608D01*
X41478720Y-101548608D01*
X41479790Y-101460973D01*
X41485664Y-101330106D01*
X41496238Y-101208025D01*
X41512085Y-101091385D01*
X41533777Y-100976844D01*
X41561887Y-100861059D01*
X41596986Y-100740687D01*
X41639647Y-100612384D01*
X41655341Y-100568125D01*
X41733726Y-100373406D01*
X41826566Y-100185072D01*
X41933672Y-100003385D01*
X42054852Y-99828608D01*
X42189917Y-99661003D01*
X42338674Y-99500833D01*
X42500933Y-99348360D01*
X42607771Y-99258179D01*
X42693600Y-99192686D01*
X42791139Y-99125360D01*
X42896748Y-99058412D01*
X43006786Y-98994055D01*
X43117613Y-98934500D01*
X43225589Y-98881958D01*
X43231594Y-98879215D01*
X43301554Y-98849342D01*
X43382735Y-98817956D01*
X43470767Y-98786536D01*
X43561279Y-98756562D01*
X43649901Y-98729511D01*
X43732264Y-98706864D01*
X43764150Y-98698971D01*
X43857375Y-98678203D01*
X43946349Y-98661543D01*
X44034353Y-98648652D01*
X44124669Y-98639195D01*
X44220578Y-98632832D01*
X44325360Y-98629228D01*
X44442295Y-98628044D01*
X44453969Y-98628045D01*
X44453969Y-98628045D01*
G37*
X44453969Y-98628045D02*
X44578087Y-98629415D01*
X44689799Y-98633572D01*
X44792392Y-98640919D01*
X44889156Y-98651860D01*
X44983378Y-98666798D01*
X45078347Y-98686137D01*
X45177351Y-98710281D01*
X45222630Y-98722418D01*
X45431177Y-98787656D01*
X45633265Y-98866992D01*
X45828128Y-98960028D01*
X46014999Y-99066368D01*
X46193114Y-99185616D01*
X46345260Y-99303617D01*
X46502928Y-99444342D01*
X46650265Y-99595787D01*
X46786586Y-99756885D01*
X46911208Y-99926567D01*
X47023447Y-100103766D01*
X47122620Y-100287416D01*
X47208042Y-100476447D01*
X47279030Y-100669793D01*
X47327784Y-100837803D01*
X47360855Y-100977789D01*
X47386215Y-101109725D01*
X47404607Y-101238997D01*
X47416775Y-101370993D01*
X47423461Y-101511100D01*
X47424114Y-101536500D01*
X47421395Y-101754797D01*
X47403200Y-101969580D01*
X47369535Y-102180821D01*
X47320406Y-102388489D01*
X47255819Y-102592555D01*
X47191622Y-102756487D01*
X47163539Y-102821752D01*
X47139477Y-102875910D01*
X47117608Y-102922613D01*
X47096107Y-102965513D01*
X47073146Y-103008263D01*
X47046900Y-103054515D01*
X47017775Y-103104156D01*
X46898556Y-103290427D01*
X46768452Y-103465153D01*
X46627329Y-103628465D01*
X46475055Y-103780496D01*
X46311497Y-103921380D01*
X46136524Y-104051248D01*
X45954156Y-104167775D01*
X45901327Y-104198744D01*
X45855414Y-104224721D01*
X45812765Y-104247531D01*
X45769728Y-104269001D01*
X45722651Y-104290957D01*
X45667881Y-104315225D01*
X45606487Y-104341622D01*
X45510254Y-104381169D01*
X45421536Y-104414208D01*
X45334422Y-104442695D01*
X45242998Y-104468589D01*
X45160406Y-104489322D01*
X44995890Y-104524876D01*
X44838795Y-104550553D01*
X44684567Y-104566893D01*
X44528649Y-104574436D01*
X44438094Y-104575013D01*
X44386875Y-104574498D01*
X44338754Y-104573793D01*
X44296874Y-104572960D01*
X44264378Y-104572063D01*
X44244410Y-104571165D01*
X44243625Y-104571109D01*
X44027451Y-104547157D01*
X43814694Y-104508170D01*
X43606213Y-104454467D01*
X43402868Y-104386363D01*
X43205516Y-104304176D01*
X43015018Y-104208225D01*
X42832232Y-104098826D01*
X42681276Y-103993796D01*
X42508349Y-103855449D01*
X42347665Y-103707088D01*
X42199451Y-103549039D01*
X42063929Y-103381632D01*
X41941324Y-103205194D01*
X41831861Y-103020052D01*
X41735763Y-102826535D01*
X41653256Y-102624971D01*
X41584563Y-102415688D01*
X41572418Y-102372630D01*
X41546052Y-102270835D01*
X41524667Y-102174511D01*
X41507859Y-102080367D01*
X41495225Y-101985117D01*
X41486360Y-101885470D01*
X41480862Y-101778140D01*
X41478326Y-101659836D01*
X41478045Y-101603969D01*
X41478720Y-101548608D01*
X42010794Y-101548608D01*
X42010897Y-101628746D01*
X42012563Y-101708410D01*
X42015759Y-101783537D01*
X42020456Y-101850060D01*
X42024176Y-101885750D01*
X42056050Y-102083048D01*
X42102701Y-102274663D01*
X42163951Y-102460222D01*
X42239619Y-102639349D01*
X42329527Y-102811669D01*
X42433494Y-102976809D01*
X42551341Y-103134393D01*
X42682888Y-103284047D01*
X42705224Y-103307260D01*
X42839458Y-103434334D01*
X42985160Y-103552270D01*
X43139631Y-103659090D01*
X43300169Y-103752816D01*
X43345958Y-103776504D01*
X43420366Y-103813153D01*
X43485607Y-103843372D01*
X43546104Y-103868940D01*
X43606278Y-103891634D01*
X43670551Y-103913233D01*
X43735625Y-103933227D01*
X43924838Y-103982640D01*
X44110589Y-104017091D01*
X44294327Y-104036714D01*
X44477503Y-104041642D01*
X44661564Y-104032011D01*
X44728106Y-104025031D01*
X44915438Y-103996087D01*
X45095019Y-103954278D01*
X45269357Y-103898854D01*
X45440959Y-103829064D01*
X45537916Y-103782866D01*
X45708548Y-103689447D01*
X45867964Y-103585712D01*
X46016922Y-103470974D01*
X46156179Y-103344550D01*
X46286494Y-103205754D01*
X46408624Y-103053903D01*
X46516892Y-102898259D01*
X46542018Y-102857068D01*
X46571341Y-102804940D01*
X46603041Y-102745496D01*
X46635299Y-102682356D01*
X46666293Y-102619140D01*
X46694206Y-102559467D01*
X46717215Y-102506957D01*
X46730653Y-102473125D01*
X46793520Y-102281584D01*
X46840916Y-102088845D01*
X46872800Y-101895450D01*
X46889130Y-101701940D01*
X46889868Y-101508857D01*
X46874972Y-101316742D01*
X46844402Y-101126136D01*
X46834599Y-101080094D01*
X46800950Y-100943801D01*
X46762642Y-100817618D01*
X46717704Y-100696007D01*
X46664163Y-100573432D01*
X46626504Y-100495958D01*
X46532799Y-100327110D01*
X46425974Y-100166673D01*
X46306798Y-100015368D01*
X46176037Y-99873914D01*
X46034460Y-99743031D01*
X45882834Y-99623440D01*
X45721927Y-99515860D01*
X45552507Y-99421011D01*
X45408325Y-99353480D01*
X45236697Y-99287085D01*
X45064143Y-99235087D01*
X44888656Y-99197078D01*
X44708226Y-99172651D01*
X44520845Y-99161397D01*
X44457938Y-99160507D01*
X44259843Y-99166877D01*
X44068215Y-99187522D01*
X43882281Y-99222673D01*
X43701265Y-99272567D01*
X43524394Y-99337435D01*
X43350894Y-99417513D01*
X43179991Y-99513035D01*
X43079294Y-99577244D01*
X42939861Y-99678772D01*
X42805663Y-99793278D01*
X42678341Y-99918839D01*
X42559535Y-100053531D01*
X42450886Y-100195431D01*
X42354035Y-100342615D01*
X42270622Y-100493161D01*
X42235826Y-100566080D01*
X42174423Y-100710939D01*
X42124192Y-100850178D01*
X42083935Y-100988126D01*
X42052456Y-101129114D01*
X42028556Y-101277471D01*
X42020155Y-101346000D01*
X42015392Y-101403170D01*
X42012282Y-101472061D01*
X42010794Y-101548608D01*
X41478720Y-101548608D01*
X41479790Y-101460973D01*
X41485664Y-101330106D01*
X41496238Y-101208025D01*
X41512085Y-101091385D01*
X41533777Y-100976844D01*
X41561887Y-100861059D01*
X41596986Y-100740687D01*
X41639647Y-100612384D01*
X41655341Y-100568125D01*
X41733726Y-100373406D01*
X41826566Y-100185072D01*
X41933672Y-100003385D01*
X42054852Y-99828608D01*
X42189917Y-99661003D01*
X42338674Y-99500833D01*
X42500933Y-99348360D01*
X42607771Y-99258179D01*
X42693600Y-99192686D01*
X42791139Y-99125360D01*
X42896748Y-99058412D01*
X43006786Y-98994055D01*
X43117613Y-98934500D01*
X43225589Y-98881958D01*
X43231594Y-98879215D01*
X43301554Y-98849342D01*
X43382735Y-98817956D01*
X43470767Y-98786536D01*
X43561279Y-98756562D01*
X43649901Y-98729511D01*
X43732264Y-98706864D01*
X43764150Y-98698971D01*
X43857375Y-98678203D01*
X43946349Y-98661543D01*
X44034353Y-98648652D01*
X44124669Y-98639195D01*
X44220578Y-98632832D01*
X44325360Y-98629228D01*
X44442295Y-98628044D01*
X44453969Y-98628045D01*
G04 #@! TD*
D12*
G04 #@! TO.C,USB1*
X314454000Y98750D03*
X305814000Y98750D03*
D13*
X314454000Y-4081250D03*
X305814000Y-4081250D03*
D14*
X307244000Y-3551250D03*
X313024000Y-3551250D03*
G04 #@! TD*
D15*
G04 #@! TO.C,K_ENTER2*
X294005000Y-57025000D03*
G04 #@! TD*
G04 #@! TO.C,K_BACK1*
X285625000Y-31110000D03*
G04 #@! TD*
G04 #@! TO.C,K_SBACK2*
X282700000Y-36830000D03*
G04 #@! TD*
M02*
