M48
;DRILL file {KiCad (5.0.0)} date 01/11/19 00:29:26
;FORMAT={-:-/ absolute / inch / decimal}
FMAT,2
INCH,TZ
T1C0.0157
T2C0.0236
T3C0.0551
%
G90
G05
M72
T1
X2.26Y-4.
X10.49Y-3.78
X10.78Y-3.47
X11.455Y-3.595
X11.655Y-3.65
X11.71Y-3.765
X11.72Y-3.165
X11.745Y-2.845
X11.82Y-3.3
X11.92Y-3.215
X11.9637Y-0.0938
X12.Y-0.41
X12.Y-1.345
X12.Y-2.095
X12.09Y-3.215
X12.11Y-0.2988
X12.15Y-0.2637
X12.185Y-3.9
X12.245Y-3.9
X12.265Y-0.2637
X12.295Y-0.2988
X12.395Y-3.21
X12.44Y-0.095
X12.45Y-1.345
X12.45Y-2.095
X12.4513Y-0.4087
X12.5Y-2.845
X12.525Y-3.955
X12.805Y-3.9
X12.97Y-2.155
X13.015Y-2.155
X13.06Y-1.405
X13.065Y-0.465
X13.875Y-3.995
X13.875Y-4.345
T3
X9.5576Y-4.2248
X9.5576Y-4.45
X9.8174Y-4.2248
X9.8174Y-4.45
X5.0576Y-3.4748
X5.0576Y-3.7
X5.3174Y-3.4748
X5.3174Y-3.7
X3.1826Y-2.7248
X3.1826Y-2.95
X3.4424Y-2.7248
X3.4424Y-2.95
X14.0576Y-1.2248
X14.0576Y-1.45
X14.3174Y-1.2248
X14.3174Y-1.45
X7.6826Y-2.7248
X7.6826Y-2.95
X7.9424Y-2.7248
X7.9424Y-2.95
X12.5576Y-4.2248
X12.5576Y-4.45
X12.8174Y-4.2248
X12.8174Y-4.45
X10.1201Y-1.2248
X10.1201Y-1.45
X10.3799Y-1.2248
X10.3799Y-1.45
X1.1201Y-1.2248
X1.1201Y-1.45
X1.3799Y-1.2248
X1.3799Y-1.45
X9.9326Y-2.7248
X9.9326Y-2.95
X10.1924Y-2.7248
X10.1924Y-2.95
X8.0576Y-3.4748
X8.0576Y-3.7
X8.3174Y-3.4748
X8.3174Y-3.7
X2.2451Y-4.2248
X2.2451Y-4.45
X2.5049Y-4.2248
X2.5049Y-4.45
X1.3076Y-1.9748
X1.3076Y-2.2
X1.5674Y-1.9748
X1.5674Y-2.2
X10.9638Y-3.4748
X10.9638Y-3.7
X11.2237Y-3.4748
X11.2237Y-3.7
X13.3076Y-1.9748
X13.3076Y-2.2
X13.5674Y-1.9748
X13.5674Y-2.2
X11.2451Y-1.45
X11.5049Y-1.2248
X11.5049Y-1.45
X7.4951Y-1.9748
X7.4951Y-2.2
X7.7549Y-1.9748
X7.7549Y-2.2
X5.4326Y-2.7248
X5.4326Y-2.95
X5.6924Y-2.7248
X5.6924Y-2.95
X3.3701Y-0.2873
X3.3701Y-0.5125
X3.6299Y-0.2873
X3.6299Y-0.5125
X3.1826Y-4.2248
X3.1826Y-4.45
X3.4424Y-4.2248
X3.4424Y-4.45
X7.4951Y-0.2873
X7.4951Y-0.5125
X7.7549Y-0.2873
X7.7549Y-0.5125
X8.6201Y-1.2248
X8.6201Y-1.45
X8.8799Y-1.2248
X8.8799Y-1.45
X4.1201Y-1.2248
X4.1201Y-1.45
X4.3799Y-1.2248
X4.3799Y-1.45
X5.8076Y-3.4748
X5.8076Y-3.7
X6.0674Y-3.4748
X6.0674Y-3.7
X11.2451Y-4.2248
X11.2451Y-4.45
X11.5049Y-4.2248
X11.5049Y-4.45
X5.9951Y-1.9748
X5.9951Y-2.2
X6.2549Y-1.9748
X6.2549Y-2.2
X6.7451Y-1.9748
X6.7451Y-2.2
X7.0049Y-1.9748
X7.0049Y-2.2
X13.3076Y-3.4748
X13.3076Y-3.7
X13.5674Y-3.4748
X13.5674Y-3.7
X4.4951Y-1.9748
X4.4951Y-2.2
X4.7549Y-1.9748
X4.7549Y-2.2
X1.1201Y-0.2873
X1.1201Y-0.5125
X1.3799Y-0.2873
X1.3799Y-0.5125
X11.1513Y-2.7248
X11.1513Y-2.95
X11.4112Y-2.7248
X11.4112Y-2.95
X2.4326Y-2.7248
X2.4326Y-2.95
X2.6924Y-2.7248
X2.6924Y-2.95
X11.6201Y-0.2873
X11.6201Y-0.5125
X11.8799Y-0.2873
X11.8799Y-0.5125
X9.1826Y-2.7248
X9.1826Y-2.95
X9.4424Y-2.7248
X9.4424Y-2.95
X6.7451Y-0.2873
X6.7451Y-0.5125
X7.0049Y-0.2873
X7.0049Y-0.5125
X7.1201Y-1.2248
X7.1201Y-1.45
X7.3799Y-1.2248
X7.3799Y-1.45
X8.8076Y-3.4748
X8.8076Y-3.7
X9.0674Y-3.4748
X9.0674Y-3.7
X2.8076Y-4.2248
X2.8076Y-4.45
X3.0674Y-4.2248
X3.0674Y-4.45
X10.4951Y-4.2248
X10.4951Y-4.45
X10.7549Y-4.2248
X10.7549Y-4.45
X3.5576Y-3.4748
X3.5576Y-3.7
X3.8174Y-3.4748
X3.8174Y-3.7
X14.0576Y-0.2873
X14.0576Y-0.5125
X14.3174Y-0.2873
X14.3174Y-0.5125
X6.3701Y-4.2248
X6.3701Y-4.45
X6.6299Y-4.2248
X6.6299Y-4.45
X1.5888Y-3.4748
X1.5888Y-3.7
X1.8487Y-3.4748
X1.8487Y-3.7
X2.2451Y-1.9748
X2.2451Y-2.2
X2.5049Y-1.9748
X2.5049Y-2.2
X7.3076Y-3.4748
X7.3076Y-3.7
X7.5674Y-3.4748
X7.5674Y-3.7
X3.9326Y-2.7248
X3.9326Y-2.95
X4.1924Y-2.7248
X4.1924Y-2.95
X2.6201Y-0.2873
X2.6201Y-0.5125
X2.8799Y-0.2873
X2.8799Y-0.5125
X10.8701Y-0.2873
X10.8701Y-0.5125
X11.1299Y-0.2873
X11.1299Y-0.5125
X4.8701Y-0.2873
X4.8701Y-0.5125
X5.1299Y-0.2873
X5.1299Y-0.5125
X5.6201Y-1.2248
X5.6201Y-1.45
X5.8799Y-1.2248
X5.8799Y-1.45
X3.3701Y-1.2248
X3.3701Y-1.45
X3.6299Y-1.2248
X3.6299Y-1.45
X3.7451Y-1.9748
X3.7451Y-2.2
X4.0049Y-1.9748
X4.0049Y-2.2
X10.4951Y-1.9748
X10.4951Y-2.2
X10.7549Y-1.9748
X10.7549Y-2.2
X12.5576Y-0.2873
X12.5576Y-0.5125
X12.8174Y-0.2873
X12.8174Y-0.5125
X2.9951Y-1.9748
X2.9951Y-2.2
X3.2549Y-1.9748
X3.2549Y-2.2
X13.3076Y-0.2873
X13.3076Y-0.5125
X13.5674Y-0.2873
X13.5674Y-0.5125
X8.9951Y-1.9748
X8.9951Y-2.2
X9.2549Y-1.9748
X9.2549Y-2.2
X8.4326Y-2.7248
X8.4326Y-2.95
X8.6924Y-2.7248
X8.6924Y-2.95
X13.3076Y-1.2248
X13.3076Y-1.45
X13.5674Y-1.2248
X13.5674Y-1.45
X1.3076Y-4.2248
X1.3076Y-4.45
X1.5674Y-4.2248
X1.5674Y-4.45
X6.3701Y-1.2248
X6.3701Y-1.45
X6.6299Y-1.2248
X6.6299Y-1.45
X10.1201Y-0.2873
X10.1201Y-0.5125
X10.3799Y-0.2873
X10.3799Y-0.5125
X9.5576Y-3.4748
X9.5576Y-3.7
X9.8174Y-3.4748
X9.8174Y-3.7
X5.9951Y-0.2873
X5.9951Y-0.5125
X6.2549Y-0.2873
X6.2549Y-0.5125
X4.8701Y-1.2248
X4.8701Y-1.45
X5.1299Y-1.2248
X5.1299Y-1.45
X11.4326Y-4.2248
X11.4326Y-4.45
X11.6924Y-4.2248
X11.6924Y-4.45
X9.7451Y-1.9748
X9.7451Y-2.2
X10.0049Y-1.9748
X10.0049Y-2.2
X5.2451Y-1.9748
X5.2451Y-2.2
X5.5049Y-1.9748
X5.5049Y-2.2
X1.4951Y-4.2248
X1.4951Y-4.45
X1.7549Y-4.2248
X1.7549Y-4.45
X2.8076Y-3.4748
X2.8076Y-3.7
X3.0674Y-3.4748
X3.0674Y-3.7
X14.0576Y-4.2248
X14.0576Y-4.45
X14.3174Y-4.2248
X14.3174Y-4.45
X4.6826Y-2.7248
X4.6826Y-2.95
X4.9424Y-2.7248
X4.9424Y-2.95
X8.2451Y-1.9748
X8.2451Y-2.2
X8.5049Y-1.9748
X8.5049Y-2.2
X14.0576Y-1.9748
X14.0576Y-2.2
X14.3174Y-1.9748
X14.3174Y-2.2
X6.9326Y-2.7248
X6.9326Y-2.95
X7.1924Y-2.7248
X7.1924Y-2.95
X13.3076Y-4.2248
X13.3076Y-4.45
X13.5674Y-4.2248
X13.5674Y-4.45
X2.6201Y-1.2248
X2.6201Y-1.45
X2.8799Y-1.2248
X2.8799Y-1.45
X9.3701Y-0.2873
X9.3701Y-0.5125
X9.6299Y-0.2873
X9.6299Y-0.5125
X10.8701Y-1.2248
X10.8701Y-1.45
X11.1299Y-1.2248
X9.3701Y-1.2248
X9.3701Y-1.45
X9.6299Y-1.2248
X9.6299Y-1.45
X4.1201Y-0.2873
X4.1201Y-0.5125
X4.3799Y-0.2873
X4.3799Y-0.5125
X9.9326Y-4.2248
X9.9326Y-4.45
X10.1924Y-4.2248
X10.1924Y-4.45
X11.3498Y-2.2451
X11.3498Y-2.5049
X11.575Y-2.5049
X11.6201Y-1.2248
X11.6201Y-1.45
X11.8799Y-1.2248
X11.8799Y-1.45
X12.5576Y-1.9748
X12.5576Y-2.2
X12.8174Y-1.9748
X12.8174Y-2.2
X12.5576Y-1.2248
X12.5576Y-1.45
X12.8174Y-1.2248
X12.8174Y-1.45
X6.5576Y-3.4748
X6.5576Y-3.7
X6.8174Y-3.4748
X6.8174Y-3.7
X6.1826Y-2.7248
X6.1826Y-2.95
X6.4424Y-2.7248
X6.4424Y-2.95
X4.3076Y-3.4748
X4.3076Y-3.7
X4.5674Y-3.4748
X4.5674Y-3.7
X11.4326Y-1.9748
X11.4326Y-2.2
X11.6924Y-1.9748
X11.6924Y-2.2
X8.2451Y-0.2873
X8.2451Y-0.5125
X8.5049Y-0.2873
X8.5049Y-0.5125
X7.8701Y-1.2248
X7.8701Y-1.45
X8.1299Y-1.2248
X8.1299Y-1.45
X1.8701Y-1.2248
X1.8701Y-1.45
X2.1299Y-1.2248
X2.1299Y-1.45
X1.4013Y-2.7248
X1.4013Y-2.95
X1.6612Y-2.7248
X1.6612Y-2.95
T2
X12.0399Y0.0157G85X12.0399Y-0.0079
G05
X12.0399Y-0.139G85X12.0399Y-0.1823
G05
X12.3801Y0.0157G85X12.3801Y-0.0079
G05
X12.3801Y-0.139G85X12.3801Y-0.1823
G05
T0
M30
