G04 #@! TF.GenerationSoftware,KiCad,Pcbnew,(5.0.0)*
G04 #@! TF.CreationDate,2019-01-11T00:29:23-08:00*
G04 #@! TF.ProjectId,Celestine,43656C657374696E652E6B696361645F,rev?*
G04 #@! TF.SameCoordinates,Original*
G04 #@! TF.FileFunction,Soldermask,Bot*
G04 #@! TF.FilePolarity,Negative*
%FSLAX46Y46*%
G04 Gerber Fmt 4.6, Leading zero omitted, Abs format (unit mm)*
G04 Created by KiCad (PCBNEW (5.0.0)) date 01/11/19 00:29:23*
%MOMM*%
%LPD*%
G01*
G04 APERTURE LIST*
%ADD10C,0.300000*%
%ADD11C,0.010000*%
%ADD12R,1.200000X1.150000*%
%ADD13R,1.150000X1.200000*%
%ADD14R,1.600000X1.300000*%
%ADD15R,2.430000X1.540000*%
%ADD16C,3.580000*%
%ADD17R,1.700000X1.100000*%
%ADD18R,1.100000X1.700000*%
%ADD19R,1.500000X2.200000*%
%ADD20R,1.100000X1.000000*%
%ADD21R,1.100000X1.400000*%
%ADD22O,1.400000X2.000000*%
%ADD23O,1.400000X2.500000*%
%ADD24C,1.050000*%
%ADD25R,0.700000X1.850000*%
%ADD26R,1.000000X1.850000*%
%ADD27R,1.600000X1.800000*%
%ADD28R,1.900000X0.950000*%
%ADD29R,0.950000X1.900000*%
%ADD30C,1.800000*%
G04 APERTURE END LIST*
D10*
X69670535Y-62384821D02*
X69384821Y-63384821D01*
X69099107Y-62670535D01*
X68813392Y-63384821D01*
X68527678Y-62384821D01*
X68099107Y-62384821D02*
X67813392Y-63384821D01*
X67527678Y-62670535D01*
X67241964Y-63384821D01*
X66956250Y-62384821D01*
X66527678Y-62384821D02*
X66241964Y-63384821D01*
X65956250Y-62670535D01*
X65670535Y-63384821D01*
X65384821Y-62384821D01*
X64813392Y-63241964D02*
X64741964Y-63313392D01*
X64813392Y-63384821D01*
X64884821Y-63313392D01*
X64813392Y-63241964D01*
X64813392Y-63384821D01*
X63456250Y-63384821D02*
X63456250Y-62599107D01*
X63527678Y-62456250D01*
X63670535Y-62384821D01*
X63956250Y-62384821D01*
X64099107Y-62456250D01*
X63456250Y-63313392D02*
X63599107Y-63384821D01*
X63956250Y-63384821D01*
X64099107Y-63313392D01*
X64170535Y-63170535D01*
X64170535Y-63027678D01*
X64099107Y-62884821D01*
X63956250Y-62813392D01*
X63599107Y-62813392D01*
X63456250Y-62741964D01*
X62741964Y-63384821D02*
X62741964Y-62384821D01*
X62741964Y-61884821D02*
X62813392Y-61956250D01*
X62741964Y-62027678D01*
X62670535Y-61956250D01*
X62741964Y-61884821D01*
X62741964Y-62027678D01*
X61741964Y-61884821D02*
X61599107Y-61884821D01*
X61456250Y-61956250D01*
X61384821Y-62027678D01*
X61313392Y-62170535D01*
X61241964Y-62456250D01*
X61241964Y-62813392D01*
X61313392Y-63099107D01*
X61384821Y-63241964D01*
X61456250Y-63313392D01*
X61599107Y-63384821D01*
X61741964Y-63384821D01*
X61884821Y-63313392D01*
X61956250Y-63241964D01*
X62027678Y-63099107D01*
X62099107Y-62813392D01*
X62099107Y-62456250D01*
X62027678Y-62170535D01*
X61956250Y-62027678D01*
X61884821Y-61956250D01*
X61741964Y-61884821D01*
X60741964Y-61884821D02*
X59813392Y-61884821D01*
X60313392Y-62456250D01*
X60099107Y-62456250D01*
X59956250Y-62527678D01*
X59884821Y-62599107D01*
X59813392Y-62741964D01*
X59813392Y-63099107D01*
X59884821Y-63241964D01*
X59956250Y-63313392D01*
X60099107Y-63384821D01*
X60527678Y-63384821D01*
X60670535Y-63313392D01*
X60741964Y-63241964D01*
X59170535Y-63241964D02*
X59099107Y-63313392D01*
X59170535Y-63384821D01*
X59241964Y-63313392D01*
X59170535Y-63241964D01*
X59170535Y-63384821D01*
X58456250Y-63384821D02*
X58456250Y-62384821D01*
X58456250Y-62527678D02*
X58384821Y-62456250D01*
X58241964Y-62384821D01*
X58027678Y-62384821D01*
X57884821Y-62456250D01*
X57813392Y-62599107D01*
X57813392Y-63384821D01*
X57813392Y-62599107D02*
X57741964Y-62456250D01*
X57599107Y-62384821D01*
X57384821Y-62384821D01*
X57241964Y-62456250D01*
X57170535Y-62599107D01*
X57170535Y-63384821D01*
X55884821Y-63313392D02*
X56027678Y-63384821D01*
X56313392Y-63384821D01*
X56456250Y-63313392D01*
X56527678Y-63170535D01*
X56527678Y-62599107D01*
X56456250Y-62456250D01*
X56313392Y-62384821D01*
X56027678Y-62384821D01*
X55884821Y-62456250D01*
X55813392Y-62599107D01*
X55813392Y-62741964D01*
X56527678Y-62884821D01*
X263394642Y-63241964D02*
X263466071Y-63313392D01*
X263680357Y-63384821D01*
X263823214Y-63384821D01*
X264037500Y-63313392D01*
X264180357Y-63170535D01*
X264251785Y-63027678D01*
X264323214Y-62741964D01*
X264323214Y-62527678D01*
X264251785Y-62241964D01*
X264180357Y-62099107D01*
X264037500Y-61956250D01*
X263823214Y-61884821D01*
X263680357Y-61884821D01*
X263466071Y-61956250D01*
X263394642Y-62027678D01*
X262180357Y-63313392D02*
X262323214Y-63384821D01*
X262608928Y-63384821D01*
X262751785Y-63313392D01*
X262823214Y-63170535D01*
X262823214Y-62599107D01*
X262751785Y-62456250D01*
X262608928Y-62384821D01*
X262323214Y-62384821D01*
X262180357Y-62456250D01*
X262108928Y-62599107D01*
X262108928Y-62741964D01*
X262823214Y-62884821D01*
X261251785Y-63384821D02*
X261394642Y-63313392D01*
X261466071Y-63170535D01*
X261466071Y-61884821D01*
X260108928Y-63313392D02*
X260251785Y-63384821D01*
X260537500Y-63384821D01*
X260680357Y-63313392D01*
X260751785Y-63170535D01*
X260751785Y-62599107D01*
X260680357Y-62456250D01*
X260537500Y-62384821D01*
X260251785Y-62384821D01*
X260108928Y-62456250D01*
X260037500Y-62599107D01*
X260037500Y-62741964D01*
X260751785Y-62884821D01*
X259466071Y-63313392D02*
X259323214Y-63384821D01*
X259037500Y-63384821D01*
X258894642Y-63313392D01*
X258823214Y-63170535D01*
X258823214Y-63099107D01*
X258894642Y-62956250D01*
X259037500Y-62884821D01*
X259251785Y-62884821D01*
X259394642Y-62813392D01*
X259466071Y-62670535D01*
X259466071Y-62599107D01*
X259394642Y-62456250D01*
X259251785Y-62384821D01*
X259037500Y-62384821D01*
X258894642Y-62456250D01*
X258394642Y-62384821D02*
X257823214Y-62384821D01*
X258180357Y-61884821D02*
X258180357Y-63170535D01*
X258108928Y-63313392D01*
X257966071Y-63384821D01*
X257823214Y-63384821D01*
X257323214Y-63384821D02*
X257323214Y-62384821D01*
X257323214Y-61884821D02*
X257394642Y-61956250D01*
X257323214Y-62027678D01*
X257251785Y-61956250D01*
X257323214Y-61884821D01*
X257323214Y-62027678D01*
X256608928Y-62384821D02*
X256608928Y-63384821D01*
X256608928Y-62527678D02*
X256537500Y-62456250D01*
X256394642Y-62384821D01*
X256180357Y-62384821D01*
X256037500Y-62456250D01*
X255966071Y-62599107D01*
X255966071Y-63384821D01*
X254680357Y-63313392D02*
X254823214Y-63384821D01*
X255108928Y-63384821D01*
X255251785Y-63313392D01*
X255323214Y-63170535D01*
X255323214Y-62599107D01*
X255251785Y-62456250D01*
X255108928Y-62384821D01*
X254823214Y-62384821D01*
X254680357Y-62456250D01*
X254608928Y-62599107D01*
X254608928Y-62741964D01*
X255323214Y-62884821D01*
X253037500Y-61884821D02*
X252180357Y-61884821D01*
X252608928Y-63384821D02*
X252608928Y-61884821D01*
X251680357Y-63384821D02*
X251680357Y-61884821D01*
X250823214Y-63384821D02*
X251466071Y-62527678D01*
X250823214Y-61884821D02*
X251680357Y-62741964D01*
X249466071Y-63384821D02*
X250180357Y-63384821D01*
X250180357Y-61884821D01*
X247823214Y-63384821D02*
X247823214Y-61884821D01*
X247251785Y-61884821D01*
X247108928Y-61956250D01*
X247037499Y-62027678D01*
X246966071Y-62170535D01*
X246966071Y-62384821D01*
X247037499Y-62527678D01*
X247108928Y-62599107D01*
X247251785Y-62670535D01*
X247823214Y-62670535D01*
X245466071Y-63241964D02*
X245537499Y-63313392D01*
X245751785Y-63384821D01*
X245894642Y-63384821D01*
X246108928Y-63313392D01*
X246251785Y-63170535D01*
X246323214Y-63027678D01*
X246394642Y-62741964D01*
X246394642Y-62527678D01*
X246323214Y-62241964D01*
X246251785Y-62099107D01*
X246108928Y-61956250D01*
X245894642Y-61884821D01*
X245751785Y-61884821D01*
X245537499Y-61956250D01*
X245466071Y-62027678D01*
X244323214Y-62599107D02*
X244108928Y-62670535D01*
X244037499Y-62741964D01*
X243966071Y-62884821D01*
X243966071Y-63099107D01*
X244037499Y-63241964D01*
X244108928Y-63313392D01*
X244251785Y-63384821D01*
X244823214Y-63384821D01*
X244823214Y-61884821D01*
X244323214Y-61884821D01*
X244180357Y-61956250D01*
X244108928Y-62027678D01*
X244037499Y-62170535D01*
X244037499Y-62313392D01*
X244108928Y-62456250D01*
X244180357Y-62527678D01*
X244323214Y-62599107D01*
X244823214Y-62599107D01*
X241323214Y-63384821D02*
X241823214Y-62670535D01*
X242180357Y-63384821D02*
X242180357Y-61884821D01*
X241608928Y-61884821D01*
X241466071Y-61956250D01*
X241394642Y-62027678D01*
X241323214Y-62170535D01*
X241323214Y-62384821D01*
X241394642Y-62527678D01*
X241466071Y-62599107D01*
X241608928Y-62670535D01*
X242180357Y-62670535D01*
X240108928Y-63313392D02*
X240251785Y-63384821D01*
X240537499Y-63384821D01*
X240680357Y-63313392D01*
X240751785Y-63170535D01*
X240751785Y-62599107D01*
X240680357Y-62456250D01*
X240537499Y-62384821D01*
X240251785Y-62384821D01*
X240108928Y-62456250D01*
X240037499Y-62599107D01*
X240037499Y-62741964D01*
X240751785Y-62884821D01*
X239537499Y-62384821D02*
X239180357Y-63384821D01*
X238823214Y-62384821D01*
X238251785Y-63384821D02*
X238251785Y-62384821D01*
X238251785Y-61884821D02*
X238323214Y-61956250D01*
X238251785Y-62027678D01*
X238180357Y-61956250D01*
X238251785Y-61884821D01*
X238251785Y-62027678D01*
X237608928Y-63313392D02*
X237466071Y-63384821D01*
X237180357Y-63384821D01*
X237037499Y-63313392D01*
X236966071Y-63170535D01*
X236966071Y-63099107D01*
X237037499Y-62956250D01*
X237180357Y-62884821D01*
X237394642Y-62884821D01*
X237537499Y-62813392D01*
X237608928Y-62670535D01*
X237608928Y-62599107D01*
X237537499Y-62456250D01*
X237394642Y-62384821D01*
X237180357Y-62384821D01*
X237037499Y-62456250D01*
X236323214Y-63384821D02*
X236323214Y-62384821D01*
X236323214Y-61884821D02*
X236394642Y-61956250D01*
X236323214Y-62027678D01*
X236251785Y-61956250D01*
X236323214Y-61884821D01*
X236323214Y-62027678D01*
X235394642Y-63384821D02*
X235537499Y-63313392D01*
X235608928Y-63241964D01*
X235680357Y-63099107D01*
X235680357Y-62670535D01*
X235608928Y-62527678D01*
X235537499Y-62456250D01*
X235394642Y-62384821D01*
X235180357Y-62384821D01*
X235037499Y-62456250D01*
X234966071Y-62527678D01*
X234894642Y-62670535D01*
X234894642Y-63099107D01*
X234966071Y-63241964D01*
X235037499Y-63313392D01*
X235180357Y-63384821D01*
X235394642Y-63384821D01*
X234251785Y-62384821D02*
X234251785Y-63384821D01*
X234251785Y-62527678D02*
X234180357Y-62456250D01*
X234037499Y-62384821D01*
X233823214Y-62384821D01*
X233680357Y-62456250D01*
X233608928Y-62599107D01*
X233608928Y-63384821D01*
X230966071Y-63384821D02*
X231823214Y-63384821D01*
X231394642Y-63384821D02*
X231394642Y-61884821D01*
X231537499Y-62099107D01*
X231680357Y-62241964D01*
X231823214Y-62313392D01*
X230323214Y-63241964D02*
X230251785Y-63313392D01*
X230323214Y-63384821D01*
X230394642Y-63313392D01*
X230323214Y-63241964D01*
X230323214Y-63384821D01*
X229323214Y-61884821D02*
X229180357Y-61884821D01*
X229037499Y-61956250D01*
X228966071Y-62027678D01*
X228894642Y-62170535D01*
X228823214Y-62456250D01*
X228823214Y-62813392D01*
X228894642Y-63099107D01*
X228966071Y-63241964D01*
X229037499Y-63313392D01*
X229180357Y-63384821D01*
X229323214Y-63384821D01*
X229466071Y-63313392D01*
X229537499Y-63241964D01*
X229608928Y-63099107D01*
X229680357Y-62813392D01*
X229680357Y-62456250D01*
X229608928Y-62170535D01*
X229537499Y-62027678D01*
X229466071Y-61956250D01*
X229323214Y-61884821D01*
X227108928Y-62027678D02*
X227037499Y-61956250D01*
X226894642Y-61884821D01*
X226537499Y-61884821D01*
X226394642Y-61956250D01*
X226323214Y-62027678D01*
X226251785Y-62170535D01*
X226251785Y-62313392D01*
X226323214Y-62527678D01*
X227180357Y-63384821D01*
X226251785Y-63384821D01*
X225323214Y-61884821D02*
X225180357Y-61884821D01*
X225037499Y-61956250D01*
X224966071Y-62027678D01*
X224894642Y-62170535D01*
X224823214Y-62456250D01*
X224823214Y-62813392D01*
X224894642Y-63099107D01*
X224966071Y-63241964D01*
X225037499Y-63313392D01*
X225180357Y-63384821D01*
X225323214Y-63384821D01*
X225466071Y-63313392D01*
X225537499Y-63241964D01*
X225608928Y-63099107D01*
X225680357Y-62813392D01*
X225680357Y-62456250D01*
X225608928Y-62170535D01*
X225537499Y-62027678D01*
X225466071Y-61956250D01*
X225323214Y-61884821D01*
X223394642Y-63384821D02*
X224251785Y-63384821D01*
X223823214Y-63384821D02*
X223823214Y-61884821D01*
X223966071Y-62099107D01*
X224108928Y-62241964D01*
X224251785Y-62313392D01*
X222680357Y-63384821D02*
X222394642Y-63384821D01*
X222251785Y-63313392D01*
X222180357Y-63241964D01*
X222037499Y-63027678D01*
X221966071Y-62741964D01*
X221966071Y-62170535D01*
X222037499Y-62027678D01*
X222108928Y-61956250D01*
X222251785Y-61884821D01*
X222537499Y-61884821D01*
X222680357Y-61956250D01*
X222751785Y-62027678D01*
X222823214Y-62170535D01*
X222823214Y-62527678D01*
X222751785Y-62670535D01*
X222680357Y-62741964D01*
X222537499Y-62813392D01*
X222251785Y-62813392D01*
X222108928Y-62741964D01*
X222037499Y-62670535D01*
X221966071Y-62527678D01*
X220537499Y-63384821D02*
X221394642Y-63384821D01*
X220966071Y-63384821D02*
X220966071Y-61884821D01*
X221108928Y-62099107D01*
X221251785Y-62241964D01*
X221394642Y-62313392D01*
X219108928Y-63384821D02*
X219966071Y-63384821D01*
X219537499Y-63384821D02*
X219537499Y-61884821D01*
X219680357Y-62099107D01*
X219823214Y-62241964D01*
X219966071Y-62313392D01*
X217680357Y-63384821D02*
X218537499Y-63384821D01*
X218108928Y-63384821D02*
X218108928Y-61884821D01*
X218251785Y-62099107D01*
X218394642Y-62241964D01*
X218537499Y-62313392D01*
X216751785Y-61884821D02*
X216608928Y-61884821D01*
X216466071Y-61956250D01*
X216394642Y-62027678D01*
X216323214Y-62170535D01*
X216251785Y-62456250D01*
X216251785Y-62813392D01*
X216323214Y-63099107D01*
X216394642Y-63241964D01*
X216466071Y-63313392D01*
X216608928Y-63384821D01*
X216751785Y-63384821D01*
X216894642Y-63313392D01*
X216966071Y-63241964D01*
X217037499Y-63099107D01*
X217108928Y-62813392D01*
X217108928Y-62456250D01*
X217037499Y-62170535D01*
X216966071Y-62027678D01*
X216894642Y-61956250D01*
X216751785Y-61884821D01*
X214108928Y-63884821D02*
X214108928Y-61741964D01*
X211037499Y-63241964D02*
X211108928Y-63313392D01*
X211323214Y-63384821D01*
X211466071Y-63384821D01*
X211680357Y-63313392D01*
X211823214Y-63170535D01*
X211894642Y-63027678D01*
X211966071Y-62741964D01*
X211966071Y-62527678D01*
X211894642Y-62241964D01*
X211823214Y-62099107D01*
X211680357Y-61956250D01*
X211466071Y-61884821D01*
X211323214Y-61884821D01*
X211108928Y-61956250D01*
X211037499Y-62027678D01*
X210394642Y-63384821D02*
X210394642Y-62384821D01*
X210394642Y-62670535D02*
X210323214Y-62527678D01*
X210251785Y-62456250D01*
X210108928Y-62384821D01*
X209966071Y-62384821D01*
X208894642Y-63313392D02*
X209037499Y-63384821D01*
X209323214Y-63384821D01*
X209466071Y-63313392D01*
X209537499Y-63170535D01*
X209537499Y-62599107D01*
X209466071Y-62456250D01*
X209323214Y-62384821D01*
X209037499Y-62384821D01*
X208894642Y-62456250D01*
X208823214Y-62599107D01*
X208823214Y-62741964D01*
X209537499Y-62884821D01*
X207537499Y-63384821D02*
X207537499Y-61884821D01*
X207537499Y-63313392D02*
X207680357Y-63384821D01*
X207966071Y-63384821D01*
X208108928Y-63313392D01*
X208180357Y-63241964D01*
X208251785Y-63099107D01*
X208251785Y-62670535D01*
X208180357Y-62527678D01*
X208108928Y-62456250D01*
X207966071Y-62384821D01*
X207680357Y-62384821D01*
X207537499Y-62456250D01*
X206823214Y-63384821D02*
X206823214Y-62384821D01*
X206823214Y-61884821D02*
X206894642Y-61956250D01*
X206823214Y-62027678D01*
X206751785Y-61956250D01*
X206823214Y-61884821D01*
X206823214Y-62027678D01*
X206323214Y-62384821D02*
X205751785Y-62384821D01*
X206108928Y-61884821D02*
X206108928Y-63170535D01*
X206037499Y-63313392D01*
X205894642Y-63384821D01*
X205751785Y-63384821D01*
X205323214Y-63313392D02*
X205180357Y-63384821D01*
X204894642Y-63384821D01*
X204751785Y-63313392D01*
X204680357Y-63170535D01*
X204680357Y-63099107D01*
X204751785Y-62956250D01*
X204894642Y-62884821D01*
X205108928Y-62884821D01*
X205251785Y-62813392D01*
X205323214Y-62670535D01*
X205323214Y-62599107D01*
X205251785Y-62456250D01*
X205108928Y-62384821D01*
X204894642Y-62384821D01*
X204751785Y-62456250D01*
X203108928Y-62384821D02*
X202537499Y-62384821D01*
X202894642Y-61884821D02*
X202894642Y-63170535D01*
X202823214Y-63313392D01*
X202680357Y-63384821D01*
X202537499Y-63384821D01*
X201823214Y-63384821D02*
X201966071Y-63313392D01*
X202037499Y-63241964D01*
X202108928Y-63099107D01*
X202108928Y-62670535D01*
X202037499Y-62527678D01*
X201966071Y-62456250D01*
X201823214Y-62384821D01*
X201608928Y-62384821D01*
X201466071Y-62456250D01*
X201394642Y-62527678D01*
X201323214Y-62670535D01*
X201323214Y-63099107D01*
X201394642Y-63241964D01*
X201466071Y-63313392D01*
X201608928Y-63384821D01*
X201823214Y-63384821D01*
X199537499Y-63384821D02*
X199537499Y-62384821D01*
X199537499Y-62527678D02*
X199466071Y-62456250D01*
X199323214Y-62384821D01*
X199108928Y-62384821D01*
X198966071Y-62456250D01*
X198894642Y-62599107D01*
X198894642Y-63384821D01*
X198894642Y-62599107D02*
X198823214Y-62456250D01*
X198680357Y-62384821D01*
X198466071Y-62384821D01*
X198323214Y-62456250D01*
X198251785Y-62599107D01*
X198251785Y-63384821D01*
X196894642Y-63313392D02*
X197037499Y-63384821D01*
X197323214Y-63384821D01*
X197466071Y-63313392D01*
X197537499Y-63241964D01*
X197608928Y-63099107D01*
X197608928Y-62670535D01*
X197537499Y-62527678D01*
X197466071Y-62456250D01*
X197323214Y-62384821D01*
X197037499Y-62384821D01*
X196894642Y-62456250D01*
X196251785Y-63384821D02*
X196251785Y-62384821D01*
X196251785Y-62527678D02*
X196180357Y-62456250D01*
X196037499Y-62384821D01*
X195823214Y-62384821D01*
X195680357Y-62456250D01*
X195608928Y-62599107D01*
X195608928Y-63384821D01*
X195608928Y-62599107D02*
X195537499Y-62456250D01*
X195394642Y-62384821D01*
X195180357Y-62384821D01*
X195037499Y-62456250D01*
X194966071Y-62599107D01*
X194966071Y-63384821D01*
X193608928Y-63384821D02*
X193608928Y-62599107D01*
X193680357Y-62456250D01*
X193823214Y-62384821D01*
X194108928Y-62384821D01*
X194251785Y-62456250D01*
X193608928Y-63313392D02*
X193751785Y-63384821D01*
X194108928Y-63384821D01*
X194251785Y-63313392D01*
X194323214Y-63170535D01*
X194323214Y-63027678D01*
X194251785Y-62884821D01*
X194108928Y-62813392D01*
X193751785Y-62813392D01*
X193608928Y-62741964D01*
X193037499Y-63384821D02*
X192251785Y-62384821D01*
X193037499Y-62384821D02*
X192251785Y-63384821D01*
X191680357Y-63384821D02*
X191680357Y-62384821D01*
X191680357Y-62527678D02*
X191608928Y-62456250D01*
X191466071Y-62384821D01*
X191251785Y-62384821D01*
X191108928Y-62456250D01*
X191037499Y-62599107D01*
X191037499Y-63384821D01*
X191037499Y-62599107D02*
X190966071Y-62456250D01*
X190823214Y-62384821D01*
X190608928Y-62384821D01*
X190466071Y-62456250D01*
X190394642Y-62599107D01*
X190394642Y-63384821D01*
X189037499Y-63313392D02*
X189180357Y-63384821D01*
X189466071Y-63384821D01*
X189608928Y-63313392D01*
X189680357Y-63241964D01*
X189751785Y-63099107D01*
X189751785Y-62670535D01*
X189680357Y-62527678D01*
X189608928Y-62456250D01*
X189466071Y-62384821D01*
X189180357Y-62384821D01*
X189037499Y-62456250D01*
X188394642Y-63384821D02*
X188394642Y-62384821D01*
X188394642Y-62527678D02*
X188323214Y-62456250D01*
X188180357Y-62384821D01*
X187966071Y-62384821D01*
X187823214Y-62456250D01*
X187751785Y-62599107D01*
X187751785Y-63384821D01*
X187751785Y-62599107D02*
X187680357Y-62456250D01*
X187537499Y-62384821D01*
X187323214Y-62384821D01*
X187180357Y-62456250D01*
X187108928Y-62599107D01*
X187108928Y-63384821D01*
X185751785Y-63313392D02*
X185894642Y-63384821D01*
X186180357Y-63384821D01*
X186323214Y-63313392D01*
X186394642Y-63241964D01*
X186466071Y-63099107D01*
X186466071Y-62670535D01*
X186394642Y-62527678D01*
X186323214Y-62456250D01*
X186180357Y-62384821D01*
X185894642Y-62384821D01*
X185751785Y-62456250D01*
X185037499Y-63313392D02*
X185037499Y-63384821D01*
X185108928Y-63527678D01*
X185180357Y-63599107D01*
X183251785Y-62599107D02*
X182751785Y-62599107D01*
X182537499Y-63384821D02*
X183251785Y-63384821D01*
X183251785Y-61884821D01*
X182537499Y-61884821D01*
X181894642Y-62384821D02*
X181894642Y-63384821D01*
X181894642Y-62527678D02*
X181823214Y-62456250D01*
X181680357Y-62384821D01*
X181466071Y-62384821D01*
X181323214Y-62456250D01*
X181251785Y-62599107D01*
X181251785Y-63384821D01*
X179894642Y-62384821D02*
X179894642Y-63599107D01*
X179966071Y-63741964D01*
X180037499Y-63813392D01*
X180180357Y-63884821D01*
X180394642Y-63884821D01*
X180537499Y-63813392D01*
X179894642Y-63313392D02*
X180037499Y-63384821D01*
X180323214Y-63384821D01*
X180466071Y-63313392D01*
X180537499Y-63241964D01*
X180608928Y-63099107D01*
X180608928Y-62670535D01*
X180537499Y-62527678D01*
X180466071Y-62456250D01*
X180323214Y-62384821D01*
X180037499Y-62384821D01*
X179894642Y-62456250D01*
X179180357Y-63384821D02*
X179180357Y-62384821D01*
X179180357Y-61884821D02*
X179251785Y-61956250D01*
X179180357Y-62027678D01*
X179108928Y-61956250D01*
X179180357Y-61884821D01*
X179180357Y-62027678D01*
X177823214Y-63313392D02*
X177966071Y-63384821D01*
X178251785Y-63384821D01*
X178394642Y-63313392D01*
X178466071Y-63241964D01*
X178537499Y-63099107D01*
X178537499Y-62670535D01*
X178466071Y-62527678D01*
X178394642Y-62456250D01*
X178251785Y-62384821D01*
X177966071Y-62384821D01*
X177823214Y-62456250D01*
X176966071Y-63384821D02*
X177108928Y-63313392D01*
X177180357Y-63241964D01*
X177251785Y-63099107D01*
X177251785Y-62670535D01*
X177180357Y-62527678D01*
X177108928Y-62456250D01*
X176966071Y-62384821D01*
X176751785Y-62384821D01*
X176608928Y-62456250D01*
X176537499Y-62527678D01*
X176466071Y-62670535D01*
X176466071Y-63099107D01*
X176537499Y-63241964D01*
X176608928Y-63313392D01*
X176751785Y-63384821D01*
X176966071Y-63384821D01*
X175180357Y-63384821D02*
X175180357Y-61884821D01*
X175180357Y-63313392D02*
X175323214Y-63384821D01*
X175608928Y-63384821D01*
X175751785Y-63313392D01*
X175823214Y-63241964D01*
X175894642Y-63099107D01*
X175894642Y-62670535D01*
X175823214Y-62527678D01*
X175751785Y-62456250D01*
X175608928Y-62384821D01*
X175323214Y-62384821D01*
X175180357Y-62456250D01*
X173894642Y-63313392D02*
X174037499Y-63384821D01*
X174323214Y-63384821D01*
X174466071Y-63313392D01*
X174537499Y-63170535D01*
X174537499Y-62599107D01*
X174466071Y-62456250D01*
X174323214Y-62384821D01*
X174037499Y-62384821D01*
X173894642Y-62456250D01*
X173823214Y-62599107D01*
X173823214Y-62741964D01*
X174537499Y-62884821D01*
X173180357Y-63384821D02*
X173180357Y-62384821D01*
X173180357Y-62670535D02*
X173108928Y-62527678D01*
X173037499Y-62456250D01*
X172894642Y-62384821D01*
X172751785Y-62384821D01*
X171323214Y-62384821D02*
X170751785Y-62384821D01*
X171108928Y-63384821D02*
X171108928Y-62099107D01*
X171037499Y-61956250D01*
X170894642Y-61884821D01*
X170751785Y-61884821D01*
X170037499Y-63384821D02*
X170180357Y-63313392D01*
X170251785Y-63241964D01*
X170323214Y-63099107D01*
X170323214Y-62670535D01*
X170251785Y-62527678D01*
X170180357Y-62456250D01*
X170037499Y-62384821D01*
X169823214Y-62384821D01*
X169680357Y-62456250D01*
X169608928Y-62527678D01*
X169537499Y-62670535D01*
X169537499Y-63099107D01*
X169608928Y-63241964D01*
X169680357Y-63313392D01*
X169823214Y-63384821D01*
X170037499Y-63384821D01*
X168894642Y-63384821D02*
X168894642Y-62384821D01*
X168894642Y-62670535D02*
X168823214Y-62527678D01*
X168751785Y-62456250D01*
X168608928Y-62384821D01*
X168466071Y-62384821D01*
X166823214Y-63384821D02*
X166823214Y-62384821D01*
X166823214Y-62670535D02*
X166751785Y-62527678D01*
X166680357Y-62456250D01*
X166537499Y-62384821D01*
X166394642Y-62384821D01*
X165323214Y-63313392D02*
X165466071Y-63384821D01*
X165751785Y-63384821D01*
X165894642Y-63313392D01*
X165966071Y-63170535D01*
X165966071Y-62599107D01*
X165894642Y-62456250D01*
X165751785Y-62384821D01*
X165466071Y-62384821D01*
X165323214Y-62456250D01*
X165251785Y-62599107D01*
X165251785Y-62741964D01*
X165966071Y-62884821D01*
X164751785Y-62384821D02*
X164394642Y-63384821D01*
X164037499Y-62384821D01*
X162894642Y-63313392D02*
X163037499Y-63384821D01*
X163323214Y-63384821D01*
X163466071Y-63313392D01*
X163537499Y-63170535D01*
X163537499Y-62599107D01*
X163466071Y-62456250D01*
X163323214Y-62384821D01*
X163037499Y-62384821D01*
X162894642Y-62456250D01*
X162823214Y-62599107D01*
X162823214Y-62741964D01*
X163537499Y-62884821D01*
X162180357Y-63384821D02*
X162180357Y-62384821D01*
X162180357Y-62670535D02*
X162108928Y-62527678D01*
X162037499Y-62456250D01*
X161894642Y-62384821D01*
X161751785Y-62384821D01*
X161323214Y-63313392D02*
X161180357Y-63384821D01*
X160894642Y-63384821D01*
X160751785Y-63313392D01*
X160680357Y-63170535D01*
X160680357Y-63099107D01*
X160751785Y-62956250D01*
X160894642Y-62884821D01*
X161108928Y-62884821D01*
X161251785Y-62813392D01*
X161323214Y-62670535D01*
X161323214Y-62599107D01*
X161251785Y-62456250D01*
X161108928Y-62384821D01*
X160894642Y-62384821D01*
X160751785Y-62456250D01*
X159466071Y-63313392D02*
X159608928Y-63384821D01*
X159894642Y-63384821D01*
X160037499Y-63313392D01*
X160108928Y-63170535D01*
X160108928Y-62599107D01*
X160037499Y-62456250D01*
X159894642Y-62384821D01*
X159608928Y-62384821D01*
X159466071Y-62456250D01*
X159394642Y-62599107D01*
X159394642Y-62741964D01*
X160108928Y-62884821D01*
X157037499Y-63313392D02*
X157180357Y-63384821D01*
X157466071Y-63384821D01*
X157608928Y-63313392D01*
X157680357Y-63170535D01*
X157680357Y-62599107D01*
X157608928Y-62456250D01*
X157466071Y-62384821D01*
X157180357Y-62384821D01*
X157037499Y-62456250D01*
X156966071Y-62599107D01*
X156966071Y-62741964D01*
X157680357Y-62884821D01*
X156323214Y-62384821D02*
X156323214Y-63384821D01*
X156323214Y-62527678D02*
X156251785Y-62456250D01*
X156108928Y-62384821D01*
X155894642Y-62384821D01*
X155751785Y-62456250D01*
X155680357Y-62599107D01*
X155680357Y-63384821D01*
X154323214Y-62384821D02*
X154323214Y-63599107D01*
X154394642Y-63741964D01*
X154466071Y-63813392D01*
X154608928Y-63884821D01*
X154823214Y-63884821D01*
X154966071Y-63813392D01*
X154323214Y-63313392D02*
X154466071Y-63384821D01*
X154751785Y-63384821D01*
X154894642Y-63313392D01*
X154966071Y-63241964D01*
X155037499Y-63099107D01*
X155037499Y-62670535D01*
X154966071Y-62527678D01*
X154894642Y-62456250D01*
X154751785Y-62384821D01*
X154466071Y-62384821D01*
X154323214Y-62456250D01*
X153608928Y-63384821D02*
X153608928Y-62384821D01*
X153608928Y-61884821D02*
X153680357Y-61956250D01*
X153608928Y-62027678D01*
X153537499Y-61956250D01*
X153608928Y-61884821D01*
X153608928Y-62027678D01*
X152894642Y-62384821D02*
X152894642Y-63384821D01*
X152894642Y-62527678D02*
X152823214Y-62456250D01*
X152680357Y-62384821D01*
X152466071Y-62384821D01*
X152323214Y-62456250D01*
X152251785Y-62599107D01*
X152251785Y-63384821D01*
X150966071Y-63313392D02*
X151108928Y-63384821D01*
X151394642Y-63384821D01*
X151537499Y-63313392D01*
X151608928Y-63170535D01*
X151608928Y-62599107D01*
X151537499Y-62456250D01*
X151394642Y-62384821D01*
X151108928Y-62384821D01*
X150966071Y-62456250D01*
X150894642Y-62599107D01*
X150894642Y-62741964D01*
X151608928Y-62884821D01*
X149680357Y-63313392D02*
X149823214Y-63384821D01*
X150108928Y-63384821D01*
X150251785Y-63313392D01*
X150323214Y-63170535D01*
X150323214Y-62599107D01*
X150251785Y-62456250D01*
X150108928Y-62384821D01*
X149823214Y-62384821D01*
X149680357Y-62456250D01*
X149608928Y-62599107D01*
X149608928Y-62741964D01*
X150323214Y-62884821D01*
X148966071Y-63384821D02*
X148966071Y-62384821D01*
X148966071Y-62670535D02*
X148894642Y-62527678D01*
X148823214Y-62456250D01*
X148680357Y-62384821D01*
X148537499Y-62384821D01*
X148037499Y-63384821D02*
X148037499Y-62384821D01*
X148037499Y-61884821D02*
X148108928Y-61956250D01*
X148037499Y-62027678D01*
X147966071Y-61956250D01*
X148037499Y-61884821D01*
X148037499Y-62027678D01*
X147323214Y-62384821D02*
X147323214Y-63384821D01*
X147323214Y-62527678D02*
X147251785Y-62456250D01*
X147108928Y-62384821D01*
X146894642Y-62384821D01*
X146751785Y-62456250D01*
X146680357Y-62599107D01*
X146680357Y-63384821D01*
X145323214Y-62384821D02*
X145323214Y-63599107D01*
X145394642Y-63741964D01*
X145466071Y-63813392D01*
X145608928Y-63884821D01*
X145823214Y-63884821D01*
X145966071Y-63813392D01*
X145323214Y-63313392D02*
X145466071Y-63384821D01*
X145751785Y-63384821D01*
X145894642Y-63313392D01*
X145966071Y-63241964D01*
X146037499Y-63099107D01*
X146037499Y-62670535D01*
X145966071Y-62527678D01*
X145894642Y-62456250D01*
X145751785Y-62384821D01*
X145466071Y-62384821D01*
X145323214Y-62456250D01*
D11*
G04 #@! TO.C,G\002A\002A\002A*
G36*
X73628250Y-61626750D02*
X74033062Y-61626750D01*
X74033062Y-61221938D01*
X73628250Y-61221938D01*
X73628250Y-61626750D01*
X73628250Y-61626750D01*
G37*
X73628250Y-61626750D02*
X74033062Y-61626750D01*
X74033062Y-61221938D01*
X73628250Y-61221938D01*
X73628250Y-61626750D01*
G36*
X73223437Y-62412563D02*
X73628250Y-62412563D01*
X73628250Y-62031563D01*
X73223437Y-62031563D01*
X73223437Y-62412563D01*
X73223437Y-62412563D01*
G37*
X73223437Y-62412563D02*
X73628250Y-62412563D01*
X73628250Y-62031563D01*
X73223437Y-62031563D01*
X73223437Y-62412563D01*
G36*
X74033062Y-62412563D02*
X74414062Y-62412563D01*
X74414062Y-62031563D01*
X74033062Y-62031563D01*
X74033062Y-62412563D01*
X74033062Y-62412563D01*
G37*
X74033062Y-62412563D02*
X74414062Y-62412563D01*
X74414062Y-62031563D01*
X74033062Y-62031563D01*
X74033062Y-62412563D01*
G36*
X72842437Y-63222188D02*
X73223437Y-63222188D01*
X73223437Y-62817375D01*
X72842437Y-62817375D01*
X72842437Y-63222188D01*
X72842437Y-63222188D01*
G37*
X72842437Y-63222188D02*
X73223437Y-63222188D01*
X73223437Y-62817375D01*
X72842437Y-62817375D01*
X72842437Y-63222188D01*
G36*
X73628250Y-63222188D02*
X74033062Y-63222188D01*
X74033062Y-62817375D01*
X73628250Y-62817375D01*
X73628250Y-63222188D01*
X73628250Y-63222188D01*
G37*
X73628250Y-63222188D02*
X74033062Y-63222188D01*
X74033062Y-62817375D01*
X73628250Y-62817375D01*
X73628250Y-63222188D01*
G36*
X74414062Y-63222188D02*
X74818875Y-63222188D01*
X74818875Y-62817375D01*
X74414062Y-62817375D01*
X74414062Y-63222188D01*
X74414062Y-63222188D01*
G37*
X74414062Y-63222188D02*
X74818875Y-63222188D01*
X74818875Y-62817375D01*
X74414062Y-62817375D01*
X74414062Y-63222188D01*
G36*
X72437625Y-64008000D02*
X72842437Y-64008000D01*
X72842437Y-63603188D01*
X72437625Y-63603188D01*
X72437625Y-64008000D01*
X72437625Y-64008000D01*
G37*
X72437625Y-64008000D02*
X72842437Y-64008000D01*
X72842437Y-63603188D01*
X72437625Y-63603188D01*
X72437625Y-64008000D01*
G36*
X74818875Y-64008000D02*
X75223687Y-64008000D01*
X75223687Y-63603188D01*
X74818875Y-63603188D01*
X74818875Y-64008000D01*
X74818875Y-64008000D01*
G37*
X74818875Y-64008000D02*
X75223687Y-64008000D01*
X75223687Y-63603188D01*
X74818875Y-63603188D01*
X74818875Y-64008000D01*
G36*
X73814781Y-59734295D02*
X73690663Y-59735665D01*
X73578951Y-59739822D01*
X73476358Y-59747169D01*
X73379594Y-59758110D01*
X73285372Y-59773048D01*
X73190403Y-59792387D01*
X73091399Y-59816531D01*
X73046120Y-59828668D01*
X72837573Y-59893906D01*
X72635485Y-59973242D01*
X72440622Y-60066278D01*
X72253751Y-60172618D01*
X72075636Y-60291866D01*
X71923490Y-60409867D01*
X71765822Y-60550592D01*
X71618485Y-60702037D01*
X71482164Y-60863135D01*
X71357542Y-61032817D01*
X71245303Y-61210016D01*
X71146130Y-61393666D01*
X71060708Y-61582697D01*
X70989720Y-61776043D01*
X70940966Y-61944053D01*
X70907895Y-62084039D01*
X70882535Y-62215975D01*
X70864143Y-62345247D01*
X70851975Y-62477243D01*
X70845289Y-62617350D01*
X70844636Y-62642750D01*
X70847355Y-62861047D01*
X70865550Y-63075830D01*
X70899215Y-63287071D01*
X70948344Y-63494739D01*
X71012931Y-63698805D01*
X71077128Y-63862737D01*
X71105211Y-63928002D01*
X71129273Y-63982160D01*
X71151142Y-64028863D01*
X71172643Y-64071763D01*
X71195604Y-64114513D01*
X71221850Y-64160765D01*
X71250975Y-64210406D01*
X71370194Y-64396677D01*
X71500298Y-64571403D01*
X71641421Y-64734715D01*
X71793695Y-64886746D01*
X71957253Y-65027630D01*
X72132226Y-65157498D01*
X72314594Y-65274025D01*
X72367423Y-65304994D01*
X72413336Y-65330971D01*
X72455985Y-65353781D01*
X72499022Y-65375251D01*
X72546099Y-65397207D01*
X72600869Y-65421475D01*
X72662263Y-65447872D01*
X72758496Y-65487419D01*
X72847214Y-65520458D01*
X72934328Y-65548945D01*
X73025752Y-65574839D01*
X73108344Y-65595572D01*
X73272860Y-65631126D01*
X73429955Y-65656803D01*
X73584183Y-65673143D01*
X73740101Y-65680686D01*
X73830656Y-65681263D01*
X73881875Y-65680748D01*
X73929996Y-65680043D01*
X73971876Y-65679210D01*
X74004372Y-65678313D01*
X74024340Y-65677415D01*
X74025125Y-65677359D01*
X74241299Y-65653407D01*
X74454056Y-65614420D01*
X74662537Y-65560717D01*
X74865882Y-65492613D01*
X75063234Y-65410426D01*
X75253732Y-65314475D01*
X75436518Y-65205076D01*
X75587474Y-65100046D01*
X75760401Y-64961699D01*
X75921085Y-64813338D01*
X76069299Y-64655289D01*
X76204821Y-64487882D01*
X76327426Y-64311444D01*
X76436889Y-64126302D01*
X76532987Y-63932785D01*
X76615494Y-63731221D01*
X76684187Y-63521938D01*
X76696332Y-63478880D01*
X76722698Y-63377085D01*
X76744083Y-63280761D01*
X76760891Y-63186617D01*
X76773525Y-63091367D01*
X76782390Y-62991720D01*
X76787888Y-62884390D01*
X76790424Y-62766086D01*
X76790705Y-62710219D01*
X76790030Y-62654858D01*
X76257956Y-62654858D01*
X76257853Y-62734996D01*
X76256187Y-62814660D01*
X76252991Y-62889787D01*
X76248294Y-62956310D01*
X76244574Y-62992000D01*
X76212700Y-63189298D01*
X76166049Y-63380913D01*
X76104799Y-63566472D01*
X76029131Y-63745599D01*
X75939223Y-63917919D01*
X75835256Y-64083059D01*
X75717409Y-64240643D01*
X75585862Y-64390297D01*
X75563526Y-64413510D01*
X75429292Y-64540584D01*
X75283590Y-64658520D01*
X75129119Y-64765340D01*
X74968581Y-64859066D01*
X74922792Y-64882754D01*
X74848384Y-64919403D01*
X74783143Y-64949622D01*
X74722646Y-64975190D01*
X74662472Y-64997884D01*
X74598199Y-65019483D01*
X74533125Y-65039477D01*
X74343912Y-65088890D01*
X74158161Y-65123341D01*
X73974423Y-65142964D01*
X73791247Y-65147892D01*
X73607186Y-65138261D01*
X73540644Y-65131281D01*
X73353312Y-65102337D01*
X73173731Y-65060528D01*
X72999393Y-65005104D01*
X72827791Y-64935314D01*
X72730834Y-64889116D01*
X72560202Y-64795697D01*
X72400786Y-64691962D01*
X72251828Y-64577224D01*
X72112571Y-64450800D01*
X71982256Y-64312004D01*
X71860126Y-64160153D01*
X71751858Y-64004509D01*
X71726732Y-63963318D01*
X71697409Y-63911190D01*
X71665709Y-63851746D01*
X71633451Y-63788606D01*
X71602457Y-63725390D01*
X71574544Y-63665717D01*
X71551535Y-63613207D01*
X71538097Y-63579375D01*
X71475230Y-63387834D01*
X71427834Y-63195095D01*
X71395950Y-63001700D01*
X71379620Y-62808190D01*
X71378882Y-62615107D01*
X71393778Y-62422992D01*
X71424348Y-62232386D01*
X71434151Y-62186344D01*
X71467800Y-62050051D01*
X71506108Y-61923868D01*
X71551046Y-61802257D01*
X71604587Y-61679682D01*
X71642246Y-61602208D01*
X71735951Y-61433360D01*
X71842776Y-61272923D01*
X71961952Y-61121618D01*
X72092713Y-60980164D01*
X72234290Y-60849281D01*
X72385916Y-60729690D01*
X72546823Y-60622110D01*
X72716243Y-60527261D01*
X72860425Y-60459730D01*
X73032053Y-60393335D01*
X73204607Y-60341337D01*
X73380094Y-60303328D01*
X73560524Y-60278901D01*
X73747905Y-60267647D01*
X73810812Y-60266757D01*
X74008907Y-60273127D01*
X74200535Y-60293772D01*
X74386469Y-60328923D01*
X74567485Y-60378817D01*
X74744356Y-60443685D01*
X74917856Y-60523763D01*
X75088759Y-60619285D01*
X75189456Y-60683494D01*
X75328889Y-60785022D01*
X75463087Y-60899528D01*
X75590409Y-61025089D01*
X75709215Y-61159781D01*
X75817864Y-61301681D01*
X75914715Y-61448865D01*
X75998128Y-61599411D01*
X76032924Y-61672330D01*
X76094327Y-61817189D01*
X76144558Y-61956428D01*
X76184815Y-62094376D01*
X76216294Y-62235364D01*
X76240194Y-62383721D01*
X76248595Y-62452250D01*
X76253358Y-62509420D01*
X76256468Y-62578311D01*
X76257956Y-62654858D01*
X76790030Y-62654858D01*
X76788960Y-62567223D01*
X76783086Y-62436356D01*
X76772512Y-62314275D01*
X76756665Y-62197635D01*
X76734973Y-62083094D01*
X76706863Y-61967309D01*
X76671764Y-61846937D01*
X76629103Y-61718634D01*
X76613409Y-61674375D01*
X76535024Y-61479656D01*
X76442184Y-61291322D01*
X76335078Y-61109635D01*
X76213898Y-60934858D01*
X76078833Y-60767253D01*
X75930076Y-60607083D01*
X75767817Y-60454610D01*
X75660979Y-60364429D01*
X75575150Y-60298936D01*
X75477611Y-60231610D01*
X75372002Y-60164662D01*
X75261964Y-60100305D01*
X75151137Y-60040750D01*
X75043161Y-59988208D01*
X75037156Y-59985465D01*
X74967196Y-59955592D01*
X74886015Y-59924206D01*
X74797983Y-59892786D01*
X74707471Y-59862812D01*
X74618849Y-59835761D01*
X74536486Y-59813114D01*
X74504600Y-59805221D01*
X74411375Y-59784453D01*
X74322401Y-59767793D01*
X74234397Y-59754902D01*
X74144081Y-59745445D01*
X74048172Y-59739082D01*
X73943390Y-59735478D01*
X73826455Y-59734294D01*
X73814781Y-59734295D01*
X73814781Y-59734295D01*
G37*
X73814781Y-59734295D02*
X73690663Y-59735665D01*
X73578951Y-59739822D01*
X73476358Y-59747169D01*
X73379594Y-59758110D01*
X73285372Y-59773048D01*
X73190403Y-59792387D01*
X73091399Y-59816531D01*
X73046120Y-59828668D01*
X72837573Y-59893906D01*
X72635485Y-59973242D01*
X72440622Y-60066278D01*
X72253751Y-60172618D01*
X72075636Y-60291866D01*
X71923490Y-60409867D01*
X71765822Y-60550592D01*
X71618485Y-60702037D01*
X71482164Y-60863135D01*
X71357542Y-61032817D01*
X71245303Y-61210016D01*
X71146130Y-61393666D01*
X71060708Y-61582697D01*
X70989720Y-61776043D01*
X70940966Y-61944053D01*
X70907895Y-62084039D01*
X70882535Y-62215975D01*
X70864143Y-62345247D01*
X70851975Y-62477243D01*
X70845289Y-62617350D01*
X70844636Y-62642750D01*
X70847355Y-62861047D01*
X70865550Y-63075830D01*
X70899215Y-63287071D01*
X70948344Y-63494739D01*
X71012931Y-63698805D01*
X71077128Y-63862737D01*
X71105211Y-63928002D01*
X71129273Y-63982160D01*
X71151142Y-64028863D01*
X71172643Y-64071763D01*
X71195604Y-64114513D01*
X71221850Y-64160765D01*
X71250975Y-64210406D01*
X71370194Y-64396677D01*
X71500298Y-64571403D01*
X71641421Y-64734715D01*
X71793695Y-64886746D01*
X71957253Y-65027630D01*
X72132226Y-65157498D01*
X72314594Y-65274025D01*
X72367423Y-65304994D01*
X72413336Y-65330971D01*
X72455985Y-65353781D01*
X72499022Y-65375251D01*
X72546099Y-65397207D01*
X72600869Y-65421475D01*
X72662263Y-65447872D01*
X72758496Y-65487419D01*
X72847214Y-65520458D01*
X72934328Y-65548945D01*
X73025752Y-65574839D01*
X73108344Y-65595572D01*
X73272860Y-65631126D01*
X73429955Y-65656803D01*
X73584183Y-65673143D01*
X73740101Y-65680686D01*
X73830656Y-65681263D01*
X73881875Y-65680748D01*
X73929996Y-65680043D01*
X73971876Y-65679210D01*
X74004372Y-65678313D01*
X74024340Y-65677415D01*
X74025125Y-65677359D01*
X74241299Y-65653407D01*
X74454056Y-65614420D01*
X74662537Y-65560717D01*
X74865882Y-65492613D01*
X75063234Y-65410426D01*
X75253732Y-65314475D01*
X75436518Y-65205076D01*
X75587474Y-65100046D01*
X75760401Y-64961699D01*
X75921085Y-64813338D01*
X76069299Y-64655289D01*
X76204821Y-64487882D01*
X76327426Y-64311444D01*
X76436889Y-64126302D01*
X76532987Y-63932785D01*
X76615494Y-63731221D01*
X76684187Y-63521938D01*
X76696332Y-63478880D01*
X76722698Y-63377085D01*
X76744083Y-63280761D01*
X76760891Y-63186617D01*
X76773525Y-63091367D01*
X76782390Y-62991720D01*
X76787888Y-62884390D01*
X76790424Y-62766086D01*
X76790705Y-62710219D01*
X76790030Y-62654858D01*
X76257956Y-62654858D01*
X76257853Y-62734996D01*
X76256187Y-62814660D01*
X76252991Y-62889787D01*
X76248294Y-62956310D01*
X76244574Y-62992000D01*
X76212700Y-63189298D01*
X76166049Y-63380913D01*
X76104799Y-63566472D01*
X76029131Y-63745599D01*
X75939223Y-63917919D01*
X75835256Y-64083059D01*
X75717409Y-64240643D01*
X75585862Y-64390297D01*
X75563526Y-64413510D01*
X75429292Y-64540584D01*
X75283590Y-64658520D01*
X75129119Y-64765340D01*
X74968581Y-64859066D01*
X74922792Y-64882754D01*
X74848384Y-64919403D01*
X74783143Y-64949622D01*
X74722646Y-64975190D01*
X74662472Y-64997884D01*
X74598199Y-65019483D01*
X74533125Y-65039477D01*
X74343912Y-65088890D01*
X74158161Y-65123341D01*
X73974423Y-65142964D01*
X73791247Y-65147892D01*
X73607186Y-65138261D01*
X73540644Y-65131281D01*
X73353312Y-65102337D01*
X73173731Y-65060528D01*
X72999393Y-65005104D01*
X72827791Y-64935314D01*
X72730834Y-64889116D01*
X72560202Y-64795697D01*
X72400786Y-64691962D01*
X72251828Y-64577224D01*
X72112571Y-64450800D01*
X71982256Y-64312004D01*
X71860126Y-64160153D01*
X71751858Y-64004509D01*
X71726732Y-63963318D01*
X71697409Y-63911190D01*
X71665709Y-63851746D01*
X71633451Y-63788606D01*
X71602457Y-63725390D01*
X71574544Y-63665717D01*
X71551535Y-63613207D01*
X71538097Y-63579375D01*
X71475230Y-63387834D01*
X71427834Y-63195095D01*
X71395950Y-63001700D01*
X71379620Y-62808190D01*
X71378882Y-62615107D01*
X71393778Y-62422992D01*
X71424348Y-62232386D01*
X71434151Y-62186344D01*
X71467800Y-62050051D01*
X71506108Y-61923868D01*
X71551046Y-61802257D01*
X71604587Y-61679682D01*
X71642246Y-61602208D01*
X71735951Y-61433360D01*
X71842776Y-61272923D01*
X71961952Y-61121618D01*
X72092713Y-60980164D01*
X72234290Y-60849281D01*
X72385916Y-60729690D01*
X72546823Y-60622110D01*
X72716243Y-60527261D01*
X72860425Y-60459730D01*
X73032053Y-60393335D01*
X73204607Y-60341337D01*
X73380094Y-60303328D01*
X73560524Y-60278901D01*
X73747905Y-60267647D01*
X73810812Y-60266757D01*
X74008907Y-60273127D01*
X74200535Y-60293772D01*
X74386469Y-60328923D01*
X74567485Y-60378817D01*
X74744356Y-60443685D01*
X74917856Y-60523763D01*
X75088759Y-60619285D01*
X75189456Y-60683494D01*
X75328889Y-60785022D01*
X75463087Y-60899528D01*
X75590409Y-61025089D01*
X75709215Y-61159781D01*
X75817864Y-61301681D01*
X75914715Y-61448865D01*
X75998128Y-61599411D01*
X76032924Y-61672330D01*
X76094327Y-61817189D01*
X76144558Y-61956428D01*
X76184815Y-62094376D01*
X76216294Y-62235364D01*
X76240194Y-62383721D01*
X76248595Y-62452250D01*
X76253358Y-62509420D01*
X76256468Y-62578311D01*
X76257956Y-62654858D01*
X76790030Y-62654858D01*
X76788960Y-62567223D01*
X76783086Y-62436356D01*
X76772512Y-62314275D01*
X76756665Y-62197635D01*
X76734973Y-62083094D01*
X76706863Y-61967309D01*
X76671764Y-61846937D01*
X76629103Y-61718634D01*
X76613409Y-61674375D01*
X76535024Y-61479656D01*
X76442184Y-61291322D01*
X76335078Y-61109635D01*
X76213898Y-60934858D01*
X76078833Y-60767253D01*
X75930076Y-60607083D01*
X75767817Y-60454610D01*
X75660979Y-60364429D01*
X75575150Y-60298936D01*
X75477611Y-60231610D01*
X75372002Y-60164662D01*
X75261964Y-60100305D01*
X75151137Y-60040750D01*
X75043161Y-59988208D01*
X75037156Y-59985465D01*
X74967196Y-59955592D01*
X74886015Y-59924206D01*
X74797983Y-59892786D01*
X74707471Y-59862812D01*
X74618849Y-59835761D01*
X74536486Y-59813114D01*
X74504600Y-59805221D01*
X74411375Y-59784453D01*
X74322401Y-59767793D01*
X74234397Y-59754902D01*
X74144081Y-59745445D01*
X74048172Y-59739082D01*
X73943390Y-59735478D01*
X73826455Y-59734294D01*
X73814781Y-59734295D01*
G04 #@! TD*
D12*
G04 #@! TO.C,C2*
X299097000Y-80454500D03*
X300597000Y-80454500D03*
G04 #@! TD*
D13*
G04 #@! TO.C,C3*
X297434000Y-94222000D03*
X297434000Y-92722000D03*
G04 #@! TD*
D12*
G04 #@! TO.C,C4*
X311011000Y-97663000D03*
X309511000Y-97663000D03*
G04 #@! TD*
G04 #@! TO.C,C5*
X313321000Y-82804000D03*
X314821000Y-82804000D03*
G04 #@! TD*
G04 #@! TO.C,C6*
X305193000Y-80264000D03*
X306693000Y-80264000D03*
G04 #@! TD*
G04 #@! TO.C,C7*
X316813500Y-92710000D03*
X318313500Y-92710000D03*
G04 #@! TD*
G04 #@! TO.C,C8*
X318313500Y-84899500D03*
X316813500Y-84899500D03*
G04 #@! TD*
D14*
G04 #@! TO.C,D1*
X41275000Y-34193750D03*
X41275000Y-30893750D03*
G04 #@! TD*
G04 #@! TO.C,D2*
X60325000Y-30893750D03*
X60325000Y-34193750D03*
G04 #@! TD*
G04 #@! TO.C,D3*
X79375000Y-30893750D03*
X79375000Y-34193750D03*
G04 #@! TD*
G04 #@! TO.C,D4*
X98425000Y-34193750D03*
X98425000Y-30893750D03*
G04 #@! TD*
G04 #@! TO.C,D5*
X117475000Y-34193750D03*
X117475000Y-30893750D03*
G04 #@! TD*
G04 #@! TO.C,D6*
X136525000Y-34193750D03*
X136525000Y-30893750D03*
G04 #@! TD*
G04 #@! TO.C,D7*
X155575000Y-34193750D03*
X155575000Y-30893750D03*
G04 #@! TD*
G04 #@! TO.C,D8*
X174625000Y-30893750D03*
X174625000Y-34193750D03*
G04 #@! TD*
G04 #@! TO.C,D9*
X193675000Y-30893750D03*
X193675000Y-34193750D03*
G04 #@! TD*
G04 #@! TO.C,D10*
X212725000Y-34193750D03*
X212725000Y-30893750D03*
G04 #@! TD*
G04 #@! TO.C,D11*
X231775000Y-30893750D03*
X231775000Y-34193750D03*
G04 #@! TD*
G04 #@! TO.C,D12*
X250825000Y-34193750D03*
X250825000Y-30893750D03*
G04 #@! TD*
G04 #@! TO.C,D13*
X268287500Y-34193750D03*
X268287500Y-30893750D03*
G04 #@! TD*
G04 #@! TO.C,D14*
X271462500Y-34193750D03*
X271462500Y-30893750D03*
G04 #@! TD*
G04 #@! TO.C,D16*
X46037500Y-53243750D03*
X46037500Y-49943750D03*
G04 #@! TD*
G04 #@! TO.C,D17*
X69850000Y-49943750D03*
X69850000Y-53243750D03*
G04 #@! TD*
G04 #@! TO.C,D18*
X88900000Y-53243750D03*
X88900000Y-49943750D03*
G04 #@! TD*
G04 #@! TO.C,D19*
X107950000Y-49943750D03*
X107950000Y-53243750D03*
G04 #@! TD*
G04 #@! TO.C,D20*
X127000000Y-53243750D03*
X127000000Y-49943750D03*
G04 #@! TD*
G04 #@! TO.C,D21*
X146050000Y-49943750D03*
X146050000Y-53243750D03*
G04 #@! TD*
G04 #@! TO.C,D22*
X165100000Y-49943750D03*
X165100000Y-53243750D03*
G04 #@! TD*
G04 #@! TO.C,D23*
X184150000Y-53243750D03*
X184150000Y-49943750D03*
G04 #@! TD*
G04 #@! TO.C,D24*
X203200000Y-53243750D03*
X203200000Y-49943750D03*
G04 #@! TD*
G04 #@! TO.C,D25*
X222250000Y-49943750D03*
X222250000Y-53243750D03*
G04 #@! TD*
G04 #@! TO.C,D26*
X241300000Y-53243750D03*
X241300000Y-49943750D03*
G04 #@! TD*
G04 #@! TO.C,D27*
X260350000Y-53243750D03*
X260350000Y-49943750D03*
G04 #@! TD*
G04 #@! TO.C,D28*
X279400000Y-49943750D03*
X279400000Y-53243750D03*
G04 #@! TD*
G04 #@! TO.C,D29*
X282575000Y-53243750D03*
X282575000Y-49943750D03*
G04 #@! TD*
G04 #@! TO.C,D31*
X48418750Y-68993750D03*
X48418750Y-72293750D03*
G04 #@! TD*
G04 #@! TO.C,D32*
X74612500Y-68993750D03*
X74612500Y-72293750D03*
G04 #@! TD*
G04 #@! TO.C,D33*
X93662500Y-68993750D03*
X93662500Y-72293750D03*
G04 #@! TD*
G04 #@! TO.C,D34*
X112712500Y-72293750D03*
X112712500Y-68993750D03*
G04 #@! TD*
G04 #@! TO.C,D35*
X131762500Y-68993750D03*
X131762500Y-72293750D03*
G04 #@! TD*
G04 #@! TO.C,D36*
X150812500Y-68993750D03*
X150812500Y-72293750D03*
G04 #@! TD*
G04 #@! TO.C,D37*
X169862500Y-72293750D03*
X169862500Y-68993750D03*
G04 #@! TD*
G04 #@! TO.C,D38*
X188912500Y-72293750D03*
X188912500Y-68993750D03*
G04 #@! TD*
G04 #@! TO.C,D39*
X207962500Y-68993750D03*
X207962500Y-72293750D03*
G04 #@! TD*
G04 #@! TO.C,D40*
X227012500Y-68993750D03*
X227012500Y-72293750D03*
G04 #@! TD*
G04 #@! TO.C,D41*
X246062500Y-72293750D03*
X246062500Y-68993750D03*
G04 #@! TD*
G04 #@! TO.C,D42*
X265112500Y-68993750D03*
X265112500Y-72293750D03*
G04 #@! TD*
G04 #@! TO.C,D43*
X277018750Y-68993750D03*
X277018750Y-72293750D03*
G04 #@! TD*
G04 #@! TO.C,D45*
X53181250Y-88043750D03*
X53181250Y-91343750D03*
G04 #@! TD*
G04 #@! TO.C,D46*
X84137500Y-91343750D03*
X84137500Y-88043750D03*
G04 #@! TD*
G04 #@! TO.C,D47*
X103187500Y-91343750D03*
X103187500Y-88043750D03*
G04 #@! TD*
G04 #@! TO.C,D48*
X122237500Y-88043750D03*
X122237500Y-91343750D03*
G04 #@! TD*
G04 #@! TO.C,D49*
X141287500Y-88043750D03*
X141287500Y-91343750D03*
G04 #@! TD*
G04 #@! TO.C,D50*
X160337500Y-91343750D03*
X160337500Y-88043750D03*
G04 #@! TD*
G04 #@! TO.C,D51*
X179387500Y-88043750D03*
X179387500Y-91343750D03*
G04 #@! TD*
G04 #@! TO.C,D52*
X198437500Y-91343750D03*
X198437500Y-88043750D03*
G04 #@! TD*
G04 #@! TO.C,D53*
X217487500Y-91343750D03*
X217487500Y-88043750D03*
G04 #@! TD*
G04 #@! TO.C,D54*
X236537500Y-88043750D03*
X236537500Y-91343750D03*
G04 #@! TD*
G04 #@! TO.C,D55*
X255587500Y-88043750D03*
X255587500Y-91343750D03*
G04 #@! TD*
G04 #@! TO.C,D56*
X268287500Y-91343750D03*
X268287500Y-88043750D03*
G04 #@! TD*
G04 #@! TO.C,D59*
X26987500Y-107093750D03*
X26987500Y-110393750D03*
G04 #@! TD*
G04 #@! TO.C,D61*
X174625000Y-110393750D03*
X174625000Y-107093750D03*
G04 #@! TD*
G04 #@! TO.C,D64*
X236537500Y-107093750D03*
X236537500Y-110393750D03*
G04 #@! TD*
G04 #@! TO.C,D65*
X303212500Y-110393750D03*
X303212500Y-107093750D03*
G04 #@! TD*
G04 #@! TO.C,D67*
X93662500Y-107093750D03*
X93662500Y-110393750D03*
G04 #@! TD*
G04 #@! TO.C,D68*
X272256250Y-88043750D03*
X272256250Y-91343750D03*
G04 #@! TD*
D15*
G04 #@! TO.C,F1*
X307213000Y-12579500D03*
X307213000Y-14979500D03*
G04 #@! TD*
D16*
G04 #@! TO.C,K_.1*
X230312500Y-93980000D03*
X230312500Y-88260000D03*
X223712500Y-93980000D03*
X223712500Y-88260000D03*
G04 #@! TD*
G04 #@! TO.C,K_\002C1*
X211262500Y-93980000D03*
X211262500Y-88260000D03*
X204662500Y-93980000D03*
X204662500Y-88260000D03*
G04 #@! TD*
G04 #@! TO.C,K_#1*
X54100000Y-36830000D03*
X54100000Y-31110000D03*
X47500000Y-36830000D03*
X47500000Y-31110000D03*
G04 #@! TD*
G04 #@! TO.C,K_#2*
X66550000Y-31110000D03*
X66550000Y-36830000D03*
X73150000Y-31110000D03*
X73150000Y-36830000D03*
G04 #@! TD*
G04 #@! TO.C,K_#3*
X92200000Y-36830000D03*
X92200000Y-31110000D03*
X85600000Y-36830000D03*
X85600000Y-31110000D03*
G04 #@! TD*
G04 #@! TO.C,K_#4*
X104650000Y-31110000D03*
X104650000Y-36830000D03*
X111250000Y-31110000D03*
X111250000Y-36830000D03*
G04 #@! TD*
G04 #@! TO.C,K_#5*
X123700000Y-31110000D03*
X123700000Y-36830000D03*
X130300000Y-31110000D03*
X130300000Y-36830000D03*
G04 #@! TD*
G04 #@! TO.C,K_#6*
X142750000Y-31110000D03*
X142750000Y-36830000D03*
X149350000Y-31110000D03*
X149350000Y-36830000D03*
G04 #@! TD*
G04 #@! TO.C,K_#7*
X161800000Y-31110000D03*
X161800000Y-36830000D03*
X168400000Y-31110000D03*
X168400000Y-36830000D03*
G04 #@! TD*
G04 #@! TO.C,K_#8*
X180850000Y-31110000D03*
X180850000Y-36830000D03*
X187450000Y-31110000D03*
X187450000Y-36830000D03*
G04 #@! TD*
G04 #@! TO.C,K_#9*
X199900000Y-31110000D03*
X199900000Y-36830000D03*
X206500000Y-31110000D03*
X206500000Y-36830000D03*
G04 #@! TD*
G04 #@! TO.C,K_#10*
X225550000Y-36830000D03*
X225550000Y-31110000D03*
X218950000Y-36830000D03*
X218950000Y-31110000D03*
G04 #@! TD*
G04 #@! TO.C,K_'1*
X252287500Y-69210000D03*
X252287500Y-74930000D03*
X258887500Y-69210000D03*
X258887500Y-74930000D03*
G04 #@! TD*
G04 #@! TO.C,K_-1*
X244600000Y-36830000D03*
X244600000Y-31110000D03*
X238000000Y-36830000D03*
X238000000Y-31110000D03*
G04 #@! TD*
G04 #@! TO.C,K_/1*
X242762500Y-88260000D03*
X242762500Y-93980000D03*
X249362500Y-88260000D03*
X249362500Y-93980000D03*
G04 #@! TD*
G04 #@! TO.C,K_;1*
X233237500Y-69210000D03*
X233237500Y-74930000D03*
X239837500Y-69210000D03*
X239837500Y-74930000D03*
G04 #@! TD*
G04 #@! TO.C,K_=1*
X257050000Y-31110000D03*
X257050000Y-36830000D03*
X263650000Y-31110000D03*
X263650000Y-36830000D03*
G04 #@! TD*
G04 #@! TO.C,K_[1*
X247525000Y-50160000D03*
X247525000Y-55880000D03*
X254125000Y-50160000D03*
X254125000Y-55880000D03*
G04 #@! TD*
G04 #@! TO.C,K_\005C1*
X290387500Y-50160000D03*
X290387500Y-55880000D03*
X296987500Y-50160000D03*
X296987500Y-55880000D03*
G04 #@! TD*
G04 #@! TO.C,K_]1*
X266575000Y-50160000D03*
X266575000Y-55880000D03*
X273175000Y-50160000D03*
X273175000Y-55880000D03*
G04 #@! TD*
G04 #@! TO.C,K_A1*
X68387500Y-74930000D03*
X68387500Y-69210000D03*
X61787500Y-74930000D03*
X61787500Y-69210000D03*
G04 #@! TD*
G04 #@! TO.C,K_ALT1*
X77912500Y-113030000D03*
X77912500Y-107310000D03*
X71312500Y-113030000D03*
X71312500Y-107310000D03*
G04 #@! TD*
G04 #@! TO.C,K_ALT2*
X87437500Y-113030000D03*
X87437500Y-107310000D03*
X80837500Y-113030000D03*
X80837500Y-107310000D03*
G04 #@! TD*
G04 #@! TO.C,K_B1*
X154112500Y-93980000D03*
X154112500Y-88260000D03*
X147512500Y-93980000D03*
X147512500Y-88260000D03*
G04 #@! TD*
G04 #@! TO.C,K_C1*
X116012500Y-93980000D03*
X116012500Y-88260000D03*
X109412500Y-93980000D03*
X109412500Y-88260000D03*
G04 #@! TD*
G04 #@! TO.C,K_CAPS1*
X35593750Y-69210000D03*
X35593750Y-74930000D03*
X42193750Y-69210000D03*
X42193750Y-74930000D03*
G04 #@! TD*
G04 #@! TO.C,K_CTRL2*
X39812500Y-113030000D03*
X39812500Y-107310000D03*
X33212500Y-113030000D03*
X33212500Y-107310000D03*
G04 #@! TD*
G04 #@! TO.C,K_D1*
X106487500Y-74930000D03*
X106487500Y-69210000D03*
X99887500Y-74930000D03*
X99887500Y-69210000D03*
G04 #@! TD*
G04 #@! TO.C,K_E1*
X101725000Y-55880000D03*
X101725000Y-50160000D03*
X95125000Y-55880000D03*
X95125000Y-50160000D03*
G04 #@! TD*
G04 #@! TO.C,K_ENTER1*
X283243750Y-69210000D03*
X283243750Y-74930000D03*
X289843750Y-69210000D03*
X289843750Y-74930000D03*
G04 #@! TD*
G04 #@! TO.C,K_ESC1*
X28450000Y-7297500D03*
X28450000Y-13017500D03*
X35050000Y-7297500D03*
X35050000Y-13017500D03*
G04 #@! TD*
G04 #@! TO.C,K_F1*
X118937500Y-69210000D03*
X118937500Y-74930000D03*
X125537500Y-69210000D03*
X125537500Y-74930000D03*
G04 #@! TD*
G04 #@! TO.C,K_G1*
X144587500Y-74930000D03*
X144587500Y-69210000D03*
X137987500Y-74930000D03*
X137987500Y-69210000D03*
G04 #@! TD*
G04 #@! TO.C,K_H1*
X157037500Y-69210000D03*
X157037500Y-74930000D03*
X163637500Y-69210000D03*
X163637500Y-74930000D03*
G04 #@! TD*
G04 #@! TO.C,K_I1*
X190375000Y-50160000D03*
X190375000Y-55880000D03*
X196975000Y-50160000D03*
X196975000Y-55880000D03*
G04 #@! TD*
G04 #@! TO.C,K_J1*
X182687500Y-74930000D03*
X182687500Y-69210000D03*
X176087500Y-74930000D03*
X176087500Y-69210000D03*
G04 #@! TD*
G04 #@! TO.C,K_K1*
X201737500Y-74930000D03*
X201737500Y-69210000D03*
X195137500Y-74930000D03*
X195137500Y-69210000D03*
G04 #@! TD*
G04 #@! TO.C,K_L1*
X220787500Y-74930000D03*
X220787500Y-69210000D03*
X214187500Y-74930000D03*
X214187500Y-69210000D03*
G04 #@! TD*
G04 #@! TO.C,K_M1*
X192212500Y-93980000D03*
X192212500Y-88260000D03*
X185612500Y-93980000D03*
X185612500Y-88260000D03*
G04 #@! TD*
G04 #@! TO.C,K_N1*
X166562500Y-88260000D03*
X166562500Y-93980000D03*
X173162500Y-88260000D03*
X173162500Y-93980000D03*
G04 #@! TD*
G04 #@! TO.C,K_O1*
X209425000Y-50160000D03*
X209425000Y-55880000D03*
X216025000Y-50160000D03*
X216025000Y-55880000D03*
G04 #@! TD*
G04 #@! TO.C,K_P1*
X235075000Y-55880000D03*
X235075000Y-50160000D03*
X228475000Y-55880000D03*
X228475000Y-50160000D03*
G04 #@! TD*
G04 #@! TO.C,K_Q1*
X63625000Y-55880000D03*
X63625000Y-50160000D03*
X57025000Y-55880000D03*
X57025000Y-50160000D03*
G04 #@! TD*
G04 #@! TO.C,K_R1*
X114175000Y-50160000D03*
X114175000Y-55880000D03*
X120775000Y-50160000D03*
X120775000Y-55880000D03*
G04 #@! TD*
G04 #@! TO.C,K_RSHIFT1*
X278481250Y-88260000D03*
X278481250Y-93980000D03*
X285081250Y-88260000D03*
X285081250Y-93980000D03*
G04 #@! TD*
G04 #@! TO.C,K_S1*
X80837500Y-69210000D03*
X80837500Y-74930000D03*
X87437500Y-69210000D03*
X87437500Y-74930000D03*
G04 #@! TD*
G04 #@! TO.C,K_SBACK1*
X301750000Y-36830000D03*
X301750000Y-31110000D03*
X295150000Y-36830000D03*
X295150000Y-31110000D03*
G04 #@! TD*
G04 #@! TO.C,K_SHIFT1*
X46956250Y-93980000D03*
X46956250Y-88260000D03*
X40356250Y-93980000D03*
X40356250Y-88260000D03*
G04 #@! TD*
G04 #@! TO.C,K_SPACE1*
X161800000Y-107310000D03*
X161800000Y-113030000D03*
X168400000Y-107310000D03*
X168400000Y-113030000D03*
G04 #@! TD*
G04 #@! TO.C,K_T1*
X139825000Y-55880000D03*
X139825000Y-50160000D03*
X133225000Y-55880000D03*
X133225000Y-50160000D03*
G04 #@! TD*
G04 #@! TO.C,K_TAB1*
X33212500Y-50160000D03*
X33212500Y-55880000D03*
X39812500Y-50160000D03*
X39812500Y-55880000D03*
G04 #@! TD*
G04 #@! TO.C,K_U1*
X177925000Y-55880000D03*
X177925000Y-50160000D03*
X171325000Y-55880000D03*
X171325000Y-50160000D03*
G04 #@! TD*
G04 #@! TO.C,K_V1*
X128462500Y-88260000D03*
X128462500Y-93980000D03*
X135062500Y-88260000D03*
X135062500Y-93980000D03*
G04 #@! TD*
G04 #@! TO.C,K_W1*
X82675000Y-55880000D03*
X82675000Y-50160000D03*
X76075000Y-55880000D03*
X76075000Y-50160000D03*
G04 #@! TD*
G04 #@! TO.C,K_X1*
X90362500Y-88260000D03*
X90362500Y-93980000D03*
X96962500Y-88260000D03*
X96962500Y-93980000D03*
G04 #@! TD*
G04 #@! TO.C,K_Y1*
X152275000Y-50160000D03*
X152275000Y-55880000D03*
X158875000Y-50160000D03*
X158875000Y-55880000D03*
G04 #@! TD*
G04 #@! TO.C,K_Z1*
X77912500Y-93980000D03*
X77912500Y-88260000D03*
X71312500Y-93980000D03*
X71312500Y-88260000D03*
G04 #@! TD*
D17*
G04 #@! TO.C,R67*
X302387000Y-77912000D03*
X302387000Y-76012000D03*
G04 #@! TD*
G04 #@! TO.C,R68*
X305435000Y-76012000D03*
X305435000Y-77912000D03*
G04 #@! TD*
D18*
G04 #@! TO.C,R70*
X313248000Y-79883000D03*
X315148000Y-79883000D03*
G04 #@! TD*
G04 #@! TO.C,R71*
X299273000Y-97282000D03*
X297373000Y-97282000D03*
G04 #@! TD*
G04 #@! TO.C,R73*
X300675000Y-2381250D03*
X302575000Y-2381250D03*
G04 #@! TD*
G04 #@! TO.C,R74*
X317343750Y-2381250D03*
X319243750Y-2381250D03*
G04 #@! TD*
D19*
G04 #@! TO.C,SW1*
X329510000Y-91873000D03*
X325810000Y-85673000D03*
X325810000Y-91873000D03*
X329510000Y-85673000D03*
G04 #@! TD*
D20*
G04 #@! TO.C,U2*
X309134000Y-10316250D03*
X311134000Y-10316250D03*
X309134000Y-8416250D03*
D21*
X311134000Y-8616250D03*
G04 #@! TD*
D22*
G04 #@! TO.C,USB1*
X314454000Y98750D03*
X305814000Y98750D03*
D23*
X314454000Y-4081250D03*
X305814000Y-4081250D03*
D24*
X307244000Y-3551250D03*
X313024000Y-3551250D03*
D25*
X309884000Y-4996250D03*
X310384000Y-4996250D03*
X310884000Y-4996250D03*
X309384000Y-4996250D03*
X311384000Y-4996250D03*
X308884000Y-4996250D03*
X311884000Y-4996250D03*
X308384000Y-4996250D03*
D26*
X307684000Y-4996250D03*
X312584000Y-4996250D03*
X306909000Y-4996250D03*
X313359000Y-4996250D03*
G04 #@! TD*
D27*
G04 #@! TO.C,Y1*
X318413500Y-89873000D03*
X318413500Y-87673000D03*
X316713500Y-87673000D03*
X316713500Y-89873000D03*
G04 #@! TD*
D16*
G04 #@! TO.C,K_CTRL1*
X37975000Y-107310000D03*
X37975000Y-113030000D03*
X44575000Y-107310000D03*
X44575000Y-113030000D03*
G04 #@! TD*
G04 #@! TO.C,K_RALT1*
X252287500Y-107310000D03*
X252287500Y-113030000D03*
X258887500Y-107310000D03*
X258887500Y-113030000D03*
G04 #@! TD*
G04 #@! TO.C,K_RALT2*
X249362500Y-113030000D03*
X249362500Y-107310000D03*
X242762500Y-113030000D03*
X242762500Y-107310000D03*
G04 #@! TD*
G04 #@! TO.C,K_RCTRL1*
X285625000Y-107310000D03*
X285625000Y-113030000D03*
X292225000Y-107310000D03*
X292225000Y-113030000D03*
G04 #@! TD*
G04 #@! TO.C,K_RCTRL2*
X290387500Y-107310000D03*
X290387500Y-113030000D03*
X296987500Y-107310000D03*
X296987500Y-113030000D03*
G04 #@! TD*
D14*
G04 #@! TO.C,D15*
X41275000Y-7081250D03*
X41275000Y-10381250D03*
G04 #@! TD*
G04 #@! TO.C,D30*
X79375000Y-10381250D03*
X79375000Y-7081250D03*
G04 #@! TD*
G04 #@! TO.C,D58*
X98425000Y-7081250D03*
X98425000Y-10381250D03*
G04 #@! TD*
G04 #@! TO.C,D60*
X117475000Y-10381250D03*
X117475000Y-7081250D03*
G04 #@! TD*
G04 #@! TO.C,D62*
X136525000Y-7081250D03*
X136525000Y-10381250D03*
G04 #@! TD*
G04 #@! TO.C,D63*
X165100000Y-7081250D03*
X165100000Y-10381250D03*
G04 #@! TD*
G04 #@! TO.C,D66*
X184150000Y-10381250D03*
X184150000Y-7081250D03*
G04 #@! TD*
G04 #@! TO.C,D69*
X203200000Y-7081250D03*
X203200000Y-10381250D03*
G04 #@! TD*
G04 #@! TO.C,D70*
X222250000Y-10381250D03*
X222250000Y-7081250D03*
G04 #@! TD*
G04 #@! TO.C,D71*
X231775000Y-7081250D03*
X231775000Y-10381250D03*
G04 #@! TD*
G04 #@! TO.C,D72*
X250825000Y-10381250D03*
X250825000Y-7081250D03*
G04 #@! TD*
G04 #@! TO.C,D73*
X269875000Y-7081250D03*
X269875000Y-10381250D03*
G04 #@! TD*
G04 #@! TO.C,D74*
X288925000Y-7081250D03*
X288925000Y-10381250D03*
G04 #@! TD*
D16*
G04 #@! TO.C,K_`1*
X28450000Y-31110000D03*
X28450000Y-36830000D03*
X35050000Y-31110000D03*
X35050000Y-36830000D03*
G04 #@! TD*
G04 #@! TO.C,K_FN1*
X66550000Y-7297500D03*
X66550000Y-13017500D03*
X73150000Y-7297500D03*
X73150000Y-13017500D03*
G04 #@! TD*
G04 #@! TO.C,K_FN2*
X92200000Y-13017500D03*
X92200000Y-7297500D03*
X85600000Y-13017500D03*
X85600000Y-7297500D03*
G04 #@! TD*
G04 #@! TO.C,K_FN3*
X111250000Y-13017500D03*
X111250000Y-7297500D03*
X104650000Y-13017500D03*
X104650000Y-7297500D03*
G04 #@! TD*
G04 #@! TO.C,K_FN4*
X123700000Y-7297500D03*
X123700000Y-13017500D03*
X130300000Y-7297500D03*
X130300000Y-13017500D03*
G04 #@! TD*
G04 #@! TO.C,K_FN5*
X158875000Y-13017500D03*
X158875000Y-7297500D03*
X152275000Y-13017500D03*
X152275000Y-7297500D03*
G04 #@! TD*
G04 #@! TO.C,K_FN6*
X171325000Y-7297500D03*
X171325000Y-13017500D03*
X177925000Y-7297500D03*
X177925000Y-13017500D03*
G04 #@! TD*
G04 #@! TO.C,K_FN7*
X196975000Y-13017500D03*
X196975000Y-7297500D03*
X190375000Y-13017500D03*
X190375000Y-7297500D03*
G04 #@! TD*
G04 #@! TO.C,K_FN8*
X209425000Y-7297500D03*
X209425000Y-13017500D03*
X216025000Y-7297500D03*
X216025000Y-13017500D03*
G04 #@! TD*
G04 #@! TO.C,K_FN9*
X244600000Y-13017500D03*
X244600000Y-7297500D03*
X238000000Y-13017500D03*
X238000000Y-7297500D03*
G04 #@! TD*
G04 #@! TO.C,K_FN10*
X257050000Y-7297500D03*
X257050000Y-13017500D03*
X263650000Y-7297500D03*
X263650000Y-13017500D03*
G04 #@! TD*
G04 #@! TO.C,K_FN11*
X282700000Y-13017500D03*
X282700000Y-7297500D03*
X276100000Y-13017500D03*
X276100000Y-7297500D03*
G04 #@! TD*
G04 #@! TO.C,K_FN12*
X295150000Y-7297500D03*
X295150000Y-13017500D03*
X301750000Y-7297500D03*
X301750000Y-13017500D03*
G04 #@! TD*
D14*
G04 #@! TO.C,D75*
X50800000Y-110393750D03*
X50800000Y-107093750D03*
G04 #@! TD*
G04 #@! TO.C,D76*
X279400000Y-107093750D03*
X279400000Y-110393750D03*
G04 #@! TD*
D16*
G04 #@! TO.C,K_RWIN1*
X266575000Y-107310000D03*
X266575000Y-113030000D03*
X273175000Y-107310000D03*
X273175000Y-113030000D03*
G04 #@! TD*
G04 #@! TO.C,K_WIN1*
X63625000Y-113030000D03*
X63625000Y-107310000D03*
X57025000Y-113030000D03*
X57025000Y-107310000D03*
G04 #@! TD*
D14*
G04 #@! TO.C,D77*
X331787500Y-10381250D03*
X331787500Y-7081250D03*
G04 #@! TD*
G04 #@! TO.C,D78*
X350837500Y-7081250D03*
X350837500Y-10381250D03*
G04 #@! TD*
G04 #@! TO.C,D79*
X360362500Y-21493750D03*
X360362500Y-18193750D03*
G04 #@! TD*
G04 #@! TO.C,D80*
X331787500Y-34193750D03*
X331787500Y-30893750D03*
G04 #@! TD*
G04 #@! TO.C,D81*
X350837500Y-30893750D03*
X350837500Y-34193750D03*
G04 #@! TD*
G04 #@! TO.C,D82*
X350837500Y-43718750D03*
X350837500Y-40418750D03*
G04 #@! TD*
G04 #@! TO.C,D83*
X331787500Y-49943750D03*
X331787500Y-53243750D03*
G04 #@! TD*
G04 #@! TO.C,D84*
X350837500Y-49943750D03*
X350837500Y-53243750D03*
G04 #@! TD*
G04 #@! TO.C,D85*
X360362500Y-42006250D03*
X360362500Y-45306250D03*
G04 #@! TD*
G04 #@! TO.C,D86*
X350837500Y-88043750D03*
X350837500Y-91343750D03*
G04 #@! TD*
G04 #@! TO.C,D87*
X312737500Y-110393750D03*
X312737500Y-107093750D03*
G04 #@! TD*
G04 #@! TO.C,D88*
X331787500Y-107093750D03*
X331787500Y-110393750D03*
G04 #@! TD*
G04 #@! TO.C,D89*
X350837500Y-110393750D03*
X350837500Y-107093750D03*
G04 #@! TD*
D16*
G04 #@! TO.C,K_DEL1*
X325562500Y-55880000D03*
X325562500Y-50160000D03*
X318962500Y-55880000D03*
X318962500Y-50160000D03*
G04 #@! TD*
G04 #@! TO.C,K_DOWN1*
X338012500Y-107310000D03*
X338012500Y-113030000D03*
X344612500Y-107310000D03*
X344612500Y-113030000D03*
G04 #@! TD*
G04 #@! TO.C,K_END1*
X344612500Y-55880000D03*
X344612500Y-50160000D03*
X338012500Y-55880000D03*
X338012500Y-50160000D03*
G04 #@! TD*
G04 #@! TO.C,K_HOME1*
X338012500Y-31110000D03*
X338012500Y-36830000D03*
X344612500Y-31110000D03*
X344612500Y-36830000D03*
G04 #@! TD*
G04 #@! TO.C,K_INS1*
X325562500Y-36830000D03*
X325562500Y-31110000D03*
X318962500Y-36830000D03*
X318962500Y-31110000D03*
G04 #@! TD*
G04 #@! TO.C,K_LEFT1*
X318962500Y-107310000D03*
X318962500Y-113030000D03*
X325562500Y-107310000D03*
X325562500Y-113030000D03*
G04 #@! TD*
G04 #@! TO.C,K_PAUSE1*
X357062500Y-7297500D03*
X357062500Y-13017500D03*
X363662500Y-7297500D03*
X363662500Y-13017500D03*
G04 #@! TD*
G04 #@! TO.C,K_PGDN1*
X363662500Y-55880000D03*
X363662500Y-50160000D03*
X357062500Y-55880000D03*
X357062500Y-50160000D03*
G04 #@! TD*
G04 #@! TO.C,K_PGUP1*
X357062500Y-31110000D03*
X357062500Y-36830000D03*
X363662500Y-31110000D03*
X363662500Y-36830000D03*
G04 #@! TD*
G04 #@! TO.C,K_PRTSC1*
X318962500Y-7297500D03*
X318962500Y-13017500D03*
X325562500Y-7297500D03*
X325562500Y-13017500D03*
G04 #@! TD*
G04 #@! TO.C,K_RIGHT1*
X363662500Y-113030000D03*
X363662500Y-107310000D03*
X357062500Y-113030000D03*
X357062500Y-107310000D03*
G04 #@! TD*
G04 #@! TO.C,K_SLCK1*
X344612500Y-13017500D03*
X344612500Y-7297500D03*
X338012500Y-13017500D03*
X338012500Y-7297500D03*
G04 #@! TD*
G04 #@! TO.C,K_UP1*
X338012500Y-88260000D03*
X338012500Y-93980000D03*
X344612500Y-88260000D03*
X344612500Y-93980000D03*
G04 #@! TD*
D28*
G04 #@! TO.C,U1*
X300243000Y-85154000D03*
X300243000Y-85954000D03*
X300243000Y-86754000D03*
X300243000Y-87554000D03*
X300243000Y-88354000D03*
X300243000Y-89154000D03*
X300243000Y-89954000D03*
X300243000Y-90754000D03*
X300243000Y-91554000D03*
X300243000Y-92354000D03*
X300243000Y-93154000D03*
D29*
X301943000Y-94854000D03*
X302743000Y-94854000D03*
X303543000Y-94854000D03*
X304343000Y-94854000D03*
X305143000Y-94854000D03*
X305943000Y-94854000D03*
X306743000Y-94854000D03*
X307543000Y-94854000D03*
X308343000Y-94854000D03*
X309143000Y-94854000D03*
X309943000Y-94854000D03*
D28*
X311643000Y-93154000D03*
X311643000Y-92354000D03*
X311643000Y-91554000D03*
X311643000Y-90754000D03*
X311643000Y-89954000D03*
X311643000Y-89154000D03*
X311643000Y-88354000D03*
X311643000Y-87554000D03*
X311643000Y-86754000D03*
X311643000Y-85954000D03*
X311643000Y-85154000D03*
D29*
X309943000Y-83454000D03*
X309143000Y-83454000D03*
X308343000Y-83454000D03*
X307543000Y-83454000D03*
X306743000Y-83454000D03*
X305943000Y-83454000D03*
X305143000Y-83454000D03*
X304343000Y-83454000D03*
X303543000Y-83454000D03*
X302743000Y-83454000D03*
X301943000Y-83454000D03*
G04 #@! TD*
D16*
G04 #@! TO.C,K_ENTER2*
X294005000Y-63625000D03*
X288285000Y-63625000D03*
D30*
X294005000Y-57025000D03*
D16*
X288285000Y-57025000D03*
G04 #@! TD*
D30*
G04 #@! TO.C,K_BACK1*
X285625000Y-31110000D03*
D16*
X285625000Y-36830000D03*
X292225000Y-31110000D03*
X292225000Y-36830000D03*
G04 #@! TD*
G04 #@! TO.C,K_SBACK2*
X276100000Y-31110000D03*
X276100000Y-36830000D03*
X282700000Y-31110000D03*
D30*
X282700000Y-36830000D03*
G04 #@! TD*
M02*
