G04 #@! TF.GenerationSoftware,KiCad,Pcbnew,(5.0.0)*
G04 #@! TF.CreationDate,2019-01-11T11:22:09-08:00*
G04 #@! TF.ProjectId,Celestine-SandwichCase-Top,43656C657374696E652D53616E647769,rev?*
G04 #@! TF.SameCoordinates,Original*
G04 #@! TF.FileFunction,Legend,Top*
G04 #@! TF.FilePolarity,Positive*
%FSLAX46Y46*%
G04 Gerber Fmt 4.6, Leading zero omitted, Abs format (unit mm)*
G04 Created by KiCad (PCBNEW (5.0.0)) date 01/11/19 11:22:09*
%MOMM*%
%LPD*%
G01*
G04 APERTURE LIST*
%ADD10C,0.300000*%
%ADD11C,0.010000*%
G04 APERTURE END LIST*
%LPC*%
D10*
X182333035Y-135616071D02*
X181833035Y-134901785D01*
X181475892Y-135616071D02*
X181475892Y-134116071D01*
X182047321Y-134116071D01*
X182190178Y-134187500D01*
X182261607Y-134258928D01*
X182333035Y-134401785D01*
X182333035Y-134616071D01*
X182261607Y-134758928D01*
X182190178Y-134830357D01*
X182047321Y-134901785D01*
X181475892Y-134901785D01*
X183547321Y-135544642D02*
X183404464Y-135616071D01*
X183118750Y-135616071D01*
X182975892Y-135544642D01*
X182904464Y-135401785D01*
X182904464Y-134830357D01*
X182975892Y-134687500D01*
X183118750Y-134616071D01*
X183404464Y-134616071D01*
X183547321Y-134687500D01*
X183618750Y-134830357D01*
X183618750Y-134973214D01*
X182904464Y-135116071D01*
X184118750Y-134616071D02*
X184475892Y-135616071D01*
X184833035Y-134616071D01*
X185404464Y-135616071D02*
X185404464Y-134616071D01*
X185404464Y-134116071D02*
X185333035Y-134187500D01*
X185404464Y-134258928D01*
X185475892Y-134187500D01*
X185404464Y-134116071D01*
X185404464Y-134258928D01*
X186047321Y-135544642D02*
X186190178Y-135616071D01*
X186475892Y-135616071D01*
X186618750Y-135544642D01*
X186690178Y-135401785D01*
X186690178Y-135330357D01*
X186618750Y-135187500D01*
X186475892Y-135116071D01*
X186261607Y-135116071D01*
X186118750Y-135044642D01*
X186047321Y-134901785D01*
X186047321Y-134830357D01*
X186118750Y-134687500D01*
X186261607Y-134616071D01*
X186475892Y-134616071D01*
X186618750Y-134687500D01*
X187333035Y-135616071D02*
X187333035Y-134616071D01*
X187333035Y-134116071D02*
X187261607Y-134187500D01*
X187333035Y-134258928D01*
X187404464Y-134187500D01*
X187333035Y-134116071D01*
X187333035Y-134258928D01*
X188261607Y-135616071D02*
X188118750Y-135544642D01*
X188047321Y-135473214D01*
X187975892Y-135330357D01*
X187975892Y-134901785D01*
X188047321Y-134758928D01*
X188118750Y-134687500D01*
X188261607Y-134616071D01*
X188475892Y-134616071D01*
X188618750Y-134687500D01*
X188690178Y-134758928D01*
X188761607Y-134901785D01*
X188761607Y-135330357D01*
X188690178Y-135473214D01*
X188618750Y-135544642D01*
X188475892Y-135616071D01*
X188261607Y-135616071D01*
X189404464Y-134616071D02*
X189404464Y-135616071D01*
X189404464Y-134758928D02*
X189475892Y-134687500D01*
X189618750Y-134616071D01*
X189833035Y-134616071D01*
X189975892Y-134687500D01*
X190047321Y-134830357D01*
X190047321Y-135616071D01*
X192690178Y-135616071D02*
X191833035Y-135616071D01*
X192261607Y-135616071D02*
X192261607Y-134116071D01*
X192118750Y-134330357D01*
X191975892Y-134473214D01*
X191833035Y-134544642D01*
X193333035Y-135473214D02*
X193404464Y-135544642D01*
X193333035Y-135616071D01*
X193261607Y-135544642D01*
X193333035Y-135473214D01*
X193333035Y-135616071D01*
X194333035Y-134116071D02*
X194475892Y-134116071D01*
X194618750Y-134187500D01*
X194690178Y-134258928D01*
X194761607Y-134401785D01*
X194833035Y-134687500D01*
X194833035Y-135044642D01*
X194761607Y-135330357D01*
X194690178Y-135473214D01*
X194618750Y-135544642D01*
X194475892Y-135616071D01*
X194333035Y-135616071D01*
X194190178Y-135544642D01*
X194118750Y-135473214D01*
X194047321Y-135330357D01*
X193975892Y-135044642D01*
X193975892Y-134687500D01*
X194047321Y-134401785D01*
X194118750Y-134258928D01*
X194190178Y-134187500D01*
X194333035Y-134116071D01*
X137566071Y-135473214D02*
X137494642Y-135544642D01*
X137280357Y-135616071D01*
X137137500Y-135616071D01*
X136923214Y-135544642D01*
X136780357Y-135401785D01*
X136708928Y-135258928D01*
X136637500Y-134973214D01*
X136637500Y-134758928D01*
X136708928Y-134473214D01*
X136780357Y-134330357D01*
X136923214Y-134187500D01*
X137137500Y-134116071D01*
X137280357Y-134116071D01*
X137494642Y-134187500D01*
X137566071Y-134258928D01*
X138780357Y-135544642D02*
X138637500Y-135616071D01*
X138351785Y-135616071D01*
X138208928Y-135544642D01*
X138137500Y-135401785D01*
X138137500Y-134830357D01*
X138208928Y-134687500D01*
X138351785Y-134616071D01*
X138637500Y-134616071D01*
X138780357Y-134687500D01*
X138851785Y-134830357D01*
X138851785Y-134973214D01*
X138137500Y-135116071D01*
X139708928Y-135616071D02*
X139566071Y-135544642D01*
X139494642Y-135401785D01*
X139494642Y-134116071D01*
X140851785Y-135544642D02*
X140708928Y-135616071D01*
X140423214Y-135616071D01*
X140280357Y-135544642D01*
X140208928Y-135401785D01*
X140208928Y-134830357D01*
X140280357Y-134687500D01*
X140423214Y-134616071D01*
X140708928Y-134616071D01*
X140851785Y-134687500D01*
X140923214Y-134830357D01*
X140923214Y-134973214D01*
X140208928Y-135116071D01*
X141494642Y-135544642D02*
X141637500Y-135616071D01*
X141923214Y-135616071D01*
X142066071Y-135544642D01*
X142137500Y-135401785D01*
X142137500Y-135330357D01*
X142066071Y-135187500D01*
X141923214Y-135116071D01*
X141708928Y-135116071D01*
X141566071Y-135044642D01*
X141494642Y-134901785D01*
X141494642Y-134830357D01*
X141566071Y-134687500D01*
X141708928Y-134616071D01*
X141923214Y-134616071D01*
X142066071Y-134687500D01*
X142566071Y-134616071D02*
X143137500Y-134616071D01*
X142780357Y-134116071D02*
X142780357Y-135401785D01*
X142851785Y-135544642D01*
X142994642Y-135616071D01*
X143137500Y-135616071D01*
X143637500Y-135616071D02*
X143637500Y-134616071D01*
X143637500Y-134116071D02*
X143566071Y-134187500D01*
X143637500Y-134258928D01*
X143708928Y-134187500D01*
X143637500Y-134116071D01*
X143637500Y-134258928D01*
X144351785Y-134616071D02*
X144351785Y-135616071D01*
X144351785Y-134758928D02*
X144423214Y-134687500D01*
X144566071Y-134616071D01*
X144780357Y-134616071D01*
X144923214Y-134687500D01*
X144994642Y-134830357D01*
X144994642Y-135616071D01*
X146280357Y-135544642D02*
X146137500Y-135616071D01*
X145851785Y-135616071D01*
X145708928Y-135544642D01*
X145637500Y-135401785D01*
X145637500Y-134830357D01*
X145708928Y-134687500D01*
X145851785Y-134616071D01*
X146137500Y-134616071D01*
X146280357Y-134687500D01*
X146351785Y-134830357D01*
X146351785Y-134973214D01*
X145637500Y-135116071D01*
X147923214Y-134116071D02*
X148780357Y-134116071D01*
X148351785Y-135616071D02*
X148351785Y-134116071D01*
X149280357Y-135616071D02*
X149280357Y-134116071D01*
X150137500Y-135616071D02*
X149494642Y-134758928D01*
X150137500Y-134116071D02*
X149280357Y-134973214D01*
X151494642Y-135616071D02*
X150780357Y-135616071D01*
X150780357Y-134116071D01*
X153066071Y-135187500D02*
X153780357Y-135187500D01*
X152923214Y-135616071D02*
X153423214Y-134116071D01*
X153923214Y-135616071D01*
X154637500Y-135616071D02*
X154494642Y-135544642D01*
X154423214Y-135401785D01*
X154423214Y-134116071D01*
X155208928Y-134616071D02*
X155208928Y-136116071D01*
X155208928Y-134687500D02*
X155351785Y-134616071D01*
X155637500Y-134616071D01*
X155780357Y-134687500D01*
X155851785Y-134758928D01*
X155923214Y-134901785D01*
X155923214Y-135330357D01*
X155851785Y-135473214D01*
X155780357Y-135544642D01*
X155637500Y-135616071D01*
X155351785Y-135616071D01*
X155208928Y-135544642D01*
X156566071Y-135616071D02*
X156566071Y-134116071D01*
X157208928Y-135616071D02*
X157208928Y-134830357D01*
X157137500Y-134687500D01*
X156994642Y-134616071D01*
X156780357Y-134616071D01*
X156637500Y-134687500D01*
X156566071Y-134758928D01*
X158566071Y-135616071D02*
X158566071Y-134830357D01*
X158494642Y-134687500D01*
X158351785Y-134616071D01*
X158066071Y-134616071D01*
X157923214Y-134687500D01*
X158566071Y-135544642D02*
X158423214Y-135616071D01*
X158066071Y-135616071D01*
X157923214Y-135544642D01*
X157851785Y-135401785D01*
X157851785Y-135258928D01*
X157923214Y-135116071D01*
X158066071Y-135044642D01*
X158423214Y-135044642D01*
X158566071Y-134973214D01*
D11*
G04 #@! TO.C,G\002A\002A\002A*
G36*
X344411468Y-95019395D02*
X343729678Y-95019395D01*
X343729678Y-94337606D01*
X344411468Y-94337606D01*
X344411468Y-95019395D01*
X344411468Y-95019395D01*
G37*
X344411468Y-95019395D02*
X343729678Y-95019395D01*
X343729678Y-94337606D01*
X344411468Y-94337606D01*
X344411468Y-95019395D01*
G36*
X345093257Y-96342869D02*
X344411468Y-96342869D01*
X344411468Y-95701185D01*
X345093257Y-95701185D01*
X345093257Y-96342869D01*
X345093257Y-96342869D01*
G37*
X345093257Y-96342869D02*
X344411468Y-96342869D01*
X344411468Y-95701185D01*
X345093257Y-95701185D01*
X345093257Y-96342869D01*
G36*
X343729678Y-96342869D02*
X343087994Y-96342869D01*
X343087994Y-95701185D01*
X343729678Y-95701185D01*
X343729678Y-96342869D01*
X343729678Y-96342869D01*
G37*
X343729678Y-96342869D02*
X343087994Y-96342869D01*
X343087994Y-95701185D01*
X343729678Y-95701185D01*
X343729678Y-96342869D01*
G36*
X345734941Y-97706448D02*
X345093257Y-97706448D01*
X345093257Y-97024658D01*
X345734941Y-97024658D01*
X345734941Y-97706448D01*
X345734941Y-97706448D01*
G37*
X345734941Y-97706448D02*
X345093257Y-97706448D01*
X345093257Y-97024658D01*
X345734941Y-97024658D01*
X345734941Y-97706448D01*
G36*
X344411468Y-97706448D02*
X343729678Y-97706448D01*
X343729678Y-97024658D01*
X344411468Y-97024658D01*
X344411468Y-97706448D01*
X344411468Y-97706448D01*
G37*
X344411468Y-97706448D02*
X343729678Y-97706448D01*
X343729678Y-97024658D01*
X344411468Y-97024658D01*
X344411468Y-97706448D01*
G36*
X343087994Y-97706448D02*
X342406204Y-97706448D01*
X342406204Y-97024658D01*
X343087994Y-97024658D01*
X343087994Y-97706448D01*
X343087994Y-97706448D01*
G37*
X343087994Y-97706448D02*
X342406204Y-97706448D01*
X342406204Y-97024658D01*
X343087994Y-97024658D01*
X343087994Y-97706448D01*
G36*
X346416731Y-99029921D02*
X345734941Y-99029921D01*
X345734941Y-98348132D01*
X346416731Y-98348132D01*
X346416731Y-99029921D01*
X346416731Y-99029921D01*
G37*
X346416731Y-99029921D02*
X345734941Y-99029921D01*
X345734941Y-98348132D01*
X346416731Y-98348132D01*
X346416731Y-99029921D01*
G36*
X342406204Y-99029921D02*
X341724415Y-99029921D01*
X341724415Y-98348132D01*
X342406204Y-98348132D01*
X342406204Y-99029921D01*
X342406204Y-99029921D01*
G37*
X342406204Y-99029921D02*
X341724415Y-99029921D01*
X341724415Y-98348132D01*
X342406204Y-98348132D01*
X342406204Y-99029921D01*
G36*
X344097310Y-91832102D02*
X344306351Y-91834410D01*
X344494497Y-91841411D01*
X344667286Y-91853785D01*
X344830256Y-91872211D01*
X344988946Y-91897370D01*
X345148894Y-91929941D01*
X345315638Y-91970605D01*
X345391896Y-91991047D01*
X345743134Y-92100922D01*
X346083493Y-92234539D01*
X346411683Y-92391231D01*
X346726414Y-92570331D01*
X347026397Y-92771170D01*
X347282641Y-92969907D01*
X347548189Y-93206918D01*
X347796335Y-93461984D01*
X348025928Y-93733306D01*
X348235818Y-94019087D01*
X348424852Y-94317528D01*
X348591880Y-94626832D01*
X348735749Y-94945201D01*
X348855308Y-95270836D01*
X348937420Y-95553801D01*
X348993117Y-95789566D01*
X349035829Y-96011774D01*
X349066806Y-96229495D01*
X349087299Y-96451805D01*
X349098559Y-96687774D01*
X349099660Y-96730553D01*
X349095080Y-97098211D01*
X349064436Y-97459951D01*
X349007738Y-97815725D01*
X348924994Y-98165481D01*
X348816215Y-98509172D01*
X348708093Y-98785268D01*
X348660797Y-98895188D01*
X348620271Y-98986401D01*
X348583439Y-99065059D01*
X348547226Y-99137312D01*
X348508556Y-99209312D01*
X348464352Y-99287210D01*
X348415299Y-99370816D01*
X348214510Y-99684536D01*
X347995386Y-99978810D01*
X347757705Y-100253862D01*
X347501244Y-100509915D01*
X347225779Y-100747193D01*
X346931087Y-100965918D01*
X346623941Y-101162174D01*
X346534965Y-101214333D01*
X346457638Y-101258083D01*
X346385808Y-101296500D01*
X346313325Y-101332660D01*
X346234038Y-101369638D01*
X346141794Y-101410511D01*
X346038393Y-101454968D01*
X345876316Y-101521575D01*
X345726897Y-101577219D01*
X345580178Y-101625198D01*
X345426201Y-101668808D01*
X345287099Y-101703727D01*
X345010018Y-101763608D01*
X344745438Y-101806853D01*
X344485686Y-101834372D01*
X344223087Y-101847076D01*
X344070573Y-101848048D01*
X343984310Y-101847181D01*
X343903264Y-101845993D01*
X343832728Y-101844591D01*
X343777998Y-101843080D01*
X343744368Y-101841568D01*
X343743046Y-101841473D01*
X343378964Y-101801133D01*
X343020637Y-101735472D01*
X342669511Y-101645023D01*
X342327034Y-101530322D01*
X341994653Y-101391903D01*
X341673814Y-101230301D01*
X341365964Y-101046050D01*
X341111723Y-100869156D01*
X340820476Y-100636151D01*
X340549851Y-100386280D01*
X340300226Y-100120093D01*
X340071979Y-99838144D01*
X339865487Y-99540984D01*
X339681128Y-99229167D01*
X339519280Y-98903244D01*
X339380320Y-98563768D01*
X339264626Y-98211290D01*
X339244172Y-98138771D01*
X339199766Y-97967329D01*
X339163749Y-97805098D01*
X339135441Y-97646540D01*
X339114162Y-97486118D01*
X339099232Y-97318292D01*
X339089972Y-97137525D01*
X339085700Y-96938277D01*
X339085227Y-96844185D01*
X339086364Y-96750945D01*
X339982489Y-96750945D01*
X339982663Y-96885914D01*
X339985468Y-97020086D01*
X339990851Y-97146615D01*
X339998762Y-97258654D01*
X340005027Y-97318764D01*
X340058709Y-97651054D01*
X340137280Y-97973775D01*
X340240438Y-98286295D01*
X340367879Y-98587982D01*
X340519302Y-98878207D01*
X340694404Y-99156337D01*
X340892884Y-99421742D01*
X341114437Y-99673790D01*
X341152055Y-99712886D01*
X341378134Y-99926906D01*
X341623527Y-100125534D01*
X341883688Y-100305441D01*
X342154068Y-100463296D01*
X342231186Y-100503191D01*
X342356505Y-100564916D01*
X342466385Y-100615811D01*
X342568275Y-100658872D01*
X342669620Y-100697094D01*
X342777869Y-100733472D01*
X342887468Y-100767147D01*
X343206142Y-100850368D01*
X343518985Y-100908391D01*
X343828440Y-100941440D01*
X344136946Y-100949740D01*
X344446944Y-100933519D01*
X344559015Y-100921763D01*
X344874521Y-100873016D01*
X345176973Y-100802601D01*
X345470595Y-100709254D01*
X345759608Y-100591713D01*
X345922905Y-100513906D01*
X346210285Y-100356569D01*
X346478775Y-100181857D01*
X346729652Y-99988614D01*
X346964191Y-99775690D01*
X347183668Y-99541929D01*
X347389361Y-99286180D01*
X347571707Y-99024043D01*
X347614023Y-98954667D01*
X347663410Y-98866873D01*
X347716800Y-98766757D01*
X347771128Y-98660416D01*
X347823330Y-98553947D01*
X347870340Y-98453444D01*
X347909093Y-98365006D01*
X347931725Y-98308027D01*
X348037607Y-97985431D01*
X348117432Y-97660819D01*
X348171130Y-97335100D01*
X348198635Y-97009189D01*
X348199877Y-96683996D01*
X348174789Y-96360433D01*
X348123303Y-96039414D01*
X348106792Y-95961869D01*
X348050120Y-95732323D01*
X347985602Y-95519804D01*
X347909917Y-95314986D01*
X347819742Y-95108544D01*
X347756316Y-94978061D01*
X347598497Y-94693685D01*
X347418582Y-94423476D01*
X347217864Y-94168646D01*
X346997636Y-93930408D01*
X346759190Y-93709974D01*
X346503820Y-93508557D01*
X346232819Y-93327370D01*
X345947479Y-93167624D01*
X345704647Y-93053887D01*
X345415588Y-92942064D01*
X345124971Y-92854489D01*
X344829414Y-92790475D01*
X344525532Y-92749334D01*
X344209944Y-92730379D01*
X344103994Y-92728881D01*
X343770361Y-92739610D01*
X343447620Y-92774379D01*
X343134466Y-92833582D01*
X342829597Y-92917612D01*
X342531709Y-93026865D01*
X342239499Y-93161734D01*
X341951664Y-93322612D01*
X341782069Y-93430754D01*
X341547234Y-93601748D01*
X341321216Y-93794600D01*
X341106779Y-94006071D01*
X340906685Y-94232921D01*
X340723697Y-94471910D01*
X340560579Y-94719800D01*
X340420094Y-94973351D01*
X340361491Y-95096162D01*
X340258075Y-95340135D01*
X340173475Y-95574642D01*
X340105674Y-95806976D01*
X340052656Y-96044429D01*
X340012404Y-96294294D01*
X339998255Y-96409711D01*
X339990233Y-96505997D01*
X339984995Y-96622024D01*
X339982489Y-96750945D01*
X339086364Y-96750945D01*
X339088166Y-96603350D01*
X339098059Y-96382943D01*
X339115868Y-96177332D01*
X339142558Y-95980886D01*
X339179093Y-95787975D01*
X339226435Y-95592969D01*
X339285549Y-95390236D01*
X339357399Y-95174146D01*
X339383832Y-95099606D01*
X339515848Y-94771658D01*
X339672211Y-94454464D01*
X339852599Y-94148465D01*
X340056693Y-93854104D01*
X340284169Y-93571822D01*
X340534708Y-93302061D01*
X340807987Y-93045264D01*
X340987924Y-92893381D01*
X341132477Y-92783077D01*
X341296754Y-92669686D01*
X341474622Y-92556932D01*
X341659950Y-92448541D01*
X341846606Y-92348237D01*
X342028459Y-92259745D01*
X342038573Y-92255125D01*
X342156401Y-92204813D01*
X342293127Y-92151953D01*
X342441391Y-92099035D01*
X342593832Y-92048552D01*
X342743091Y-92002993D01*
X342881807Y-91964850D01*
X342935510Y-91951556D01*
X343092519Y-91916579D01*
X343242371Y-91888520D01*
X343390589Y-91866810D01*
X343542700Y-91850881D01*
X343704230Y-91840165D01*
X343880705Y-91834094D01*
X344077649Y-91832100D01*
X344097310Y-91832102D01*
X344097310Y-91832102D01*
G37*
X344097310Y-91832102D02*
X344306351Y-91834410D01*
X344494497Y-91841411D01*
X344667286Y-91853785D01*
X344830256Y-91872211D01*
X344988946Y-91897370D01*
X345148894Y-91929941D01*
X345315638Y-91970605D01*
X345391896Y-91991047D01*
X345743134Y-92100922D01*
X346083493Y-92234539D01*
X346411683Y-92391231D01*
X346726414Y-92570331D01*
X347026397Y-92771170D01*
X347282641Y-92969907D01*
X347548189Y-93206918D01*
X347796335Y-93461984D01*
X348025928Y-93733306D01*
X348235818Y-94019087D01*
X348424852Y-94317528D01*
X348591880Y-94626832D01*
X348735749Y-94945201D01*
X348855308Y-95270836D01*
X348937420Y-95553801D01*
X348993117Y-95789566D01*
X349035829Y-96011774D01*
X349066806Y-96229495D01*
X349087299Y-96451805D01*
X349098559Y-96687774D01*
X349099660Y-96730553D01*
X349095080Y-97098211D01*
X349064436Y-97459951D01*
X349007738Y-97815725D01*
X348924994Y-98165481D01*
X348816215Y-98509172D01*
X348708093Y-98785268D01*
X348660797Y-98895188D01*
X348620271Y-98986401D01*
X348583439Y-99065059D01*
X348547226Y-99137312D01*
X348508556Y-99209312D01*
X348464352Y-99287210D01*
X348415299Y-99370816D01*
X348214510Y-99684536D01*
X347995386Y-99978810D01*
X347757705Y-100253862D01*
X347501244Y-100509915D01*
X347225779Y-100747193D01*
X346931087Y-100965918D01*
X346623941Y-101162174D01*
X346534965Y-101214333D01*
X346457638Y-101258083D01*
X346385808Y-101296500D01*
X346313325Y-101332660D01*
X346234038Y-101369638D01*
X346141794Y-101410511D01*
X346038393Y-101454968D01*
X345876316Y-101521575D01*
X345726897Y-101577219D01*
X345580178Y-101625198D01*
X345426201Y-101668808D01*
X345287099Y-101703727D01*
X345010018Y-101763608D01*
X344745438Y-101806853D01*
X344485686Y-101834372D01*
X344223087Y-101847076D01*
X344070573Y-101848048D01*
X343984310Y-101847181D01*
X343903264Y-101845993D01*
X343832728Y-101844591D01*
X343777998Y-101843080D01*
X343744368Y-101841568D01*
X343743046Y-101841473D01*
X343378964Y-101801133D01*
X343020637Y-101735472D01*
X342669511Y-101645023D01*
X342327034Y-101530322D01*
X341994653Y-101391903D01*
X341673814Y-101230301D01*
X341365964Y-101046050D01*
X341111723Y-100869156D01*
X340820476Y-100636151D01*
X340549851Y-100386280D01*
X340300226Y-100120093D01*
X340071979Y-99838144D01*
X339865487Y-99540984D01*
X339681128Y-99229167D01*
X339519280Y-98903244D01*
X339380320Y-98563768D01*
X339264626Y-98211290D01*
X339244172Y-98138771D01*
X339199766Y-97967329D01*
X339163749Y-97805098D01*
X339135441Y-97646540D01*
X339114162Y-97486118D01*
X339099232Y-97318292D01*
X339089972Y-97137525D01*
X339085700Y-96938277D01*
X339085227Y-96844185D01*
X339086364Y-96750945D01*
X339982489Y-96750945D01*
X339982663Y-96885914D01*
X339985468Y-97020086D01*
X339990851Y-97146615D01*
X339998762Y-97258654D01*
X340005027Y-97318764D01*
X340058709Y-97651054D01*
X340137280Y-97973775D01*
X340240438Y-98286295D01*
X340367879Y-98587982D01*
X340519302Y-98878207D01*
X340694404Y-99156337D01*
X340892884Y-99421742D01*
X341114437Y-99673790D01*
X341152055Y-99712886D01*
X341378134Y-99926906D01*
X341623527Y-100125534D01*
X341883688Y-100305441D01*
X342154068Y-100463296D01*
X342231186Y-100503191D01*
X342356505Y-100564916D01*
X342466385Y-100615811D01*
X342568275Y-100658872D01*
X342669620Y-100697094D01*
X342777869Y-100733472D01*
X342887468Y-100767147D01*
X343206142Y-100850368D01*
X343518985Y-100908391D01*
X343828440Y-100941440D01*
X344136946Y-100949740D01*
X344446944Y-100933519D01*
X344559015Y-100921763D01*
X344874521Y-100873016D01*
X345176973Y-100802601D01*
X345470595Y-100709254D01*
X345759608Y-100591713D01*
X345922905Y-100513906D01*
X346210285Y-100356569D01*
X346478775Y-100181857D01*
X346729652Y-99988614D01*
X346964191Y-99775690D01*
X347183668Y-99541929D01*
X347389361Y-99286180D01*
X347571707Y-99024043D01*
X347614023Y-98954667D01*
X347663410Y-98866873D01*
X347716800Y-98766757D01*
X347771128Y-98660416D01*
X347823330Y-98553947D01*
X347870340Y-98453444D01*
X347909093Y-98365006D01*
X347931725Y-98308027D01*
X348037607Y-97985431D01*
X348117432Y-97660819D01*
X348171130Y-97335100D01*
X348198635Y-97009189D01*
X348199877Y-96683996D01*
X348174789Y-96360433D01*
X348123303Y-96039414D01*
X348106792Y-95961869D01*
X348050120Y-95732323D01*
X347985602Y-95519804D01*
X347909917Y-95314986D01*
X347819742Y-95108544D01*
X347756316Y-94978061D01*
X347598497Y-94693685D01*
X347418582Y-94423476D01*
X347217864Y-94168646D01*
X346997636Y-93930408D01*
X346759190Y-93709974D01*
X346503820Y-93508557D01*
X346232819Y-93327370D01*
X345947479Y-93167624D01*
X345704647Y-93053887D01*
X345415588Y-92942064D01*
X345124971Y-92854489D01*
X344829414Y-92790475D01*
X344525532Y-92749334D01*
X344209944Y-92730379D01*
X344103994Y-92728881D01*
X343770361Y-92739610D01*
X343447620Y-92774379D01*
X343134466Y-92833582D01*
X342829597Y-92917612D01*
X342531709Y-93026865D01*
X342239499Y-93161734D01*
X341951664Y-93322612D01*
X341782069Y-93430754D01*
X341547234Y-93601748D01*
X341321216Y-93794600D01*
X341106779Y-94006071D01*
X340906685Y-94232921D01*
X340723697Y-94471910D01*
X340560579Y-94719800D01*
X340420094Y-94973351D01*
X340361491Y-95096162D01*
X340258075Y-95340135D01*
X340173475Y-95574642D01*
X340105674Y-95806976D01*
X340052656Y-96044429D01*
X340012404Y-96294294D01*
X339998255Y-96409711D01*
X339990233Y-96505997D01*
X339984995Y-96622024D01*
X339982489Y-96750945D01*
X339086364Y-96750945D01*
X339088166Y-96603350D01*
X339098059Y-96382943D01*
X339115868Y-96177332D01*
X339142558Y-95980886D01*
X339179093Y-95787975D01*
X339226435Y-95592969D01*
X339285549Y-95390236D01*
X339357399Y-95174146D01*
X339383832Y-95099606D01*
X339515848Y-94771658D01*
X339672211Y-94454464D01*
X339852599Y-94148465D01*
X340056693Y-93854104D01*
X340284169Y-93571822D01*
X340534708Y-93302061D01*
X340807987Y-93045264D01*
X340987924Y-92893381D01*
X341132477Y-92783077D01*
X341296754Y-92669686D01*
X341474622Y-92556932D01*
X341659950Y-92448541D01*
X341846606Y-92348237D01*
X342028459Y-92259745D01*
X342038573Y-92255125D01*
X342156401Y-92204813D01*
X342293127Y-92151953D01*
X342441391Y-92099035D01*
X342593832Y-92048552D01*
X342743091Y-92002993D01*
X342881807Y-91964850D01*
X342935510Y-91951556D01*
X343092519Y-91916579D01*
X343242371Y-91888520D01*
X343390589Y-91866810D01*
X343542700Y-91850881D01*
X343704230Y-91840165D01*
X343880705Y-91834094D01*
X344077649Y-91832100D01*
X344097310Y-91832102D01*
G04 #@! TD*
M02*
