G04 #@! TF.GenerationSoftware,KiCad,Pcbnew,(5.0.0)*
G04 #@! TF.CreationDate,2019-01-11T11:22:09-08:00*
G04 #@! TF.ProjectId,Celestine-SandwichCase-Top,43656C657374696E652D53616E647769,rev?*
G04 #@! TF.SameCoordinates,Original*
G04 #@! TF.FileFunction,Profile,NP*
%FSLAX46Y46*%
G04 Gerber Fmt 4.6, Leading zero omitted, Abs format (unit mm)*
G04 Created by KiCad (PCBNEW (5.0.0)) date 01/11/19 11:22:09*
%MOMM*%
%LPD*%
G01*
G04 APERTURE LIST*
G04 #@! TA.AperFunction,NonConductor*
%ADD10C,0.200000*%
G04 #@! TD*
G04 APERTURE END LIST*
D10*
G04 #@! TO.C,O1*
X60480213Y-126750531D02*
G75*
G02X60047200Y-127000531I-433013J250000D01*
G01*
X17063225Y-148335531D02*
X17063225Y-21273031D01*
X65413225Y-126500531D02*
X60913225Y-126500531D01*
X21063225Y-152335531D02*
G75*
G02X17063225Y-148335531I0J4000000D01*
G01*
X65413225Y-126500531D02*
G75*
G02X65846238Y-126750531I0J-500000D01*
G01*
X376725725Y-17273031D02*
G75*
G02X380725725Y-21273031I0J-4000000D01*
G01*
X66279250Y-127000530D02*
G75*
G02X65846238Y-126750531I0J499999D01*
G01*
X376725725Y-152335531D02*
X21063225Y-152335531D01*
X70973225Y-142120531D02*
G75*
G02X70473225Y-142620531I-500000J0D01*
G01*
X55853225Y-142620531D02*
X70473225Y-142620531D01*
X55853225Y-142620531D02*
G75*
G02X55353225Y-142120531I0J500000D01*
G01*
X55353225Y-127500531D02*
X55353225Y-142120531D01*
X55353225Y-127500531D02*
G75*
G02X55853225Y-127000531I500000J0D01*
G01*
X60480212Y-126750531D02*
G75*
G02X60913225Y-126500531I433013J-250000D01*
G01*
X380725725Y-148335531D02*
G75*
G02X376725725Y-152335531I-4000000J0D01*
G01*
X380725725Y-21273031D02*
X380725725Y-148335531D01*
X200044475Y-21273031D02*
G75*
G03X200044475Y-21273031I-1150000J0D01*
G01*
X22213225Y-148335531D02*
G75*
G03X22213225Y-148335531I-1150000J0D01*
G01*
X70473225Y-127000531D02*
X66279250Y-127000531D01*
X17063225Y-21273031D02*
G75*
G02X21063225Y-17273031I4000000J0D01*
G01*
X21063225Y-17273031D02*
X376725725Y-17273031D01*
X288960100Y-148335531D02*
G75*
G03X288960100Y-148335531I-1150000J0D01*
G01*
X60047200Y-127000531D02*
X55853225Y-127000531D01*
X61264575Y-117737531D02*
G75*
G02X60764575Y-118237531I-500000J0D01*
G01*
X60764575Y-108966531D02*
G75*
G02X61264575Y-109466531I0J-500000D01*
G01*
X99616750Y-107950530D02*
G75*
G02X99183738Y-107700531I0J499999D01*
G01*
X103810725Y-107950531D02*
X99616750Y-107950531D01*
X60615725Y-104520531D02*
G75*
G02X60115725Y-104020531I0J500000D01*
G01*
X60764575Y-108966531D02*
X59529375Y-108966531D01*
X104310725Y-123070531D02*
G75*
G02X103810725Y-123570531I-500000J0D01*
G01*
X28724375Y-123070531D02*
G75*
G02X28224375Y-123570531I-500000J0D01*
G01*
X61558415Y-111970633D02*
G75*
G02X61264575Y-111515113I206160J455520D01*
G01*
X89190725Y-123570531D02*
X103810725Y-123570531D01*
X64809700Y-88900531D02*
X60615725Y-88900531D01*
X61264575Y-111515113D02*
X61264575Y-109466531D01*
X26724375Y-123570531D02*
X28224375Y-123570531D01*
X70175725Y-88400531D02*
X65675725Y-88400531D01*
X27540725Y-85470531D02*
X29040725Y-85470531D01*
X27040725Y-70350531D02*
G75*
G02X27540725Y-69850531I500000J0D01*
G01*
X26724375Y-123570531D02*
G75*
G02X26224375Y-123070531I0J500000D01*
G01*
X28224375Y-107950531D02*
X26724375Y-107950531D01*
X59029375Y-109466531D02*
X59029375Y-117737531D01*
X61264575Y-115688949D02*
G75*
G02X61558415Y-115233429I500000J0D01*
G01*
X59529375Y-118237531D02*
G75*
G02X59029375Y-117737531I0J500000D01*
G01*
X89190725Y-123570531D02*
G75*
G02X88690725Y-123070531I0J500000D01*
G01*
X88690725Y-108450531D02*
X88690725Y-123070531D01*
X61264575Y-117737531D02*
X61264575Y-115688949D01*
X59529375Y-118237531D02*
X60764575Y-118237531D01*
X60115725Y-89400531D02*
X60115725Y-104020531D01*
X75235725Y-88900531D02*
X71041750Y-88900531D01*
X60115725Y-89400531D02*
G75*
G02X60615725Y-88900531I500000J0D01*
G01*
X29040725Y-69850531D02*
G75*
G02X29540725Y-70350531I0J-500000D01*
G01*
X29540725Y-84970531D02*
G75*
G02X29040725Y-85470531I-500000J0D01*
G01*
X59029375Y-109466531D02*
G75*
G02X59529375Y-108966531I500000J0D01*
G01*
X61558415Y-111970633D02*
G75*
G02X61558415Y-115233429I-738340J-1631398D01*
G01*
X75735725Y-104020531D02*
X75735725Y-89400531D01*
X75735725Y-104020531D02*
G75*
G02X75235725Y-104520531I-500000J0D01*
G01*
X26224375Y-108450531D02*
G75*
G02X26724375Y-107950531I500000J0D01*
G01*
X71041750Y-88900530D02*
G75*
G02X70608738Y-88650531I0J499999D01*
G01*
X60615725Y-104520531D02*
X75235725Y-104520531D01*
X29040725Y-69850531D02*
X27540725Y-69850531D01*
X28224375Y-107950531D02*
G75*
G02X28724375Y-108450531I0J-500000D01*
G01*
X28724375Y-123070531D02*
X28724375Y-108450531D01*
X75235725Y-88900531D02*
G75*
G02X75735725Y-89400531I0J-500000D01*
G01*
X27540725Y-85470531D02*
G75*
G02X27040725Y-84970531I0J500000D01*
G01*
X65242712Y-88650531D02*
G75*
G02X65675725Y-88400531I433013J-250000D01*
G01*
X103513225Y-69350531D02*
G75*
G02X103946238Y-69600531I0J-500000D01*
G01*
X103810725Y-107950531D02*
G75*
G02X104310725Y-108450531I0J-500000D01*
G01*
X88690725Y-108450531D02*
G75*
G02X89190725Y-107950531I500000J0D01*
G01*
X93384700Y-107950531D02*
X89190725Y-107950531D01*
X27040725Y-70350531D02*
X27040725Y-84970531D01*
X70175725Y-88400531D02*
G75*
G02X70608738Y-88650531I0J-500000D01*
G01*
X65242713Y-88650531D02*
G75*
G02X64809700Y-88900531I-433013J250000D01*
G01*
X26224375Y-108450531D02*
X26224375Y-123070531D01*
X93817713Y-107700531D02*
G75*
G02X93384700Y-107950531I-433013J250000D01*
G01*
X93817712Y-107700531D02*
G75*
G02X94250725Y-107450531I433013J-250000D01*
G01*
X98750725Y-107450531D02*
X94250725Y-107450531D01*
X98750725Y-107450531D02*
G75*
G02X99183738Y-107700531I0J-500000D01*
G01*
X104310725Y-123070531D02*
X104310725Y-108450531D01*
X29540725Y-84970531D02*
X29540725Y-70350531D01*
X184773225Y-26988031D02*
G75*
G02X185273225Y-27488031I0J-500000D01*
G01*
X236692713Y-88650531D02*
G75*
G02X236259700Y-88900531I-433013J250000D01*
G01*
X108105212Y-26738031D02*
G75*
G02X108538225Y-26488031I433013J-250000D01*
G01*
X246685725Y-88900531D02*
X242491750Y-88900531D01*
X284703225Y-77125531D02*
X299323225Y-77125531D01*
X284703225Y-77125531D02*
G75*
G02X284203225Y-76625531I0J500000D01*
G01*
X236259700Y-88900531D02*
X232065725Y-88900531D01*
X241625725Y-88400531D02*
X237125725Y-88400531D01*
X247185725Y-104020531D02*
X247185725Y-89400531D01*
X232065725Y-104520531D02*
G75*
G02X231565725Y-104020531I0J500000D01*
G01*
X174780212Y-26738031D02*
G75*
G02X175213225Y-26488031I433013J-250000D01*
G01*
X169653225Y-27488031D02*
G75*
G02X170153225Y-26988031I500000J0D01*
G01*
X113904250Y-26988030D02*
G75*
G02X113471238Y-26738031I0J499999D01*
G01*
X236692712Y-88650531D02*
G75*
G02X237125725Y-88400531I433013J-250000D01*
G01*
X284203225Y-75125531D02*
X284203225Y-76625531D01*
X299323225Y-74625531D02*
X284703225Y-74625531D01*
X108538225Y-26488031D02*
X113038225Y-26488031D01*
X246685725Y-88900531D02*
G75*
G02X247185725Y-89400531I0J-500000D01*
G01*
X103478225Y-26988031D02*
X107672200Y-26988031D01*
X299323225Y-74625531D02*
G75*
G02X299823225Y-75125531I0J-500000D01*
G01*
X180579250Y-26988031D02*
X184773225Y-26988031D01*
X242491750Y-88900530D02*
G75*
G02X242058738Y-88650531I0J499999D01*
G01*
X180579250Y-26988030D02*
G75*
G02X180146238Y-26738031I0J499999D01*
G01*
X108105213Y-26738031D02*
G75*
G02X107672200Y-26988031I-433013J250000D01*
G01*
X118598225Y-27488031D02*
X118598225Y-42108031D01*
X184773225Y-42608031D02*
X170153225Y-42608031D01*
X185273225Y-42108031D02*
G75*
G02X184773225Y-42608031I-500000J0D01*
G01*
X299823225Y-76625531D02*
G75*
G02X299323225Y-77125531I-500000J0D01*
G01*
X102978225Y-42108031D02*
X102978225Y-27488031D01*
X299823225Y-76625531D02*
X299823225Y-75125531D01*
X232065725Y-104520531D02*
X246685725Y-104520531D01*
X179713225Y-26488031D02*
G75*
G02X180146238Y-26738031I0J-500000D01*
G01*
X174780213Y-26738031D02*
G75*
G02X174347200Y-26988031I-433013J250000D01*
G01*
X113904250Y-26988031D02*
X118098225Y-26988031D01*
X231565725Y-89400531D02*
G75*
G02X232065725Y-88900531I500000J0D01*
G01*
X241625725Y-88400531D02*
G75*
G02X242058738Y-88650531I0J-500000D01*
G01*
X303835725Y-142620531D02*
X289215725Y-142620531D01*
X289215725Y-127000531D02*
X293409700Y-127000531D01*
X170153225Y-42608031D02*
G75*
G02X169653225Y-42108031I0J500000D01*
G01*
X293842713Y-126750531D02*
G75*
G02X293409700Y-127000531I-433013J250000D01*
G01*
X170153225Y-26988031D02*
X174347200Y-26988031D01*
X293842712Y-126750531D02*
G75*
G02X294275725Y-126500531I433013J-250000D01*
G01*
X288715725Y-142120531D02*
X288715725Y-127500531D01*
X299641750Y-127000530D02*
G75*
G02X299208738Y-126750531I0J499999D01*
G01*
X304335725Y-142120531D02*
G75*
G02X303835725Y-142620531I-500000J0D01*
G01*
X304335725Y-127500531D02*
X304335725Y-142120531D01*
X118098225Y-26988031D02*
G75*
G02X118598225Y-27488031I0J-500000D01*
G01*
X303835725Y-127000531D02*
G75*
G02X304335725Y-127500531I0J-500000D01*
G01*
X299641750Y-127000531D02*
X303835725Y-127000531D01*
X284203225Y-75125531D02*
G75*
G02X284703225Y-74625531I500000J0D01*
G01*
X113038225Y-26488031D02*
G75*
G02X113471238Y-26738031I0J-500000D01*
G01*
X298775725Y-126500531D02*
G75*
G02X299208738Y-126750531I0J-500000D01*
G01*
X118598225Y-42108031D02*
G75*
G02X118098225Y-42608031I-500000J0D01*
G01*
X289215725Y-142620531D02*
G75*
G02X288715725Y-142120531I0J500000D01*
G01*
X175213225Y-26488031D02*
X179713225Y-26488031D01*
X247185725Y-104020531D02*
G75*
G02X246685725Y-104520531I-500000J0D01*
G01*
X118098225Y-42608031D02*
X103478225Y-42608031D01*
X102978225Y-27488031D02*
G75*
G02X103478225Y-26988031I500000J0D01*
G01*
X169653225Y-42108031D02*
X169653225Y-27488031D01*
X103478225Y-42608031D02*
G75*
G02X102978225Y-42108031I0J500000D01*
G01*
X231565725Y-89400531D02*
X231565725Y-104020531D01*
X294275725Y-126500531D02*
X298775725Y-126500531D01*
X185273225Y-27488031D02*
X185273225Y-42108031D01*
X288715725Y-127500531D02*
G75*
G02X289215725Y-127000531I500000J0D01*
G01*
X98580212Y-69600531D02*
G75*
G02X99013225Y-69350531I433013J-250000D01*
G01*
X66764575Y-123070531D02*
X66764575Y-108450531D01*
X66764575Y-123070531D02*
G75*
G02X66264575Y-123570531I-500000J0D01*
G01*
X64264575Y-108450531D02*
X64264575Y-123070531D01*
X64764575Y-123570531D02*
X66264575Y-123570531D01*
X93453225Y-70350531D02*
G75*
G02X93953225Y-69850531I500000J0D01*
G01*
X93453225Y-84970531D02*
X93453225Y-70350531D01*
X99013225Y-69350531D02*
X103513225Y-69350531D01*
X104379250Y-69850531D02*
X108573225Y-69850531D01*
X66264575Y-107950531D02*
G75*
G02X66764575Y-108450531I0J-500000D01*
G01*
X104379250Y-69850530D02*
G75*
G02X103946238Y-69600531I0J499999D01*
G01*
X108573225Y-69850531D02*
G75*
G02X109073225Y-70350531I0J-500000D01*
G01*
X64264575Y-108450531D02*
G75*
G02X64764575Y-107950531I500000J0D01*
G01*
X108573225Y-85470531D02*
X93953225Y-85470531D01*
X93953225Y-85470531D02*
G75*
G02X93453225Y-84970531I0J500000D01*
G01*
X98580213Y-69600531D02*
G75*
G02X98147200Y-69850531I-433013J250000D01*
G01*
X66264575Y-107950531D02*
X64764575Y-107950531D01*
X109073225Y-70350531D02*
X109073225Y-84970531D01*
X93953225Y-69850531D02*
X98147200Y-69850531D01*
X109073225Y-84970531D02*
G75*
G02X108573225Y-85470531I-500000J0D01*
G01*
X64764575Y-123570531D02*
G75*
G02X64264575Y-123070531I0J500000D01*
G01*
X264536075Y-108966531D02*
X263300875Y-108966531D01*
X122528225Y-42608031D02*
X137148225Y-42608031D01*
X303857625Y-90932031D02*
G75*
G02X304357625Y-91432031I0J-500000D01*
G01*
X302122425Y-91432031D02*
G75*
G02X302622425Y-90932031I500000J0D01*
G01*
X302622425Y-100203031D02*
G75*
G02X302122425Y-99703031I0J500000D01*
G01*
X304357625Y-97302185D02*
X304357625Y-99703031D01*
X137148225Y-26988031D02*
G75*
G02X137648225Y-27488031I0J-500000D01*
G01*
X137648225Y-42108031D02*
G75*
G02X137148225Y-42608031I-500000J0D01*
G01*
X264536075Y-108966531D02*
G75*
G02X265036075Y-109466531I0J-500000D01*
G01*
X265329915Y-111970633D02*
G75*
G02X265036075Y-111515113I206160J455520D01*
G01*
X262800875Y-109466531D02*
X262800875Y-117737531D01*
X304651465Y-93936133D02*
G75*
G02X304357625Y-97302185I-738340J-1631398D01*
G01*
X265329915Y-111970633D02*
G75*
G02X265329915Y-115233429I-738340J-1631398D01*
G01*
X265036075Y-117737531D02*
X265036075Y-115688949D01*
X265036075Y-117737531D02*
G75*
G02X264536075Y-118237531I-500000J0D01*
G01*
X304357625Y-99703031D02*
G75*
G02X303857625Y-100203031I-500000J0D01*
G01*
X262800875Y-109466531D02*
G75*
G02X263300875Y-108966531I500000J0D01*
G01*
X303857625Y-100203031D02*
X302622425Y-100203031D01*
X304357625Y-91432031D02*
X304357625Y-93480613D01*
X263300875Y-118237531D02*
X264536075Y-118237531D01*
X302122425Y-99703031D02*
X302122425Y-91432031D01*
X302622425Y-90932031D02*
X303857625Y-90932031D01*
X304651465Y-93936133D02*
G75*
G02X304357625Y-93480613I206160J455520D01*
G01*
X137148225Y-26988031D02*
X132954250Y-26988031D01*
X137648225Y-42108031D02*
X137648225Y-27488031D01*
X265036075Y-115688949D02*
G75*
G02X265329915Y-115233429I500000J0D01*
G01*
X265036075Y-111515113D02*
X265036075Y-109466531D01*
X263300875Y-118237531D02*
G75*
G02X262800875Y-117737531I0J500000D01*
G01*
X185341750Y-88900530D02*
G75*
G02X184908738Y-88650531I0J499999D01*
G01*
X179975725Y-88400531D02*
X184475725Y-88400531D01*
X179542712Y-88650531D02*
G75*
G02X179975725Y-88400531I433013J-250000D01*
G01*
X298605212Y-50550531D02*
G75*
G02X299038225Y-50300531I433013J-250000D01*
G01*
X217642713Y-88650531D02*
G75*
G02X217209700Y-88900531I-433013J250000D01*
G01*
X228135725Y-104020531D02*
G75*
G02X227635725Y-104520531I-500000J0D01*
G01*
X298605213Y-50550531D02*
G75*
G02X298172200Y-50800531I-433013J250000D01*
G01*
X293478225Y-51300531D02*
G75*
G02X293978225Y-50800531I500000J0D01*
G01*
X213015725Y-104520531D02*
G75*
G02X212515725Y-104020531I0J500000D01*
G01*
X308598225Y-66420531D02*
X293978225Y-66420531D01*
X303538225Y-50300531D02*
G75*
G02X303971238Y-50550531I0J-500000D01*
G01*
X351460725Y-142620531D02*
X336840725Y-142620531D01*
X347266750Y-127000531D02*
X351460725Y-127000531D01*
X174915725Y-88900531D02*
X179109700Y-88900531D01*
X212515725Y-89400531D02*
G75*
G02X213015725Y-88900531I500000J0D01*
G01*
X355390725Y-142120531D02*
X355390725Y-127500531D01*
X336840725Y-127000531D02*
X341034700Y-127000531D01*
X351960725Y-142120531D02*
G75*
G02X351460725Y-142620531I-500000J0D01*
G01*
X341467712Y-126750531D02*
G75*
G02X341900725Y-126500531I433013J-250000D01*
G01*
X190035725Y-89400531D02*
X190035725Y-104020531D01*
X308598225Y-50800531D02*
G75*
G02X309098225Y-51300531I0J-500000D01*
G01*
X189535725Y-88900531D02*
G75*
G02X190035725Y-89400531I0J-500000D01*
G01*
X304404250Y-50800531D02*
X308598225Y-50800531D01*
X370510725Y-127000531D02*
G75*
G02X371010725Y-127500531I0J-500000D01*
G01*
X366316750Y-127000531D02*
X370510725Y-127000531D01*
X336340725Y-127500531D02*
G75*
G02X336840725Y-127000531I500000J0D01*
G01*
X336340725Y-142120531D02*
X336340725Y-127500531D01*
X346400725Y-126500531D02*
G75*
G02X346833738Y-126750531I0J-500000D01*
G01*
X293978225Y-50800531D02*
X298172200Y-50800531D01*
X174415725Y-104020531D02*
X174415725Y-89400531D01*
X293978225Y-66420531D02*
G75*
G02X293478225Y-65920531I0J500000D01*
G01*
X360517713Y-126750531D02*
G75*
G02X360084700Y-127000531I-433013J250000D01*
G01*
X365450725Y-126500531D02*
G75*
G02X365883738Y-126750531I0J-500000D01*
G01*
X227635725Y-104520531D02*
X213015725Y-104520531D01*
X360950725Y-126500531D02*
X365450725Y-126500531D01*
X351460725Y-127000531D02*
G75*
G02X351960725Y-127500531I0J-500000D01*
G01*
X179542713Y-88650531D02*
G75*
G02X179109700Y-88900531I-433013J250000D01*
G01*
X351960725Y-127500531D02*
X351960725Y-142120531D01*
X212515725Y-104020531D02*
X212515725Y-89400531D01*
X190035725Y-104020531D02*
G75*
G02X189535725Y-104520531I-500000J0D01*
G01*
X309098225Y-51300531D02*
X309098225Y-65920531D01*
X213015725Y-88900531D02*
X217209700Y-88900531D01*
X360517712Y-126750531D02*
G75*
G02X360950725Y-126500531I433013J-250000D01*
G01*
X371010725Y-127500531D02*
X371010725Y-142120531D01*
X355890725Y-127000531D02*
X360084700Y-127000531D01*
X184475725Y-88400531D02*
G75*
G02X184908738Y-88650531I0J-500000D01*
G01*
X299038225Y-50300531D02*
X303538225Y-50300531D01*
X355390725Y-127500531D02*
G75*
G02X355890725Y-127000531I500000J0D01*
G01*
X336840725Y-142620531D02*
G75*
G02X336340725Y-142120531I0J500000D01*
G01*
X355890725Y-142620531D02*
G75*
G02X355390725Y-142120531I0J500000D01*
G01*
X370510725Y-142620531D02*
X355890725Y-142620531D01*
X371010725Y-142120531D02*
G75*
G02X370510725Y-142620531I-500000J0D01*
G01*
X366316750Y-127000530D02*
G75*
G02X365883738Y-126750531I0J499999D01*
G01*
X341900725Y-126500531D02*
X346400725Y-126500531D01*
X228135725Y-89400531D02*
X228135725Y-104020531D01*
X341467713Y-126750531D02*
G75*
G02X341034700Y-127000531I-433013J250000D01*
G01*
X185341750Y-88900531D02*
X189535725Y-88900531D01*
X304404250Y-50800530D02*
G75*
G02X303971238Y-50550531I0J499999D01*
G01*
X347266750Y-127000530D02*
G75*
G02X346833738Y-126750531I0J499999D01*
G01*
X189535725Y-104520531D02*
X174915725Y-104520531D01*
X309098225Y-65920531D02*
G75*
G02X308598225Y-66420531I-500000J0D01*
G01*
X174415725Y-89400531D02*
G75*
G02X174915725Y-88900531I500000J0D01*
G01*
X293478225Y-65920531D02*
X293478225Y-51300531D01*
X174915725Y-104520531D02*
G75*
G02X174415725Y-104020531I0J500000D01*
G01*
X84760725Y-107950531D02*
X80566750Y-107950531D01*
X89225725Y-126500531D02*
G75*
G02X89658738Y-126750531I0J-500000D01*
G01*
X31921975Y-104020531D02*
G75*
G02X31421975Y-104520531I-500000J0D01*
G01*
X84292712Y-126750531D02*
G75*
G02X84725725Y-126500531I433013J-250000D01*
G01*
X29421975Y-89400531D02*
X29421975Y-104020531D01*
X90091750Y-127000531D02*
X94285725Y-127000531D01*
X69640725Y-108450531D02*
G75*
G02X70140725Y-107950531I500000J0D01*
G01*
X80566750Y-107950530D02*
G75*
G02X80133738Y-107700531I0J499999D01*
G01*
X74767712Y-107700531D02*
G75*
G02X75200725Y-107450531I433013J-250000D01*
G01*
X79700725Y-107450531D02*
X75200725Y-107450531D01*
X79700725Y-107450531D02*
G75*
G02X80133738Y-107700531I0J-500000D01*
G01*
X31421975Y-88900531D02*
X29921975Y-88900531D01*
X94785725Y-127500531D02*
X94785725Y-142120531D01*
X29421975Y-89400531D02*
G75*
G02X29921975Y-88900531I500000J0D01*
G01*
X74334700Y-107950531D02*
X70140725Y-107950531D01*
X31421975Y-88900531D02*
G75*
G02X31921975Y-89400531I0J-500000D01*
G01*
X84725725Y-126500531D02*
X89225725Y-126500531D01*
X29921975Y-104520531D02*
G75*
G02X29421975Y-104020531I0J500000D01*
G01*
X74767713Y-107700531D02*
G75*
G02X74334700Y-107950531I-433013J250000D01*
G01*
X31921975Y-104020531D02*
X31921975Y-89400531D01*
X29921975Y-104520531D02*
X31421975Y-104520531D01*
X94285725Y-127000531D02*
G75*
G02X94785725Y-127500531I0J-500000D01*
G01*
X90091750Y-127000530D02*
G75*
G02X89658738Y-126750531I0J499999D01*
G01*
X200044475Y-148335531D02*
G75*
G03X200044475Y-148335531I-1150000J0D01*
G01*
X377875725Y-21273031D02*
G75*
G03X377875725Y-21273031I-1150000J0D01*
G01*
X288960100Y-21273031D02*
G75*
G03X288960100Y-21273031I-1150000J0D01*
G01*
X22213225Y-21273031D02*
G75*
G03X22213225Y-21273031I-1150000J0D01*
G01*
X377875725Y-84804281D02*
G75*
G03X377875725Y-84804281I-1150000J0D01*
G01*
X111128850Y-148335531D02*
G75*
G03X111128850Y-148335531I-1150000J0D01*
G01*
X377875725Y-148335531D02*
G75*
G03X377875725Y-148335531I-1150000J0D01*
G01*
X22213225Y-84804281D02*
G75*
G03X22213225Y-84804281I-1150000J0D01*
G01*
X111128850Y-21273031D02*
G75*
G03X111128850Y-21273031I-1150000J0D01*
G01*
X365450725Y-50300531D02*
G75*
G02X365883738Y-50550531I0J-500000D01*
G01*
X194798225Y-65920531D02*
X194798225Y-51300531D01*
X370510725Y-66420531D02*
X355890725Y-66420531D01*
X127155213Y-50550531D02*
G75*
G02X126722200Y-50800531I-433013J250000D01*
G01*
X122528225Y-66420531D02*
X137148225Y-66420531D01*
X179178225Y-51300531D02*
G75*
G02X179678225Y-50800531I500000J0D01*
G01*
X183872200Y-50800531D02*
X179678225Y-50800531D01*
X336340725Y-27488031D02*
G75*
G02X336840725Y-26988031I500000J0D01*
G01*
X190104250Y-50800530D02*
G75*
G02X189671238Y-50550531I0J499999D01*
G01*
X161460725Y-108450531D02*
X161460725Y-123070531D01*
X150967713Y-107700531D02*
G75*
G02X150534700Y-107950531I-433013J250000D01*
G01*
X146340725Y-107950531D02*
X150534700Y-107950531D01*
X132088225Y-50300531D02*
X127588225Y-50300531D01*
X156766750Y-107950531D02*
X160960725Y-107950531D01*
X184305212Y-50550531D02*
G75*
G02X184738225Y-50300531I433013J-250000D01*
G01*
X179678225Y-66420531D02*
X194298225Y-66420531D01*
X371010725Y-51300531D02*
X371010725Y-65920531D01*
X122528225Y-66420531D02*
G75*
G02X122028225Y-65920531I0J500000D01*
G01*
X127155212Y-50550531D02*
G75*
G02X127588225Y-50300531I433013J-250000D01*
G01*
X137648225Y-65920531D02*
G75*
G02X137148225Y-66420531I-500000J0D01*
G01*
X341467713Y-26738031D02*
G75*
G02X341034700Y-26988031I-433013J250000D01*
G01*
X145840725Y-108450531D02*
G75*
G02X146340725Y-107950531I500000J0D01*
G01*
X160960725Y-107950531D02*
G75*
G02X161460725Y-108450531I0J-500000D01*
G01*
X132954250Y-50800530D02*
G75*
G02X132521238Y-50550531I0J499999D01*
G01*
X137148225Y-50800531D02*
X132954250Y-50800531D01*
X184305213Y-50550531D02*
G75*
G02X183872200Y-50800531I-433013J250000D01*
G01*
X155900725Y-107450531D02*
G75*
G02X156333738Y-107700531I0J-500000D01*
G01*
X189238225Y-50300531D02*
G75*
G02X189671238Y-50550531I0J-500000D01*
G01*
X137148225Y-50800531D02*
G75*
G02X137648225Y-51300531I0J-500000D01*
G01*
X145840725Y-123070531D02*
X145840725Y-108450531D01*
X146340725Y-123570531D02*
G75*
G02X145840725Y-123070531I0J500000D01*
G01*
X179678225Y-66420531D02*
G75*
G02X179178225Y-65920531I0J500000D01*
G01*
X360517713Y-50550531D02*
G75*
G02X360084700Y-50800531I-433013J250000D01*
G01*
X341034700Y-26988031D02*
X336840725Y-26988031D01*
X366316750Y-50800531D02*
X370510725Y-50800531D01*
X360950725Y-50300531D02*
X365450725Y-50300531D01*
X360517712Y-50550531D02*
G75*
G02X360950725Y-50300531I433013J-250000D01*
G01*
X194298225Y-50800531D02*
G75*
G02X194798225Y-51300531I0J-500000D01*
G01*
X355390725Y-65920531D02*
X355390725Y-51300531D01*
X371010725Y-65920531D02*
G75*
G02X370510725Y-66420531I-500000J0D01*
G01*
X137648225Y-65920531D02*
X137648225Y-51300531D01*
X179178225Y-51300531D02*
X179178225Y-65920531D01*
X122028225Y-51300531D02*
X122028225Y-65920531D01*
X126722200Y-50800531D02*
X122528225Y-50800531D01*
X194798225Y-65920531D02*
G75*
G02X194298225Y-66420531I-500000J0D01*
G01*
X132088225Y-50300531D02*
G75*
G02X132521238Y-50550531I0J-500000D01*
G01*
X355390725Y-51300531D02*
G75*
G02X355890725Y-50800531I500000J0D01*
G01*
X160960725Y-123570531D02*
X146340725Y-123570531D01*
X355890725Y-50800531D02*
X360084700Y-50800531D01*
X355890725Y-66420531D02*
G75*
G02X355390725Y-65920531I0J500000D01*
G01*
X370510725Y-50800531D02*
G75*
G02X371010725Y-51300531I0J-500000D01*
G01*
X122028225Y-51300531D02*
G75*
G02X122528225Y-50800531I500000J0D01*
G01*
X189238225Y-50300531D02*
X184738225Y-50300531D01*
X161460725Y-123070531D02*
G75*
G02X160960725Y-123570531I-500000J0D01*
G01*
X194298225Y-50800531D02*
X190104250Y-50800531D01*
X156766750Y-107950530D02*
G75*
G02X156333738Y-107700531I0J499999D01*
G01*
X366316750Y-50800530D02*
G75*
G02X365883738Y-50550531I0J499999D01*
G01*
X42398225Y-65920531D02*
G75*
G02X41898225Y-66420531I-500000J0D01*
G01*
X346400725Y-26488031D02*
X341900725Y-26488031D01*
X346400725Y-26488031D02*
G75*
G02X346833738Y-26738031I0J-500000D01*
G01*
X351960725Y-42108031D02*
G75*
G02X351460725Y-42608031I-500000J0D01*
G01*
X79998225Y-50800531D02*
G75*
G02X80498225Y-51300531I0J-500000D01*
G01*
X336840725Y-42608031D02*
X351460725Y-42608031D01*
X317290725Y-27488031D02*
G75*
G02X317790725Y-26988031I500000J0D01*
G01*
X42398225Y-51300531D02*
X42398225Y-65920531D01*
X321984700Y-26988031D02*
X317790725Y-26988031D01*
X322417713Y-26738031D02*
G75*
G02X321984700Y-26988031I-433013J250000D01*
G01*
X327350725Y-26488031D02*
G75*
G02X327783738Y-26738031I0J-500000D01*
G01*
X84463225Y-69350531D02*
X79963225Y-69350531D01*
X80498225Y-65920531D02*
G75*
G02X79998225Y-66420531I-500000J0D01*
G01*
X332410725Y-26988031D02*
X328216750Y-26988031D01*
X53541975Y-88900531D02*
X52041975Y-88900531D01*
X89523225Y-69850531D02*
G75*
G02X90023225Y-70350531I0J-500000D01*
G01*
X74403225Y-70350531D02*
X74403225Y-84970531D01*
X74903225Y-85470531D02*
X89523225Y-85470531D01*
X65378225Y-50800531D02*
X69572200Y-50800531D01*
X79998225Y-66420531D02*
X65378225Y-66420531D01*
X85329250Y-69850530D02*
G75*
G02X84896238Y-69600531I0J499999D01*
G01*
X53541975Y-88900531D02*
G75*
G02X54041975Y-89400531I0J-500000D01*
G01*
X64878225Y-65920531D02*
X64878225Y-51300531D01*
X51541975Y-89400531D02*
X51541975Y-104020531D01*
X70438225Y-50300531D02*
X74938225Y-50300531D01*
X79097200Y-69850531D02*
X74903225Y-69850531D01*
X341467712Y-26738031D02*
G75*
G02X341900725Y-26488031I433013J-250000D01*
G01*
X347266750Y-26988030D02*
G75*
G02X346833738Y-26738031I0J499999D01*
G01*
X351460725Y-26988031D02*
X347266750Y-26988031D01*
X51541975Y-89400531D02*
G75*
G02X52041975Y-88900531I500000J0D01*
G01*
X351460725Y-26988031D02*
G75*
G02X351960725Y-27488031I0J-500000D01*
G01*
X351960725Y-42108031D02*
X351960725Y-27488031D01*
X336840725Y-42608031D02*
G75*
G02X336340725Y-42108031I0J500000D01*
G01*
X332910725Y-42108031D02*
G75*
G02X332410725Y-42608031I-500000J0D01*
G01*
X90023225Y-84970531D02*
G75*
G02X89523225Y-85470531I-500000J0D01*
G01*
X322417712Y-26738031D02*
G75*
G02X322850725Y-26488031I433013J-250000D01*
G01*
X70005212Y-50550531D02*
G75*
G02X70438225Y-50300531I433013J-250000D01*
G01*
X52041975Y-104520531D02*
G75*
G02X51541975Y-104020531I0J500000D01*
G01*
X54041975Y-104020531D02*
X54041975Y-89400531D01*
X79530213Y-69600531D02*
G75*
G02X79097200Y-69850531I-433013J250000D01*
G01*
X75804250Y-50800530D02*
G75*
G02X75371238Y-50550531I0J499999D01*
G01*
X336340725Y-27488031D02*
X336340725Y-42108031D01*
X90023225Y-84970531D02*
X90023225Y-70350531D01*
X74403225Y-70350531D02*
G75*
G02X74903225Y-69850531I500000J0D01*
G01*
X317790725Y-42608031D02*
G75*
G02X317290725Y-42108031I0J500000D01*
G01*
X332910725Y-42108031D02*
X332910725Y-27488031D01*
X75804250Y-50800531D02*
X79998225Y-50800531D01*
X317290725Y-27488031D02*
X317290725Y-42108031D01*
X74938225Y-50300531D02*
G75*
G02X75371238Y-50550531I0J-500000D01*
G01*
X327350725Y-26488031D02*
X322850725Y-26488031D01*
X332410725Y-26988031D02*
G75*
G02X332910725Y-27488031I0J-500000D01*
G01*
X74903225Y-85470531D02*
G75*
G02X74403225Y-84970531I0J500000D01*
G01*
X328216750Y-26988030D02*
G75*
G02X327783738Y-26738031I0J499999D01*
G01*
X317790725Y-42608031D02*
X332410725Y-42608031D01*
X84463225Y-69350531D02*
G75*
G02X84896238Y-69600531I0J-500000D01*
G01*
X89523225Y-69850531D02*
X85329250Y-69850531D01*
X41898225Y-66420531D02*
X27278225Y-66420531D01*
X52041975Y-104520531D02*
X53541975Y-104520531D01*
X54041975Y-104020531D02*
G75*
G02X53541975Y-104520531I-500000J0D01*
G01*
X64878225Y-51300531D02*
G75*
G02X65378225Y-50800531I500000J0D01*
G01*
X79530212Y-69600531D02*
G75*
G02X79963225Y-69350531I433013J-250000D01*
G01*
X80498225Y-51300531D02*
X80498225Y-65920531D01*
X70005213Y-50550531D02*
G75*
G02X69572200Y-50800531I-433013J250000D01*
G01*
X65378225Y-66420531D02*
G75*
G02X64878225Y-65920531I0J500000D01*
G01*
X79665725Y-88900531D02*
X83859700Y-88900531D01*
X37100725Y-69350531D02*
X41600725Y-69350531D01*
X46660725Y-85470531D02*
X32040725Y-85470531D01*
X31724375Y-109466531D02*
G75*
G02X32224375Y-108966531I500000J0D01*
G01*
X79165725Y-89400531D02*
G75*
G02X79665725Y-88900531I500000J0D01*
G01*
X34253415Y-111970633D02*
G75*
G02X33959575Y-111515113I206160J455520D01*
G01*
X32040725Y-69850531D02*
X36234700Y-69850531D01*
X31540725Y-84970531D02*
X31540725Y-70350531D01*
X27278225Y-42608031D02*
X41898225Y-42608031D01*
X33959575Y-115688949D02*
G75*
G02X34253415Y-115233429I500000J0D01*
G01*
X46660725Y-69850531D02*
G75*
G02X47160725Y-70350531I0J-500000D01*
G01*
X33959575Y-109466531D02*
X33959575Y-111515113D01*
X47160725Y-84970531D02*
G75*
G02X46660725Y-85470531I-500000J0D01*
G01*
X41600725Y-69350531D02*
G75*
G02X42033738Y-69600531I0J-500000D01*
G01*
X31472200Y-26988031D02*
X27278225Y-26988031D01*
X41898225Y-26988031D02*
G75*
G02X42398225Y-27488031I0J-500000D01*
G01*
X33459575Y-118237531D02*
X32224375Y-118237531D01*
X27278225Y-66420531D02*
G75*
G02X26778225Y-65920531I0J500000D01*
G01*
X41898225Y-50800531D02*
G75*
G02X42398225Y-51300531I0J-500000D01*
G01*
X37704250Y-50800530D02*
G75*
G02X37271238Y-50550531I0J499999D01*
G01*
X31905213Y-26738031D02*
G75*
G02X31472200Y-26988031I-433013J250000D01*
G01*
X31724375Y-117737531D02*
X31724375Y-109466531D01*
X26778225Y-27488031D02*
X26778225Y-42108031D01*
X34253415Y-111970633D02*
G75*
G02X34253415Y-115233429I-738340J-1631398D01*
G01*
X41898225Y-26988031D02*
X37704250Y-26988031D01*
X31905213Y-50550531D02*
G75*
G02X31472200Y-50800531I-433013J250000D01*
G01*
X27278225Y-50800531D02*
X31472200Y-50800531D01*
X26778225Y-51300531D02*
G75*
G02X27278225Y-50800531I500000J0D01*
G01*
X79165725Y-104020531D02*
X79165725Y-89400531D01*
X26778225Y-27488031D02*
G75*
G02X27278225Y-26988031I500000J0D01*
G01*
X94785725Y-104020531D02*
G75*
G02X94285725Y-104520531I-500000J0D01*
G01*
X84292712Y-88650531D02*
G75*
G02X84725725Y-88400531I433013J-250000D01*
G01*
X42466750Y-69850531D02*
X46660725Y-69850531D01*
X47160725Y-70350531D02*
X47160725Y-84970531D01*
X27278225Y-42608031D02*
G75*
G02X26778225Y-42108031I0J500000D01*
G01*
X32224375Y-108966531D02*
X33459575Y-108966531D01*
X42398225Y-42108031D02*
X42398225Y-27488031D01*
X33959575Y-117737531D02*
G75*
G02X33459575Y-118237531I-500000J0D01*
G01*
X31905212Y-26738031D02*
G75*
G02X32338225Y-26488031I433013J-250000D01*
G01*
X26778225Y-65920531D02*
X26778225Y-51300531D01*
X42466750Y-69850530D02*
G75*
G02X42033738Y-69600531I0J499999D01*
G01*
X90091750Y-88900531D02*
X94285725Y-88900531D01*
X36667712Y-69600531D02*
G75*
G02X37100725Y-69350531I433013J-250000D01*
G01*
X36667713Y-69600531D02*
G75*
G02X36234700Y-69850531I-433013J250000D01*
G01*
X33459575Y-108966531D02*
G75*
G02X33959575Y-109466531I0J-500000D01*
G01*
X31540725Y-70350531D02*
G75*
G02X32040725Y-69850531I500000J0D01*
G01*
X84292713Y-88650531D02*
G75*
G02X83859700Y-88900531I-433013J250000D01*
G01*
X37704250Y-50800531D02*
X41898225Y-50800531D01*
X36838225Y-50300531D02*
G75*
G02X37271238Y-50550531I0J-500000D01*
G01*
X32338225Y-50300531D02*
X36838225Y-50300531D01*
X89225725Y-88400531D02*
G75*
G02X89658738Y-88650531I0J-500000D01*
G01*
X32040725Y-85470531D02*
G75*
G02X31540725Y-84970531I0J500000D01*
G01*
X37704250Y-26988030D02*
G75*
G02X37271238Y-26738031I0J499999D01*
G01*
X31905212Y-50550531D02*
G75*
G02X32338225Y-50300531I433013J-250000D01*
G01*
X79665725Y-104520531D02*
G75*
G02X79165725Y-104020531I0J500000D01*
G01*
X94285725Y-104520531D02*
X79665725Y-104520531D01*
X36838225Y-26488031D02*
G75*
G02X37271238Y-26738031I0J-500000D01*
G01*
X42398225Y-42108031D02*
G75*
G02X41898225Y-42608031I-500000J0D01*
G01*
X33959575Y-115688949D02*
X33959575Y-117737531D01*
X36838225Y-26488031D02*
X32338225Y-26488031D01*
X94285725Y-88900531D02*
G75*
G02X94785725Y-89400531I0J-500000D01*
G01*
X94785725Y-89400531D02*
X94785725Y-104020531D01*
X90091750Y-88900530D02*
G75*
G02X89658738Y-88650531I0J499999D01*
G01*
X84725725Y-88400531D02*
X89225725Y-88400531D01*
X161529250Y-69850531D02*
X165723225Y-69850531D01*
X165723225Y-85470531D02*
X151103225Y-85470531D01*
X151103225Y-69850531D02*
X155297200Y-69850531D01*
X165723225Y-69850531D02*
G75*
G02X166223225Y-70350531I0J-500000D01*
G01*
X55853225Y-85470531D02*
X70473225Y-85470531D01*
X55353225Y-70350531D02*
G75*
G02X55853225Y-69850531I500000J0D01*
G01*
X166223225Y-84970531D02*
G75*
G02X165723225Y-85470531I-500000J0D01*
G01*
X166223225Y-70350531D02*
X166223225Y-84970531D01*
X150603225Y-84970531D02*
X150603225Y-70350531D01*
X60047200Y-69850531D02*
X55853225Y-69850531D01*
X93988225Y-26488031D02*
G75*
G02X94421238Y-26738031I0J-500000D01*
G01*
X70473225Y-69850531D02*
X66279250Y-69850531D01*
X70973225Y-84970531D02*
G75*
G02X70473225Y-85470531I-500000J0D01*
G01*
X155730212Y-69600531D02*
G75*
G02X156163225Y-69350531I433013J-250000D01*
G01*
X66279250Y-69850530D02*
G75*
G02X65846238Y-69600531I0J499999D01*
G01*
X160663225Y-69350531D02*
G75*
G02X161096238Y-69600531I0J-500000D01*
G01*
X60480213Y-69600531D02*
G75*
G02X60047200Y-69850531I-433013J250000D01*
G01*
X155730213Y-69600531D02*
G75*
G02X155297200Y-69850531I-433013J250000D01*
G01*
X55353225Y-70350531D02*
X55353225Y-84970531D01*
X60480212Y-69600531D02*
G75*
G02X60913225Y-69350531I433013J-250000D01*
G01*
X161529250Y-69850530D02*
G75*
G02X161096238Y-69600531I0J499999D01*
G01*
X150603225Y-70350531D02*
G75*
G02X151103225Y-69850531I500000J0D01*
G01*
X65413225Y-69350531D02*
X60913225Y-69350531D01*
X156163225Y-69350531D02*
X160663225Y-69350531D01*
X65413225Y-69350531D02*
G75*
G02X65846238Y-69600531I0J-500000D01*
G01*
X70473225Y-69850531D02*
G75*
G02X70973225Y-70350531I0J-500000D01*
G01*
X55853225Y-85470531D02*
G75*
G02X55353225Y-84970531I0J500000D01*
G01*
X70973225Y-84970531D02*
X70973225Y-70350531D01*
X47160725Y-127500531D02*
X47160725Y-142120531D01*
X51160725Y-85470531D02*
X49660725Y-85470531D01*
X83928225Y-65920531D02*
X83928225Y-51300531D01*
X31540725Y-127500531D02*
G75*
G02X32040725Y-127000531I500000J0D01*
G01*
X42466750Y-127000531D02*
X46660725Y-127000531D01*
X36667712Y-126750531D02*
G75*
G02X37100725Y-126500531I433013J-250000D01*
G01*
X99048225Y-26988031D02*
G75*
G02X99548225Y-27488031I0J-500000D01*
G01*
X94854250Y-26988031D02*
X99048225Y-26988031D01*
X84428225Y-50800531D02*
X88622200Y-50800531D01*
X89055213Y-26738031D02*
G75*
G02X88622200Y-26988031I-433013J250000D01*
G01*
X99548225Y-42108031D02*
G75*
G02X99048225Y-42608031I-500000J0D01*
G01*
X37100725Y-126500531D02*
X41600725Y-126500531D01*
X36667713Y-126750531D02*
G75*
G02X36234700Y-127000531I-433013J250000D01*
G01*
X74938225Y-26488031D02*
X70438225Y-26488031D01*
X80498225Y-42108031D02*
G75*
G02X79998225Y-42608031I-500000J0D01*
G01*
X64878225Y-27488031D02*
X64878225Y-42108031D01*
X49660725Y-69850531D02*
X51160725Y-69850531D01*
X31540725Y-142120531D02*
X31540725Y-127500531D01*
X51660725Y-70350531D02*
X51660725Y-84970531D01*
X32040725Y-127000531D02*
X36234700Y-127000531D01*
X83928225Y-42108031D02*
X83928225Y-27488031D01*
X51160725Y-69850531D02*
G75*
G02X51660725Y-70350531I0J-500000D01*
G01*
X84428225Y-42608031D02*
G75*
G02X83928225Y-42108031I0J500000D01*
G01*
X32224375Y-118237531D02*
G75*
G02X31724375Y-117737531I0J500000D01*
G01*
X94854250Y-50800530D02*
G75*
G02X94421238Y-50550531I0J499999D01*
G01*
X84428225Y-66420531D02*
G75*
G02X83928225Y-65920531I0J500000D01*
G01*
X70005212Y-26738031D02*
G75*
G02X70438225Y-26488031I433013J-250000D01*
G01*
X32040725Y-142620531D02*
G75*
G02X31540725Y-142120531I0J500000D01*
G01*
X94854250Y-26988030D02*
G75*
G02X94421238Y-26738031I0J499999D01*
G01*
X46660725Y-142620531D02*
X32040725Y-142620531D01*
X89055212Y-26738031D02*
G75*
G02X89488225Y-26488031I433013J-250000D01*
G01*
X75804250Y-26988030D02*
G75*
G02X75371238Y-26738031I0J499999D01*
G01*
X79998225Y-26988031D02*
X75804250Y-26988031D01*
X80498225Y-42108031D02*
X80498225Y-27488031D01*
X49160725Y-70350531D02*
G75*
G02X49660725Y-69850531I500000J0D01*
G01*
X99548225Y-65920531D02*
G75*
G02X99048225Y-66420531I-500000J0D01*
G01*
X65378225Y-42608031D02*
X79998225Y-42608031D01*
X64878225Y-27488031D02*
G75*
G02X65378225Y-26988031I500000J0D01*
G01*
X69572200Y-26988031D02*
X65378225Y-26988031D01*
X99048225Y-66420531D02*
X84428225Y-66420531D01*
X41600725Y-126500531D02*
G75*
G02X42033738Y-126750531I0J-500000D01*
G01*
X83928225Y-27488031D02*
G75*
G02X84428225Y-26988031I500000J0D01*
G01*
X99548225Y-51300531D02*
X99548225Y-65920531D01*
X89055212Y-50550531D02*
G75*
G02X89488225Y-50300531I433013J-250000D01*
G01*
X89488225Y-50300531D02*
X93988225Y-50300531D01*
X51660725Y-84970531D02*
G75*
G02X51160725Y-85470531I-500000J0D01*
G01*
X99548225Y-27488031D02*
X99548225Y-42108031D01*
X49160725Y-84970531D02*
X49160725Y-70350531D01*
X47160725Y-142120531D02*
G75*
G02X46660725Y-142620531I-500000J0D01*
G01*
X74938225Y-26488031D02*
G75*
G02X75371238Y-26738031I0J-500000D01*
G01*
X65378225Y-42608031D02*
G75*
G02X64878225Y-42108031I0J500000D01*
G01*
X46660725Y-127000531D02*
G75*
G02X47160725Y-127500531I0J-500000D01*
G01*
X93988225Y-50300531D02*
G75*
G02X94421238Y-50550531I0J-500000D01*
G01*
X42466750Y-127000530D02*
G75*
G02X42033738Y-126750531I0J499999D01*
G01*
X49660725Y-85470531D02*
G75*
G02X49160725Y-84970531I0J500000D01*
G01*
X70005213Y-26738031D02*
G75*
G02X69572200Y-26988031I-433013J250000D01*
G01*
X79998225Y-26988031D02*
G75*
G02X80498225Y-27488031I0J-500000D01*
G01*
X99048225Y-42608031D02*
X84428225Y-42608031D01*
X99048225Y-50800531D02*
G75*
G02X99548225Y-51300531I0J-500000D01*
G01*
X94854250Y-50800531D02*
X99048225Y-50800531D01*
X84428225Y-26988031D02*
X88622200Y-26988031D01*
X89055213Y-50550531D02*
G75*
G02X88622200Y-50800531I-433013J250000D01*
G01*
X89488225Y-26488031D02*
X93988225Y-26488031D01*
X83928225Y-51300531D02*
G75*
G02X84428225Y-50800531I500000J0D01*
G01*
X164890725Y-123070531D02*
X164890725Y-108450531D01*
X170450725Y-107450531D02*
X174950725Y-107450531D01*
X265403225Y-85470531D02*
X280023225Y-85470531D01*
X280023225Y-69850531D02*
G75*
G02X280523225Y-70350531I0J-500000D01*
G01*
X351960725Y-65920531D02*
G75*
G02X351460725Y-66420531I-500000J0D01*
G01*
X336840725Y-66420531D02*
X351460725Y-66420531D01*
X336340725Y-51300531D02*
X336340725Y-65920531D01*
X280523225Y-84970531D02*
G75*
G02X280023225Y-85470531I-500000J0D01*
G01*
X165390725Y-123570531D02*
G75*
G02X164890725Y-123070531I0J500000D01*
G01*
X180510725Y-123070531D02*
G75*
G02X180010725Y-123570531I-500000J0D01*
G01*
X174950725Y-107450531D02*
G75*
G02X175383738Y-107700531I0J-500000D01*
G01*
X175816750Y-107950530D02*
G75*
G02X175383738Y-107700531I0J499999D01*
G01*
X164890725Y-108450531D02*
G75*
G02X165390725Y-107950531I500000J0D01*
G01*
X170017713Y-107700531D02*
G75*
G02X169584700Y-107950531I-433013J250000D01*
G01*
X265403225Y-85470531D02*
G75*
G02X264903225Y-84970531I0J500000D01*
G01*
X180010725Y-107950531D02*
G75*
G02X180510725Y-108450531I0J-500000D01*
G01*
X280523225Y-84970531D02*
X280523225Y-70350531D01*
X170017712Y-107700531D02*
G75*
G02X170450725Y-107450531I433013J-250000D01*
G01*
X165390725Y-107950531D02*
X169584700Y-107950531D01*
X336840725Y-66420531D02*
G75*
G02X336340725Y-65920531I0J500000D01*
G01*
X180010725Y-123570531D02*
X165390725Y-123570531D01*
X180510725Y-108450531D02*
X180510725Y-123070531D01*
X175816750Y-107950531D02*
X180010725Y-107950531D01*
X274963225Y-69350531D02*
X270463225Y-69350531D01*
X322417712Y-50550531D02*
G75*
G02X322850725Y-50300531I433013J-250000D01*
G01*
X317790725Y-50800531D02*
X321984700Y-50800531D01*
X317790725Y-66420531D02*
G75*
G02X317290725Y-65920531I0J500000D01*
G01*
X317290725Y-51300531D02*
G75*
G02X317790725Y-50800531I500000J0D01*
G01*
X317290725Y-65920531D02*
X317290725Y-51300531D01*
X332910725Y-65920531D02*
G75*
G02X332410725Y-66420531I-500000J0D01*
G01*
X327350725Y-50300531D02*
G75*
G02X327783738Y-50550531I0J-500000D01*
G01*
X328216750Y-50800531D02*
X332410725Y-50800531D01*
X264903225Y-70350531D02*
G75*
G02X265403225Y-69850531I500000J0D01*
G01*
X275829250Y-69850530D02*
G75*
G02X275396238Y-69600531I0J499999D01*
G01*
X322850725Y-50300531D02*
X327350725Y-50300531D01*
X322417713Y-50550531D02*
G75*
G02X321984700Y-50800531I-433013J250000D01*
G01*
X264903225Y-70350531D02*
X264903225Y-84970531D01*
X332910725Y-51300531D02*
X332910725Y-65920531D01*
X332410725Y-66420531D02*
X317790725Y-66420531D01*
X332410725Y-50800531D02*
G75*
G02X332910725Y-51300531I0J-500000D01*
G01*
X328216750Y-50800530D02*
G75*
G02X327783738Y-50550531I0J499999D01*
G01*
X269597200Y-69850531D02*
X265403225Y-69850531D01*
X270030213Y-69600531D02*
G75*
G02X269597200Y-69850531I-433013J250000D01*
G01*
X274963225Y-69350531D02*
G75*
G02X275396238Y-69600531I0J-500000D01*
G01*
X280023225Y-69850531D02*
X275829250Y-69850531D01*
X270030212Y-69600531D02*
G75*
G02X270463225Y-69350531I433013J-250000D01*
G01*
X166291750Y-88900530D02*
G75*
G02X165858738Y-88650531I0J499999D01*
G01*
X170485725Y-88900531D02*
X166291750Y-88900531D01*
X170985725Y-104020531D02*
G75*
G02X170485725Y-104520531I-500000J0D01*
G01*
X108275725Y-88400531D02*
G75*
G02X108708738Y-88650531I0J-500000D01*
G01*
X155365725Y-89400531D02*
G75*
G02X155865725Y-88900531I500000J0D01*
G01*
X109141750Y-88900531D02*
X113335725Y-88900531D01*
X113335725Y-104520531D02*
X98715725Y-104520531D01*
X103775725Y-88400531D02*
X108275725Y-88400531D01*
X109141750Y-88900530D02*
G75*
G02X108708738Y-88650531I0J499999D01*
G01*
X227635725Y-88900531D02*
G75*
G02X228135725Y-89400531I0J-500000D01*
G01*
X155365725Y-89400531D02*
X155365725Y-104020531D01*
X223441750Y-88900531D02*
X227635725Y-88900531D01*
X165425725Y-88400531D02*
G75*
G02X165858738Y-88650531I0J-500000D01*
G01*
X113335725Y-88900531D02*
G75*
G02X113835725Y-89400531I0J-500000D01*
G01*
X170985725Y-104020531D02*
X170985725Y-89400531D01*
X155865725Y-104520531D02*
X170485725Y-104520531D01*
X113835725Y-89400531D02*
X113835725Y-104020531D01*
X160059700Y-88900531D02*
X155865725Y-88900531D01*
X165425725Y-88400531D02*
X160925725Y-88400531D01*
X223441750Y-88900530D02*
G75*
G02X223008738Y-88650531I0J499999D01*
G01*
X222575725Y-88400531D02*
G75*
G02X223008738Y-88650531I0J-500000D01*
G01*
X218075725Y-88400531D02*
X222575725Y-88400531D01*
X170485725Y-88900531D02*
G75*
G02X170985725Y-89400531I0J-500000D01*
G01*
X160492712Y-88650531D02*
G75*
G02X160925725Y-88400531I433013J-250000D01*
G01*
X113835725Y-104020531D02*
G75*
G02X113335725Y-104520531I-500000J0D01*
G01*
X217642712Y-88650531D02*
G75*
G02X218075725Y-88400531I433013J-250000D01*
G01*
X160492713Y-88650531D02*
G75*
G02X160059700Y-88900531I-433013J250000D01*
G01*
X155865725Y-104520531D02*
G75*
G02X155365725Y-104020531I0J500000D01*
G01*
X112503225Y-70350531D02*
G75*
G02X113003225Y-69850531I500000J0D01*
G01*
X227167712Y-107700531D02*
G75*
G02X227600725Y-107450531I433013J-250000D01*
G01*
X203823225Y-85470531D02*
X189203225Y-85470531D01*
X127623225Y-69850531D02*
X123429250Y-69850531D01*
X232100725Y-107450531D02*
X227600725Y-107450531D01*
X199629250Y-69850530D02*
G75*
G02X199196238Y-69600531I0J499999D01*
G01*
X194263225Y-69350531D02*
X198763225Y-69350531D01*
X204323225Y-70350531D02*
X204323225Y-84970531D01*
X193830213Y-69600531D02*
G75*
G02X193397200Y-69850531I-433013J250000D01*
G01*
X117197200Y-69850531D02*
X113003225Y-69850531D01*
X188703225Y-70350531D02*
G75*
G02X189203225Y-69850531I500000J0D01*
G01*
X188703225Y-84970531D02*
X188703225Y-70350531D01*
X117630212Y-69600531D02*
G75*
G02X118063225Y-69350531I433013J-250000D01*
G01*
X113003225Y-85470531D02*
G75*
G02X112503225Y-84970531I0J500000D01*
G01*
X122170100Y-129626781D02*
G75*
G02X122670100Y-129126781I500000J0D01*
G01*
X126790725Y-123070531D02*
X126790725Y-108450531D01*
X142410725Y-108450531D02*
X142410725Y-123070531D01*
X142410725Y-123070531D02*
G75*
G02X141910725Y-123570531I-500000J0D01*
G01*
X128123225Y-84970531D02*
G75*
G02X127623225Y-85470531I-500000J0D01*
G01*
X117630213Y-69600531D02*
G75*
G02X117197200Y-69850531I-433013J250000D01*
G01*
X141910725Y-107950531D02*
G75*
G02X142410725Y-108450531I0J-500000D01*
G01*
X127290725Y-123570531D02*
G75*
G02X126790725Y-123070531I0J500000D01*
G01*
X127623225Y-69850531D02*
G75*
G02X128123225Y-70350531I0J-500000D01*
G01*
X131917712Y-107700531D02*
G75*
G02X132350725Y-107450531I433013J-250000D01*
G01*
X127290725Y-107950531D02*
X131484700Y-107950531D01*
X122563225Y-69350531D02*
G75*
G02X122996238Y-69600531I0J-500000D01*
G01*
X137716750Y-107950530D02*
G75*
G02X137283738Y-107700531I0J499999D01*
G01*
X126790725Y-108450531D02*
G75*
G02X127290725Y-107950531I500000J0D01*
G01*
X136850725Y-107450531D02*
G75*
G02X137283738Y-107700531I0J-500000D01*
G01*
X131917713Y-107700531D02*
G75*
G02X131484700Y-107950531I-433013J250000D01*
G01*
X132350725Y-107450531D02*
X136850725Y-107450531D01*
X103342712Y-88650531D02*
G75*
G02X103775725Y-88400531I433013J-250000D01*
G01*
X189203225Y-85470531D02*
G75*
G02X188703225Y-84970531I0J500000D01*
G01*
X204323225Y-84970531D02*
G75*
G02X203823225Y-85470531I-500000J0D01*
G01*
X128123225Y-84970531D02*
X128123225Y-70350531D01*
X103342713Y-88650531D02*
G75*
G02X102909700Y-88900531I-433013J250000D01*
G01*
X232966750Y-107950530D02*
G75*
G02X232533738Y-107700531I0J499999D01*
G01*
X203823225Y-69850531D02*
G75*
G02X204323225Y-70350531I0J-500000D01*
G01*
X98715725Y-88900531D02*
X102909700Y-88900531D01*
X98215725Y-89400531D02*
G75*
G02X98715725Y-88900531I500000J0D01*
G01*
X98215725Y-104020531D02*
X98215725Y-89400531D01*
X199629250Y-69850531D02*
X203823225Y-69850531D01*
X98715725Y-104520531D02*
G75*
G02X98215725Y-104020531I0J500000D01*
G01*
X237660725Y-123070531D02*
G75*
G02X237160725Y-123570531I-500000J0D01*
G01*
X189203225Y-69850531D02*
X193397200Y-69850531D01*
X193830212Y-69600531D02*
G75*
G02X194263225Y-69350531I433013J-250000D01*
G01*
X137716750Y-107950531D02*
X141910725Y-107950531D01*
X232100725Y-107450531D02*
G75*
G02X232533738Y-107700531I0J-500000D01*
G01*
X198763225Y-69350531D02*
G75*
G02X199196238Y-69600531I0J-500000D01*
G01*
X237160725Y-107950531D02*
X232966750Y-107950531D01*
X123429250Y-69850530D02*
G75*
G02X122996238Y-69600531I0J499999D01*
G01*
X113003225Y-85470531D02*
X127623225Y-85470531D01*
X237160725Y-107950531D02*
G75*
G02X237660725Y-108450531I0J-500000D01*
G01*
X237660725Y-123070531D02*
X237660725Y-108450531D01*
X122563225Y-69350531D02*
X118063225Y-69350531D01*
X222540725Y-123570531D02*
X237160725Y-123570531D01*
X141910725Y-123570531D02*
X127290725Y-123570531D01*
X222540725Y-123570531D02*
G75*
G02X222040725Y-123070531I0J500000D01*
G01*
X122670100Y-129126781D02*
X134370100Y-129126781D01*
X222040725Y-108450531D02*
X222040725Y-123070531D01*
X222040725Y-108450531D02*
G75*
G02X222540725Y-107950531I500000J0D01*
G01*
X226734700Y-107950531D02*
X222540725Y-107950531D01*
X227167713Y-107700531D02*
G75*
G02X226734700Y-107950531I-433013J250000D01*
G01*
X112503225Y-70350531D02*
X112503225Y-84970531D01*
X46328225Y-66420531D02*
G75*
G02X45828225Y-65920531I0J500000D01*
G01*
X61448225Y-65920531D02*
G75*
G02X60948225Y-66420531I-500000J0D01*
G01*
X306438075Y-111515113D02*
X306438075Y-109466531D01*
X306438075Y-117737531D02*
X306438075Y-115688949D01*
X306438075Y-117737531D02*
G75*
G02X305938075Y-118237531I-500000J0D01*
G01*
X304702875Y-118237531D02*
X305938075Y-118237531D01*
X304702875Y-118237531D02*
G75*
G02X304202875Y-117737531I0J500000D01*
G01*
X45828225Y-51300531D02*
X45828225Y-65920531D01*
X45828225Y-51300531D02*
G75*
G02X46328225Y-50800531I500000J0D01*
G01*
X304202875Y-109466531D02*
X304202875Y-117737531D01*
X304202875Y-109466531D02*
G75*
G02X304702875Y-108966531I500000J0D01*
G01*
X306438075Y-115688949D02*
G75*
G02X306731915Y-115233429I500000J0D01*
G01*
X60948225Y-50800531D02*
G75*
G02X61448225Y-51300531I0J-500000D01*
G01*
X50955212Y-50550531D02*
G75*
G02X51388225Y-50300531I433013J-250000D01*
G01*
X305938075Y-108966531D02*
X304702875Y-108966531D01*
X306731915Y-111970633D02*
G75*
G02X306438075Y-111515113I206160J455520D01*
G01*
X46328225Y-66420531D02*
X60948225Y-66420531D01*
X50522200Y-50800531D02*
X46328225Y-50800531D01*
X61448225Y-65920531D02*
X61448225Y-51300531D01*
X305938075Y-108966531D02*
G75*
G02X306438075Y-109466531I0J-500000D01*
G01*
X306731915Y-111970633D02*
G75*
G02X306731915Y-115233429I-738340J-1631398D01*
G01*
X50955213Y-50550531D02*
G75*
G02X50522200Y-50800531I-433013J250000D01*
G01*
X60948225Y-50800531D02*
X56754250Y-50800531D01*
X55888225Y-50300531D02*
X51388225Y-50300531D01*
X33921975Y-104020531D02*
X33921975Y-89400531D01*
X55888225Y-50300531D02*
G75*
G02X56321238Y-50550531I0J-500000D01*
G01*
X39481975Y-88400531D02*
X43981975Y-88400531D01*
X56754250Y-50800530D02*
G75*
G02X56321238Y-50550531I0J499999D01*
G01*
X49041975Y-88900531D02*
G75*
G02X49541975Y-89400531I0J-500000D01*
G01*
X34421975Y-104520531D02*
G75*
G02X33921975Y-104020531I0J500000D01*
G01*
X70140725Y-123570531D02*
G75*
G02X69640725Y-123070531I0J500000D01*
G01*
X84760725Y-107950531D02*
G75*
G02X85260725Y-108450531I0J-500000D01*
G01*
X69640725Y-108450531D02*
X69640725Y-123070531D01*
X44848000Y-88900531D02*
X49041975Y-88900531D01*
X39048963Y-88650531D02*
G75*
G02X38615950Y-88900531I-433013J250000D01*
G01*
X85260725Y-123070531D02*
G75*
G02X84760725Y-123570531I-500000J0D01*
G01*
X49041975Y-104520531D02*
X34421975Y-104520531D01*
X85260725Y-123070531D02*
X85260725Y-108450531D01*
X43981975Y-88400531D02*
G75*
G02X44414988Y-88650531I0J-500000D01*
G01*
X70140725Y-123570531D02*
X84760725Y-123570531D01*
X44848000Y-88900530D02*
G75*
G02X44414988Y-88650531I0J499999D01*
G01*
X34421975Y-88900531D02*
X38615950Y-88900531D01*
X39048962Y-88650531D02*
G75*
G02X39481975Y-88400531I433013J-250000D01*
G01*
X49541975Y-89400531D02*
X49541975Y-104020531D01*
X33921975Y-89400531D02*
G75*
G02X34421975Y-88900531I500000J0D01*
G01*
X49541975Y-104020531D02*
G75*
G02X49041975Y-104520531I-500000J0D01*
G01*
X171054250Y-50800530D02*
G75*
G02X170621238Y-50550531I0J499999D01*
G01*
X284203225Y-94245531D02*
X284203225Y-90051556D01*
X175748225Y-65920531D02*
X175748225Y-51300531D01*
X160628225Y-66420531D02*
X175248225Y-66420531D01*
X299323225Y-94745531D02*
X284703225Y-94745531D01*
X165255212Y-50550531D02*
G75*
G02X165688225Y-50300531I433013J-250000D01*
G01*
X299323225Y-79125531D02*
G75*
G02X299823225Y-79625531I0J-500000D01*
G01*
X284703225Y-79125531D02*
X299323225Y-79125531D01*
X284203225Y-83819505D02*
G75*
G02X283953225Y-84252518I-500000J0D01*
G01*
X284203225Y-79625531D02*
G75*
G02X284703225Y-79125531I500000J0D01*
G01*
X160128225Y-51300531D02*
X160128225Y-65920531D01*
X283703225Y-89185531D02*
X283703225Y-84685531D01*
X160128225Y-51300531D02*
G75*
G02X160628225Y-50800531I500000J0D01*
G01*
X283953225Y-89618544D02*
G75*
G02X283703225Y-89185531I250000J433013D01*
G01*
X175248225Y-50800531D02*
G75*
G02X175748225Y-51300531I0J-500000D01*
G01*
X175748225Y-65920531D02*
G75*
G02X175248225Y-66420531I-500000J0D01*
G01*
X160628225Y-66420531D02*
G75*
G02X160128225Y-65920531I0J500000D01*
G01*
X165255213Y-50550531D02*
G75*
G02X164822200Y-50800531I-433013J250000D01*
G01*
X283703225Y-84685531D02*
G75*
G02X283953225Y-84252518I500000J0D01*
G01*
X170188225Y-50300531D02*
G75*
G02X170621238Y-50550531I0J-500000D01*
G01*
X175248225Y-50800531D02*
X171054250Y-50800531D01*
X151103225Y-85470531D02*
G75*
G02X150603225Y-84970531I0J500000D01*
G01*
X283953225Y-89618543D02*
G75*
G02X284203225Y-90051556I-250000J-433013D01*
G01*
X284203225Y-83819505D02*
X284203225Y-79625531D01*
X170188225Y-50300531D02*
X165688225Y-50300531D01*
X299823225Y-94245531D02*
G75*
G02X299323225Y-94745531I-500000J0D01*
G01*
X299823225Y-79625531D02*
X299823225Y-94245531D01*
X284703225Y-94745531D02*
G75*
G02X284203225Y-94245531I0J500000D01*
G01*
X218679250Y-69850530D02*
G75*
G02X218246238Y-69600531I0J499999D01*
G01*
X309098225Y-42108031D02*
X309098225Y-27488031D01*
X293978225Y-42608031D02*
G75*
G02X293478225Y-42108031I0J500000D01*
G01*
X132088225Y-26488031D02*
X127588225Y-26488031D01*
X208253225Y-85470531D02*
G75*
G02X207753225Y-84970531I0J500000D01*
G01*
X277078025Y-99703031D02*
X277078025Y-97654449D01*
X222873225Y-85470531D02*
X208253225Y-85470531D01*
X223373225Y-70350531D02*
X223373225Y-84970531D01*
X218679250Y-69850531D02*
X222873225Y-69850531D01*
X277371865Y-93936133D02*
G75*
G02X277371865Y-97198929I-738340J-1631398D01*
G01*
X213313225Y-69350531D02*
X217813225Y-69350531D01*
X277078025Y-99703031D02*
G75*
G02X276578025Y-100203031I-500000J0D01*
G01*
X122028225Y-27488031D02*
X122028225Y-42108031D01*
X212880212Y-69600531D02*
G75*
G02X213313225Y-69350531I433013J-250000D01*
G01*
X207753225Y-70350531D02*
G75*
G02X208253225Y-69850531I500000J0D01*
G01*
X276578025Y-90932031D02*
G75*
G02X277078025Y-91432031I0J-500000D01*
G01*
X298605212Y-26738031D02*
G75*
G02X299038225Y-26488031I433013J-250000D01*
G01*
X276578025Y-90932031D02*
X275342825Y-90932031D01*
X298172200Y-26988031D02*
X293978225Y-26988031D01*
X122528225Y-42608031D02*
G75*
G02X122028225Y-42108031I0J500000D01*
G01*
X126722200Y-26988031D02*
X122528225Y-26988031D01*
X132954250Y-26988030D02*
G75*
G02X132521238Y-26738031I0J499999D01*
G01*
X277078025Y-97654449D02*
G75*
G02X277371865Y-97198929I500000J0D01*
G01*
X127155212Y-26738031D02*
G75*
G02X127588225Y-26488031I433013J-250000D01*
G01*
X293478225Y-27488031D02*
X293478225Y-42108031D01*
X309098225Y-42108031D02*
G75*
G02X308598225Y-42608031I-500000J0D01*
G01*
X164822200Y-50800531D02*
X160628225Y-50800531D01*
X246217713Y-107700531D02*
G75*
G02X245784700Y-107950531I-433013J250000D01*
G01*
X274842825Y-91432031D02*
X274842825Y-99703031D01*
X246217712Y-107700531D02*
G75*
G02X246650725Y-107450531I433013J-250000D01*
G01*
X251150725Y-107450531D02*
X246650725Y-107450531D01*
X251150725Y-107450531D02*
G75*
G02X251583738Y-107700531I0J-500000D01*
G01*
X252016750Y-107950530D02*
G75*
G02X251583738Y-107700531I0J499999D01*
G01*
X256210725Y-107950531D02*
X252016750Y-107950531D01*
X293478225Y-27488031D02*
G75*
G02X293978225Y-26988031I500000J0D01*
G01*
X256210725Y-107950531D02*
G75*
G02X256710725Y-108450531I0J-500000D01*
G01*
X241590725Y-123570531D02*
X256210725Y-123570531D01*
X277078025Y-93480613D02*
X277078025Y-91432031D01*
X241590725Y-123570531D02*
G75*
G02X241090725Y-123070531I0J500000D01*
G01*
X223373225Y-84970531D02*
G75*
G02X222873225Y-85470531I-500000J0D01*
G01*
X222873225Y-69850531D02*
G75*
G02X223373225Y-70350531I0J-500000D01*
G01*
X217813225Y-69350531D02*
G75*
G02X218246238Y-69600531I0J-500000D01*
G01*
X212880213Y-69600531D02*
G75*
G02X212447200Y-69850531I-433013J250000D01*
G01*
X303538225Y-26488031D02*
G75*
G02X303971238Y-26738031I0J-500000D01*
G01*
X275342825Y-100203031D02*
X276578025Y-100203031D01*
X208253225Y-69850531D02*
X212447200Y-69850531D01*
X274842825Y-91432031D02*
G75*
G02X275342825Y-90932031I500000J0D01*
G01*
X308598225Y-26988031D02*
X304404250Y-26988031D01*
X304404250Y-26988030D02*
G75*
G02X303971238Y-26738031I0J499999D01*
G01*
X293978225Y-42608031D02*
X308598225Y-42608031D01*
X127155213Y-26738031D02*
G75*
G02X126722200Y-26988031I-433013J250000D01*
G01*
X298605213Y-26738031D02*
G75*
G02X298172200Y-26988031I-433013J250000D01*
G01*
X308598225Y-26988031D02*
G75*
G02X309098225Y-27488031I0J-500000D01*
G01*
X122028225Y-27488031D02*
G75*
G02X122528225Y-26988031I500000J0D01*
G01*
X132088225Y-26488031D02*
G75*
G02X132521238Y-26738031I0J-500000D01*
G01*
X256710725Y-123070531D02*
X256710725Y-108450531D01*
X275342825Y-100203031D02*
G75*
G02X274842825Y-99703031I0J500000D01*
G01*
X256710725Y-123070531D02*
G75*
G02X256210725Y-123570531I-500000J0D01*
G01*
X277371865Y-93936133D02*
G75*
G02X277078025Y-93480613I206160J455520D01*
G01*
X241090725Y-108450531D02*
X241090725Y-123070531D01*
X241090725Y-108450531D02*
G75*
G02X241590725Y-107950531I500000J0D01*
G01*
X245784700Y-107950531D02*
X241590725Y-107950531D01*
X207753225Y-84970531D02*
X207753225Y-70350531D01*
X303538225Y-26488031D02*
X299038225Y-26488031D01*
X79665725Y-142620531D02*
G75*
G02X79165725Y-142120531I0J500000D01*
G01*
X38684475Y-108450531D02*
X38684475Y-123070531D01*
X94785725Y-142120531D02*
G75*
G02X94285725Y-142620531I-500000J0D01*
G01*
X43378450Y-107950531D02*
X39184475Y-107950531D01*
X70973225Y-142120531D02*
X70973225Y-127500531D01*
X43811463Y-107700531D02*
G75*
G02X43378450Y-107950531I-433013J250000D01*
G01*
X48744475Y-107450531D02*
G75*
G02X49177488Y-107700531I0J-500000D01*
G01*
X79665725Y-127000531D02*
X83859700Y-127000531D01*
X54304475Y-123070531D02*
G75*
G02X53804475Y-123570531I-500000J0D01*
G01*
X39184475Y-123570531D02*
X53804475Y-123570531D01*
X38684475Y-108450531D02*
G75*
G02X39184475Y-107950531I500000J0D01*
G01*
X53804475Y-107950531D02*
G75*
G02X54304475Y-108450531I0J-500000D01*
G01*
X54304475Y-123070531D02*
X54304475Y-108450531D01*
X53804475Y-107950531D02*
X49610500Y-107950531D01*
X49610500Y-107950530D02*
G75*
G02X49177488Y-107700531I0J499999D01*
G01*
X70473225Y-127000531D02*
G75*
G02X70973225Y-127500531I0J-500000D01*
G01*
X84292713Y-126750531D02*
G75*
G02X83859700Y-127000531I-433013J250000D01*
G01*
X79165725Y-127500531D02*
G75*
G02X79665725Y-127000531I500000J0D01*
G01*
X79165725Y-142120531D02*
X79165725Y-127500531D01*
X48744475Y-107450531D02*
X44244475Y-107450531D01*
X94285725Y-142620531D02*
X79665725Y-142620531D01*
X39184475Y-123570531D02*
G75*
G02X38684475Y-123070531I0J500000D01*
G01*
X43811462Y-107700531D02*
G75*
G02X44244475Y-107450531I433013J-250000D01*
G01*
X317790725Y-85470531D02*
X332410725Y-85470531D01*
X321984700Y-69850531D02*
X317790725Y-69850531D01*
X290048225Y-27488031D02*
X290048225Y-42108031D01*
X289548225Y-26988031D02*
G75*
G02X290048225Y-27488031I0J-500000D01*
G01*
X341034700Y-107950531D02*
X336840725Y-107950531D01*
X336840725Y-123570531D02*
G75*
G02X336340725Y-123070531I0J500000D01*
G01*
X285354250Y-26988030D02*
G75*
G02X284921238Y-26738031I0J499999D01*
G01*
X279988225Y-26488031D02*
X284488225Y-26488031D01*
X346400725Y-107450531D02*
X341900725Y-107450531D01*
X279555213Y-26738031D02*
G75*
G02X279122200Y-26988031I-433013J250000D01*
G01*
X327350725Y-69350531D02*
X322850725Y-69350531D01*
X274928225Y-26988031D02*
X279122200Y-26988031D01*
X279555212Y-26738031D02*
G75*
G02X279988225Y-26488031I433013J-250000D01*
G01*
X285354250Y-26988031D02*
X289548225Y-26988031D01*
X332410725Y-69850531D02*
X328216750Y-69850531D01*
X289548225Y-42608031D02*
X274928225Y-42608031D01*
X351960725Y-123070531D02*
X351960725Y-108450531D01*
X332410725Y-69850531D02*
G75*
G02X332910725Y-70350531I0J-500000D01*
G01*
X347266750Y-107950530D02*
G75*
G02X346833738Y-107700531I0J499999D01*
G01*
X332910725Y-84970531D02*
X332910725Y-70350531D01*
X327350725Y-69350531D02*
G75*
G02X327783738Y-69600531I0J-500000D01*
G01*
X370510725Y-26988031D02*
G75*
G02X371010725Y-27488031I0J-500000D01*
G01*
X341467712Y-107700531D02*
G75*
G02X341900725Y-107450531I433013J-250000D01*
G01*
X332910725Y-84970531D02*
G75*
G02X332410725Y-85470531I-500000J0D01*
G01*
X322417713Y-69600531D02*
G75*
G02X321984700Y-69850531I-433013J250000D01*
G01*
X290048225Y-42108031D02*
G75*
G02X289548225Y-42608031I-500000J0D01*
G01*
X336340725Y-108450531D02*
X336340725Y-123070531D01*
X336340725Y-108450531D02*
G75*
G02X336840725Y-107950531I500000J0D01*
G01*
X351460725Y-107950531D02*
X347266750Y-107950531D01*
X317290725Y-70350531D02*
X317290725Y-84970531D01*
X317790725Y-85470531D02*
G75*
G02X317290725Y-84970531I0J500000D01*
G01*
X317290725Y-70350531D02*
G75*
G02X317790725Y-69850531I500000J0D01*
G01*
X351960725Y-123070531D02*
G75*
G02X351460725Y-123570531I-500000J0D01*
G01*
X341467713Y-107700531D02*
G75*
G02X341034700Y-107950531I-433013J250000D01*
G01*
X328216750Y-69850530D02*
G75*
G02X327783738Y-69600531I0J499999D01*
G01*
X371010725Y-42108031D02*
X371010725Y-27488031D01*
X346400725Y-107450531D02*
G75*
G02X346833738Y-107700531I0J-500000D01*
G01*
X247254250Y-26988030D02*
G75*
G02X246821238Y-26738031I0J499999D01*
G01*
X336840725Y-123570531D02*
X351460725Y-123570531D01*
X251448225Y-26988031D02*
X247254250Y-26988031D01*
X351460725Y-107950531D02*
G75*
G02X351960725Y-108450531I0J-500000D01*
G01*
X274428225Y-27488031D02*
G75*
G02X274928225Y-26988031I500000J0D01*
G01*
X274428225Y-42108031D02*
X274428225Y-27488031D01*
X274928225Y-42608031D02*
G75*
G02X274428225Y-42108031I0J500000D01*
G01*
X284488225Y-26488031D02*
G75*
G02X284921238Y-26738031I0J-500000D01*
G01*
X322417712Y-69600531D02*
G75*
G02X322850725Y-69350531I433013J-250000D01*
G01*
X241590725Y-127000531D02*
X245784700Y-127000531D01*
X281936463Y-107700531D02*
G75*
G02X281503450Y-107950531I-433013J250000D01*
G01*
X281936462Y-107700531D02*
G75*
G02X282369475Y-107450531I433013J-250000D01*
G01*
X286869475Y-107450531D02*
G75*
G02X287302488Y-107700531I0J-500000D01*
G01*
X241090725Y-142120531D02*
X241090725Y-127500531D01*
X322417712Y-126750531D02*
G75*
G02X322850725Y-126500531I433013J-250000D01*
G01*
X351960725Y-84970531D02*
G75*
G02X351460725Y-85470531I-500000J0D01*
G01*
X341467712Y-69600531D02*
G75*
G02X341900725Y-69350531I433013J-250000D01*
G01*
X346400725Y-69350531D02*
G75*
G02X346833738Y-69600531I0J-500000D01*
G01*
X287735500Y-107950530D02*
G75*
G02X287302488Y-107700531I0J499999D01*
G01*
X291929475Y-107950531D02*
G75*
G02X292429475Y-108450531I0J-500000D01*
G01*
X246217713Y-126750531D02*
G75*
G02X245784700Y-127000531I-433013J250000D01*
G01*
X327350725Y-126500531D02*
X322850725Y-126500531D01*
X241590725Y-142620531D02*
G75*
G02X241090725Y-142120531I0J500000D01*
G01*
X241090725Y-127500531D02*
G75*
G02X241590725Y-127000531I500000J0D01*
G01*
X317290725Y-127500531D02*
G75*
G02X317790725Y-127000531I500000J0D01*
G01*
X327350725Y-126500531D02*
G75*
G02X327783738Y-126750531I0J-500000D01*
G01*
X336840725Y-85470531D02*
X351460725Y-85470531D01*
X317790725Y-142620531D02*
X332410725Y-142620531D01*
X351960725Y-84970531D02*
X351960725Y-70350531D01*
X292429475Y-123070531D02*
X292429475Y-108450531D01*
X341034700Y-69850531D02*
X336840725Y-69850531D01*
X292429475Y-123070531D02*
G75*
G02X291929475Y-123570531I-500000J0D01*
G01*
X251150725Y-126500531D02*
G75*
G02X251583738Y-126750531I0J-500000D01*
G01*
X277309475Y-123570531D02*
G75*
G02X276809475Y-123070531I0J500000D01*
G01*
X276809475Y-108450531D02*
X276809475Y-123070531D01*
X256210725Y-142620531D02*
X241590725Y-142620531D01*
X256710725Y-142120531D02*
G75*
G02X256210725Y-142620531I-500000J0D01*
G01*
X332410725Y-127000531D02*
G75*
G02X332910725Y-127500531I0J-500000D01*
G01*
X281503450Y-107950531D02*
X277309475Y-107950531D01*
X332910725Y-142120531D02*
G75*
G02X332410725Y-142620531I-500000J0D01*
G01*
X252016750Y-127000530D02*
G75*
G02X251583738Y-126750531I0J499999D01*
G01*
X256710725Y-127500531D02*
X256710725Y-142120531D01*
X252016750Y-127000531D02*
X256210725Y-127000531D01*
X332410725Y-127000531D02*
X328216750Y-127000531D01*
X246217712Y-126750531D02*
G75*
G02X246650725Y-126500531I433013J-250000D01*
G01*
X346400725Y-69350531D02*
X341900725Y-69350531D01*
X321984700Y-127000531D02*
X317790725Y-127000531D01*
X322417713Y-126750531D02*
G75*
G02X321984700Y-127000531I-433013J250000D01*
G01*
X155730212Y-26738031D02*
G75*
G02X156163225Y-26488031I433013J-250000D01*
G01*
X317790725Y-142620531D02*
G75*
G02X317290725Y-142120531I0J500000D01*
G01*
X351460725Y-69850531D02*
X347266750Y-69850531D01*
X336840725Y-85470531D02*
G75*
G02X336340725Y-84970531I0J500000D01*
G01*
X351460725Y-69850531D02*
G75*
G02X351960725Y-70350531I0J-500000D01*
G01*
X336340725Y-70350531D02*
G75*
G02X336840725Y-69850531I500000J0D01*
G01*
X291929475Y-107950531D02*
X287735500Y-107950531D01*
X277309475Y-123570531D02*
X291929475Y-123570531D01*
X317290725Y-127500531D02*
X317290725Y-142120531D01*
X246650725Y-126500531D02*
X251150725Y-126500531D01*
X286869475Y-107450531D02*
X282369475Y-107450531D01*
X328216750Y-127000530D02*
G75*
G02X327783738Y-126750531I0J499999D01*
G01*
X336340725Y-70350531D02*
X336340725Y-84970531D01*
X256210725Y-127000531D02*
G75*
G02X256710725Y-127500531I0J-500000D01*
G01*
X347266750Y-69850530D02*
G75*
G02X346833738Y-69600531I0J499999D01*
G01*
X341467713Y-69600531D02*
G75*
G02X341034700Y-69850531I-433013J250000D01*
G01*
X276809475Y-108450531D02*
G75*
G02X277309475Y-107950531I500000J0D01*
G01*
X332910725Y-142120531D02*
X332910725Y-127500531D01*
X152004250Y-50800531D02*
X156198225Y-50800531D01*
X294929475Y-107950531D02*
X296429475Y-107950531D01*
X296429475Y-107950531D02*
G75*
G02X296929475Y-108450531I0J-500000D01*
G01*
X296929475Y-123070531D02*
G75*
G02X296429475Y-123570531I-500000J0D01*
G01*
X201006350Y-129626781D02*
G75*
G02X201506350Y-129126781I500000J0D01*
G01*
X213206350Y-129126781D02*
X201506350Y-129126781D01*
X179713225Y-69350531D02*
X175213225Y-69350531D01*
X201006350Y-129626781D02*
X201006350Y-134976781D01*
X294429475Y-123070531D02*
X294429475Y-108450531D01*
X146205213Y-50550531D02*
G75*
G02X145772200Y-50800531I-433013J250000D01*
G01*
X221972200Y-127000531D02*
X217778225Y-127000531D01*
X174780212Y-69600531D02*
G75*
G02X175213225Y-69350531I433013J-250000D01*
G01*
X146638225Y-50300531D02*
X151138225Y-50300531D01*
X294429475Y-108450531D02*
G75*
G02X294929475Y-107950531I500000J0D01*
G01*
X166223225Y-42108031D02*
X166223225Y-27488031D01*
X151103225Y-42608031D02*
G75*
G02X150603225Y-42108031I0J500000D01*
G01*
X213706350Y-134976781D02*
X213706350Y-129626781D01*
X222405212Y-126750531D02*
G75*
G02X222838225Y-126500531I433013J-250000D01*
G01*
X228204250Y-127000530D02*
G75*
G02X227771238Y-126750531I0J499999D01*
G01*
X156198225Y-66420531D02*
X141578225Y-66420531D01*
X296429475Y-123570531D02*
X294929475Y-123570531D01*
X201506350Y-135476781D02*
X213206350Y-135476781D01*
X227338225Y-126500531D02*
G75*
G02X227771238Y-126750531I0J-500000D01*
G01*
X232398225Y-127000531D02*
X228204250Y-127000531D01*
X217778225Y-142620531D02*
G75*
G02X217278225Y-142120531I0J500000D01*
G01*
X217278225Y-127500531D02*
X217278225Y-142120531D01*
X152004250Y-50800530D02*
G75*
G02X151571238Y-50550531I0J499999D01*
G01*
X174347200Y-69850531D02*
X170153225Y-69850531D01*
X213206350Y-129126781D02*
G75*
G02X213706350Y-129626781I0J-500000D01*
G01*
X232398225Y-127000531D02*
G75*
G02X232898225Y-127500531I0J-500000D01*
G01*
X160663225Y-26488031D02*
X156163225Y-26488031D01*
X141578225Y-66420531D02*
G75*
G02X141078225Y-65920531I0J500000D01*
G01*
X296929475Y-108450531D02*
X296929475Y-123070531D01*
X169653225Y-70350531D02*
X169653225Y-84970531D01*
X294929475Y-123570531D02*
G75*
G02X294429475Y-123070531I0J500000D01*
G01*
X169653225Y-70350531D02*
G75*
G02X170153225Y-69850531I500000J0D01*
G01*
X165723225Y-26988031D02*
G75*
G02X166223225Y-27488031I0J-500000D01*
G01*
X217278225Y-127500531D02*
G75*
G02X217778225Y-127000531I500000J0D01*
G01*
X161529250Y-26988030D02*
G75*
G02X161096238Y-26738031I0J499999D01*
G01*
X150603225Y-27488031D02*
G75*
G02X151103225Y-26988031I500000J0D01*
G01*
X165723225Y-26988031D02*
X161529250Y-26988031D01*
X141078225Y-51300531D02*
G75*
G02X141578225Y-50800531I500000J0D01*
G01*
X166223225Y-42108031D02*
G75*
G02X165723225Y-42608031I-500000J0D01*
G01*
X156698225Y-65920531D02*
G75*
G02X156198225Y-66420531I-500000J0D01*
G01*
X160663225Y-26488031D02*
G75*
G02X161096238Y-26738031I0J-500000D01*
G01*
X151103225Y-42608031D02*
X165723225Y-42608031D01*
X156698225Y-51300531D02*
X156698225Y-65920531D01*
X150603225Y-27488031D02*
X150603225Y-42108031D01*
X155297200Y-26988031D02*
X151103225Y-26988031D01*
X222405213Y-126750531D02*
G75*
G02X221972200Y-127000531I-433013J250000D01*
G01*
X155730213Y-26738031D02*
G75*
G02X155297200Y-26988031I-433013J250000D01*
G01*
X217778225Y-142620531D02*
X232398225Y-142620531D01*
X170153225Y-85470531D02*
G75*
G02X169653225Y-84970531I0J500000D01*
G01*
X141078225Y-65920531D02*
X141078225Y-51300531D01*
X146205212Y-50550531D02*
G75*
G02X146638225Y-50300531I433013J-250000D01*
G01*
X232898225Y-142120531D02*
X232898225Y-127500531D01*
X232898225Y-142120531D02*
G75*
G02X232398225Y-142620531I-500000J0D01*
G01*
X227338225Y-126500531D02*
X222838225Y-126500531D01*
X213706350Y-134976781D02*
G75*
G02X213206350Y-135476781I-500000J0D01*
G01*
X141578225Y-50800531D02*
X145772200Y-50800531D01*
X156198225Y-50800531D02*
G75*
G02X156698225Y-51300531I0J-500000D01*
G01*
X151138225Y-50300531D02*
G75*
G02X151571238Y-50550531I0J-500000D01*
G01*
X174780213Y-69600531D02*
G75*
G02X174347200Y-69850531I-433013J250000D01*
G01*
X201506350Y-135476781D02*
G75*
G02X201006350Y-134976781I0J500000D01*
G01*
X260938225Y-50300531D02*
X265438225Y-50300531D01*
X208253225Y-42608031D02*
G75*
G02X207753225Y-42108031I0J500000D01*
G01*
X136315725Y-89400531D02*
G75*
G02X136815725Y-88900531I500000J0D01*
G01*
X151435725Y-88900531D02*
G75*
G02X151935725Y-89400531I0J-500000D01*
G01*
X266304250Y-50800531D02*
X270498225Y-50800531D01*
X217813225Y-26488031D02*
X213313225Y-26488031D01*
X255378225Y-51300531D02*
G75*
G02X255878225Y-50800531I500000J0D01*
G01*
X147241750Y-88900530D02*
G75*
G02X146808738Y-88650531I0J499999D01*
G01*
X209154250Y-50800530D02*
G75*
G02X208721238Y-50550531I0J499999D01*
G01*
X207753225Y-27488031D02*
X207753225Y-42108031D01*
X213848225Y-51300531D02*
X213848225Y-65920531D01*
X209154250Y-50800531D02*
X213348225Y-50800531D01*
X208288225Y-50300531D02*
G75*
G02X208721238Y-50550531I0J-500000D01*
G01*
X198228225Y-51300531D02*
G75*
G02X198728225Y-50800531I500000J0D01*
G01*
X198228225Y-65920531D02*
X198228225Y-51300531D01*
X198728225Y-66420531D02*
G75*
G02X198228225Y-65920531I0J500000D01*
G01*
X141442713Y-88650531D02*
G75*
G02X141009700Y-88900531I-433013J250000D01*
G01*
X151935725Y-104020531D02*
G75*
G02X151435725Y-104520531I-500000J0D01*
G01*
X203788225Y-50300531D02*
X208288225Y-50300531D01*
X217813225Y-26488031D02*
G75*
G02X218246238Y-26738031I0J-500000D01*
G01*
X146375725Y-88400531D02*
X141875725Y-88400531D01*
X212880212Y-26738031D02*
G75*
G02X213313225Y-26488031I433013J-250000D01*
G01*
X203355212Y-50550531D02*
G75*
G02X203788225Y-50300531I433013J-250000D01*
G01*
X223373225Y-42108031D02*
X223373225Y-27488031D01*
X270998225Y-51300531D02*
X270998225Y-65920531D01*
X213348225Y-66420531D02*
X198728225Y-66420531D01*
X270498225Y-50800531D02*
G75*
G02X270998225Y-51300531I0J-500000D01*
G01*
X141009700Y-88900531D02*
X136815725Y-88900531D01*
X151435725Y-88900531D02*
X147241750Y-88900531D01*
X255378225Y-65920531D02*
X255378225Y-51300531D01*
X179713225Y-69350531D02*
G75*
G02X180146238Y-69600531I0J-500000D01*
G01*
X266304250Y-50800530D02*
G75*
G02X265871238Y-50550531I0J499999D01*
G01*
X136680213Y-69600531D02*
G75*
G02X136247200Y-69850531I-433013J250000D01*
G01*
X180579250Y-69850530D02*
G75*
G02X180146238Y-69600531I0J499999D01*
G01*
X223373225Y-42108031D02*
G75*
G02X222873225Y-42608031I-500000J0D01*
G01*
X184773225Y-69850531D02*
X180579250Y-69850531D01*
X184773225Y-69850531D02*
G75*
G02X185273225Y-70350531I0J-500000D01*
G01*
X213848225Y-65920531D02*
G75*
G02X213348225Y-66420531I-500000J0D01*
G01*
X185273225Y-84970531D02*
X185273225Y-70350531D01*
X260505213Y-50550531D02*
G75*
G02X260072200Y-50800531I-433013J250000D01*
G01*
X185273225Y-84970531D02*
G75*
G02X184773225Y-85470531I-500000J0D01*
G01*
X265438225Y-50300531D02*
G75*
G02X265871238Y-50550531I0J-500000D01*
G01*
X170153225Y-85470531D02*
X184773225Y-85470531D01*
X213348225Y-50800531D02*
G75*
G02X213848225Y-51300531I0J-500000D01*
G01*
X136815725Y-104520531D02*
G75*
G02X136315725Y-104020531I0J500000D01*
G01*
X255878225Y-50800531D02*
X260072200Y-50800531D01*
X212447200Y-26988031D02*
X208253225Y-26988031D01*
X218679250Y-26988030D02*
G75*
G02X218246238Y-26738031I0J499999D01*
G01*
X212880213Y-26738031D02*
G75*
G02X212447200Y-26988031I-433013J250000D01*
G01*
X222873225Y-26988031D02*
G75*
G02X223373225Y-27488031I0J-500000D01*
G01*
X203355213Y-50550531D02*
G75*
G02X202922200Y-50800531I-433013J250000D01*
G01*
X208253225Y-42608031D02*
X222873225Y-42608031D01*
X270998225Y-65920531D02*
G75*
G02X270498225Y-66420531I-500000J0D01*
G01*
X198728225Y-50800531D02*
X202922200Y-50800531D01*
X136315725Y-89400531D02*
X136315725Y-104020531D01*
X151935725Y-104020531D02*
X151935725Y-89400531D01*
X222873225Y-26988031D02*
X218679250Y-26988031D01*
X270498225Y-66420531D02*
X255878225Y-66420531D01*
X141442712Y-88650531D02*
G75*
G02X141875725Y-88400531I433013J-250000D01*
G01*
X255878225Y-66420531D02*
G75*
G02X255378225Y-65920531I0J500000D01*
G01*
X207753225Y-27488031D02*
G75*
G02X208253225Y-26988031I500000J0D01*
G01*
X260505212Y-50550531D02*
G75*
G02X260938225Y-50300531I433013J-250000D01*
G01*
X136815725Y-104520531D02*
X151435725Y-104520531D01*
X146375725Y-88400531D02*
G75*
G02X146808738Y-88650531I0J-500000D01*
G01*
X256175725Y-88400531D02*
X260675725Y-88400531D01*
X147173225Y-70350531D02*
X147173225Y-84970531D01*
X142479250Y-69850530D02*
G75*
G02X142046238Y-69600531I0J499999D01*
G01*
X141613225Y-69350531D02*
G75*
G02X142046238Y-69600531I0J-500000D01*
G01*
X261541750Y-88900530D02*
G75*
G02X261108738Y-88650531I0J499999D01*
G01*
X136680212Y-69600531D02*
G75*
G02X137113225Y-69350531I433013J-250000D01*
G01*
X251448225Y-50800531D02*
X247254250Y-50800531D01*
X255742712Y-88650531D02*
G75*
G02X256175725Y-88400531I433013J-250000D01*
G01*
X203490725Y-107950531D02*
X207684700Y-107950531D01*
X266235725Y-104020531D02*
G75*
G02X265735725Y-104520531I-500000J0D01*
G01*
X226803225Y-70350531D02*
G75*
G02X227303225Y-69850531I500000J0D01*
G01*
X250615725Y-104020531D02*
X250615725Y-89400531D01*
X265735725Y-104520531D02*
X251115725Y-104520531D01*
X202990725Y-123070531D02*
X202990725Y-108450531D01*
X213916750Y-107950531D02*
X218110725Y-107950531D01*
X208550725Y-107450531D02*
X213050725Y-107450531D01*
X227303225Y-85470531D02*
G75*
G02X226803225Y-84970531I0J500000D01*
G01*
X231930212Y-69600531D02*
G75*
G02X232363225Y-69350531I433013J-250000D01*
G01*
X237729250Y-69850530D02*
G75*
G02X237296238Y-69600531I0J499999D01*
G01*
X132053225Y-69850531D02*
X136247200Y-69850531D01*
X131553225Y-70350531D02*
G75*
G02X132053225Y-69850531I500000J0D01*
G01*
X131553225Y-84970531D02*
X131553225Y-70350531D01*
X251448225Y-50800531D02*
G75*
G02X251948225Y-51300531I0J-500000D01*
G01*
X132053225Y-85470531D02*
G75*
G02X131553225Y-84970531I0J500000D01*
G01*
X146673225Y-85470531D02*
X132053225Y-85470531D01*
X137113225Y-69350531D02*
X141613225Y-69350531D01*
X218610725Y-123070531D02*
G75*
G02X218110725Y-123570531I-500000J0D01*
G01*
X265735725Y-88900531D02*
G75*
G02X266235725Y-89400531I0J-500000D01*
G01*
X242423225Y-70350531D02*
X242423225Y-84970531D01*
X218110725Y-107950531D02*
G75*
G02X218610725Y-108450531I0J-500000D01*
G01*
X237729250Y-69850531D02*
X241923225Y-69850531D01*
X147173225Y-84970531D02*
G75*
G02X146673225Y-85470531I-500000J0D01*
G01*
X251115725Y-88900531D02*
X255309700Y-88900531D01*
X146673225Y-69850531D02*
G75*
G02X147173225Y-70350531I0J-500000D01*
G01*
X250615725Y-89400531D02*
G75*
G02X251115725Y-88900531I500000J0D01*
G01*
X231930213Y-69600531D02*
G75*
G02X231497200Y-69850531I-433013J250000D01*
G01*
X218110725Y-123570531D02*
X203490725Y-123570531D01*
X208117712Y-107700531D02*
G75*
G02X208550725Y-107450531I433013J-250000D01*
G01*
X260675725Y-88400531D02*
G75*
G02X261108738Y-88650531I0J-500000D01*
G01*
X242423225Y-84970531D02*
G75*
G02X241923225Y-85470531I-500000J0D01*
G01*
X213916750Y-107950530D02*
G75*
G02X213483738Y-107700531I0J499999D01*
G01*
X236863225Y-69350531D02*
G75*
G02X237296238Y-69600531I0J-500000D01*
G01*
X203490725Y-123570531D02*
G75*
G02X202990725Y-123070531I0J500000D01*
G01*
X202990725Y-108450531D02*
G75*
G02X203490725Y-107950531I500000J0D01*
G01*
X241923225Y-85470531D02*
X227303225Y-85470531D01*
X213050725Y-107450531D02*
G75*
G02X213483738Y-107700531I0J-500000D01*
G01*
X226803225Y-84970531D02*
X226803225Y-70350531D01*
X232363225Y-69350531D02*
X236863225Y-69350531D01*
X251115725Y-104520531D02*
G75*
G02X250615725Y-104020531I0J500000D01*
G01*
X266235725Y-89400531D02*
X266235725Y-104020531D01*
X261541750Y-88900531D02*
X265735725Y-88900531D01*
X255742713Y-88650531D02*
G75*
G02X255309700Y-88900531I-433013J250000D01*
G01*
X208117713Y-107700531D02*
G75*
G02X207684700Y-107950531I-433013J250000D01*
G01*
X142479250Y-69850531D02*
X146673225Y-69850531D01*
X227303225Y-69850531D02*
X231497200Y-69850531D01*
X218610725Y-108450531D02*
X218610725Y-123070531D01*
X241923225Y-69850531D02*
G75*
G02X242423225Y-70350531I0J-500000D01*
G01*
X241022200Y-50800531D02*
X236828225Y-50800531D01*
X108105212Y-50550531D02*
G75*
G02X108538225Y-50300531I433013J-250000D01*
G01*
X241455213Y-50550531D02*
G75*
G02X241022200Y-50800531I-433013J250000D01*
G01*
X246388225Y-50300531D02*
X241888225Y-50300531D01*
X217278225Y-51300531D02*
G75*
G02X217778225Y-50800531I500000J0D01*
G01*
X245853225Y-70350531D02*
X245853225Y-84970531D01*
X112867713Y-107700531D02*
G75*
G02X112434700Y-107950531I-433013J250000D01*
G01*
X222405213Y-50550531D02*
G75*
G02X221972200Y-50800531I-433013J250000D01*
G01*
X250547200Y-69850531D02*
X246353225Y-69850531D01*
X102978225Y-51300531D02*
G75*
G02X103478225Y-50800531I500000J0D01*
G01*
X232898225Y-65920531D02*
X232898225Y-51300531D01*
X112434700Y-107950531D02*
X108240725Y-107950531D01*
X250980212Y-69600531D02*
G75*
G02X251413225Y-69350531I433013J-250000D01*
G01*
X103478225Y-66420531D02*
X118098225Y-66420531D01*
X108240725Y-123570531D02*
G75*
G02X107740725Y-123070531I0J500000D01*
G01*
X260973225Y-69850531D02*
G75*
G02X261473225Y-70350531I0J-500000D01*
G01*
X113038225Y-50300531D02*
G75*
G02X113471238Y-50550531I0J-500000D01*
G01*
X118098225Y-50800531D02*
G75*
G02X118598225Y-51300531I0J-500000D01*
G01*
X241455212Y-50550531D02*
G75*
G02X241888225Y-50300531I433013J-250000D01*
G01*
X246388225Y-50300531D02*
G75*
G02X246821238Y-50550531I0J-500000D01*
G01*
X122860725Y-107950531D02*
G75*
G02X123360725Y-108450531I0J-500000D01*
G01*
X247254250Y-50800530D02*
G75*
G02X246821238Y-50550531I0J499999D01*
G01*
X122860725Y-107950531D02*
X118666750Y-107950531D01*
X123360725Y-123070531D02*
X123360725Y-108450531D01*
X227338225Y-50300531D02*
G75*
G02X227771238Y-50550531I0J-500000D01*
G01*
X228204250Y-50800530D02*
G75*
G02X227771238Y-50550531I0J499999D01*
G01*
X217778225Y-66420531D02*
X232398225Y-66420531D01*
X217778225Y-66420531D02*
G75*
G02X217278225Y-65920531I0J500000D01*
G01*
X261473225Y-84970531D02*
G75*
G02X260973225Y-85470531I-500000J0D01*
G01*
X246353225Y-85470531D02*
X260973225Y-85470531D01*
X102978225Y-51300531D02*
X102978225Y-65920531D01*
X232398225Y-50800531D02*
X228204250Y-50800531D01*
X256779250Y-69850530D02*
G75*
G02X256346238Y-69600531I0J499999D01*
G01*
X232398225Y-50800531D02*
G75*
G02X232898225Y-51300531I0J-500000D01*
G01*
X232898225Y-65920531D02*
G75*
G02X232398225Y-66420531I-500000J0D01*
G01*
X113904250Y-50800530D02*
G75*
G02X113471238Y-50550531I0J499999D01*
G01*
X118598225Y-65920531D02*
G75*
G02X118098225Y-66420531I-500000J0D01*
G01*
X260973225Y-69850531D02*
X256779250Y-69850531D01*
X261473225Y-84970531D02*
X261473225Y-70350531D01*
X118598225Y-65920531D02*
X118598225Y-51300531D01*
X107740725Y-108450531D02*
G75*
G02X108240725Y-107950531I500000J0D01*
G01*
X108105213Y-50550531D02*
G75*
G02X107672200Y-50800531I-433013J250000D01*
G01*
X222405212Y-50550531D02*
G75*
G02X222838225Y-50300531I433013J-250000D01*
G01*
X227338225Y-50300531D02*
X222838225Y-50300531D01*
X255913225Y-69350531D02*
X251413225Y-69350531D01*
X255913225Y-69350531D02*
G75*
G02X256346238Y-69600531I0J-500000D01*
G01*
X118098225Y-50800531D02*
X113904250Y-50800531D01*
X221972200Y-50800531D02*
X217778225Y-50800531D01*
X245853225Y-70350531D02*
G75*
G02X246353225Y-69850531I500000J0D01*
G01*
X250980213Y-69600531D02*
G75*
G02X250547200Y-69850531I-433013J250000D01*
G01*
X113038225Y-50300531D02*
X108538225Y-50300531D01*
X123360725Y-123070531D02*
G75*
G02X122860725Y-123570531I-500000J0D01*
G01*
X251948225Y-65920531D02*
X251948225Y-51300531D01*
X107740725Y-108450531D02*
X107740725Y-123070531D01*
X251948225Y-65920531D02*
G75*
G02X251448225Y-66420531I-500000J0D01*
G01*
X236828225Y-66420531D02*
X251448225Y-66420531D01*
X236828225Y-66420531D02*
G75*
G02X236328225Y-65920531I0J500000D01*
G01*
X236328225Y-51300531D02*
X236328225Y-65920531D01*
X236328225Y-51300531D02*
G75*
G02X236828225Y-50800531I500000J0D01*
G01*
X217278225Y-51300531D02*
X217278225Y-65920531D01*
X107672200Y-50800531D02*
X103478225Y-50800531D01*
X246353225Y-85470531D02*
G75*
G02X245853225Y-84970531I0J500000D01*
G01*
X103478225Y-66420531D02*
G75*
G02X102978225Y-65920531I0J500000D01*
G01*
X108240725Y-123570531D02*
X122860725Y-123570531D01*
X151400725Y-107450531D02*
X155900725Y-107450531D01*
X117800725Y-107450531D02*
G75*
G02X118233738Y-107700531I0J-500000D01*
G01*
X371010725Y-84970531D02*
X371010725Y-70350531D01*
X118666750Y-107950530D02*
G75*
G02X118233738Y-107700531I0J499999D01*
G01*
X274309475Y-107950531D02*
X272809475Y-107950531D01*
X103478225Y-127000531D02*
X107672200Y-127000531D01*
X365450725Y-69350531D02*
X360950725Y-69350531D01*
X280023225Y-127000531D02*
X275829250Y-127000531D01*
X272809475Y-123570531D02*
G75*
G02X272309475Y-123070531I0J500000D01*
G01*
X272309475Y-108450531D02*
X272309475Y-123070531D01*
X113038225Y-126500531D02*
G75*
G02X113471238Y-126750531I0J-500000D01*
G01*
X272309475Y-108450531D02*
G75*
G02X272809475Y-107950531I500000J0D01*
G01*
X284703225Y-96745531D02*
X299323225Y-96745531D01*
X274309475Y-107950531D02*
G75*
G02X274809475Y-108450531I0J-500000D01*
G01*
X280023225Y-127000531D02*
G75*
G02X280523225Y-127500531I0J-500000D01*
G01*
X274809475Y-123070531D02*
X274809475Y-108450531D01*
X118098225Y-142620531D02*
X103478225Y-142620531D01*
X274809475Y-123070531D02*
G75*
G02X274309475Y-123570531I-500000J0D01*
G01*
X284203225Y-98745531D02*
X284203225Y-97245531D01*
X274963225Y-126500531D02*
X270463225Y-126500531D01*
X269597200Y-127000531D02*
X265403225Y-127000531D01*
X299323225Y-99245531D02*
X284703225Y-99245531D01*
X360517712Y-69600531D02*
G75*
G02X360950725Y-69350531I433013J-250000D01*
G01*
X366316750Y-69850530D02*
G75*
G02X365883738Y-69600531I0J499999D01*
G01*
X299823225Y-98745531D02*
G75*
G02X299323225Y-99245531I-500000J0D01*
G01*
X299323225Y-96745531D02*
G75*
G02X299823225Y-97245531I0J-500000D01*
G01*
X108105213Y-126750531D02*
G75*
G02X107672200Y-127000531I-433013J250000D01*
G01*
X118098225Y-127000531D02*
G75*
G02X118598225Y-127500531I0J-500000D01*
G01*
X102978225Y-127500531D02*
G75*
G02X103478225Y-127000531I500000J0D01*
G01*
X360517713Y-69600531D02*
G75*
G02X360084700Y-69850531I-433013J250000D01*
G01*
X102978225Y-142120531D02*
X102978225Y-127500531D01*
X365450725Y-69350531D02*
G75*
G02X365883738Y-69600531I0J-500000D01*
G01*
X118598225Y-142120531D02*
G75*
G02X118098225Y-142620531I-500000J0D01*
G01*
X265403225Y-142620531D02*
G75*
G02X264903225Y-142120531I0J500000D01*
G01*
X264903225Y-127500531D02*
G75*
G02X265403225Y-127000531I500000J0D01*
G01*
X118598225Y-127500531D02*
X118598225Y-142120531D01*
X113904250Y-127000531D02*
X118098225Y-127000531D01*
X355390725Y-70350531D02*
X355390725Y-84970531D01*
X370510725Y-69850531D02*
G75*
G02X371010725Y-70350531I0J-500000D01*
G01*
X355890725Y-85470531D02*
G75*
G02X355390725Y-84970531I0J500000D01*
G01*
X280523225Y-142120531D02*
X280523225Y-127500531D01*
X355890725Y-85470531D02*
X370510725Y-85470531D01*
X274963225Y-126500531D02*
G75*
G02X275396238Y-126750531I0J-500000D01*
G01*
X275829250Y-127000530D02*
G75*
G02X275396238Y-126750531I0J499999D01*
G01*
X108538225Y-126500531D02*
X113038225Y-126500531D01*
X265403225Y-142620531D02*
X280023225Y-142620531D01*
X270030213Y-126750531D02*
G75*
G02X269597200Y-127000531I-433013J250000D01*
G01*
X272809475Y-123570531D02*
X274309475Y-123570531D01*
X284203225Y-97245531D02*
G75*
G02X284703225Y-96745531I500000J0D01*
G01*
X284703225Y-99245531D02*
G75*
G02X284203225Y-98745531I0J500000D01*
G01*
X280523225Y-142120531D02*
G75*
G02X280023225Y-142620531I-500000J0D01*
G01*
X355390725Y-70350531D02*
G75*
G02X355890725Y-69850531I500000J0D01*
G01*
X360084700Y-69850531D02*
X355890725Y-69850531D01*
X270030212Y-126750531D02*
G75*
G02X270463225Y-126500531I433013J-250000D01*
G01*
X103478225Y-142620531D02*
G75*
G02X102978225Y-142120531I0J500000D01*
G01*
X113904250Y-127000530D02*
G75*
G02X113471238Y-126750531I0J499999D01*
G01*
X112867712Y-107700531D02*
G75*
G02X113300725Y-107450531I433013J-250000D01*
G01*
X117800725Y-107450531D02*
X113300725Y-107450531D01*
X370510725Y-69850531D02*
X366316750Y-69850531D01*
X108105212Y-126750531D02*
G75*
G02X108538225Y-126500531I433013J-250000D01*
G01*
X299823225Y-97245531D02*
X299823225Y-98745531D01*
X150967712Y-107700531D02*
G75*
G02X151400725Y-107450531I433013J-250000D01*
G01*
X264903225Y-127500531D02*
X264903225Y-142120531D01*
X371010725Y-84970531D02*
G75*
G02X370510725Y-85470531I-500000J0D01*
G01*
X189203225Y-42608031D02*
X203823225Y-42608031D01*
X134370100Y-129126781D02*
G75*
G02X134870100Y-129626781I0J-500000D01*
G01*
X255378225Y-27488031D02*
G75*
G02X255878225Y-26988031I500000J0D01*
G01*
X198763225Y-26488031D02*
X194263225Y-26488031D01*
X241455213Y-26738031D02*
G75*
G02X241022200Y-26988031I-433013J250000D01*
G01*
X199629250Y-26988030D02*
G75*
G02X199196238Y-26738031I0J499999D01*
G01*
X203823225Y-26988031D02*
G75*
G02X204323225Y-27488031I0J-500000D01*
G01*
X270498225Y-26988031D02*
G75*
G02X270998225Y-27488031I0J-500000D01*
G01*
X188703225Y-27488031D02*
G75*
G02X189203225Y-26988031I500000J0D01*
G01*
X255378225Y-42108031D02*
X255378225Y-27488031D01*
X270998225Y-42108031D02*
G75*
G02X270498225Y-42608031I-500000J0D01*
G01*
X246388225Y-26488031D02*
X241888225Y-26488031D01*
X251948225Y-42108031D02*
G75*
G02X251448225Y-42608031I-500000J0D01*
G01*
X260938225Y-26488031D02*
X265438225Y-26488031D01*
X260505212Y-26738031D02*
G75*
G02X260938225Y-26488031I433013J-250000D01*
G01*
X246388225Y-26488031D02*
G75*
G02X246821238Y-26738031I0J-500000D01*
G01*
X255878225Y-42608031D02*
G75*
G02X255378225Y-42108031I0J500000D01*
G01*
X241455212Y-26738031D02*
G75*
G02X241888225Y-26488031I433013J-250000D01*
G01*
X270498225Y-42608031D02*
X255878225Y-42608031D01*
X193397200Y-26988031D02*
X189203225Y-26988031D01*
X266304250Y-26988031D02*
X270498225Y-26988031D01*
X266304250Y-26988030D02*
G75*
G02X265871238Y-26738031I0J499999D01*
G01*
X260505213Y-26738031D02*
G75*
G02X260072200Y-26988031I-433013J250000D01*
G01*
X255878225Y-26988031D02*
X260072200Y-26988031D01*
X270998225Y-27488031D02*
X270998225Y-42108031D01*
X188703225Y-27488031D02*
X188703225Y-42108031D01*
X236328225Y-27488031D02*
X236328225Y-42108031D01*
X265438225Y-26488031D02*
G75*
G02X265871238Y-26738031I0J-500000D01*
G01*
X236828225Y-42608031D02*
X251448225Y-42608031D01*
X193830212Y-26738031D02*
G75*
G02X194263225Y-26488031I433013J-250000D01*
G01*
X189203225Y-42608031D02*
G75*
G02X188703225Y-42108031I0J500000D01*
G01*
X193830213Y-26738031D02*
G75*
G02X193397200Y-26988031I-433013J250000D01*
G01*
X198763225Y-26488031D02*
G75*
G02X199196238Y-26738031I0J-500000D01*
G01*
X203823225Y-26988031D02*
X199629250Y-26988031D01*
X204323225Y-42108031D02*
X204323225Y-27488031D01*
X204323225Y-42108031D02*
G75*
G02X203823225Y-42608031I-500000J0D01*
G01*
X236328225Y-27488031D02*
G75*
G02X236828225Y-26988031I500000J0D01*
G01*
X251948225Y-42108031D02*
X251948225Y-27488031D01*
X236828225Y-42608031D02*
G75*
G02X236328225Y-42108031I0J500000D01*
G01*
X122170100Y-134976781D02*
X122170100Y-129626781D01*
X241022200Y-26988031D02*
X236828225Y-26988031D01*
X122670100Y-135476781D02*
G75*
G02X122170100Y-134976781I0J500000D01*
G01*
X251448225Y-26988031D02*
G75*
G02X251948225Y-27488031I0J-500000D01*
G01*
X134370100Y-135476781D02*
X122670100Y-135476781D01*
X134870100Y-134976781D02*
G75*
G02X134370100Y-135476781I-500000J0D01*
G01*
X134870100Y-129626781D02*
X134870100Y-134976781D01*
X160628225Y-142620531D02*
G75*
G02X160128225Y-142120531I0J500000D01*
G01*
X341467712Y-50550531D02*
G75*
G02X341900725Y-50300531I433013J-250000D01*
G01*
X198592712Y-88650531D02*
G75*
G02X199025725Y-88400531I433013J-250000D01*
G01*
X132885725Y-104020531D02*
G75*
G02X132385725Y-104520531I-500000J0D01*
G01*
X160128225Y-142120531D02*
X160128225Y-127500531D01*
X170188225Y-126500531D02*
G75*
G02X170621238Y-126750531I0J-500000D01*
G01*
X132385725Y-88900531D02*
G75*
G02X132885725Y-89400531I0J-500000D01*
G01*
X117265725Y-89400531D02*
X117265725Y-104020531D01*
X117265725Y-89400531D02*
G75*
G02X117765725Y-88900531I500000J0D01*
G01*
X122392712Y-88650531D02*
G75*
G02X122825725Y-88400531I433013J-250000D01*
G01*
X351960725Y-65920531D02*
X351960725Y-51300531D01*
X121959700Y-88900531D02*
X117765725Y-88900531D01*
X127325725Y-88400531D02*
X122825725Y-88400531D01*
X165255213Y-126750531D02*
G75*
G02X164822200Y-127000531I-433013J250000D01*
G01*
X347266750Y-50800530D02*
G75*
G02X346833738Y-50550531I0J499999D01*
G01*
X198592713Y-88650531D02*
G75*
G02X198159700Y-88900531I-433013J250000D01*
G01*
X171054250Y-127000531D02*
X175248225Y-127000531D01*
X336340725Y-51300531D02*
G75*
G02X336840725Y-50800531I500000J0D01*
G01*
X165255212Y-126750531D02*
G75*
G02X165688225Y-126500531I433013J-250000D01*
G01*
X341034700Y-50800531D02*
X336840725Y-50800531D01*
X175248225Y-127000531D02*
G75*
G02X175748225Y-127500531I0J-500000D01*
G01*
X203525725Y-88400531D02*
X199025725Y-88400531D01*
X175748225Y-142120531D02*
G75*
G02X175248225Y-142620531I-500000J0D01*
G01*
X346400725Y-50300531D02*
G75*
G02X346833738Y-50550531I0J-500000D01*
G01*
X341467713Y-50550531D02*
G75*
G02X341034700Y-50800531I-433013J250000D01*
G01*
X117765725Y-104520531D02*
X132385725Y-104520531D01*
X160628225Y-127000531D02*
X164822200Y-127000531D01*
X117765725Y-104520531D02*
G75*
G02X117265725Y-104020531I0J500000D01*
G01*
X127325725Y-88400531D02*
G75*
G02X127758738Y-88650531I0J-500000D01*
G01*
X128191750Y-88900530D02*
G75*
G02X127758738Y-88650531I0J499999D01*
G01*
X132385725Y-88900531D02*
X128191750Y-88900531D01*
X175248225Y-142620531D02*
X160628225Y-142620531D01*
X175748225Y-127500531D02*
X175748225Y-142120531D01*
X171054250Y-127000530D02*
G75*
G02X170621238Y-126750531I0J499999D01*
G01*
X160128225Y-127500531D02*
G75*
G02X160628225Y-127000531I500000J0D01*
G01*
X346400725Y-50300531D02*
X341900725Y-50300531D01*
X351460725Y-50800531D02*
G75*
G02X351960725Y-51300531I0J-500000D01*
G01*
X122392713Y-88650531D02*
G75*
G02X121959700Y-88900531I-433013J250000D01*
G01*
X193965725Y-104520531D02*
X208585725Y-104520531D01*
X193965725Y-104520531D02*
G75*
G02X193465725Y-104020531I0J500000D01*
G01*
X132885725Y-104020531D02*
X132885725Y-89400531D01*
X165688225Y-126500531D02*
X170188225Y-126500531D01*
X193465725Y-89400531D02*
X193465725Y-104020531D01*
X193465725Y-89400531D02*
G75*
G02X193965725Y-88900531I500000J0D01*
G01*
X198159700Y-88900531D02*
X193965725Y-88900531D01*
X351460725Y-50800531D02*
X347266750Y-50800531D01*
X355390725Y-27488031D02*
X355390725Y-42108031D01*
X279988225Y-50300531D02*
X284488225Y-50300531D01*
X274428225Y-51300531D02*
G75*
G02X274928225Y-50800531I500000J0D01*
G01*
X360517713Y-26738031D02*
G75*
G02X360084700Y-26988031I-433013J250000D01*
G01*
X199060725Y-123570531D02*
X184440725Y-123570531D01*
X274928225Y-66420531D02*
G75*
G02X274428225Y-65920531I0J500000D01*
G01*
X183940725Y-108450531D02*
G75*
G02X184440725Y-107950531I500000J0D01*
G01*
X355890725Y-42608031D02*
G75*
G02X355390725Y-42108031I0J500000D01*
G01*
X366316750Y-26988030D02*
G75*
G02X365883738Y-26738031I0J499999D01*
G01*
X199060725Y-107950531D02*
G75*
G02X199560725Y-108450531I0J-500000D01*
G01*
X204391750Y-88900530D02*
G75*
G02X203958738Y-88650531I0J499999D01*
G01*
X355390725Y-27488031D02*
G75*
G02X355890725Y-26988031I500000J0D01*
G01*
X289548225Y-50800531D02*
G75*
G02X290048225Y-51300531I0J-500000D01*
G01*
X208585725Y-88900531D02*
X204391750Y-88900531D01*
X285354250Y-50800531D02*
X289548225Y-50800531D01*
X360084700Y-26988031D02*
X355890725Y-26988031D01*
X370510725Y-26988031D02*
X366316750Y-26988031D01*
X279555213Y-50550531D02*
G75*
G02X279122200Y-50800531I-433013J250000D01*
G01*
X290048225Y-65920531D02*
G75*
G02X289548225Y-66420531I-500000J0D01*
G01*
X365450725Y-26488031D02*
X360950725Y-26488031D01*
X365450725Y-26488031D02*
G75*
G02X365883738Y-26738031I0J-500000D01*
G01*
X194866750Y-107950530D02*
G75*
G02X194433738Y-107700531I0J499999D01*
G01*
X199560725Y-108450531D02*
X199560725Y-123070531D01*
X284488225Y-50300531D02*
G75*
G02X284921238Y-50550531I0J-500000D01*
G01*
X189067712Y-107700531D02*
G75*
G02X189500725Y-107450531I433013J-250000D01*
G01*
X209085725Y-104020531D02*
G75*
G02X208585725Y-104520531I-500000J0D01*
G01*
X189067713Y-107700531D02*
G75*
G02X188634700Y-107950531I-433013J250000D01*
G01*
X274928225Y-50800531D02*
X279122200Y-50800531D01*
X290048225Y-51300531D02*
X290048225Y-65920531D01*
X183940725Y-123070531D02*
X183940725Y-108450531D01*
X184440725Y-123570531D02*
G75*
G02X183940725Y-123070531I0J500000D01*
G01*
X194000725Y-107450531D02*
G75*
G02X194433738Y-107700531I0J-500000D01*
G01*
X285354250Y-50800530D02*
G75*
G02X284921238Y-50550531I0J499999D01*
G01*
X208585725Y-88900531D02*
G75*
G02X209085725Y-89400531I0J-500000D01*
G01*
X209085725Y-104020531D02*
X209085725Y-89400531D01*
X184440725Y-107950531D02*
X188634700Y-107950531D01*
X199560725Y-123070531D02*
G75*
G02X199060725Y-123570531I-500000J0D01*
G01*
X194866750Y-107950531D02*
X199060725Y-107950531D01*
X203525725Y-88400531D02*
G75*
G02X203958738Y-88650531I0J-500000D01*
G01*
X279555212Y-50550531D02*
G75*
G02X279988225Y-50300531I433013J-250000D01*
G01*
X371010725Y-42108031D02*
G75*
G02X370510725Y-42608031I-500000J0D01*
G01*
X189500725Y-107450531D02*
X194000725Y-107450531D01*
X274428225Y-65920531D02*
X274428225Y-51300531D01*
X360517712Y-26738031D02*
G75*
G02X360950725Y-26488031I433013J-250000D01*
G01*
X289548225Y-66420531D02*
X274928225Y-66420531D01*
X355890725Y-42608031D02*
X370510725Y-42608031D01*
G04 #@! TD*
M02*
